<?xml version="1.0" encoding="UTF-8" standalone="no"?>
<svg xmlns="http://www.w3.org/2000/svg" viewBox="0 0 1920 640" width="1920" height="640">
  <title>v7-fluid-savane</title>
  <defs>
    <linearGradient id="grad-savane" x1="0%" y1="0%" x2="0%" y2="100%"><stop offset="0%" stop-color="rgb(210,95,50)"/><stop offset="100%" stop-color="rgb(217,138,70)"/></linearGradient>
  </defs>
  <rect width="1920" height="640" fill="url(#grad-savane)"/>
  <polygon points="1920.0,640.0 1920.0,286.0 1910.0,286.0 1900.0,285.9 1890.0,285.7 1880.0,285.6 1870.0,285.3 1860.0,285.1 1850.0,284.8 1840.0,284.4 1830.0,284.0 1820.0,283.6 1810.0,283.1 1800.0,282.5 1790.0,282.0 1780.0,281.4 1770.0,280.7 1760.0,280.0 1750.0,279.3 1740.0,278.5 1730.0,277.7 1720.0,276.9 1710.0,276.1 1700.0,275.2 1690.0,274.2 1680.0,273.3 1670.0,272.3 1660.0,271.3 1650.0,270.3 1640.0,269.2 1630.0,268.2 1620.0,267.1 1610.0,266.0 1600.0,264.9 1590.0,263.7 1580.0,262.6 1570.0,261.4 1560.0,260.3 1550.0,259.1 1540.0,257.9 1530.0,256.8 1520.0,255.6 1510.0,254.4 1500.0,253.2 1490.0,252.1 1480.0,250.9 1470.0,249.7 1460.0,248.6 1450.0,247.4 1440.0,246.3 1430.0,245.2 1420.0,244.1 1410.0,243.1 1400.0,242.0 1390.0,241.0 1380.0,240.0 1370.0,239.0 1360.0,238.0 1350.0,237.1 1340.0,236.2 1330.0,235.3 1320.0,234.5 1310.0,233.7 1300.0,232.9 1290.0,232.2 1280.0,231.5 1270.0,230.8 1260.0,230.2 1250.0,229.6 1240.0,229.1 1230.0,228.6 1220.0,228.1 1210.0,227.7 1200.0,227.3 1190.0,227.0 1180.0,226.7 1170.0,226.5 1160.0,226.3 1150.0,226.2 1140.0,226.1 1130.0,226.0 1120.0,226.0 1110.0,226.0 1100.0,226.1 1090.0,226.3 1080.0,226.4 1070.0,226.7 1060.0,226.9 1050.0,227.2 1040.0,227.6 1030.0,228.0 1020.0,228.4 1010.0,228.9 1000.0,229.5 990.0,230.0 980.0,230.6 970.0,231.3 960.0,232.0 950.0,232.7 940.0,233.5 930.0,234.3 920.0,235.1 910.0,235.9 900.0,236.8 890.0,237.8 880.0,238.7 870.0,239.7 860.0,240.7 850.0,241.7 840.0,242.8 830.0,243.8 820.0,244.9 810.0,246.0 800.0,247.1 790.0,248.3 780.0,249.4 770.0,250.6 760.0,251.7 750.0,252.9 740.0,254.1 730.0,255.2 720.0,256.4 710.0,257.6 700.0,258.8 690.0,259.9 680.0,261.1 670.0,262.3 660.0,263.4 650.0,264.6 640.0,265.7 630.0,266.8 620.0,267.9 610.0,268.9 600.0,270.0 590.0,271.0 580.0,272.0 570.0,273.0 560.0,274.0 550.0,274.9 540.0,275.8 530.0,276.7 520.0,277.5 510.0,278.3 500.0,279.1 490.0,279.8 480.0,280.5 470.0,281.2 460.0,281.8 450.0,282.4 440.0,282.9 430.0,283.4 420.0,283.9 410.0,284.3 400.0,284.7 390.0,285.0 380.0,285.3 370.0,285.5 360.0,285.7 350.0,285.8 340.0,285.9 330.0,286.0 320.0,286.0 310.0,286.0 300.0,285.9 290.0,285.7 280.0,285.6 270.0,285.3 260.0,285.1 250.0,284.8 240.0,284.4 230.0,284.0 220.0,283.6 210.0,283.1 200.0,282.5 190.0,282.0 180.0,281.4 170.0,280.7 160.0,280.0 150.0,279.3 140.0,278.5 130.0,277.7 120.0,276.9 110.0,276.1 100.0,275.2 90.0,274.2 80.0,273.3 70.0,272.3 60.0,271.3 50.0,270.3 40.0,269.2 30.0,268.2 20.0,267.1 10.0,266.0 0.0,264.9 0.0,640.0" fill="rgb(180,105,50)" fill-opacity="0.941"/>
  <polygon points="1920.0,640.0 1920.0,345.2 1910.0,347.0 1900.0,348.8 1890.0,350.6 1880.0,352.5 1870.0,354.3 1860.0,356.1 1850.0,357.9 1840.0,359.7 1830.0,361.5 1820.0,363.3 1810.0,365.0 1800.0,366.8 1790.0,368.5 1780.0,370.1 1770.0,371.7 1760.0,373.3 1750.0,374.8 1740.0,376.3 1730.0,377.7 1720.0,379.1 1710.0,380.4 1700.0,381.7 1690.0,382.9 1680.0,384.0 1670.0,385.1 1660.0,386.1 1650.0,387.0 1640.0,387.8 1630.0,388.6 1620.0,389.3 1610.0,389.9 1600.0,390.5 1590.0,390.9 1580.0,391.3 1570.0,391.6 1560.0,391.8 1550.0,392.0 1540.0,392.0 1530.0,392.0 1520.0,391.8 1510.0,391.6 1500.0,391.3 1490.0,391.0 1480.0,390.5 1470.0,390.0 1460.0,389.4 1450.0,388.7 1440.0,387.9 1430.0,387.1 1420.0,386.1 1410.0,385.1 1400.0,384.1 1390.0,383.0 1380.0,381.8 1370.0,380.5 1360.0,379.2 1350.0,377.8 1340.0,376.4 1330.0,374.9 1320.0,373.4 1310.0,371.8 1300.0,370.2 1290.0,368.6 1280.0,366.9 1270.0,365.2 1260.0,363.4 1250.0,361.7 1240.0,359.9 1230.0,358.1 1220.0,356.2 1210.0,354.4 1200.0,352.6 1190.0,350.8 1180.0,348.9 1170.0,347.1 1160.0,345.3 1150.0,343.5 1140.0,341.7 1130.0,339.9 1120.0,338.2 1110.0,336.5 1100.0,334.8 1090.0,333.2 1080.0,331.6 1070.0,330.0 1060.0,328.5 1050.0,327.1 1040.0,325.7 1030.0,324.3 1020.0,323.0 1010.0,321.8 1000.0,320.6 990.0,319.5 980.0,318.5 970.0,317.5 960.0,316.6 950.0,315.8 940.0,315.1 930.0,314.4 920.0,313.8 910.0,313.3 900.0,312.9 890.0,312.5 880.0,312.3 870.0,312.1 860.0,312.0 850.0,312.0 840.0,312.1 830.0,312.2 820.0,312.5 810.0,312.8 800.0,313.2 790.0,313.7 780.0,314.3 770.0,314.9 760.0,315.6 750.0,316.5 740.0,317.3 730.0,318.3 720.0,319.3 710.0,320.4 700.0,321.5 690.0,322.8 680.0,324.0 670.0,325.4 660.0,326.8 650.0,328.2 640.0,329.7 630.0,331.3 620.0,332.9 610.0,334.5 600.0,336.2 590.0,337.9 580.0,339.6 570.0,341.3 560.0,343.1 550.0,344.9 540.0,346.7 530.0,348.5 520.0,350.4 510.0,352.2 500.0,354.0 490.0,355.9 480.0,357.7 470.0,359.5 460.0,361.3 450.0,363.1 440.0,364.8 430.0,366.5 420.0,368.2 410.0,369.9 400.0,371.5 390.0,373.1 380.0,374.6 370.0,376.1 360.0,377.5 350.0,378.9 340.0,380.2 330.0,381.5 320.0,382.7 310.0,383.9 300.0,384.9 290.0,385.9 280.0,386.9 270.0,387.7 260.0,388.5 250.0,389.2 240.0,389.9 230.0,390.4 220.0,390.9 210.0,391.3 200.0,391.6 190.0,391.8 180.0,391.9 170.0,392.0 160.0,392.0 150.0,391.9 140.0,391.7 130.0,391.4 120.0,391.0 110.0,390.6 100.0,390.1 90.0,389.5 80.0,388.8 70.0,388.0 60.0,387.2 50.0,386.3 40.0,385.3 30.0,384.2 20.0,383.1 10.0,381.9 0.0,380.7 0.0,640.0" fill="rgb(170,65,18)" fill-opacity="0.902"/>
  <polygon points="1920.0,640.0 1920.0,494.5 1910.0,494.2 1900.0,493.8 1890.0,493.4 1880.0,493.0 1870.0,492.5 1860.0,492.1 1850.0,491.5 1840.0,491.0 1830.0,490.4 1820.0,489.7 1810.0,489.1 1800.0,488.4 1790.0,487.7 1780.0,486.9 1770.0,486.1 1760.0,485.3 1750.0,484.5 1740.0,483.6 1730.0,482.8 1720.0,481.9 1710.0,480.9 1700.0,480.0 1690.0,479.0 1680.0,478.0 1670.0,477.0 1660.0,476.0 1650.0,475.0 1640.0,473.9 1630.0,472.8 1620.0,471.8 1610.0,470.7 1600.0,469.6 1590.0,468.4 1580.0,467.3 1570.0,466.2 1560.0,465.1 1550.0,463.9 1540.0,462.8 1530.0,461.6 1520.0,460.5 1510.0,459.3 1500.0,458.2 1490.0,457.1 1480.0,455.9 1470.0,454.8 1460.0,453.7 1450.0,452.5 1440.0,451.4 1430.0,450.3 1420.0,449.3 1410.0,448.2 1400.0,447.1 1390.0,446.1 1380.0,445.0 1370.0,444.0 1360.0,443.0 1350.0,442.1 1340.0,441.1 1330.0,440.2 1320.0,439.2 1310.0,438.4 1300.0,437.5 1290.0,436.6 1280.0,435.8 1270.0,435.0 1260.0,434.3 1250.0,433.5 1240.0,432.8 1230.0,432.2 1220.0,431.5 1210.0,430.9 1200.0,430.3 1190.0,429.8 1180.0,429.3 1170.0,428.8 1160.0,428.3 1150.0,427.9 1140.0,427.6 1130.0,427.2 1120.0,426.9 1110.0,426.6 1100.0,426.4 1090.0,426.2 1080.0,426.1 1070.0,425.9 1060.0,425.9 1050.0,425.8 1040.0,425.8 1030.0,425.8 1020.0,425.9 1010.0,426.0 1000.0,426.1 990.0,426.3 980.0,426.5 970.0,426.8 960.0,427.1 950.0,427.4 940.0,427.8 930.0,428.2 920.0,428.6 910.0,429.1 900.0,429.5 890.0,430.1 880.0,430.6 870.0,431.2 860.0,431.9 850.0,432.5 840.0,433.2 830.0,433.9 820.0,434.7 810.0,435.5 800.0,436.3 790.0,437.1 780.0,438.0 770.0,438.8 760.0,439.7 750.0,440.7 740.0,441.6 730.0,442.6 720.0,443.6 710.0,444.6 700.0,445.6 690.0,446.6 680.0,447.7 670.0,448.8 660.0,449.8 650.0,450.9 640.0,452.0 630.0,453.2 620.0,454.3 610.0,455.4 600.0,456.5 590.0,457.7 580.0,458.8 570.0,460.0 560.0,461.1 550.0,462.3 540.0,463.4 530.0,464.5 520.0,465.7 510.0,466.8 500.0,467.9 490.0,469.1 480.0,470.2 470.0,471.3 460.0,472.3 450.0,473.4 440.0,474.5 430.0,475.5 420.0,476.6 410.0,477.6 400.0,478.6 390.0,479.5 380.0,480.5 370.0,481.4 360.0,482.4 350.0,483.2 340.0,484.1 330.0,485.0 320.0,485.8 310.0,486.6 300.0,487.3 290.0,488.1 280.0,488.8 270.0,489.4 260.0,490.1 250.0,490.7 240.0,491.3 230.0,491.8 220.0,492.3 210.0,492.8 200.0,493.3 190.0,493.7 180.0,494.0 170.0,494.4 160.0,494.7 150.0,495.0 140.0,495.2 130.0,495.4 120.0,495.5 110.0,495.7 100.0,495.7 90.0,495.8 80.0,495.8 70.0,495.8 60.0,495.7 50.0,495.6 40.0,495.5 30.0,495.3 20.0,495.1 10.0,494.8 0.0,494.5 0.0,640.0" fill="rgb(140,180,154)" fill-opacity="0.941"/>
  <polygon points="1920.0,640.0 1920.0,599.9 1910.0,599.7 1900.0,599.4 1890.0,599.1 1880.0,598.9 1870.0,598.6 1860.0,598.2 1850.0,597.9 1840.0,597.5 1830.0,597.1 1820.0,596.7 1810.0,596.3 1800.0,595.9 1790.0,595.4 1780.0,594.9 1770.0,594.4 1760.0,593.9 1750.0,593.4 1740.0,592.9 1730.0,592.3 1720.0,591.8 1710.0,591.2 1700.0,590.6 1690.0,590.0 1680.0,589.4 1670.0,588.8 1660.0,588.1 1650.0,587.5 1640.0,586.8 1630.0,586.1 1620.0,585.5 1610.0,584.8 1600.0,584.1 1590.0,583.4 1580.0,582.7 1570.0,582.0 1560.0,581.2 1550.0,580.5 1540.0,579.8 1530.0,579.1 1520.0,578.3 1510.0,577.6 1500.0,576.9 1490.0,576.1 1480.0,575.4 1470.0,574.7 1460.0,573.9 1450.0,573.2 1440.0,572.5 1430.0,571.7 1420.0,571.0 1410.0,570.3 1400.0,569.6 1390.0,568.9 1380.0,568.2 1370.0,567.5 1360.0,566.8 1350.0,566.1 1340.0,565.4 1330.0,564.8 1320.0,564.1 1310.0,563.5 1300.0,562.8 1290.0,562.2 1280.0,561.6 1270.0,561.0 1260.0,560.4 1250.0,559.9 1240.0,559.3 1230.0,558.8 1220.0,558.2 1210.0,557.7 1200.0,557.2 1190.0,556.8 1180.0,556.3 1170.0,555.9 1160.0,555.4 1150.0,555.0 1140.0,554.6 1130.0,554.3 1120.0,553.9 1110.0,553.6 1100.0,553.2 1090.0,553.0 1080.0,552.7 1070.0,552.4 1060.0,552.2 1050.0,552.0 1040.0,551.8 1030.0,551.6 1020.0,551.5 1010.0,551.3 1000.0,551.2 990.0,551.1 980.0,551.1 970.0,551.0 960.0,551.0 950.0,551.0 940.0,551.0 930.0,551.1 920.0,551.1 910.0,551.2 900.0,551.3 890.0,551.5 880.0,551.6 870.0,551.8 860.0,552.0 850.0,552.2 840.0,552.4 830.0,552.7 820.0,552.9 810.0,553.2 800.0,553.6 790.0,553.9 780.0,554.2 770.0,554.6 760.0,555.0 750.0,555.4 740.0,555.8 730.0,556.3 720.0,556.7 710.0,557.2 700.0,557.7 690.0,558.2 680.0,558.8 670.0,559.3 660.0,559.9 650.0,560.4 640.0,561.0 630.0,561.6 620.0,562.2 610.0,562.8 600.0,563.5 590.0,564.1 580.0,564.8 570.0,565.4 560.0,566.1 550.0,566.8 540.0,567.5 530.0,568.2 520.0,568.9 510.0,569.6 500.0,570.3 490.0,571.0 480.0,571.7 470.0,572.4 460.0,573.2 450.0,573.9 440.0,574.6 430.0,575.4 420.0,576.1 410.0,576.9 400.0,577.6 390.0,578.3 380.0,579.1 370.0,579.8 360.0,580.5 350.0,581.2 340.0,581.9 330.0,582.7 320.0,583.4 310.0,584.1 300.0,584.8 290.0,585.4 280.0,586.1 270.0,586.8 260.0,587.5 250.0,588.1 240.0,588.7 230.0,589.4 220.0,590.0 210.0,590.6 200.0,591.2 190.0,591.8 180.0,592.3 170.0,592.9 160.0,593.4 150.0,593.9 140.0,594.4 130.0,594.9 120.0,595.4 110.0,595.9 100.0,596.3 90.0,596.7 80.0,597.1 70.0,597.5 60.0,597.9 50.0,598.2 40.0,598.5 30.0,598.9 20.0,599.1 10.0,599.4 0.0,599.7 0.0,640.0" fill="rgb(3,69,42)"/>
  <ellipse cx="1530.0" cy="190.0" rx="130.0" ry="130.0" fill="rgb(236,99,36)"/>
  <polygon points="1100.0,530.0 1085.0,600.0 1115.0,600.0" fill="rgb(42,46,55)" fill-opacity="0.863"/>
  <line x1="1100.0" y1="530.0" x2="1100.0" y2="460.0" stroke="rgb(42,46,55)" stroke-width="8" stroke-opacity="0.902"/>
  <polygon points="1280.0,530.0 1265.0,600.0 1295.0,600.0" fill="rgb(42,46,55)" fill-opacity="0.863"/>
  <line x1="1280.0" y1="530.0" x2="1280.0" y2="460.0" stroke="rgb(42,46,55)" stroke-width="8" stroke-opacity="0.902"/>
  <polygon points="1500.0,530.0 1485.0,600.0 1515.0,600.0" fill="rgb(42,46,55)" fill-opacity="0.863"/>
  <line x1="1500.0" y1="530.0" x2="1500.0" y2="460.0" stroke="rgb(42,46,55)" stroke-width="8" stroke-opacity="0.902"/>
  <polygon points="1700.0,530.0 1685.0,600.0 1715.0,600.0" fill="rgb(42,46,55)" fill-opacity="0.863"/>
  <line x1="1700.0" y1="530.0" x2="1700.0" y2="460.0" stroke="rgb(42,46,55)" stroke-width="8" stroke-opacity="0.902"/>
  <polygon points="0.0,0.0 768.0,0.0 576.0,640.0 0.0,640.0" fill="rgb(250,247,241)"/>
</svg>
