<?xml version="1.0" encoding="UTF-8" standalone="no"?>
<svg xmlns="http://www.w3.org/2000/svg" viewBox="0 0 1920 640" width="1920" height="640">
  <title>v7-fluid-aube</title>
  <defs>
    <linearGradient id="grad-aube" x1="0%" y1="0%" x2="0%" y2="100%"><stop offset="0%" stop-color="rgb(252,200,165)"/><stop offset="100%" stop-color="rgb(182,218,201)"/></linearGradient>
  </defs>
  <rect width="1920" height="640" fill="url(#grad-aube)"/>
  <polygon points="1920.0,640.0 1920.0,308.6 1910.0,309.5 1900.0,310.4 1890.0,311.2 1880.0,312.0 1870.0,312.7 1860.0,313.4 1850.0,314.1 1840.0,314.7 1830.0,315.3 1820.0,315.8 1810.0,316.2 1800.0,316.6 1790.0,317.0 1780.0,317.3 1770.0,317.5 1760.0,317.7 1750.0,317.9 1740.0,318.0 1730.0,318.0 1720.0,318.0 1710.0,317.9 1700.0,317.8 1690.0,317.6 1680.0,317.4 1670.0,317.1 1660.0,316.7 1650.0,316.3 1640.0,315.9 1630.0,315.4 1620.0,314.9 1610.0,314.3 1600.0,313.6 1590.0,312.9 1580.0,312.2 1570.0,311.4 1560.0,310.6 1550.0,309.7 1540.0,308.8 1530.0,307.9 1520.0,306.9 1510.0,305.9 1500.0,304.9 1490.0,303.8 1480.0,302.7 1470.0,301.6 1460.0,300.5 1450.0,299.3 1440.0,298.1 1430.0,296.9 1420.0,295.6 1410.0,294.4 1400.0,293.2 1390.0,291.9 1380.0,290.6 1370.0,289.4 1360.0,288.1 1350.0,286.8 1340.0,285.5 1330.0,284.3 1320.0,283.0 1310.0,281.7 1300.0,280.5 1290.0,279.3 1280.0,278.1 1270.0,276.9 1260.0,275.7 1250.0,274.5 1240.0,273.4 1230.0,272.3 1220.0,271.2 1210.0,270.2 1200.0,269.2 1190.0,268.2 1180.0,267.3 1170.0,266.4 1160.0,265.5 1150.0,264.7 1140.0,263.9 1130.0,263.2 1120.0,262.5 1110.0,261.8 1100.0,261.2 1090.0,260.7 1080.0,260.2 1070.0,259.7 1060.0,259.3 1050.0,259.0 1040.0,258.7 1030.0,258.4 1020.0,258.2 1010.0,258.1 1000.0,258.0 990.0,258.0 980.0,258.0 970.0,258.1 960.0,258.2 950.0,258.4 940.0,258.7 930.0,259.0 920.0,259.3 910.0,259.7 900.0,260.2 890.0,260.7 880.0,261.2 870.0,261.8 860.0,262.5 850.0,263.2 840.0,263.9 830.0,264.7 820.0,265.5 810.0,266.4 800.0,267.3 790.0,268.2 780.0,269.2 770.0,270.2 760.0,271.3 750.0,272.3 740.0,273.4 730.0,274.6 720.0,275.7 710.0,276.9 700.0,278.1 690.0,279.3 680.0,280.5 670.0,281.8 660.0,283.0 650.0,284.3 640.0,285.6 630.0,286.8 620.0,288.1 610.0,289.4 600.0,290.7 590.0,291.9 580.0,293.2 570.0,294.4 560.0,295.7 550.0,296.9 540.0,298.1 530.0,299.3 520.0,300.5 510.0,301.6 500.0,302.8 490.0,303.9 480.0,304.9 470.0,306.0 460.0,307.0 450.0,307.9 440.0,308.9 430.0,309.8 420.0,310.6 410.0,311.5 400.0,312.2 390.0,313.0 380.0,313.6 370.0,314.3 360.0,314.9 350.0,315.4 340.0,315.9 330.0,316.4 320.0,316.7 310.0,317.1 300.0,317.4 290.0,317.6 280.0,317.8 270.0,317.9 260.0,318.0 250.0,318.0 240.0,318.0 230.0,317.9 220.0,317.7 210.0,317.5 200.0,317.3 190.0,317.0 180.0,316.6 170.0,316.2 160.0,315.7 150.0,315.2 140.0,314.7 130.0,314.1 120.0,313.4 110.0,312.7 100.0,312.0 90.0,311.2 80.0,310.3 70.0,309.5 60.0,308.6 50.0,307.6 40.0,306.6 30.0,305.6 20.0,304.6 10.0,303.5 0.0,302.4 0.0,640.0" fill="rgb(245,145,95)" fill-opacity="0.863"/>
  <polygon points="1920.0,640.0 1920.0,350.3 1910.0,351.4 1900.0,352.6 1890.0,353.9 1880.0,355.2 1870.0,356.6 1860.0,358.1 1850.0,359.6 1840.0,361.2 1830.0,362.8 1820.0,364.5 1810.0,366.2 1800.0,368.0 1790.0,369.8 1780.0,371.7 1770.0,373.6 1760.0,375.5 1750.0,377.4 1740.0,379.4 1730.0,381.3 1720.0,383.3 1710.0,385.2 1700.0,387.2 1690.0,389.1 1680.0,391.1 1670.0,393.0 1660.0,394.9 1650.0,396.8 1640.0,398.6 1630.0,400.4 1620.0,402.2 1610.0,403.9 1600.0,405.6 1590.0,407.2 1580.0,408.8 1570.0,410.3 1560.0,411.8 1550.0,413.1 1540.0,414.5 1530.0,415.7 1520.0,416.8 1510.0,417.9 1500.0,418.9 1490.0,419.8 1480.0,420.7 1470.0,421.4 1460.0,422.1 1450.0,422.6 1440.0,423.1 1430.0,423.5 1420.0,423.7 1410.0,423.9 1400.0,424.0 1390.0,424.0 1380.0,423.9 1370.0,423.7 1360.0,423.4 1350.0,423.0 1340.0,422.5 1330.0,421.9 1320.0,421.2 1310.0,420.5 1300.0,419.6 1290.0,418.7 1280.0,417.7 1270.0,416.6 1260.0,415.4 1250.0,414.1 1240.0,412.8 1230.0,411.4 1220.0,409.9 1210.0,408.4 1200.0,406.8 1190.0,405.2 1180.0,403.5 1170.0,401.8 1160.0,400.0 1150.0,398.2 1140.0,396.3 1130.0,394.4 1120.0,392.5 1110.0,390.6 1100.0,388.6 1090.0,386.7 1080.0,384.7 1070.0,382.8 1060.0,380.8 1050.0,378.9 1040.0,376.9 1030.0,375.0 1020.0,373.1 1010.0,371.2 1000.0,369.4 990.0,367.6 980.0,365.8 970.0,364.1 960.0,362.4 950.0,360.8 940.0,359.2 930.0,357.7 920.0,356.2 910.0,354.9 900.0,353.5 890.0,352.3 880.0,351.2 870.0,350.1 860.0,349.1 850.0,348.2 840.0,347.3 830.0,346.6 820.0,345.9 810.0,345.4 800.0,344.9 790.0,344.5 780.0,344.3 770.0,344.1 760.0,344.0 750.0,344.0 740.0,344.1 730.0,344.3 720.0,344.6 710.0,345.0 700.0,345.5 690.0,346.1 680.0,346.8 670.0,347.5 660.0,348.4 650.0,349.3 640.0,350.3 630.0,351.4 620.0,352.6 610.0,353.9 600.0,355.2 590.0,356.6 580.0,358.1 570.0,359.6 560.0,361.2 550.0,362.8 540.0,364.5 530.0,366.2 520.0,368.0 510.0,369.8 500.0,371.7 490.0,373.6 480.0,375.5 470.0,377.4 460.0,379.4 450.0,381.3 440.0,383.3 430.0,385.2 420.0,387.2 410.0,389.1 400.0,391.1 390.0,393.0 380.0,394.9 370.0,396.8 360.0,398.6 350.0,400.4 340.0,402.2 330.0,403.9 320.0,405.6 310.0,407.2 300.0,408.8 290.0,410.3 280.0,411.8 270.0,413.1 260.0,414.5 250.0,415.7 240.0,416.8 230.0,417.9 220.0,418.9 210.0,419.8 200.0,420.7 190.0,421.4 180.0,422.1 170.0,422.6 160.0,423.1 150.0,423.5 140.0,423.7 130.0,423.9 120.0,424.0 110.0,424.0 100.0,423.9 90.0,423.7 80.0,423.4 70.0,423.0 60.0,422.5 50.0,421.9 40.0,421.2 30.0,420.5 20.0,419.6 10.0,418.7 0.0,417.7 0.0,640.0" fill="rgb(217,138,70)" fill-opacity="0.824"/>
  <polygon points="1920.0,640.0 1920.0,524.7 1910.0,525.2 1900.0,525.7 1890.0,526.2 1880.0,526.7 1870.0,527.1 1860.0,527.5 1850.0,527.8 1840.0,528.1 1830.0,528.4 1820.0,528.6 1810.0,528.8 1800.0,529.0 1790.0,529.1 1780.0,529.2 1770.0,529.2 1760.0,529.2 1750.0,529.2 1740.0,529.1 1730.0,529.0 1720.0,528.8 1710.0,528.6 1700.0,528.4 1690.0,528.1 1680.0,527.8 1670.0,527.5 1660.0,527.1 1650.0,526.7 1640.0,526.2 1630.0,525.7 1620.0,525.2 1610.0,524.6 1600.0,524.1 1590.0,523.4 1580.0,522.8 1570.0,522.1 1560.0,521.4 1550.0,520.6 1540.0,519.9 1530.0,519.1 1520.0,518.3 1510.0,517.4 1500.0,516.5 1490.0,515.7 1480.0,514.7 1470.0,513.8 1460.0,512.9 1450.0,511.9 1440.0,510.9 1430.0,509.9 1420.0,508.9 1410.0,507.8 1400.0,506.8 1390.0,505.8 1380.0,504.7 1370.0,503.6 1360.0,502.6 1350.0,501.5 1340.0,500.4 1330.0,499.3 1320.0,498.3 1310.0,497.2 1300.0,496.1 1290.0,495.0 1280.0,494.0 1270.0,492.9 1260.0,491.9 1250.0,490.8 1240.0,489.8 1230.0,488.8 1220.0,487.8 1210.0,486.8 1200.0,485.8 1190.0,484.8 1180.0,483.9 1170.0,483.0 1160.0,482.1 1150.0,481.2 1140.0,480.3 1130.0,479.5 1120.0,478.7 1110.0,477.9 1100.0,477.2 1090.0,476.5 1080.0,475.8 1070.0,475.1 1060.0,474.5 1050.0,473.9 1040.0,473.3 1030.0,472.8 1020.0,472.3 1010.0,471.8 1000.0,471.4 990.0,471.0 980.0,470.7 970.0,470.4 960.0,470.1 950.0,469.8 940.0,469.6 930.0,469.5 920.0,469.3 910.0,469.3 900.0,469.2 890.0,469.2 880.0,469.2 870.0,469.3 860.0,469.4 850.0,469.5 840.0,469.7 830.0,470.0 820.0,470.2 810.0,470.5 800.0,470.8 790.0,471.2 780.0,471.6 770.0,472.1 760.0,472.5 750.0,473.1 740.0,473.6 730.0,474.2 720.0,474.8 710.0,475.4 700.0,476.1 690.0,476.8 680.0,477.5 670.0,478.3 660.0,479.1 650.0,479.9 640.0,480.8 630.0,481.6 620.0,482.5 610.0,483.4 600.0,484.3 590.0,485.3 580.0,486.3 570.0,487.2 560.0,488.2 550.0,489.2 540.0,490.3 530.0,491.3 520.0,492.4 510.0,493.4 500.0,494.5 490.0,495.5 480.0,496.6 470.0,497.7 460.0,498.8 450.0,499.9 440.0,500.9 430.0,502.0 420.0,503.1 410.0,504.1 400.0,505.2 390.0,506.3 380.0,507.3 370.0,508.3 360.0,509.4 350.0,510.4 340.0,511.4 330.0,512.3 320.0,513.3 310.0,514.3 300.0,515.2 290.0,516.1 280.0,517.0 270.0,517.8 260.0,518.7 250.0,519.5 240.0,520.2 230.0,521.0 220.0,521.7 210.0,522.4 200.0,523.1 190.0,523.7 180.0,524.3 170.0,524.9 160.0,525.5 150.0,526.0 140.0,526.4 130.0,526.9 120.0,527.3 110.0,527.6 100.0,528.0 90.0,528.2 80.0,528.5 70.0,528.7 60.0,528.9 50.0,529.0 40.0,529.1 30.0,529.2 20.0,529.2 10.0,529.2 0.0,529.1 0.0,640.0" fill="rgb(140,180,154)" fill-opacity="0.863"/>
  <polygon points="1920.0,640.0 1920.0,602.3 1910.0,601.9 1900.0,601.5 1890.0,601.1 1880.0,600.7 1870.0,600.3 1860.0,599.9 1850.0,599.4 1840.0,599.0 1830.0,598.5 1820.0,598.1 1810.0,597.6 1800.0,597.1 1790.0,596.6 1780.0,596.2 1770.0,595.7 1760.0,595.2 1750.0,594.7 1740.0,594.2 1730.0,593.7 1720.0,593.2 1710.0,592.6 1700.0,592.1 1690.0,591.6 1680.0,591.1 1670.0,590.6 1660.0,590.1 1650.0,589.5 1640.0,589.0 1630.0,588.5 1620.0,588.0 1610.0,587.4 1600.0,586.9 1590.0,586.4 1580.0,585.9 1570.0,585.4 1560.0,584.8 1550.0,584.3 1540.0,583.8 1530.0,583.3 1520.0,582.8 1510.0,582.3 1500.0,581.8 1490.0,581.3 1480.0,580.9 1470.0,580.4 1460.0,579.9 1450.0,579.4 1440.0,579.0 1430.0,578.5 1420.0,578.1 1410.0,577.6 1400.0,577.2 1390.0,576.8 1380.0,576.4 1370.0,576.0 1360.0,575.6 1350.0,575.2 1340.0,574.8 1330.0,574.4 1320.0,574.1 1310.0,573.7 1300.0,573.4 1290.0,573.1 1280.0,572.7 1270.0,572.4 1260.0,572.1 1250.0,571.9 1240.0,571.6 1230.0,571.3 1220.0,571.1 1210.0,570.8 1200.0,570.6 1190.0,570.4 1180.0,570.2 1170.0,570.0 1160.0,569.8 1150.0,569.7 1140.0,569.5 1130.0,569.4 1120.0,569.3 1110.0,569.2 1100.0,569.1 1090.0,569.0 1080.0,568.9 1070.0,568.9 1060.0,568.8 1050.0,568.8 1040.0,568.8 1030.0,568.8 1020.0,568.8 1010.0,568.8 1000.0,568.9 990.0,568.9 980.0,569.0 970.0,569.1 960.0,569.2 950.0,569.3 940.0,569.4 930.0,569.6 920.0,569.7 910.0,569.9 900.0,570.1 890.0,570.2 880.0,570.4 870.0,570.7 860.0,570.9 850.0,571.1 840.0,571.4 830.0,571.6 820.0,571.9 810.0,572.2 800.0,572.5 790.0,572.8 780.0,573.1 770.0,573.5 760.0,573.8 750.0,574.2 740.0,574.5 730.0,574.9 720.0,575.3 710.0,575.7 700.0,576.1 690.0,576.5 680.0,576.9 670.0,577.3 660.0,577.7 650.0,578.2 640.0,578.6 630.0,579.1 620.0,579.5 610.0,580.0 600.0,580.5 590.0,581.0 580.0,581.4 570.0,581.9 560.0,582.4 550.0,582.9 540.0,583.4 530.0,583.9 520.0,584.4 510.0,585.0 500.0,585.5 490.0,586.0 480.0,586.5 470.0,587.0 460.0,587.5 450.0,588.1 440.0,588.6 430.0,589.1 420.0,589.6 410.0,590.2 400.0,590.7 390.0,591.2 380.0,591.7 370.0,592.2 360.0,592.8 350.0,593.3 340.0,593.8 330.0,594.3 320.0,594.8 310.0,595.3 300.0,595.8 290.0,596.3 280.0,596.7 270.0,597.2 260.0,597.7 250.0,598.2 240.0,598.6 230.0,599.1 220.0,599.5 210.0,600.0 200.0,600.4 190.0,600.8 180.0,601.2 170.0,601.6 160.0,602.0 150.0,602.4 140.0,602.8 130.0,603.2 120.0,603.5 110.0,603.9 100.0,604.2 90.0,604.5 80.0,604.9 70.0,605.2 60.0,605.5 50.0,605.7 40.0,606.0 30.0,606.3 20.0,606.5 10.0,606.8 0.0,607.0 0.0,640.0" fill="rgb(75,166,132)" fill-opacity="0.941"/>
  <ellipse cx="1400.0" cy="180.0" rx="100.0" ry="100.0" fill="rgb(252,200,165)" fill-opacity="0.980"/>
  <polygon points="0.0,0.0 768.0,0.0 576.0,640.0 0.0,640.0" fill="rgb(250,247,241)"/>
</svg>
