<?xml version="1.0" encoding="UTF-8" standalone="no"?>
<svg xmlns="http://www.w3.org/2000/svg" viewBox="0 0 1920 640" width="1920" height="640">
  <title>v7-fluid-vagues</title>
  <defs>
    <linearGradient id="grad-vagues" x1="0%" y1="0%" x2="0%" y2="100%"><stop offset="0%" stop-color="rgb(42,46,55)"/><stop offset="100%" stop-color="rgb(3,56,33)"/></linearGradient>
  </defs>
  <rect width="1920" height="640" fill="url(#grad-vagues)"/>
  <polygon points="1920.0,640.0 1920.0,185.0 1910.0,186.7 1900.0,188.4 1890.0,190.2 1880.0,191.9 1870.0,193.6 1860.0,195.3 1850.0,197.0 1840.0,198.7 1830.0,200.4 1820.0,202.0 1810.0,203.7 1800.0,205.3 1790.0,206.8 1780.0,208.4 1770.0,209.9 1760.0,211.3 1750.0,212.7 1740.0,214.1 1730.0,215.4 1720.0,216.7 1710.0,217.8 1700.0,219.0 1690.0,220.0 1680.0,221.0 1670.0,222.0 1660.0,222.8 1650.0,223.6 1640.0,224.3 1630.0,224.9 1620.0,225.5 1610.0,225.9 1600.0,226.3 1590.0,226.6 1580.0,226.8 1570.0,227.0 1560.0,227.0 1550.0,227.0 1540.0,226.8 1530.0,226.6 1520.0,226.4 1510.0,226.0 1500.0,225.5 1490.0,225.0 1480.0,224.4 1470.0,223.7 1460.0,222.9 1450.0,222.1 1440.0,221.2 1430.0,220.2 1420.0,219.1 1410.0,218.0 1400.0,216.8 1390.0,215.6 1380.0,214.3 1370.0,213.0 1360.0,211.6 1350.0,210.1 1340.0,208.6 1330.0,207.1 1320.0,205.5 1310.0,203.9 1300.0,202.3 1290.0,200.6 1280.0,199.0 1270.0,197.3 1260.0,195.6 1250.0,193.8 1240.0,192.1 1230.0,190.4 1220.0,188.7 1210.0,187.0 1200.0,185.3 1190.0,183.6 1180.0,182.0 1170.0,180.3 1160.0,178.7 1150.0,177.2 1140.0,175.6 1130.0,174.1 1120.0,172.7 1110.0,171.3 1100.0,169.9 1090.0,168.6 1080.0,167.3 1070.0,166.2 1060.0,165.0 1050.0,164.0 1040.0,163.0 1030.0,162.0 1020.0,161.2 1010.0,160.4 1000.0,159.7 990.0,159.1 980.0,158.5 970.0,158.1 960.0,157.7 950.0,157.4 940.0,157.2 930.0,157.0 920.0,157.0 910.0,157.0 900.0,157.2 890.0,157.4 880.0,157.6 870.0,158.0 860.0,158.5 850.0,159.0 840.0,159.6 830.0,160.3 820.0,161.1 810.0,161.9 800.0,162.8 790.0,163.8 780.0,164.9 770.0,166.0 760.0,167.2 750.0,168.4 740.0,169.7 730.0,171.0 720.0,172.4 710.0,173.9 700.0,175.4 690.0,176.9 680.0,178.5 670.0,180.1 660.0,181.7 650.0,183.4 640.0,185.0 630.0,186.7 620.0,188.4 610.0,190.2 600.0,191.9 590.0,193.6 580.0,195.3 570.0,197.0 560.0,198.7 550.0,200.4 540.0,202.0 530.0,203.7 520.0,205.3 510.0,206.8 500.0,208.4 490.0,209.9 480.0,211.3 470.0,212.7 460.0,214.1 450.0,215.4 440.0,216.7 430.0,217.8 420.0,219.0 410.0,220.0 400.0,221.0 390.0,222.0 380.0,222.8 370.0,223.6 360.0,224.3 350.0,224.9 340.0,225.5 330.0,225.9 320.0,226.3 310.0,226.6 300.0,226.8 290.0,227.0 280.0,227.0 270.0,227.0 260.0,226.8 250.0,226.6 240.0,226.4 230.0,226.0 220.0,225.5 210.0,225.0 200.0,224.4 190.0,223.7 180.0,222.9 170.0,222.1 160.0,221.2 150.0,220.2 140.0,219.1 130.0,218.0 120.0,216.8 110.0,215.6 100.0,214.3 90.0,213.0 80.0,211.6 70.0,210.1 60.0,208.6 50.0,207.1 40.0,205.5 30.0,203.9 20.0,202.3 10.0,200.6 0.0,199.0 0.0,640.0" fill="rgb(3,69,42)" fill-opacity="0.941"/>
  <polygon points="1920.0,640.0 1920.0,311.8 1910.0,313.4 1900.0,314.9 1890.0,316.4 1880.0,317.9 1870.0,319.3 1860.0,320.7 1850.0,321.9 1840.0,323.2 1830.0,324.3 1820.0,325.4 1810.0,326.5 1800.0,327.4 1790.0,328.3 1780.0,329.1 1770.0,329.9 1760.0,330.5 1750.0,331.1 1740.0,331.6 1730.0,332.0 1720.0,332.4 1710.0,332.7 1700.0,332.9 1690.0,333.0 1680.0,333.0 1670.0,332.9 1660.0,332.8 1650.0,332.6 1640.0,332.3 1630.0,331.9 1620.0,331.5 1610.0,330.9 1600.0,330.3 1590.0,329.6 1580.0,328.9 1570.0,328.0 1560.0,327.1 1550.0,326.1 1540.0,325.1 1530.0,324.0 1520.0,322.8 1510.0,321.5 1500.0,320.2 1490.0,318.9 1480.0,317.4 1470.0,316.0 1460.0,314.4 1450.0,312.9 1440.0,311.2 1430.0,309.6 1420.0,307.9 1410.0,306.2 1400.0,304.4 1390.0,302.6 1380.0,300.8 1370.0,298.9 1360.0,297.1 1350.0,295.2 1340.0,293.3 1330.0,291.4 1320.0,289.5 1310.0,287.5 1300.0,285.6 1290.0,283.7 1280.0,281.8 1270.0,279.9 1260.0,278.1 1250.0,276.2 1240.0,274.4 1230.0,272.5 1220.0,270.8 1210.0,269.0 1200.0,267.3 1190.0,265.6 1180.0,264.0 1170.0,262.4 1160.0,260.8 1150.0,259.3 1140.0,257.9 1130.0,256.5 1120.0,255.1 1110.0,253.9 1100.0,252.7 1090.0,251.5 1080.0,250.4 1070.0,249.4 1060.0,248.4 1050.0,247.6 1040.0,246.8 1030.0,246.0 1020.0,245.4 1010.0,244.8 1000.0,244.3 990.0,243.9 980.0,243.6 970.0,243.3 960.0,243.1 950.0,243.0 940.0,243.0 930.0,243.1 920.0,243.2 910.0,243.4 900.0,243.8 890.0,244.1 880.0,244.6 870.0,245.2 860.0,245.8 850.0,246.5 840.0,247.3 830.0,248.1 820.0,249.0 810.0,250.0 800.0,251.1 790.0,252.2 780.0,253.4 770.0,254.7 760.0,256.0 750.0,257.4 740.0,258.8 730.0,260.3 720.0,261.8 710.0,263.4 700.0,265.0 690.0,266.7 680.0,268.4 670.0,270.1 660.0,271.9 650.0,273.7 640.0,275.5 630.0,277.4 620.0,279.2 610.0,281.1 600.0,283.0 590.0,284.9 580.0,286.8 570.0,288.8 560.0,290.7 550.0,292.6 540.0,294.5 530.0,296.4 520.0,298.2 510.0,300.1 500.0,301.9 490.0,303.7 480.0,305.5 470.0,307.3 460.0,309.0 450.0,310.6 440.0,312.3 430.0,313.9 420.0,315.4 410.0,316.9 400.0,318.3 390.0,319.7 380.0,321.1 370.0,322.3 360.0,323.5 350.0,324.7 340.0,325.7 330.0,326.8 320.0,327.7 310.0,328.6 300.0,329.4 290.0,330.1 280.0,330.7 270.0,331.3 260.0,331.8 250.0,332.2 240.0,332.5 230.0,332.7 220.0,332.9 210.0,333.0 200.0,333.0 190.0,332.9 180.0,332.8 170.0,332.5 160.0,332.2 150.0,331.8 140.0,331.3 130.0,330.7 120.0,330.1 110.0,329.4 100.0,328.6 90.0,327.7 80.0,326.8 70.0,325.8 60.0,324.7 50.0,323.6 40.0,322.4 30.0,321.1 20.0,319.8 10.0,318.4 0.0,317.0 0.0,640.0" fill="rgb(9,97,53)" fill-opacity="0.941"/>
  <polygon points="1920.0,640.0 1920.0,374.7 1910.0,373.2 1900.0,371.8 1890.0,370.5 1880.0,369.2 1870.0,368.1 1860.0,367.0 1850.0,366.0 1840.0,365.1 1830.0,364.4 1820.0,363.7 1810.0,363.1 1800.0,362.6 1790.0,362.3 1780.0,362.0 1770.0,361.8 1760.0,361.8 1750.0,361.9 1740.0,362.0 1730.0,362.3 1720.0,362.7 1710.0,363.2 1700.0,363.8 1690.0,364.5 1680.0,365.3 1670.0,366.2 1660.0,367.2 1650.0,368.2 1640.0,369.4 1630.0,370.7 1620.0,372.0 1610.0,373.4 1600.0,374.9 1590.0,376.4 1580.0,378.1 1570.0,379.7 1560.0,381.5 1550.0,383.2 1540.0,385.0 1530.0,386.9 1520.0,388.8 1510.0,390.7 1500.0,392.6 1490.0,394.5 1480.0,396.5 1470.0,398.4 1460.0,400.4 1450.0,402.3 1440.0,404.2 1430.0,406.1 1420.0,408.0 1410.0,409.8 1400.0,411.6 1390.0,413.3 1380.0,415.0 1370.0,416.7 1360.0,418.2 1350.0,419.7 1340.0,421.2 1330.0,422.5 1320.0,423.8 1310.0,425.0 1300.0,426.1 1290.0,427.1 1280.0,428.1 1270.0,428.9 1260.0,429.6 1250.0,430.2 1240.0,430.8 1230.0,431.2 1220.0,431.5 1210.0,431.7 1200.0,431.8 1190.0,431.8 1180.0,431.7 1170.0,431.4 1160.0,431.1 1150.0,430.7 1140.0,430.1 1130.0,429.5 1120.0,428.7 1110.0,427.9 1100.0,426.9 1090.0,425.9 1080.0,424.8 1070.0,423.5 1060.0,422.2 1050.0,420.9 1040.0,419.4 1030.0,417.9 1020.0,416.3 1010.0,414.7 1000.0,413.0 990.0,411.2 980.0,409.4 970.0,407.6 960.0,405.7 950.0,403.8 940.0,401.9 930.0,400.0 920.0,398.0 910.0,396.1 900.0,394.1 890.0,392.2 880.0,390.3 870.0,388.4 860.0,386.5 850.0,384.7 840.0,382.8 830.0,381.1 820.0,379.4 810.0,377.7 800.0,376.1 790.0,374.6 780.0,373.1 770.0,371.7 760.0,370.4 750.0,369.2 740.0,368.0 730.0,366.9 720.0,366.0 710.0,365.1 700.0,364.3 690.0,363.6 680.0,363.1 670.0,362.6 660.0,362.2 650.0,362.0 640.0,361.8 630.0,361.8 620.0,361.9 610.0,362.0 600.0,362.3 590.0,362.7 580.0,363.2 570.0,363.8 560.0,364.5 550.0,365.3 540.0,366.2 530.0,367.2 520.0,368.3 510.0,369.5 500.0,370.7 490.0,372.1 480.0,373.5 470.0,375.0 460.0,376.5 450.0,378.2 440.0,379.8 430.0,381.6 420.0,383.3 410.0,385.1 400.0,387.0 390.0,388.9 380.0,390.8 370.0,392.7 360.0,394.7 350.0,396.6 340.0,398.6 330.0,400.5 320.0,402.4 310.0,404.3 300.0,406.2 290.0,408.1 280.0,409.9 270.0,411.7 260.0,413.4 250.0,415.1 240.0,416.7 230.0,418.3 220.0,419.8 210.0,421.2 200.0,422.6 190.0,423.9 180.0,425.1 170.0,426.2 160.0,427.2 150.0,428.1 140.0,428.9 130.0,429.6 120.0,430.3 110.0,430.8 100.0,431.2 90.0,431.5 80.0,431.7 70.0,431.8 60.0,431.8 50.0,431.6 40.0,431.4 30.0,431.1 20.0,430.6 10.0,430.1 0.0,429.4 0.0,640.0" fill="rgb(26,128,80)" fill-opacity="0.941"/>
  <polygon points="1920.0,640.0 1920.0,504.7 1910.0,505.9 1900.0,507.0 1890.0,508.1 1880.0,509.3 1870.0,510.4 1860.0,511.4 1850.0,512.5 1840.0,513.6 1830.0,514.6 1820.0,515.6 1810.0,516.6 1800.0,517.5 1790.0,518.4 1780.0,519.3 1770.0,520.2 1760.0,521.0 1750.0,521.8 1740.0,522.5 1730.0,523.3 1720.0,524.0 1710.0,524.6 1700.0,525.2 1690.0,525.8 1680.0,526.3 1670.0,526.8 1660.0,527.2 1650.0,527.6 1640.0,528.0 1630.0,528.3 1620.0,528.6 1610.0,528.8 1600.0,528.9 1590.0,529.1 1580.0,529.2 1570.0,529.2 1560.0,529.2 1550.0,529.1 1540.0,529.0 1530.0,528.9 1520.0,528.7 1510.0,528.4 1500.0,528.2 1490.0,527.8 1480.0,527.5 1470.0,527.0 1460.0,526.6 1450.0,526.1 1440.0,525.5 1430.0,525.0 1420.0,524.3 1410.0,523.7 1400.0,523.0 1390.0,522.2 1380.0,521.5 1370.0,520.7 1360.0,519.8 1350.0,518.9 1340.0,518.0 1330.0,517.1 1320.0,516.2 1310.0,515.2 1300.0,514.2 1290.0,513.1 1280.0,512.1 1270.0,511.0 1260.0,509.9 1250.0,508.8 1240.0,507.7 1230.0,506.5 1220.0,505.4 1210.0,504.2 1200.0,503.1 1190.0,501.9 1180.0,500.7 1170.0,499.5 1160.0,498.4 1150.0,497.2 1140.0,496.0 1130.0,494.8 1120.0,493.7 1110.0,492.5 1100.0,491.4 1090.0,490.3 1080.0,489.1 1070.0,488.0 1060.0,487.0 1050.0,485.9 1040.0,484.8 1030.0,483.8 1020.0,482.8 1010.0,481.8 1000.0,480.9 990.0,480.0 980.0,479.1 970.0,478.2 960.0,477.4 950.0,476.6 940.0,475.9 930.0,475.1 920.0,474.4 910.0,473.8 900.0,473.2 890.0,472.6 880.0,472.1 870.0,471.6 860.0,471.2 850.0,470.8 840.0,470.4 830.0,470.1 820.0,469.8 810.0,469.6 800.0,469.5 790.0,469.3 780.0,469.2 770.0,469.2 760.0,469.2 750.0,469.3 740.0,469.4 730.0,469.5 720.0,469.7 710.0,470.0 700.0,470.2 690.0,470.6 680.0,470.9 670.0,471.4 660.0,471.8 650.0,472.3 640.0,472.9 630.0,473.4 620.0,474.1 610.0,474.7 600.0,475.4 590.0,476.2 580.0,476.9 570.0,477.7 560.0,478.6 550.0,479.5 540.0,480.4 530.0,481.3 520.0,482.2 510.0,483.2 500.0,484.2 490.0,485.3 480.0,486.3 470.0,487.4 460.0,488.5 450.0,489.6 440.0,490.7 430.0,491.9 420.0,493.0 410.0,494.2 400.0,495.3 390.0,496.5 380.0,497.7 370.0,498.9 360.0,500.0 350.0,501.2 340.0,502.4 330.0,503.6 320.0,504.7 310.0,505.9 300.0,507.0 290.0,508.1 280.0,509.3 270.0,510.4 260.0,511.4 250.0,512.5 240.0,513.6 230.0,514.6 220.0,515.6 210.0,516.6 200.0,517.5 190.0,518.4 180.0,519.3 170.0,520.2 160.0,521.0 150.0,521.8 140.0,522.5 130.0,523.3 120.0,524.0 110.0,524.6 100.0,525.2 90.0,525.8 80.0,526.3 70.0,526.8 60.0,527.2 50.0,527.6 40.0,528.0 30.0,528.3 20.0,528.6 10.0,528.8 0.0,528.9 0.0,640.0" fill="rgb(75,166,132)" fill-opacity="0.863"/>
  <polygon points="1920.0,640.0 1920.0,563.8 1910.0,563.8 1900.0,563.9 1890.0,564.0 1880.0,564.2 1870.0,564.4 1860.0,564.7 1850.0,565.1 1840.0,565.5 1830.0,565.9 1820.0,566.4 1810.0,566.9 1800.0,567.5 1790.0,568.1 1780.0,568.8 1770.0,569.5 1760.0,570.2 1750.0,571.0 1740.0,571.8 1730.0,572.7 1720.0,573.6 1710.0,574.5 1700.0,575.4 1690.0,576.4 1680.0,577.4 1670.0,578.5 1660.0,579.5 1650.0,580.6 1640.0,581.7 1630.0,582.8 1620.0,583.9 1610.0,585.0 1600.0,586.2 1590.0,587.3 1580.0,588.5 1570.0,589.6 1560.0,590.7 1550.0,591.9 1540.0,593.0 1530.0,594.1 1520.0,595.2 1510.0,596.3 1500.0,597.4 1490.0,598.5 1480.0,599.5 1470.0,600.6 1460.0,601.6 1450.0,602.5 1440.0,603.5 1430.0,604.4 1420.0,605.3 1410.0,606.1 1400.0,606.9 1390.0,607.7 1380.0,608.4 1370.0,609.1 1360.0,609.8 1350.0,610.4 1340.0,610.9 1330.0,611.4 1320.0,611.9 1310.0,612.3 1300.0,612.7 1290.0,613.0 1280.0,613.2 1270.0,613.5 1260.0,613.6 1250.0,613.7 1240.0,613.8 1230.0,613.8 1220.0,613.7 1210.0,613.6 1200.0,613.5 1190.0,613.3 1180.0,613.0 1170.0,612.7 1160.0,612.4 1150.0,612.0 1140.0,611.5 1130.0,611.0 1120.0,610.5 1110.0,609.9 1100.0,609.2 1090.0,608.5 1080.0,607.8 1070.0,607.1 1060.0,606.3 1050.0,605.4 1040.0,604.6 1030.0,603.6 1020.0,602.7 1010.0,601.7 1000.0,600.7 990.0,599.7 980.0,598.7 970.0,597.6 960.0,596.5 950.0,595.4 940.0,594.3 930.0,593.2 920.0,592.1 910.0,590.9 900.0,589.8 890.0,588.7 880.0,587.5 870.0,586.4 860.0,585.2 850.0,584.1 840.0,583.0 830.0,581.9 820.0,580.8 810.0,579.7 800.0,578.7 790.0,577.6 780.0,576.6 770.0,575.6 760.0,574.7 750.0,573.7 740.0,572.8 730.0,572.0 720.0,571.1 710.0,570.3 700.0,569.6 690.0,568.9 680.0,568.2 670.0,567.6 660.0,567.0 650.0,566.5 640.0,566.0 630.0,565.5 620.0,565.1 610.0,564.8 600.0,564.5 590.0,564.3 580.0,564.1 570.0,563.9 560.0,563.8 550.0,563.8 540.0,563.8 530.0,563.9 520.0,564.0 510.0,564.2 500.0,564.4 490.0,564.7 480.0,565.0 470.0,565.4 460.0,565.8 450.0,566.3 440.0,566.8 430.0,567.4 420.0,568.0 410.0,568.7 400.0,569.4 390.0,570.1 380.0,570.9 370.0,571.7 360.0,572.5 350.0,573.4 340.0,574.4 330.0,575.3 320.0,576.3 310.0,577.3 300.0,578.3 290.0,579.4 280.0,580.4 270.0,581.5 260.0,582.6 250.0,583.7 240.0,584.9 230.0,586.0 220.0,587.1 210.0,588.3 200.0,589.4 190.0,590.6 180.0,591.7 170.0,592.9 160.0,594.0 150.0,595.1 140.0,596.2 130.0,597.3 120.0,598.3 110.0,599.4 100.0,600.4 90.0,601.4 80.0,602.4 70.0,603.3 60.0,604.3 50.0,605.1 40.0,606.0 30.0,606.8 20.0,607.6 10.0,608.3 0.0,609.0 0.0,640.0" fill="rgb(245,235,215)" fill-opacity="0.784"/>
  <polygon points="1500.0,80.0 1600.0,130.0 1550.0,180.0" fill="rgb(236,99,36)" fill-opacity="0.941"/>
  <polygon points="0.0,0.0 768.0,0.0 576.0,640.0 0.0,640.0" fill="rgb(250,247,241)"/>
</svg>
