<?xml version="1.0" encoding="UTF-8" standalone="no"?>
<svg xmlns="http://www.w3.org/2000/svg" viewBox="0 0 1920 640" width="1920" height="640">
  <title>v7-fluid-foret-nuit</title>
  <defs>
    <linearGradient id="grad-foret-nuit" x1="0%" y1="0%" x2="0%" y2="100%"><stop offset="0%" stop-color="rgb(28,40,55)"/><stop offset="100%" stop-color="rgb(3,56,33)"/></linearGradient>
  </defs>
  <rect width="1920" height="640" fill="url(#grad-foret-nuit)"/>
  <polygon points="1920.0,640.0 1920.0,286.0 1910.0,286.0 1900.0,285.9 1890.0,285.7 1880.0,285.6 1870.0,285.3 1860.0,285.1 1850.0,284.8 1840.0,284.4 1830.0,284.0 1820.0,283.6 1810.0,283.1 1800.0,282.5 1790.0,282.0 1780.0,281.4 1770.0,280.7 1760.0,280.0 1750.0,279.3 1740.0,278.5 1730.0,277.7 1720.0,276.9 1710.0,276.1 1700.0,275.2 1690.0,274.2 1680.0,273.3 1670.0,272.3 1660.0,271.3 1650.0,270.3 1640.0,269.2 1630.0,268.2 1620.0,267.1 1610.0,266.0 1600.0,264.9 1590.0,263.7 1580.0,262.6 1570.0,261.4 1560.0,260.3 1550.0,259.1 1540.0,257.9 1530.0,256.8 1520.0,255.6 1510.0,254.4 1500.0,253.2 1490.0,252.1 1480.0,250.9 1470.0,249.7 1460.0,248.6 1450.0,247.4 1440.0,246.3 1430.0,245.2 1420.0,244.1 1410.0,243.1 1400.0,242.0 1390.0,241.0 1380.0,240.0 1370.0,239.0 1360.0,238.0 1350.0,237.1 1340.0,236.2 1330.0,235.3 1320.0,234.5 1310.0,233.7 1300.0,232.9 1290.0,232.2 1280.0,231.5 1270.0,230.8 1260.0,230.2 1250.0,229.6 1240.0,229.1 1230.0,228.6 1220.0,228.1 1210.0,227.7 1200.0,227.3 1190.0,227.0 1180.0,226.7 1170.0,226.5 1160.0,226.3 1150.0,226.2 1140.0,226.1 1130.0,226.0 1120.0,226.0 1110.0,226.0 1100.0,226.1 1090.0,226.3 1080.0,226.4 1070.0,226.7 1060.0,226.9 1050.0,227.2 1040.0,227.6 1030.0,228.0 1020.0,228.4 1010.0,228.9 1000.0,229.5 990.0,230.0 980.0,230.6 970.0,231.3 960.0,232.0 950.0,232.7 940.0,233.5 930.0,234.3 920.0,235.1 910.0,235.9 900.0,236.8 890.0,237.8 880.0,238.7 870.0,239.7 860.0,240.7 850.0,241.7 840.0,242.8 830.0,243.8 820.0,244.9 810.0,246.0 800.0,247.1 790.0,248.3 780.0,249.4 770.0,250.6 760.0,251.7 750.0,252.9 740.0,254.1 730.0,255.2 720.0,256.4 710.0,257.6 700.0,258.8 690.0,259.9 680.0,261.1 670.0,262.3 660.0,263.4 650.0,264.6 640.0,265.7 630.0,266.8 620.0,267.9 610.0,268.9 600.0,270.0 590.0,271.0 580.0,272.0 570.0,273.0 560.0,274.0 550.0,274.9 540.0,275.8 530.0,276.7 520.0,277.5 510.0,278.3 500.0,279.1 490.0,279.8 480.0,280.5 470.0,281.2 460.0,281.8 450.0,282.4 440.0,282.9 430.0,283.4 420.0,283.9 410.0,284.3 400.0,284.7 390.0,285.0 380.0,285.3 370.0,285.5 360.0,285.7 350.0,285.8 340.0,285.9 330.0,286.0 320.0,286.0 310.0,286.0 300.0,285.9 290.0,285.7 280.0,285.6 270.0,285.3 260.0,285.1 250.0,284.8 240.0,284.4 230.0,284.0 220.0,283.6 210.0,283.1 200.0,282.5 190.0,282.0 180.0,281.4 170.0,280.7 160.0,280.0 150.0,279.3 140.0,278.5 130.0,277.7 120.0,276.9 110.0,276.1 100.0,275.2 90.0,274.2 80.0,273.3 70.0,272.3 60.0,271.3 50.0,270.3 40.0,269.2 30.0,268.2 20.0,267.1 10.0,266.0 0.0,264.9 0.0,640.0" fill="rgb(3,56,33)" fill-opacity="0.941"/>
  <polygon points="1920.0,640.0 1920.0,345.2 1910.0,347.0 1900.0,348.8 1890.0,350.6 1880.0,352.5 1870.0,354.3 1860.0,356.1 1850.0,357.9 1840.0,359.7 1830.0,361.5 1820.0,363.3 1810.0,365.0 1800.0,366.8 1790.0,368.5 1780.0,370.1 1770.0,371.7 1760.0,373.3 1750.0,374.8 1740.0,376.3 1730.0,377.7 1720.0,379.1 1710.0,380.4 1700.0,381.7 1690.0,382.9 1680.0,384.0 1670.0,385.1 1660.0,386.1 1650.0,387.0 1640.0,387.8 1630.0,388.6 1620.0,389.3 1610.0,389.9 1600.0,390.5 1590.0,390.9 1580.0,391.3 1570.0,391.6 1560.0,391.8 1550.0,392.0 1540.0,392.0 1530.0,392.0 1520.0,391.8 1510.0,391.6 1500.0,391.3 1490.0,391.0 1480.0,390.5 1470.0,390.0 1460.0,389.4 1450.0,388.7 1440.0,387.9 1430.0,387.1 1420.0,386.1 1410.0,385.1 1400.0,384.1 1390.0,383.0 1380.0,381.8 1370.0,380.5 1360.0,379.2 1350.0,377.8 1340.0,376.4 1330.0,374.9 1320.0,373.4 1310.0,371.8 1300.0,370.2 1290.0,368.6 1280.0,366.9 1270.0,365.2 1260.0,363.4 1250.0,361.7 1240.0,359.9 1230.0,358.1 1220.0,356.2 1210.0,354.4 1200.0,352.6 1190.0,350.8 1180.0,348.9 1170.0,347.1 1160.0,345.3 1150.0,343.5 1140.0,341.7 1130.0,339.9 1120.0,338.2 1110.0,336.5 1100.0,334.8 1090.0,333.2 1080.0,331.6 1070.0,330.0 1060.0,328.5 1050.0,327.1 1040.0,325.7 1030.0,324.3 1020.0,323.0 1010.0,321.8 1000.0,320.6 990.0,319.5 980.0,318.5 970.0,317.5 960.0,316.6 950.0,315.8 940.0,315.1 930.0,314.4 920.0,313.8 910.0,313.3 900.0,312.9 890.0,312.5 880.0,312.3 870.0,312.1 860.0,312.0 850.0,312.0 840.0,312.1 830.0,312.2 820.0,312.5 810.0,312.8 800.0,313.2 790.0,313.7 780.0,314.3 770.0,314.9 760.0,315.6 750.0,316.5 740.0,317.3 730.0,318.3 720.0,319.3 710.0,320.4 700.0,321.5 690.0,322.8 680.0,324.0 670.0,325.4 660.0,326.8 650.0,328.2 640.0,329.7 630.0,331.3 620.0,332.9 610.0,334.5 600.0,336.2 590.0,337.9 580.0,339.6 570.0,341.3 560.0,343.1 550.0,344.9 540.0,346.7 530.0,348.5 520.0,350.4 510.0,352.2 500.0,354.0 490.0,355.9 480.0,357.7 470.0,359.5 460.0,361.3 450.0,363.1 440.0,364.8 430.0,366.5 420.0,368.2 410.0,369.9 400.0,371.5 390.0,373.1 380.0,374.6 370.0,376.1 360.0,377.5 350.0,378.9 340.0,380.2 330.0,381.5 320.0,382.7 310.0,383.9 300.0,384.9 290.0,385.9 280.0,386.9 270.0,387.7 260.0,388.5 250.0,389.2 240.0,389.9 230.0,390.4 220.0,390.9 210.0,391.3 200.0,391.6 190.0,391.8 180.0,391.9 170.0,392.0 160.0,392.0 150.0,391.9 140.0,391.7 130.0,391.4 120.0,391.0 110.0,390.6 100.0,390.1 90.0,389.5 80.0,388.8 70.0,388.0 60.0,387.2 50.0,386.3 40.0,385.3 30.0,384.2 20.0,383.1 10.0,381.9 0.0,380.7 0.0,640.0" fill="rgb(3,69,42)"/>
  <polygon points="1920.0,640.0 1920.0,489.7 1910.0,489.4 1900.0,489.1 1890.0,488.8 1880.0,488.4 1870.0,488.0 1860.0,487.6 1850.0,487.1 1840.0,486.6 1830.0,486.1 1820.0,485.6 1810.0,485.0 1800.0,484.4 1790.0,483.8 1780.0,483.2 1770.0,482.5 1760.0,481.8 1750.0,481.1 1740.0,480.4 1730.0,479.6 1720.0,478.8 1710.0,478.1 1700.0,477.2 1690.0,476.4 1680.0,475.6 1670.0,474.7 1660.0,473.8 1650.0,472.9 1640.0,472.0 1630.0,471.1 1620.0,470.2 1610.0,469.2 1600.0,468.3 1590.0,467.3 1580.0,466.4 1570.0,465.4 1560.0,464.4 1550.0,463.5 1540.0,462.5 1530.0,461.5 1520.0,460.5 1510.0,459.5 1500.0,458.6 1490.0,457.6 1480.0,456.6 1470.0,455.6 1460.0,454.7 1450.0,453.7 1440.0,452.8 1430.0,451.8 1420.0,450.9 1410.0,450.0 1400.0,449.1 1390.0,448.2 1380.0,447.3 1370.0,446.4 1360.0,445.6 1350.0,444.7 1340.0,443.9 1330.0,443.1 1320.0,442.3 1310.0,441.6 1300.0,440.8 1290.0,440.1 1280.0,439.4 1270.0,438.7 1260.0,438.1 1250.0,437.4 1240.0,436.8 1230.0,436.3 1220.0,435.7 1210.0,435.2 1200.0,434.7 1190.0,434.2 1180.0,433.8 1170.0,433.4 1160.0,433.0 1150.0,432.6 1140.0,432.3 1130.0,432.0 1120.0,431.8 1110.0,431.5 1100.0,431.3 1090.0,431.2 1080.0,431.0 1070.0,430.9 1060.0,430.8 1050.0,430.8 1040.0,430.8 1030.0,430.8 1020.0,430.9 1010.0,431.0 1000.0,431.1 990.0,431.2 980.0,431.4 970.0,431.6 960.0,431.9 950.0,432.2 940.0,432.5 930.0,432.8 920.0,433.2 910.0,433.6 900.0,434.0 890.0,434.5 880.0,435.0 870.0,435.5 860.0,436.0 850.0,436.6 840.0,437.2 830.0,437.8 820.0,438.4 810.0,439.1 800.0,439.8 790.0,440.5 780.0,441.2 770.0,442.0 760.0,442.8 750.0,443.5 740.0,444.4 730.0,445.2 720.0,446.0 710.0,446.9 700.0,447.8 690.0,448.7 680.0,449.6 670.0,450.5 660.0,451.4 650.0,452.4 640.0,453.3 630.0,454.3 620.0,455.2 610.0,456.2 600.0,457.2 590.0,458.1 580.0,459.1 570.0,460.1 560.0,461.1 550.0,462.1 540.0,463.0 530.0,464.0 520.0,465.0 510.0,466.0 500.0,466.9 490.0,467.9 480.0,468.8 470.0,469.8 460.0,470.7 450.0,471.6 440.0,472.5 430.0,473.4 420.0,474.3 410.0,475.2 400.0,476.0 390.0,476.9 380.0,477.7 370.0,478.5 360.0,479.3 350.0,480.0 340.0,480.8 330.0,481.5 320.0,482.2 310.0,482.9 300.0,483.5 290.0,484.2 280.0,484.8 270.0,485.3 260.0,485.9 250.0,486.4 240.0,486.9 230.0,487.4 220.0,487.8 210.0,488.2 200.0,488.6 190.0,489.0 180.0,489.3 170.0,489.6 160.0,489.8 150.0,490.1 140.0,490.3 130.0,490.4 120.0,490.6 110.0,490.7 100.0,490.8 90.0,490.8 80.0,490.8 70.0,490.8 60.0,490.7 50.0,490.6 40.0,490.5 30.0,490.4 20.0,490.2 10.0,490.0 0.0,489.7 0.0,640.0" fill="rgb(9,97,53)" fill-opacity="0.980"/>
  <polygon points="1920.0,640.0 1920.0,546.8 1910.0,545.9 1900.0,545.0 1890.0,544.1 1880.0,543.3 1870.0,542.5 1860.0,541.8 1850.0,541.2 1840.0,540.6 1830.0,540.0 1820.0,539.6 1810.0,539.2 1800.0,538.9 1790.0,538.6 1780.0,538.4 1770.0,538.3 1760.0,538.2 1750.0,538.2 1740.0,538.3 1730.0,538.4 1720.0,538.6 1710.0,538.9 1700.0,539.3 1690.0,539.7 1680.0,540.2 1670.0,540.7 1660.0,541.3 1650.0,542.0 1640.0,542.7 1630.0,543.5 1620.0,544.3 1610.0,545.2 1600.0,546.1 1590.0,547.1 1580.0,548.1 1570.0,549.2 1560.0,550.3 1550.0,551.4 1540.0,552.6 1530.0,553.8 1520.0,555.0 1510.0,556.3 1500.0,557.5 1490.0,558.8 1480.0,560.1 1470.0,561.4 1460.0,562.7 1450.0,564.0 1440.0,565.3 1430.0,566.6 1420.0,567.9 1410.0,569.2 1400.0,570.5 1390.0,571.7 1380.0,572.9 1370.0,574.1 1360.0,575.3 1350.0,576.4 1340.0,577.5 1330.0,578.5 1320.0,579.6 1310.0,580.5 1300.0,581.4 1290.0,582.3 1280.0,583.1 1270.0,583.9 1260.0,584.6 1250.0,585.2 1240.0,585.8 1230.0,586.4 1220.0,586.8 1210.0,587.2 1200.0,587.5 1190.0,587.8 1180.0,588.0 1170.0,588.1 1160.0,588.2 1150.0,588.2 1140.0,588.1 1130.0,588.0 1120.0,587.8 1110.0,587.5 1100.0,587.1 1090.0,586.7 1080.0,586.2 1070.0,585.7 1060.0,585.1 1050.0,584.4 1040.0,583.7 1030.0,582.9 1020.0,582.1 1010.0,581.2 1000.0,580.3 990.0,579.3 980.0,578.3 970.0,577.2 960.0,576.1 950.0,575.0 940.0,573.8 930.0,572.6 920.0,571.4 910.0,570.1 900.0,568.9 890.0,567.6 880.0,566.3 870.0,565.0 860.0,563.7 850.0,562.4 840.0,561.1 830.0,559.8 820.0,558.5 810.0,557.2 800.0,555.9 790.0,554.7 780.0,553.5 770.0,552.3 760.0,551.1 750.0,550.0 740.0,548.9 730.0,547.9 720.0,546.8 710.0,545.9 700.0,545.0 690.0,544.1 680.0,543.3 670.0,542.5 660.0,541.8 650.0,541.2 640.0,540.6 630.0,540.0 620.0,539.6 610.0,539.2 600.0,538.9 590.0,538.6 580.0,538.4 570.0,538.3 560.0,538.2 550.0,538.2 540.0,538.3 530.0,538.4 520.0,538.6 510.0,538.9 500.0,539.3 490.0,539.7 480.0,540.2 470.0,540.7 460.0,541.3 450.0,542.0 440.0,542.7 430.0,543.5 420.0,544.3 410.0,545.2 400.0,546.1 390.0,547.1 380.0,548.1 370.0,549.2 360.0,550.3 350.0,551.4 340.0,552.6 330.0,553.8 320.0,555.0 310.0,556.3 300.0,557.5 290.0,558.8 280.0,560.1 270.0,561.4 260.0,562.7 250.0,564.0 240.0,565.3 230.0,566.6 220.0,567.9 210.0,569.2 200.0,570.5 190.0,571.7 180.0,572.9 170.0,574.1 160.0,575.3 150.0,576.4 140.0,577.5 130.0,578.5 120.0,579.6 110.0,580.5 100.0,581.4 90.0,582.3 80.0,583.1 70.0,583.9 60.0,584.6 50.0,585.2 40.0,585.8 30.0,586.4 20.0,586.8 10.0,587.2 0.0,587.5 0.0,640.0" fill="rgb(26,128,80)" fill-opacity="0.941"/>
  <ellipse cx="1565.0" cy="185.0" rx="115.0" ry="115.0" fill="rgb(200,75,25)"/>
  <ellipse cx="1100.0" cy="150.0" rx="18.0" ry="18.0" fill="rgb(245,145,95)" fill-opacity="0.902"/>
  <ellipse cx="1300.0" cy="250.0" rx="12.0" ry="12.0" fill="rgb(245,145,95)" fill-opacity="0.902"/>
  <ellipse cx="1700.0" cy="220.0" rx="15.0" ry="15.0" fill="rgb(245,145,95)" fill-opacity="0.902"/>
  <polygon points="0.0,0.0 768.0,0.0 576.0,640.0 0.0,640.0" fill="rgb(250,247,241)"/>
</svg>
