<?xml version="1.0" encoding="UTF-8" standalone="no"?>
<svg xmlns="http://www.w3.org/2000/svg" viewBox="0 0 1920 640" width="1920" height="640">
  <title>v7-mosaic-aurore</title>
  <rect width="1920" height="640" fill="rgb(250,247,241)"/>
  <polygon points="0.0,0.0 147.7,0.0 143.6,113.9" fill="rgb(170,65,18)"/>
  <polygon points="0.0,0.0 143.6,113.9 0.0,106.7" fill="rgb(200,75,25)"/>
  <polygon points="147.7,0.0 295.4,0.0 143.6,113.9" fill="rgb(200,75,25)"/>
  <polygon points="295.4,0.0 295.1,105.7 143.6,113.9" fill="rgb(236,99,36)"/>
  <polygon points="295.4,0.0 443.1,0.0 432.5,110.7" fill="rgb(236,99,36)"/>
  <polygon points="295.4,0.0 432.5,110.7 295.1,105.7" fill="rgb(217,138,70)"/>
  <polygon points="443.1,0.0 590.8,0.0 432.5,110.7" fill="rgb(217,138,70)"/>
  <polygon points="590.8,0.0 581.0,118.0 432.5,110.7" fill="rgb(180,105,50)"/>
  <polygon points="590.8,0.0 738.5,0.0 728.2,117.7" fill="rgb(180,105,50)"/>
  <polygon points="590.8,0.0 728.2,117.7 581.0,118.0" fill="rgb(210,95,50)"/>
  <polygon points="738.5,0.0 886.2,0.0 728.2,117.7" fill="rgb(210,95,50)"/>
  <polygon points="886.2,0.0 870.0,105.4 728.2,117.7" fill="rgb(9,97,53)"/>
  <polygon points="886.2,0.0 1033.8,0.0 1036.0,117.5" fill="rgb(9,97,53)"/>
  <polygon points="886.2,0.0 1036.0,117.5 870.0,105.4" fill="rgb(26,128,80)"/>
  <polygon points="1033.8,0.0 1181.5,0.0 1036.0,117.5" fill="rgb(26,128,80)"/>
  <polygon points="1181.5,0.0 1195.3,102.1 1036.0,117.5" fill="rgb(75,166,132)"/>
  <polygon points="1181.5,0.0 1329.2,0.0 1334.6,115.3" fill="rgb(75,166,132)"/>
  <polygon points="1181.5,0.0 1334.6,115.3 1195.3,102.1" fill="rgb(245,145,95)"/>
  <polygon points="1329.2,0.0 1476.9,0.0 1334.6,115.3" fill="rgb(245,145,95)"/>
  <polygon points="1476.9,0.0 1463.9,114.3 1334.6,115.3" fill="rgb(9,97,53)"/>
  <polygon points="1476.9,0.0 1624.6,0.0 1637.1,117.8" fill="rgb(9,97,53)"/>
  <polygon points="1476.9,0.0 1637.1,117.8 1463.9,114.3" fill="rgb(217,138,70)"/>
  <polygon points="1624.6,0.0 1772.3,0.0 1637.1,117.8" fill="rgb(217,138,70)"/>
  <polygon points="1772.3,0.0 1761.1,112.4 1637.1,117.8" fill="rgb(170,65,18)"/>
  <polygon points="1772.3,0.0 1920.0,0.0 1920.0,106.7" fill="rgb(170,65,18)"/>
  <polygon points="1772.3,0.0 1920.0,106.7 1761.1,112.4" fill="rgb(200,75,25)"/>
  <polygon points="0.0,106.7 143.6,113.9 0.0,213.3" fill="rgb(200,75,25)"/>
  <polygon points="143.6,113.9 146.0,224.3 0.0,213.3" fill="rgb(236,99,36)"/>
  <polygon points="143.6,113.9 295.1,105.7 306.2,201.8" fill="rgb(236,99,36)"/>
  <polygon points="143.6,113.9 306.2,201.8 146.0,224.3" fill="rgb(217,138,70)"/>
  <polygon points="295.1,105.7 432.5,110.7 306.2,201.8" fill="rgb(217,138,70)"/>
  <polygon points="432.5,110.7 460.8,221.1 306.2,201.8" fill="rgb(180,105,50)"/>
  <polygon points="432.5,110.7 581.0,118.0 582.1,224.5" fill="rgb(180,105,50)"/>
  <polygon points="432.5,110.7 582.1,224.5 460.8,221.1" fill="rgb(210,95,50)"/>
  <polygon points="581.0,118.0 728.2,117.7 582.1,224.5" fill="rgb(210,95,50)"/>
  <polygon points="728.2,117.7 725.0,223.9 582.1,224.5" fill="rgb(9,97,53)"/>
  <polygon points="728.2,117.7 870.0,105.4 890.0,201.9" fill="rgb(9,97,53)"/>
  <polygon points="728.2,117.7 890.0,201.9 725.0,223.9" fill="rgb(26,128,80)"/>
  <polygon points="870.0,105.4 1036.0,117.5 890.0,201.9" fill="rgb(26,128,80)"/>
  <polygon points="1036.0,117.5 1046.3,208.9 890.0,201.9" fill="rgb(75,166,132)"/>
  <polygon points="1036.0,117.5 1195.3,102.1 1164.4,205.3" fill="rgb(75,166,132)"/>
  <polygon points="1036.0,117.5 1164.4,205.3 1046.3,208.9" fill="rgb(245,145,95)"/>
  <polygon points="1195.3,102.1 1334.6,115.3 1164.4,205.3" fill="rgb(245,145,95)"/>
  <polygon points="1334.6,115.3 1312.7,212.2 1164.4,205.3" fill="rgb(9,97,53)"/>
  <polygon points="1334.6,115.3 1463.9,114.3 1468.4,223.4" fill="rgb(9,97,53)"/>
  <polygon points="1334.6,115.3 1468.4,223.4 1312.7,212.2" fill="rgb(217,138,70)"/>
  <polygon points="1463.9,114.3 1637.1,117.8 1468.4,223.4" fill="rgb(217,138,70)"/>
  <polygon points="1637.1,117.8 1620.0,203.9 1468.4,223.4" fill="rgb(170,65,18)"/>
  <polygon points="1637.1,117.8 1761.1,112.4 1752.5,218.3" fill="rgb(170,65,18)"/>
  <polygon points="1637.1,117.8 1752.5,218.3 1620.0,203.9" fill="rgb(200,75,25)"/>
  <polygon points="1761.1,112.4 1920.0,106.7 1752.5,218.3" fill="rgb(200,75,25)"/>
  <polygon points="1920.0,106.7 1920.0,213.3 1752.5,218.3" fill="rgb(236,99,36)"/>
  <polygon points="0.0,213.3 146.0,224.3 132.0,331.0" fill="rgb(236,99,36)"/>
  <polygon points="0.0,213.3 132.0,331.0 0.0,320.0" fill="rgb(217,138,70)"/>
  <polygon points="146.0,224.3 306.2,201.8 132.0,331.0" fill="rgb(217,138,70)"/>
  <polygon points="306.2,201.8 305.4,321.6 132.0,331.0" fill="rgb(180,105,50)"/>
  <polygon points="306.2,201.8 460.8,221.1 446.0,314.7" fill="rgb(180,105,50)"/>
  <polygon points="306.2,201.8 446.0,314.7 305.4,321.6" fill="rgb(210,95,50)"/>
  <polygon points="460.8,221.1 582.1,224.5 446.0,314.7" fill="rgb(210,95,50)"/>
  <polygon points="582.1,224.5 606.9,315.4 446.0,314.7" fill="rgb(9,97,53)"/>
  <polygon points="582.1,224.5 725.0,223.9 724.3,321.9" fill="rgb(9,97,53)"/>
  <polygon points="582.1,224.5 724.3,321.9 606.9,315.4" fill="rgb(26,128,80)"/>
  <polygon points="725.0,223.9 890.0,201.9 724.3,321.9" fill="rgb(26,128,80)"/>
  <polygon points="890.0,201.9 900.8,331.3 724.3,321.9" fill="rgb(75,166,132)"/>
  <polygon points="890.0,201.9 1046.3,208.9 1029.0,313.7" fill="rgb(75,166,132)"/>
  <polygon points="890.0,201.9 1029.0,313.7 900.8,331.3" fill="rgb(245,145,95)"/>
  <polygon points="1046.3,208.9 1164.4,205.3 1029.0,313.7" fill="rgb(245,145,95)"/>
  <polygon points="1164.4,205.3 1180.1,310.6 1029.0,313.7" fill="rgb(9,97,53)"/>
  <polygon points="1164.4,205.3 1312.7,212.2 1333.2,313.3" fill="rgb(9,97,53)"/>
  <polygon points="1164.4,205.3 1333.2,313.3 1180.1,310.6" fill="rgb(217,138,70)"/>
  <polygon points="1312.7,212.2 1468.4,223.4 1333.2,313.3" fill="rgb(217,138,70)"/>
  <polygon points="1468.4,223.4 1468.8,326.9 1333.2,313.3" fill="rgb(170,65,18)"/>
  <polygon points="1468.4,223.4 1620.0,203.9 1642.4,322.9" fill="rgb(170,65,18)"/>
  <polygon points="1468.4,223.4 1642.4,322.9 1468.8,326.9" fill="rgb(200,75,25)"/>
  <polygon points="1620.0,203.9 1752.5,218.3 1642.4,322.9" fill="rgb(200,75,25)"/>
  <polygon points="1752.5,218.3 1763.6,330.7 1642.4,322.9" fill="rgb(236,99,36)"/>
  <polygon points="1752.5,218.3 1920.0,213.3 1920.0,320.0" fill="rgb(236,99,36)"/>
  <polygon points="1752.5,218.3 1920.0,320.0 1763.6,330.7" fill="rgb(217,138,70)"/>
  <polygon points="0.0,320.0 132.0,331.0 0.0,426.7" fill="rgb(217,138,70)"/>
  <polygon points="132.0,331.0 151.5,427.9 0.0,426.7" fill="rgb(180,105,50)"/>
  <polygon points="132.0,331.0 305.4,321.6 291.5,434.5" fill="rgb(180,105,50)"/>
  <polygon points="132.0,331.0 291.5,434.5 151.5,427.9" fill="rgb(210,95,50)"/>
  <polygon points="305.4,321.6 446.0,314.7 291.5,434.5" fill="rgb(210,95,50)"/>
  <polygon points="446.0,314.7 436.0,418.5 291.5,434.5" fill="rgb(9,97,53)"/>
  <polygon points="446.0,314.7 606.9,315.4 585.1,422.3" fill="rgb(9,97,53)"/>
  <polygon points="446.0,314.7 585.1,422.3 436.0,418.5" fill="rgb(26,128,80)"/>
  <polygon points="606.9,315.4 724.3,321.9 585.1,422.3" fill="rgb(26,128,80)"/>
  <polygon points="724.3,321.9 725.0,417.7 585.1,422.3" fill="rgb(75,166,132)"/>
  <polygon points="724.3,321.9 900.8,331.3 894.0,420.5" fill="rgb(75,166,132)"/>
  <polygon points="724.3,321.9 894.0,420.5 725.0,417.7" fill="rgb(245,145,95)"/>
  <polygon points="900.8,331.3 1029.0,313.7 894.0,420.5" fill="rgb(245,145,95)"/>
  <polygon points="1029.0,313.7 1048.4,430.3 894.0,420.5" fill="rgb(9,97,53)"/>
  <polygon points="1029.0,313.7 1180.1,310.6 1195.2,430.7" fill="rgb(9,97,53)"/>
  <polygon points="1029.0,313.7 1195.2,430.7 1048.4,430.3" fill="rgb(217,138,70)"/>
  <polygon points="1180.1,310.6 1333.2,313.3 1195.2,430.7" fill="rgb(217,138,70)"/>
  <polygon points="1333.2,313.3 1311.6,434.0 1195.2,430.7" fill="rgb(170,65,18)"/>
  <polygon points="1333.2,313.3 1468.8,326.9 1458.0,424.6" fill="rgb(170,65,18)"/>
  <polygon points="1333.2,313.3 1458.0,424.6 1311.6,434.0" fill="rgb(200,75,25)"/>
  <polygon points="1468.8,326.9 1642.4,322.9 1458.0,424.6" fill="rgb(200,75,25)"/>
  <polygon points="1642.4,322.9 1638.1,427.9 1458.0,424.6" fill="rgb(236,99,36)"/>
  <polygon points="1642.4,322.9 1763.6,330.7 1788.7,426.9" fill="rgb(236,99,36)"/>
  <polygon points="1642.4,322.9 1788.7,426.9 1638.1,427.9" fill="rgb(217,138,70)"/>
  <polygon points="1763.6,330.7 1920.0,320.0 1788.7,426.9" fill="rgb(217,138,70)"/>
  <polygon points="1920.0,320.0 1920.0,426.7 1788.7,426.9" fill="rgb(180,105,50)"/>
  <polygon points="0.0,426.7 151.5,427.9 158.6,530.9" fill="rgb(180,105,50)"/>
  <polygon points="0.0,426.7 158.6,530.9 0.0,533.3" fill="rgb(210,95,50)"/>
  <polygon points="151.5,427.9 291.5,434.5 158.6,530.9" fill="rgb(210,95,50)"/>
  <polygon points="291.5,434.5 289.1,536.6 158.6,530.9" fill="rgb(9,97,53)"/>
  <polygon points="291.5,434.5 436.0,418.5 442.3,529.8" fill="rgb(9,97,53)"/>
  <polygon points="291.5,434.5 442.3,529.8 289.1,536.6" fill="rgb(26,128,80)"/>
  <polygon points="436.0,418.5 585.1,422.3 442.3,529.8" fill="rgb(26,128,80)"/>
  <polygon points="585.1,422.3 602.4,530.8 442.3,529.8" fill="rgb(75,166,132)"/>
  <polygon points="585.1,422.3 725.0,417.7 756.1,533.7" fill="rgb(75,166,132)"/>
  <polygon points="585.1,422.3 756.1,533.7 602.4,530.8" fill="rgb(245,145,95)"/>
  <polygon points="725.0,417.7 894.0,420.5 756.1,533.7" fill="rgb(245,145,95)"/>
  <polygon points="894.0,420.5 882.7,544.2 756.1,533.7" fill="rgb(9,97,53)"/>
  <polygon points="894.0,420.5 1048.4,430.3 1035.2,530.7" fill="rgb(9,97,53)"/>
  <polygon points="894.0,420.5 1035.2,530.7 882.7,544.2" fill="rgb(217,138,70)"/>
  <polygon points="1048.4,430.3 1195.2,430.7 1035.2,530.7" fill="rgb(217,138,70)"/>
  <polygon points="1195.2,430.7 1185.9,533.4 1035.2,530.7" fill="rgb(170,65,18)"/>
  <polygon points="1195.2,430.7 1311.6,434.0 1310.7,527.0" fill="rgb(170,65,18)"/>
  <polygon points="1195.2,430.7 1310.7,527.0 1185.9,533.4" fill="rgb(200,75,25)"/>
  <polygon points="1311.6,434.0 1458.0,424.6 1310.7,527.0" fill="rgb(200,75,25)"/>
  <polygon points="1458.0,424.6 1468.6,536.0 1310.7,527.0" fill="rgb(236,99,36)"/>
  <polygon points="1458.0,424.6 1638.1,427.9 1622.9,531.3" fill="rgb(236,99,36)"/>
  <polygon points="1458.0,424.6 1622.9,531.3 1468.6,536.0" fill="rgb(217,138,70)"/>
  <polygon points="1638.1,427.9 1788.7,426.9 1622.9,531.3" fill="rgb(217,138,70)"/>
  <polygon points="1788.7,426.9 1766.0,540.2 1622.9,531.3" fill="rgb(180,105,50)"/>
  <polygon points="1788.7,426.9 1920.0,426.7 1920.0,533.3" fill="rgb(180,105,50)"/>
  <polygon points="1788.7,426.9 1920.0,533.3 1766.0,540.2" fill="rgb(210,95,50)"/>
  <polygon points="0.0,533.3 158.6,530.9 0.0,640.0" fill="rgb(210,95,50)"/>
  <polygon points="158.6,530.9 147.7,640.0 0.0,640.0" fill="rgb(9,97,53)"/>
  <polygon points="158.6,530.9 289.1,536.6 295.4,640.0" fill="rgb(9,97,53)"/>
  <polygon points="158.6,530.9 295.4,640.0 147.7,640.0" fill="rgb(26,128,80)"/>
  <polygon points="289.1,536.6 442.3,529.8 295.4,640.0" fill="rgb(26,128,80)"/>
  <polygon points="442.3,529.8 443.1,640.0 295.4,640.0" fill="rgb(75,166,132)"/>
  <polygon points="442.3,529.8 602.4,530.8 590.8,640.0" fill="rgb(75,166,132)"/>
  <polygon points="442.3,529.8 590.8,640.0 443.1,640.0" fill="rgb(245,145,95)"/>
  <polygon points="602.4,530.8 756.1,533.7 590.8,640.0" fill="rgb(245,145,95)"/>
  <polygon points="756.1,533.7 738.5,640.0 590.8,640.0" fill="rgb(9,97,53)"/>
  <polygon points="756.1,533.7 882.7,544.2 886.2,640.0" fill="rgb(9,97,53)"/>
  <polygon points="756.1,533.7 886.2,640.0 738.5,640.0" fill="rgb(217,138,70)"/>
  <polygon points="882.7,544.2 1035.2,530.7 886.2,640.0" fill="rgb(217,138,70)"/>
  <polygon points="1035.2,530.7 1033.8,640.0 886.2,640.0" fill="rgb(170,65,18)"/>
  <polygon points="1035.2,530.7 1185.9,533.4 1181.5,640.0" fill="rgb(170,65,18)"/>
  <polygon points="1035.2,530.7 1181.5,640.0 1033.8,640.0" fill="rgb(200,75,25)"/>
  <polygon points="1185.9,533.4 1310.7,527.0 1181.5,640.0" fill="rgb(200,75,25)"/>
  <polygon points="1310.7,527.0 1329.2,640.0 1181.5,640.0" fill="rgb(236,99,36)"/>
  <polygon points="1310.7,527.0 1468.6,536.0 1476.9,640.0" fill="rgb(236,99,36)"/>
  <polygon points="1310.7,527.0 1476.9,640.0 1329.2,640.0" fill="rgb(217,138,70)"/>
  <polygon points="1468.6,536.0 1622.9,531.3 1476.9,640.0" fill="rgb(217,138,70)"/>
  <polygon points="1622.9,531.3 1624.6,640.0 1476.9,640.0" fill="rgb(180,105,50)"/>
  <polygon points="1622.9,531.3 1766.0,540.2 1772.3,640.0" fill="rgb(180,105,50)"/>
  <polygon points="1622.9,531.3 1772.3,640.0 1624.6,640.0" fill="rgb(210,95,50)"/>
  <polygon points="1766.0,540.2 1920.0,533.3 1772.3,640.0" fill="rgb(210,95,50)"/>
  <polygon points="1920.0,533.3 1920.0,640.0 1772.3,640.0" fill="rgb(9,97,53)"/>
  <polygon points="0.0,0.0 768.0,0.0 576.0,640.0 0.0,640.0" fill="rgb(250,247,241)"/>
</svg>
