<?xml version="1.0" encoding="UTF-8" standalone="no"?>
<svg xmlns="http://www.w3.org/2000/svg" viewBox="0 0 1920 640" width="1920" height="640">
  <title>v7-mosaic-cuivre</title>
  <rect width="1920" height="640" fill="rgb(250,247,241)"/>
  <polygon points="0.0,0.0 160.0,0.0 141.3,117.9" fill="rgb(170,65,18)"/>
  <polygon points="0.0,0.0 141.3,117.9 0.0,106.7" fill="rgb(200,75,25)"/>
  <polygon points="160.0,0.0 320.0,0.0 141.3,117.9" fill="rgb(200,75,25)"/>
  <polygon points="320.0,0.0 307.8,118.5 141.3,117.9" fill="rgb(180,105,50)"/>
  <polygon points="320.0,0.0 480.0,0.0 497.9,100.9" fill="rgb(180,105,50)"/>
  <polygon points="320.0,0.0 497.9,100.9 307.8,118.5" fill="rgb(217,138,70)"/>
  <polygon points="480.0,0.0 640.0,0.0 497.9,100.9" fill="rgb(217,138,70)"/>
  <polygon points="640.0,0.0 640.7,104.2 497.9,100.9" fill="rgb(210,95,50)"/>
  <polygon points="640.0,0.0 800.0,0.0 796.4,113.6" fill="rgb(210,95,50)"/>
  <polygon points="640.0,0.0 796.4,113.6 640.7,104.2" fill="rgb(200,75,25)"/>
  <polygon points="800.0,0.0 960.0,0.0 796.4,113.6" fill="rgb(200,75,25)"/>
  <polygon points="960.0,0.0 973.1,100.8 796.4,113.6" fill="rgb(42,46,55)"/>
  <polygon points="960.0,0.0 1120.0,0.0 1121.8,111.1" fill="rgb(42,46,55)"/>
  <polygon points="960.0,0.0 1121.8,111.1 973.1,100.8" fill="rgb(170,65,18)"/>
  <polygon points="1120.0,0.0 1280.0,0.0 1121.8,111.1" fill="rgb(170,65,18)"/>
  <polygon points="1280.0,0.0 1283.8,97.6 1121.8,111.1" fill="rgb(217,138,70)"/>
  <polygon points="1280.0,0.0 1440.0,0.0 1435.6,106.5" fill="rgb(217,138,70)"/>
  <polygon points="1280.0,0.0 1435.6,106.5 1283.8,97.6" fill="rgb(3,69,42)"/>
  <polygon points="1440.0,0.0 1600.0,0.0 1435.6,106.5" fill="rgb(3,69,42)"/>
  <polygon points="1600.0,0.0 1617.0,114.4 1435.6,106.5" fill="rgb(180,105,50)"/>
  <polygon points="1600.0,0.0 1760.0,0.0 1767.0,101.4" fill="rgb(180,105,50)"/>
  <polygon points="1600.0,0.0 1767.0,101.4 1617.0,114.4" fill="rgb(200,75,25)"/>
  <polygon points="1760.0,0.0 1920.0,0.0 1767.0,101.4" fill="rgb(200,75,25)"/>
  <polygon points="1920.0,0.0 1920.0,106.7 1767.0,101.4" fill="rgb(170,65,18)"/>
  <polygon points="0.0,106.7 141.3,117.9 0.0,213.3" fill="rgb(200,75,25)"/>
  <polygon points="141.3,117.9 177.5,206.8 0.0,213.3" fill="rgb(180,105,50)"/>
  <polygon points="141.3,117.9 307.8,118.5 313.5,205.1" fill="rgb(180,105,50)"/>
  <polygon points="141.3,117.9 313.5,205.1 177.5,206.8" fill="rgb(217,138,70)"/>
  <polygon points="307.8,118.5 497.9,100.9 313.5,205.1" fill="rgb(217,138,70)"/>
  <polygon points="497.9,100.9 483.6,220.4 313.5,205.1" fill="rgb(210,95,50)"/>
  <polygon points="497.9,100.9 640.7,104.2 648.1,221.2" fill="rgb(210,95,50)"/>
  <polygon points="497.9,100.9 648.1,221.2 483.6,220.4" fill="rgb(200,75,25)"/>
  <polygon points="640.7,104.2 796.4,113.6 648.1,221.2" fill="rgb(200,75,25)"/>
  <polygon points="796.4,113.6 808.1,217.0 648.1,221.2" fill="rgb(42,46,55)"/>
  <polygon points="796.4,113.6 973.1,100.8 950.1,224.3" fill="rgb(42,46,55)"/>
  <polygon points="796.4,113.6 950.1,224.3 808.1,217.0" fill="rgb(170,65,18)"/>
  <polygon points="973.1,100.8 1121.8,111.1 950.1,224.3" fill="rgb(170,65,18)"/>
  <polygon points="1121.8,111.1 1139.6,218.9 950.1,224.3" fill="rgb(217,138,70)"/>
  <polygon points="1121.8,111.1 1283.8,97.6 1299.9,222.5" fill="rgb(217,138,70)"/>
  <polygon points="1121.8,111.1 1299.9,222.5 1139.6,218.9" fill="rgb(3,69,42)"/>
  <polygon points="1283.8,97.6 1435.6,106.5 1299.9,222.5" fill="rgb(3,69,42)"/>
  <polygon points="1435.6,106.5 1455.1,219.5 1299.9,222.5" fill="rgb(180,105,50)"/>
  <polygon points="1435.6,106.5 1617.0,114.4 1612.5,217.9" fill="rgb(180,105,50)"/>
  <polygon points="1435.6,106.5 1612.5,217.9 1455.1,219.5" fill="rgb(200,75,25)"/>
  <polygon points="1617.0,114.4 1767.0,101.4 1612.5,217.9" fill="rgb(200,75,25)"/>
  <polygon points="1767.0,101.4 1745.1,221.4 1612.5,217.9" fill="rgb(170,65,18)"/>
  <polygon points="1767.0,101.4 1920.0,106.7 1920.0,213.3" fill="rgb(170,65,18)"/>
  <polygon points="1767.0,101.4 1920.0,213.3 1745.1,221.4" fill="rgb(200,75,25)"/>
  <polygon points="0.0,213.3 177.5,206.8 154.1,323.4" fill="rgb(180,105,50)"/>
  <polygon points="0.0,213.3 154.1,323.4 0.0,320.0" fill="rgb(217,138,70)"/>
  <polygon points="177.5,206.8 313.5,205.1 154.1,323.4" fill="rgb(217,138,70)"/>
  <polygon points="313.5,205.1 336.0,319.8 154.1,323.4" fill="rgb(210,95,50)"/>
  <polygon points="313.5,205.1 483.6,220.4 470.8,321.3" fill="rgb(210,95,50)"/>
  <polygon points="313.5,205.1 470.8,321.3 336.0,319.8" fill="rgb(200,75,25)"/>
  <polygon points="483.6,220.4 648.1,221.2 470.8,321.3" fill="rgb(200,75,25)"/>
  <polygon points="648.1,221.2 655.0,328.2 470.8,321.3" fill="rgb(42,46,55)"/>
  <polygon points="648.1,221.2 808.1,217.0 819.8,329.8" fill="rgb(42,46,55)"/>
  <polygon points="648.1,221.2 819.8,329.8 655.0,328.2" fill="rgb(170,65,18)"/>
  <polygon points="808.1,217.0 950.1,224.3 819.8,329.8" fill="rgb(170,65,18)"/>
  <polygon points="950.1,224.3 972.2,319.6 819.8,329.8" fill="rgb(217,138,70)"/>
  <polygon points="950.1,224.3 1139.6,218.9 1107.3,330.4" fill="rgb(217,138,70)"/>
  <polygon points="950.1,224.3 1107.3,330.4 972.2,319.6" fill="rgb(3,69,42)"/>
  <polygon points="1139.6,218.9 1299.9,222.5 1107.3,330.4" fill="rgb(3,69,42)"/>
  <polygon points="1299.9,222.5 1261.5,330.7 1107.3,330.4" fill="rgb(180,105,50)"/>
  <polygon points="1299.9,222.5 1455.1,219.5 1445.6,313.7" fill="rgb(180,105,50)"/>
  <polygon points="1299.9,222.5 1445.6,313.7 1261.5,330.7" fill="rgb(200,75,25)"/>
  <polygon points="1455.1,219.5 1612.5,217.9 1445.6,313.7" fill="rgb(200,75,25)"/>
  <polygon points="1612.5,217.9 1586.6,325.2 1445.6,313.7" fill="rgb(170,65,18)"/>
  <polygon points="1612.5,217.9 1745.1,221.4 1742.9,318.3" fill="rgb(170,65,18)"/>
  <polygon points="1612.5,217.9 1742.9,318.3 1586.6,325.2" fill="rgb(200,75,25)"/>
  <polygon points="1745.1,221.4 1920.0,213.3 1742.9,318.3" fill="rgb(200,75,25)"/>
  <polygon points="1920.0,213.3 1920.0,320.0 1742.9,318.3" fill="rgb(180,105,50)"/>
  <polygon points="0.0,320.0 154.1,323.4 0.0,426.7" fill="rgb(217,138,70)"/>
  <polygon points="154.1,323.4 144.3,417.9 0.0,426.7" fill="rgb(210,95,50)"/>
  <polygon points="154.1,323.4 336.0,319.8 310.1,430.3" fill="rgb(210,95,50)"/>
  <polygon points="154.1,323.4 310.1,430.3 144.3,417.9" fill="rgb(200,75,25)"/>
  <polygon points="336.0,319.8 470.8,321.3 310.1,430.3" fill="rgb(200,75,25)"/>
  <polygon points="470.8,321.3 461.1,435.2 310.1,430.3" fill="rgb(42,46,55)"/>
  <polygon points="470.8,321.3 655.0,328.2 645.2,420.9" fill="rgb(42,46,55)"/>
  <polygon points="470.8,321.3 645.2,420.9 461.1,435.2" fill="rgb(170,65,18)"/>
  <polygon points="655.0,328.2 819.8,329.8 645.2,420.9" fill="rgb(170,65,18)"/>
  <polygon points="819.8,329.8 808.6,416.2 645.2,420.9" fill="rgb(217,138,70)"/>
  <polygon points="819.8,329.8 972.2,319.6 950.1,426.8" fill="rgb(217,138,70)"/>
  <polygon points="819.8,329.8 950.1,426.8 808.6,416.2" fill="rgb(3,69,42)"/>
  <polygon points="972.2,319.6 1107.3,330.4 950.1,426.8" fill="rgb(3,69,42)"/>
  <polygon points="1107.3,330.4 1134.2,430.9 950.1,426.8" fill="rgb(180,105,50)"/>
  <polygon points="1107.3,330.4 1261.5,330.7 1261.6,437.7" fill="rgb(180,105,50)"/>
  <polygon points="1107.3,330.4 1261.6,437.7 1134.2,430.9" fill="rgb(200,75,25)"/>
  <polygon points="1261.5,330.7 1445.6,313.7 1261.6,437.7" fill="rgb(200,75,25)"/>
  <polygon points="1445.6,313.7 1426.2,419.1 1261.6,437.7" fill="rgb(170,65,18)"/>
  <polygon points="1445.6,313.7 1586.6,325.2 1603.1,416.4" fill="rgb(170,65,18)"/>
  <polygon points="1445.6,313.7 1603.1,416.4 1426.2,419.1" fill="rgb(200,75,25)"/>
  <polygon points="1586.6,325.2 1742.9,318.3 1603.1,416.4" fill="rgb(200,75,25)"/>
  <polygon points="1742.9,318.3 1756.4,419.7 1603.1,416.4" fill="rgb(180,105,50)"/>
  <polygon points="1742.9,318.3 1920.0,320.0 1920.0,426.7" fill="rgb(180,105,50)"/>
  <polygon points="1742.9,318.3 1920.0,426.7 1756.4,419.7" fill="rgb(217,138,70)"/>
  <polygon points="0.0,426.7 144.3,417.9 158.0,529.7" fill="rgb(210,95,50)"/>
  <polygon points="0.0,426.7 158.0,529.7 0.0,533.3" fill="rgb(200,75,25)"/>
  <polygon points="144.3,417.9 310.1,430.3 158.0,529.7" fill="rgb(200,75,25)"/>
  <polygon points="310.1,430.3 316.8,529.5 158.0,529.7" fill="rgb(42,46,55)"/>
  <polygon points="310.1,430.3 461.1,435.2 479.2,537.1" fill="rgb(42,46,55)"/>
  <polygon points="310.1,430.3 479.2,537.1 316.8,529.5" fill="rgb(170,65,18)"/>
  <polygon points="461.1,435.2 645.2,420.9 479.2,537.1" fill="rgb(170,65,18)"/>
  <polygon points="645.2,420.9 636.8,534.0 479.2,537.1" fill="rgb(217,138,70)"/>
  <polygon points="645.2,420.9 808.6,416.2 791.9,530.9" fill="rgb(217,138,70)"/>
  <polygon points="645.2,420.9 791.9,530.9 636.8,534.0" fill="rgb(3,69,42)"/>
  <polygon points="808.6,416.2 950.1,426.8 791.9,530.9" fill="rgb(3,69,42)"/>
  <polygon points="950.1,426.8 943.1,532.3 791.9,530.9" fill="rgb(180,105,50)"/>
  <polygon points="950.1,426.8 1134.2,430.9 1120.2,525.2" fill="rgb(180,105,50)"/>
  <polygon points="950.1,426.8 1120.2,525.2 943.1,532.3" fill="rgb(200,75,25)"/>
  <polygon points="1134.2,430.9 1261.6,437.7 1120.2,525.2" fill="rgb(200,75,25)"/>
  <polygon points="1261.6,437.7 1272.7,534.7 1120.2,525.2" fill="rgb(170,65,18)"/>
  <polygon points="1261.6,437.7 1426.2,419.1 1439.4,536.5" fill="rgb(170,65,18)"/>
  <polygon points="1261.6,437.7 1439.4,536.5 1272.7,534.7" fill="rgb(200,75,25)"/>
  <polygon points="1426.2,419.1 1603.1,416.4 1439.4,536.5" fill="rgb(200,75,25)"/>
  <polygon points="1603.1,416.4 1590.2,541.0 1439.4,536.5" fill="rgb(180,105,50)"/>
  <polygon points="1603.1,416.4 1756.4,419.7 1746.0,543.4" fill="rgb(180,105,50)"/>
  <polygon points="1603.1,416.4 1746.0,543.4 1590.2,541.0" fill="rgb(217,138,70)"/>
  <polygon points="1756.4,419.7 1920.0,426.7 1746.0,543.4" fill="rgb(217,138,70)"/>
  <polygon points="1920.0,426.7 1920.0,533.3 1746.0,543.4" fill="rgb(210,95,50)"/>
  <polygon points="0.0,533.3 158.0,529.7 0.0,640.0" fill="rgb(200,75,25)"/>
  <polygon points="158.0,529.7 160.0,640.0 0.0,640.0" fill="rgb(42,46,55)"/>
  <polygon points="158.0,529.7 316.8,529.5 320.0,640.0" fill="rgb(42,46,55)"/>
  <polygon points="158.0,529.7 320.0,640.0 160.0,640.0" fill="rgb(170,65,18)"/>
  <polygon points="316.8,529.5 479.2,537.1 320.0,640.0" fill="rgb(170,65,18)"/>
  <polygon points="479.2,537.1 480.0,640.0 320.0,640.0" fill="rgb(217,138,70)"/>
  <polygon points="479.2,537.1 636.8,534.0 640.0,640.0" fill="rgb(217,138,70)"/>
  <polygon points="479.2,537.1 640.0,640.0 480.0,640.0" fill="rgb(3,69,42)"/>
  <polygon points="636.8,534.0 791.9,530.9 640.0,640.0" fill="rgb(3,69,42)"/>
  <polygon points="791.9,530.9 800.0,640.0 640.0,640.0" fill="rgb(180,105,50)"/>
  <polygon points="791.9,530.9 943.1,532.3 960.0,640.0" fill="rgb(180,105,50)"/>
  <polygon points="791.9,530.9 960.0,640.0 800.0,640.0" fill="rgb(200,75,25)"/>
  <polygon points="943.1,532.3 1120.2,525.2 960.0,640.0" fill="rgb(200,75,25)"/>
  <polygon points="1120.2,525.2 1120.0,640.0 960.0,640.0" fill="rgb(170,65,18)"/>
  <polygon points="1120.2,525.2 1272.7,534.7 1280.0,640.0" fill="rgb(170,65,18)"/>
  <polygon points="1120.2,525.2 1280.0,640.0 1120.0,640.0" fill="rgb(200,75,25)"/>
  <polygon points="1272.7,534.7 1439.4,536.5 1280.0,640.0" fill="rgb(200,75,25)"/>
  <polygon points="1439.4,536.5 1440.0,640.0 1280.0,640.0" fill="rgb(180,105,50)"/>
  <polygon points="1439.4,536.5 1590.2,541.0 1600.0,640.0" fill="rgb(180,105,50)"/>
  <polygon points="1439.4,536.5 1600.0,640.0 1440.0,640.0" fill="rgb(217,138,70)"/>
  <polygon points="1590.2,541.0 1746.0,543.4 1600.0,640.0" fill="rgb(217,138,70)"/>
  <polygon points="1746.0,543.4 1760.0,640.0 1600.0,640.0" fill="rgb(210,95,50)"/>
  <polygon points="1746.0,543.4 1920.0,533.3 1920.0,640.0" fill="rgb(210,95,50)"/>
  <polygon points="1746.0,543.4 1920.0,640.0 1760.0,640.0" fill="rgb(200,75,25)"/>
  <polygon points="0.0,0.0 768.0,0.0 576.0,640.0 0.0,640.0" fill="rgb(250,247,241)"/>
</svg>
