<?xml version="1.0" encoding="UTF-8" standalone="no"?>
<svg xmlns="http://www.w3.org/2000/svg" viewBox="0 0 1920 640" width="1920" height="640">
  <title>v7-mosaic-bouquet</title>
  <rect width="1920" height="640" fill="rgb(250,247,241)"/>
  <polygon points="0.0,0.0 174.5,0.0 152.6,125.4" fill="rgb(3,69,42)"/>
  <polygon points="0.0,0.0 152.6,125.4 0.0,128.0" fill="rgb(9,97,53)"/>
  <polygon points="174.5,0.0 349.1,0.0 152.6,125.4" fill="rgb(9,97,53)"/>
  <polygon points="349.1,0.0 370.2,126.3 152.6,125.4" fill="rgb(42,46,55)"/>
  <polygon points="349.1,0.0 523.6,0.0 507.6,134.1" fill="rgb(42,46,55)"/>
  <polygon points="349.1,0.0 507.6,134.1 370.2,126.3" fill="rgb(236,99,36)"/>
  <polygon points="523.6,0.0 698.2,0.0 507.6,134.1" fill="rgb(236,99,36)"/>
  <polygon points="698.2,0.0 686.5,131.0 507.6,134.1" fill="rgb(26,128,80)"/>
  <polygon points="698.2,0.0 872.7,0.0 856.5,137.2" fill="rgb(26,128,80)"/>
  <polygon points="698.2,0.0 856.5,137.2 686.5,131.0" fill="rgb(217,138,70)"/>
  <polygon points="872.7,0.0 1047.3,0.0 856.5,137.2" fill="rgb(217,138,70)"/>
  <polygon points="1047.3,0.0 1020.3,120.4 856.5,137.2" fill="rgb(3,69,42)"/>
  <polygon points="1047.3,0.0 1221.8,0.0 1247.6,113.1" fill="rgb(3,69,42)"/>
  <polygon points="1047.3,0.0 1247.6,113.1 1020.3,120.4" fill="rgb(200,75,25)"/>
  <polygon points="1221.8,0.0 1396.4,0.0 1247.6,113.1" fill="rgb(200,75,25)"/>
  <polygon points="1396.4,0.0 1389.8,116.7 1247.6,113.1" fill="rgb(9,97,53)"/>
  <polygon points="1396.4,0.0 1570.9,0.0 1563.8,130.3" fill="rgb(9,97,53)"/>
  <polygon points="1396.4,0.0 1563.8,130.3 1389.8,116.7" fill="rgb(42,46,55)"/>
  <polygon points="1570.9,0.0 1745.5,0.0 1563.8,130.3" fill="rgb(42,46,55)"/>
  <polygon points="1745.5,0.0 1772.7,144.1 1563.8,130.3" fill="rgb(75,166,132)"/>
  <polygon points="1745.5,0.0 1920.0,0.0 1920.0,128.0" fill="rgb(75,166,132)"/>
  <polygon points="1745.5,0.0 1920.0,128.0 1772.7,144.1" fill="rgb(236,99,36)"/>
  <polygon points="0.0,128.0 152.6,125.4 0.0,256.0" fill="rgb(9,97,53)"/>
  <polygon points="152.6,125.4 163.1,265.5 0.0,256.0" fill="rgb(42,46,55)"/>
  <polygon points="152.6,125.4 370.2,126.3 346.6,241.6" fill="rgb(42,46,55)"/>
  <polygon points="152.6,125.4 346.6,241.6 163.1,265.5" fill="rgb(236,99,36)"/>
  <polygon points="370.2,126.3 507.6,134.1 346.6,241.6" fill="rgb(236,99,36)"/>
  <polygon points="507.6,134.1 509.7,249.4 346.6,241.6" fill="rgb(26,128,80)"/>
  <polygon points="507.6,134.1 686.5,131.0 692.0,273.9" fill="rgb(26,128,80)"/>
  <polygon points="507.6,134.1 692.0,273.9 509.7,249.4" fill="rgb(217,138,70)"/>
  <polygon points="686.5,131.0 856.5,137.2 692.0,273.9" fill="rgb(217,138,70)"/>
  <polygon points="856.5,137.2 890.8,241.4 692.0,273.9" fill="rgb(3,69,42)"/>
  <polygon points="856.5,137.2 1020.3,120.4 1052.1,248.5" fill="rgb(3,69,42)"/>
  <polygon points="856.5,137.2 1052.1,248.5 890.8,241.4" fill="rgb(200,75,25)"/>
  <polygon points="1020.3,120.4 1247.6,113.1 1052.1,248.5" fill="rgb(200,75,25)"/>
  <polygon points="1247.6,113.1 1207.4,269.4 1052.1,248.5" fill="rgb(9,97,53)"/>
  <polygon points="1247.6,113.1 1389.8,116.7 1370.4,264.4" fill="rgb(9,97,53)"/>
  <polygon points="1247.6,113.1 1370.4,264.4 1207.4,269.4" fill="rgb(42,46,55)"/>
  <polygon points="1389.8,116.7 1563.8,130.3 1370.4,264.4" fill="rgb(42,46,55)"/>
  <polygon points="1563.8,130.3 1594.2,238.1 1370.4,264.4" fill="rgb(75,166,132)"/>
  <polygon points="1563.8,130.3 1772.7,144.1 1733.1,266.4" fill="rgb(75,166,132)"/>
  <polygon points="1563.8,130.3 1733.1,266.4 1594.2,238.1" fill="rgb(236,99,36)"/>
  <polygon points="1772.7,144.1 1920.0,128.0 1733.1,266.4" fill="rgb(236,99,36)"/>
  <polygon points="1920.0,128.0 1920.0,256.0 1733.1,266.4" fill="rgb(3,69,42)"/>
  <polygon points="0.0,256.0 163.1,265.5 147.4,379.1" fill="rgb(42,46,55)"/>
  <polygon points="0.0,256.0 147.4,379.1 0.0,384.0" fill="rgb(236,99,36)"/>
  <polygon points="163.1,265.5 346.6,241.6 147.4,379.1" fill="rgb(236,99,36)"/>
  <polygon points="346.6,241.6 333.2,397.9 147.4,379.1" fill="rgb(26,128,80)"/>
  <polygon points="346.6,241.6 509.7,249.4 542.3,393.5" fill="rgb(26,128,80)"/>
  <polygon points="346.6,241.6 542.3,393.5 333.2,397.9" fill="rgb(217,138,70)"/>
  <polygon points="509.7,249.4 692.0,273.9 542.3,393.5" fill="rgb(217,138,70)"/>
  <polygon points="692.0,273.9 684.7,370.0 542.3,393.5" fill="rgb(3,69,42)"/>
  <polygon points="692.0,273.9 890.8,241.4 897.0,374.1" fill="rgb(3,69,42)"/>
  <polygon points="692.0,273.9 897.0,374.1 684.7,370.0" fill="rgb(200,75,25)"/>
  <polygon points="890.8,241.4 1052.1,248.5 897.0,374.1" fill="rgb(200,75,25)"/>
  <polygon points="1052.1,248.5 1030.2,368.9 897.0,374.1" fill="rgb(9,97,53)"/>
  <polygon points="1052.1,248.5 1207.4,269.4 1241.3,382.1" fill="rgb(9,97,53)"/>
  <polygon points="1052.1,248.5 1241.3,382.1 1030.2,368.9" fill="rgb(42,46,55)"/>
  <polygon points="1207.4,269.4 1370.4,264.4 1241.3,382.1" fill="rgb(42,46,55)"/>
  <polygon points="1370.4,264.4 1377.0,366.8 1241.3,382.1" fill="rgb(75,166,132)"/>
  <polygon points="1370.4,264.4 1594.2,238.1 1568.4,367.5" fill="rgb(75,166,132)"/>
  <polygon points="1370.4,264.4 1568.4,367.5 1377.0,366.8" fill="rgb(236,99,36)"/>
  <polygon points="1594.2,238.1 1733.1,266.4 1568.4,367.5" fill="rgb(236,99,36)"/>
  <polygon points="1733.1,266.4 1715.6,383.1 1568.4,367.5" fill="rgb(3,69,42)"/>
  <polygon points="1733.1,266.4 1920.0,256.0 1920.0,384.0" fill="rgb(3,69,42)"/>
  <polygon points="1733.1,266.4 1920.0,384.0 1715.6,383.1" fill="rgb(9,97,53)"/>
  <polygon points="0.0,384.0 147.4,379.1 0.0,512.0" fill="rgb(236,99,36)"/>
  <polygon points="147.4,379.1 178.4,513.5 0.0,512.0" fill="rgb(26,128,80)"/>
  <polygon points="147.4,379.1 333.2,397.9 374.2,495.6" fill="rgb(26,128,80)"/>
  <polygon points="147.4,379.1 374.2,495.6 178.4,513.5" fill="rgb(217,138,70)"/>
  <polygon points="333.2,397.9 542.3,393.5 374.2,495.6" fill="rgb(217,138,70)"/>
  <polygon points="542.3,393.5 497.6,497.4 374.2,495.6" fill="rgb(3,69,42)"/>
  <polygon points="542.3,393.5 684.7,370.0 705.0,517.7" fill="rgb(3,69,42)"/>
  <polygon points="542.3,393.5 705.0,517.7 497.6,497.4" fill="rgb(200,75,25)"/>
  <polygon points="684.7,370.0 897.0,374.1 705.0,517.7" fill="rgb(200,75,25)"/>
  <polygon points="897.0,374.1 856.4,514.7 705.0,517.7" fill="rgb(9,97,53)"/>
  <polygon points="897.0,374.1 1030.2,368.9 1020.5,498.6" fill="rgb(9,97,53)"/>
  <polygon points="897.0,374.1 1020.5,498.6 856.4,514.7" fill="rgb(42,46,55)"/>
  <polygon points="1030.2,368.9 1241.3,382.1 1020.5,498.6" fill="rgb(42,46,55)"/>
  <polygon points="1241.3,382.1 1208.3,498.9 1020.5,498.6" fill="rgb(75,166,132)"/>
  <polygon points="1241.3,382.1 1377.0,366.8 1382.5,504.7" fill="rgb(75,166,132)"/>
  <polygon points="1241.3,382.1 1382.5,504.7 1208.3,498.9" fill="rgb(236,99,36)"/>
  <polygon points="1377.0,366.8 1568.4,367.5 1382.5,504.7" fill="rgb(236,99,36)"/>
  <polygon points="1568.4,367.5 1565.5,524.9 1382.5,504.7" fill="rgb(3,69,42)"/>
  <polygon points="1568.4,367.5 1715.6,383.1 1760.9,523.1" fill="rgb(3,69,42)"/>
  <polygon points="1568.4,367.5 1760.9,523.1 1565.5,524.9" fill="rgb(9,97,53)"/>
  <polygon points="1715.6,383.1 1920.0,384.0 1760.9,523.1" fill="rgb(9,97,53)"/>
  <polygon points="1920.0,384.0 1920.0,512.0 1760.9,523.1" fill="rgb(42,46,55)"/>
  <polygon points="0.0,512.0 178.4,513.5 174.5,640.0" fill="rgb(26,128,80)"/>
  <polygon points="0.0,512.0 174.5,640.0 0.0,640.0" fill="rgb(217,138,70)"/>
  <polygon points="178.4,513.5 374.2,495.6 174.5,640.0" fill="rgb(217,138,70)"/>
  <polygon points="374.2,495.6 349.1,640.0 174.5,640.0" fill="rgb(3,69,42)"/>
  <polygon points="374.2,495.6 497.6,497.4 523.6,640.0" fill="rgb(3,69,42)"/>
  <polygon points="374.2,495.6 523.6,640.0 349.1,640.0" fill="rgb(200,75,25)"/>
  <polygon points="497.6,497.4 705.0,517.7 523.6,640.0" fill="rgb(200,75,25)"/>
  <polygon points="705.0,517.7 698.2,640.0 523.6,640.0" fill="rgb(9,97,53)"/>
  <polygon points="705.0,517.7 856.4,514.7 872.7,640.0" fill="rgb(9,97,53)"/>
  <polygon points="705.0,517.7 872.7,640.0 698.2,640.0" fill="rgb(42,46,55)"/>
  <polygon points="856.4,514.7 1020.5,498.6 872.7,640.0" fill="rgb(42,46,55)"/>
  <polygon points="1020.5,498.6 1047.3,640.0 872.7,640.0" fill="rgb(75,166,132)"/>
  <polygon points="1020.5,498.6 1208.3,498.9 1221.8,640.0" fill="rgb(75,166,132)"/>
  <polygon points="1020.5,498.6 1221.8,640.0 1047.3,640.0" fill="rgb(236,99,36)"/>
  <polygon points="1208.3,498.9 1382.5,504.7 1221.8,640.0" fill="rgb(236,99,36)"/>
  <polygon points="1382.5,504.7 1396.4,640.0 1221.8,640.0" fill="rgb(3,69,42)"/>
  <polygon points="1382.5,504.7 1565.5,524.9 1570.9,640.0" fill="rgb(3,69,42)"/>
  <polygon points="1382.5,504.7 1570.9,640.0 1396.4,640.0" fill="rgb(9,97,53)"/>
  <polygon points="1565.5,524.9 1760.9,523.1 1570.9,640.0" fill="rgb(9,97,53)"/>
  <polygon points="1760.9,523.1 1745.5,640.0 1570.9,640.0" fill="rgb(42,46,55)"/>
  <polygon points="1760.9,523.1 1920.0,512.0 1920.0,640.0" fill="rgb(42,46,55)"/>
  <polygon points="1760.9,523.1 1920.0,640.0 1745.5,640.0" fill="rgb(236,99,36)"/>
  <polygon points="0.0,0.0 768.0,0.0 576.0,640.0 0.0,640.0" fill="rgb(250,247,241)"/>
</svg>
