<?xml version="1.0" encoding="UTF-8" standalone="no"?>
<svg xmlns="http://www.w3.org/2000/svg" viewBox="0 0 1920 640" width="1920" height="640">
  <title>v7-mosaic-foret</title>
  <rect width="1920" height="640" fill="rgb(250,247,241)"/>
  <polygon points="0.0,0.0 137.1,0.0 155.8,92.4" fill="rgb(3,56,33)"/>
  <polygon points="0.0,0.0 155.8,92.4 0.0,91.4" fill="rgb(3,69,42)"/>
  <polygon points="137.1,0.0 274.3,0.0 155.8,92.4" fill="rgb(3,69,42)"/>
  <polygon points="274.3,0.0 276.4,90.8 155.8,92.4" fill="rgb(9,97,53)"/>
  <polygon points="274.3,0.0 411.4,0.0 399.0,80.3" fill="rgb(9,97,53)"/>
  <polygon points="274.3,0.0 399.0,80.3 276.4,90.8" fill="rgb(26,128,80)"/>
  <polygon points="411.4,0.0 548.6,0.0 399.0,80.3" fill="rgb(26,128,80)"/>
  <polygon points="548.6,0.0 544.5,91.5 399.0,80.3" fill="rgb(75,166,132)"/>
  <polygon points="548.6,0.0 685.7,0.0 696.7,87.6" fill="rgb(75,166,132)"/>
  <polygon points="548.6,0.0 696.7,87.6 544.5,91.5" fill="rgb(140,180,154)"/>
  <polygon points="685.7,0.0 822.9,0.0 696.7,87.6" fill="rgb(140,180,154)"/>
  <polygon points="822.9,0.0 841.7,82.1 696.7,87.6" fill="rgb(3,56,33)"/>
  <polygon points="822.9,0.0 960.0,0.0 966.3,80.1" fill="rgb(3,56,33)"/>
  <polygon points="822.9,0.0 966.3,80.1 841.7,82.1" fill="rgb(42,46,55)"/>
  <polygon points="960.0,0.0 1097.1,0.0 966.3,80.1" fill="rgb(42,46,55)"/>
  <polygon points="1097.1,0.0 1085.9,82.5 966.3,80.1" fill="rgb(3,69,42)"/>
  <polygon points="1097.1,0.0 1234.3,0.0 1253.4,95.7" fill="rgb(3,69,42)"/>
  <polygon points="1097.1,0.0 1253.4,95.7 1085.9,82.5" fill="rgb(26,128,80)"/>
  <polygon points="1234.3,0.0 1371.4,0.0 1253.4,95.7" fill="rgb(26,128,80)"/>
  <polygon points="1371.4,0.0 1373.6,100.1 1253.4,95.7" fill="rgb(9,97,53)"/>
  <polygon points="1371.4,0.0 1508.6,0.0 1526.7,88.5" fill="rgb(9,97,53)"/>
  <polygon points="1371.4,0.0 1526.7,88.5 1373.6,100.1" fill="rgb(180,105,50)"/>
  <polygon points="1508.6,0.0 1645.7,0.0 1526.7,88.5" fill="rgb(180,105,50)"/>
  <polygon points="1645.7,0.0 1660.2,86.4 1526.7,88.5" fill="rgb(3,56,33)"/>
  <polygon points="1645.7,0.0 1782.9,0.0 1791.0,99.3" fill="rgb(3,56,33)"/>
  <polygon points="1645.7,0.0 1791.0,99.3 1660.2,86.4" fill="rgb(3,69,42)"/>
  <polygon points="1782.9,0.0 1920.0,0.0 1791.0,99.3" fill="rgb(3,69,42)"/>
  <polygon points="1920.0,0.0 1920.0,91.4 1791.0,99.3" fill="rgb(9,97,53)"/>
  <polygon points="0.0,91.4 155.8,92.4 0.0,182.9" fill="rgb(3,69,42)"/>
  <polygon points="155.8,92.4 132.3,186.6 0.0,182.9" fill="rgb(9,97,53)"/>
  <polygon points="155.8,92.4 276.4,90.8 283.5,173.0" fill="rgb(9,97,53)"/>
  <polygon points="155.8,92.4 283.5,173.0 132.3,186.6" fill="rgb(26,128,80)"/>
  <polygon points="276.4,90.8 399.0,80.3 283.5,173.0" fill="rgb(26,128,80)"/>
  <polygon points="399.0,80.3 421.9,175.6 283.5,173.0" fill="rgb(75,166,132)"/>
  <polygon points="399.0,80.3 544.5,91.5 540.2,176.6" fill="rgb(75,166,132)"/>
  <polygon points="399.0,80.3 540.2,176.6 421.9,175.6" fill="rgb(140,180,154)"/>
  <polygon points="544.5,91.5 696.7,87.6 540.2,176.6" fill="rgb(140,180,154)"/>
  <polygon points="696.7,87.6 677.1,193.5 540.2,176.6" fill="rgb(3,56,33)"/>
  <polygon points="696.7,87.6 841.7,82.1 820.2,191.4" fill="rgb(3,56,33)"/>
  <polygon points="696.7,87.6 820.2,191.4 677.1,193.5" fill="rgb(42,46,55)"/>
  <polygon points="841.7,82.1 966.3,80.1 820.2,191.4" fill="rgb(42,46,55)"/>
  <polygon points="966.3,80.1 945.5,176.8 820.2,191.4" fill="rgb(3,69,42)"/>
  <polygon points="966.3,80.1 1085.9,82.5 1077.6,182.2" fill="rgb(3,69,42)"/>
  <polygon points="966.3,80.1 1077.6,182.2 945.5,176.8" fill="rgb(26,128,80)"/>
  <polygon points="1085.9,82.5 1253.4,95.7 1077.6,182.2" fill="rgb(26,128,80)"/>
  <polygon points="1253.4,95.7 1252.3,183.3 1077.6,182.2" fill="rgb(9,97,53)"/>
  <polygon points="1253.4,95.7 1373.6,100.1 1380.2,174.8" fill="rgb(9,97,53)"/>
  <polygon points="1253.4,95.7 1380.2,174.8 1252.3,183.3" fill="rgb(180,105,50)"/>
  <polygon points="1373.6,100.1 1526.7,88.5 1380.2,174.8" fill="rgb(180,105,50)"/>
  <polygon points="1526.7,88.5 1491.0,176.2 1380.2,174.8" fill="rgb(3,56,33)"/>
  <polygon points="1526.7,88.5 1660.2,86.4 1663.8,187.6" fill="rgb(3,56,33)"/>
  <polygon points="1526.7,88.5 1663.8,187.6 1491.0,176.2" fill="rgb(3,69,42)"/>
  <polygon points="1660.2,86.4 1791.0,99.3 1663.8,187.6" fill="rgb(3,69,42)"/>
  <polygon points="1791.0,99.3 1800.0,189.5 1663.8,187.6" fill="rgb(9,97,53)"/>
  <polygon points="1791.0,99.3 1920.0,91.4 1920.0,182.9" fill="rgb(9,97,53)"/>
  <polygon points="1791.0,99.3 1920.0,182.9 1800.0,189.5" fill="rgb(26,128,80)"/>
  <polygon points="0.0,182.9 132.3,186.6 127.6,266.9" fill="rgb(9,97,53)"/>
  <polygon points="0.0,182.9 127.6,266.9 0.0,274.3" fill="rgb(26,128,80)"/>
  <polygon points="132.3,186.6 283.5,173.0 127.6,266.9" fill="rgb(26,128,80)"/>
  <polygon points="283.5,173.0 278.8,265.7 127.6,266.9" fill="rgb(75,166,132)"/>
  <polygon points="283.5,173.0 421.9,175.6 410.8,275.2" fill="rgb(75,166,132)"/>
  <polygon points="283.5,173.0 410.8,275.2 278.8,265.7" fill="rgb(140,180,154)"/>
  <polygon points="421.9,175.6 540.2,176.6 410.8,275.2" fill="rgb(140,180,154)"/>
  <polygon points="540.2,176.6 538.7,285.6 410.8,275.2" fill="rgb(3,56,33)"/>
  <polygon points="540.2,176.6 677.1,193.5 668.0,284.5" fill="rgb(3,56,33)"/>
  <polygon points="540.2,176.6 668.0,284.5 538.7,285.6" fill="rgb(42,46,55)"/>
  <polygon points="677.1,193.5 820.2,191.4 668.0,284.5" fill="rgb(42,46,55)"/>
  <polygon points="820.2,191.4 804.5,285.5 668.0,284.5" fill="rgb(3,69,42)"/>
  <polygon points="820.2,191.4 945.5,176.8 956.4,265.9" fill="rgb(3,69,42)"/>
  <polygon points="820.2,191.4 956.4,265.9 804.5,285.5" fill="rgb(26,128,80)"/>
  <polygon points="945.5,176.8 1077.6,182.2 956.4,265.9" fill="rgb(26,128,80)"/>
  <polygon points="1077.6,182.2 1102.1,279.3 956.4,265.9" fill="rgb(9,97,53)"/>
  <polygon points="1077.6,182.2 1252.3,183.3 1230.1,273.7" fill="rgb(9,97,53)"/>
  <polygon points="1077.6,182.2 1230.1,273.7 1102.1,279.3" fill="rgb(180,105,50)"/>
  <polygon points="1252.3,183.3 1380.2,174.8 1230.1,273.7" fill="rgb(180,105,50)"/>
  <polygon points="1380.2,174.8 1378.1,268.9 1230.1,273.7" fill="rgb(3,56,33)"/>
  <polygon points="1380.2,174.8 1491.0,176.2 1501.1,279.1" fill="rgb(3,56,33)"/>
  <polygon points="1380.2,174.8 1501.1,279.1 1378.1,268.9" fill="rgb(3,69,42)"/>
  <polygon points="1491.0,176.2 1663.8,187.6 1501.1,279.1" fill="rgb(3,69,42)"/>
  <polygon points="1663.8,187.6 1643.9,282.3 1501.1,279.1" fill="rgb(9,97,53)"/>
  <polygon points="1663.8,187.6 1800.0,189.5 1780.7,279.7" fill="rgb(9,97,53)"/>
  <polygon points="1663.8,187.6 1780.7,279.7 1643.9,282.3" fill="rgb(26,128,80)"/>
  <polygon points="1800.0,189.5 1920.0,182.9 1780.7,279.7" fill="rgb(26,128,80)"/>
  <polygon points="1920.0,182.9 1920.0,274.3 1780.7,279.7" fill="rgb(75,166,132)"/>
  <polygon points="0.0,274.3 127.6,266.9 0.0,365.7" fill="rgb(26,128,80)"/>
  <polygon points="127.6,266.9 139.0,359.4 0.0,365.7" fill="rgb(75,166,132)"/>
  <polygon points="127.6,266.9 278.8,265.7 268.9,367.1" fill="rgb(75,166,132)"/>
  <polygon points="127.6,266.9 268.9,367.1 139.0,359.4" fill="rgb(140,180,154)"/>
  <polygon points="278.8,265.7 410.8,275.2 268.9,367.1" fill="rgb(140,180,154)"/>
  <polygon points="410.8,275.2 410.3,370.6 268.9,367.1" fill="rgb(3,56,33)"/>
  <polygon points="410.8,275.2 538.7,285.6 555.5,370.4" fill="rgb(3,56,33)"/>
  <polygon points="410.8,275.2 555.5,370.4 410.3,370.6" fill="rgb(42,46,55)"/>
  <polygon points="538.7,285.6 668.0,284.5 555.5,370.4" fill="rgb(42,46,55)"/>
  <polygon points="668.0,284.5 675.5,374.5 555.5,370.4" fill="rgb(3,69,42)"/>
  <polygon points="668.0,284.5 804.5,285.5 839.4,362.3" fill="rgb(3,69,42)"/>
  <polygon points="668.0,284.5 839.4,362.3 675.5,374.5" fill="rgb(26,128,80)"/>
  <polygon points="804.5,285.5 956.4,265.9 839.4,362.3" fill="rgb(26,128,80)"/>
  <polygon points="956.4,265.9 976.1,365.1 839.4,362.3" fill="rgb(9,97,53)"/>
  <polygon points="956.4,265.9 1102.1,279.3 1088.0,355.2" fill="rgb(9,97,53)"/>
  <polygon points="956.4,265.9 1088.0,355.2 976.1,365.1" fill="rgb(180,105,50)"/>
  <polygon points="1102.1,279.3 1230.1,273.7 1088.0,355.2" fill="rgb(180,105,50)"/>
  <polygon points="1230.1,273.7 1241.7,370.2 1088.0,355.2" fill="rgb(3,56,33)"/>
  <polygon points="1230.1,273.7 1378.1,268.9 1377.8,363.9" fill="rgb(3,56,33)"/>
  <polygon points="1230.1,273.7 1377.8,363.9 1241.7,370.2" fill="rgb(3,69,42)"/>
  <polygon points="1378.1,268.9 1501.1,279.1 1377.8,363.9" fill="rgb(3,69,42)"/>
  <polygon points="1501.1,279.1 1492.4,353.8 1377.8,363.9" fill="rgb(9,97,53)"/>
  <polygon points="1501.1,279.1 1643.9,282.3 1650.5,369.4" fill="rgb(9,97,53)"/>
  <polygon points="1501.1,279.1 1650.5,369.4 1492.4,353.8" fill="rgb(26,128,80)"/>
  <polygon points="1643.9,282.3 1780.7,279.7 1650.5,369.4" fill="rgb(26,128,80)"/>
  <polygon points="1780.7,279.7 1801.0,373.1 1650.5,369.4" fill="rgb(75,166,132)"/>
  <polygon points="1780.7,279.7 1920.0,274.3 1920.0,365.7" fill="rgb(75,166,132)"/>
  <polygon points="1780.7,279.7 1920.0,365.7 1801.0,373.1" fill="rgb(140,180,154)"/>
  <polygon points="0.0,365.7 139.0,359.4 139.0,468.6" fill="rgb(75,166,132)"/>
  <polygon points="0.0,365.7 139.0,468.6 0.0,457.1" fill="rgb(140,180,154)"/>
  <polygon points="139.0,359.4 268.9,367.1 139.0,468.6" fill="rgb(140,180,154)"/>
  <polygon points="268.9,367.1 254.8,467.6 139.0,468.6" fill="rgb(3,56,33)"/>
  <polygon points="268.9,367.1 410.3,370.6 412.0,456.3" fill="rgb(3,56,33)"/>
  <polygon points="268.9,367.1 412.0,456.3 254.8,467.6" fill="rgb(42,46,55)"/>
  <polygon points="410.3,370.6 555.5,370.4 412.0,456.3" fill="rgb(42,46,55)"/>
  <polygon points="555.5,370.4 553.2,453.6 412.0,456.3" fill="rgb(3,69,42)"/>
  <polygon points="555.5,370.4 675.5,374.5 685.8,466.3" fill="rgb(3,69,42)"/>
  <polygon points="555.5,370.4 685.8,466.3 553.2,453.6" fill="rgb(26,128,80)"/>
  <polygon points="675.5,374.5 839.4,362.3 685.8,466.3" fill="rgb(26,128,80)"/>
  <polygon points="839.4,362.3 830.5,467.1 685.8,466.3" fill="rgb(9,97,53)"/>
  <polygon points="839.4,362.3 976.1,365.1 959.7,449.6" fill="rgb(9,97,53)"/>
  <polygon points="839.4,362.3 959.7,449.6 830.5,467.1" fill="rgb(180,105,50)"/>
  <polygon points="976.1,365.1 1088.0,355.2 959.7,449.6" fill="rgb(180,105,50)"/>
  <polygon points="1088.0,355.2 1096.6,463.1 959.7,449.6" fill="rgb(3,56,33)"/>
  <polygon points="1088.0,355.2 1241.7,370.2 1226.8,460.1" fill="rgb(3,56,33)"/>
  <polygon points="1088.0,355.2 1226.8,460.1 1096.6,463.1" fill="rgb(3,69,42)"/>
  <polygon points="1241.7,370.2 1377.8,363.9 1226.8,460.1" fill="rgb(3,69,42)"/>
  <polygon points="1377.8,363.9 1378.3,453.9 1226.8,460.1" fill="rgb(9,97,53)"/>
  <polygon points="1377.8,363.9 1492.4,353.8 1488.6,462.2" fill="rgb(9,97,53)"/>
  <polygon points="1377.8,363.9 1488.6,462.2 1378.3,453.9" fill="rgb(26,128,80)"/>
  <polygon points="1492.4,353.8 1650.5,369.4 1488.6,462.2" fill="rgb(26,128,80)"/>
  <polygon points="1650.5,369.4 1637.7,468.8 1488.6,462.2" fill="rgb(75,166,132)"/>
  <polygon points="1650.5,369.4 1801.0,373.1 1763.4,462.0" fill="rgb(75,166,132)"/>
  <polygon points="1650.5,369.4 1763.4,462.0 1637.7,468.8" fill="rgb(140,180,154)"/>
  <polygon points="1801.0,373.1 1920.0,365.7 1763.4,462.0" fill="rgb(140,180,154)"/>
  <polygon points="1920.0,365.7 1920.0,457.1 1763.4,462.0" fill="rgb(3,56,33)"/>
  <polygon points="0.0,457.1 139.0,468.6 0.0,548.6" fill="rgb(140,180,154)"/>
  <polygon points="139.0,468.6 140.6,557.8 0.0,548.6" fill="rgb(3,56,33)"/>
  <polygon points="139.0,468.6 254.8,467.6 288.0,557.6" fill="rgb(3,56,33)"/>
  <polygon points="139.0,468.6 288.0,557.6 140.6,557.8" fill="rgb(42,46,55)"/>
  <polygon points="254.8,467.6 412.0,456.3 288.0,557.6" fill="rgb(42,46,55)"/>
  <polygon points="412.0,456.3 420.5,552.4 288.0,557.6" fill="rgb(3,69,42)"/>
  <polygon points="412.0,456.3 553.2,453.6 557.9,554.2" fill="rgb(3,69,42)"/>
  <polygon points="412.0,456.3 557.9,554.2 420.5,552.4" fill="rgb(26,128,80)"/>
  <polygon points="553.2,453.6 685.8,466.3 557.9,554.2" fill="rgb(26,128,80)"/>
  <polygon points="685.8,466.3 684.9,545.6 557.9,554.2" fill="rgb(9,97,53)"/>
  <polygon points="685.8,466.3 830.5,467.1 809.7,546.0" fill="rgb(9,97,53)"/>
  <polygon points="685.8,466.3 809.7,546.0 684.9,545.6" fill="rgb(180,105,50)"/>
  <polygon points="830.5,467.1 959.7,449.6 809.7,546.0" fill="rgb(180,105,50)"/>
  <polygon points="959.7,449.6 960.9,558.2 809.7,546.0" fill="rgb(3,56,33)"/>
  <polygon points="959.7,449.6 1096.6,463.1 1086.7,557.9" fill="rgb(3,56,33)"/>
  <polygon points="959.7,449.6 1086.7,557.9 960.9,558.2" fill="rgb(3,69,42)"/>
  <polygon points="1096.6,463.1 1226.8,460.1 1086.7,557.9" fill="rgb(3,69,42)"/>
  <polygon points="1226.8,460.1 1245.5,545.0 1086.7,557.9" fill="rgb(9,97,53)"/>
  <polygon points="1226.8,460.1 1378.3,453.9 1378.3,560.1" fill="rgb(9,97,53)"/>
  <polygon points="1226.8,460.1 1378.3,560.1 1245.5,545.0" fill="rgb(26,128,80)"/>
  <polygon points="1378.3,453.9 1488.6,462.2 1378.3,560.1" fill="rgb(26,128,80)"/>
  <polygon points="1488.6,462.2 1524.0,554.8 1378.3,560.1" fill="rgb(75,166,132)"/>
  <polygon points="1488.6,462.2 1637.7,468.8 1639.2,545.8" fill="rgb(75,166,132)"/>
  <polygon points="1488.6,462.2 1639.2,545.8 1524.0,554.8" fill="rgb(140,180,154)"/>
  <polygon points="1637.7,468.8 1763.4,462.0 1639.2,545.8" fill="rgb(140,180,154)"/>
  <polygon points="1763.4,462.0 1778.5,543.3 1639.2,545.8" fill="rgb(3,56,33)"/>
  <polygon points="1763.4,462.0 1920.0,457.1 1920.0,548.6" fill="rgb(3,56,33)"/>
  <polygon points="1763.4,462.0 1920.0,548.6 1778.5,543.3" fill="rgb(42,46,55)"/>
  <polygon points="0.0,548.6 140.6,557.8 137.1,640.0" fill="rgb(3,56,33)"/>
  <polygon points="0.0,548.6 137.1,640.0 0.0,640.0" fill="rgb(42,46,55)"/>
  <polygon points="140.6,557.8 288.0,557.6 137.1,640.0" fill="rgb(42,46,55)"/>
  <polygon points="288.0,557.6 274.3,640.0 137.1,640.0" fill="rgb(3,69,42)"/>
  <polygon points="288.0,557.6 420.5,552.4 411.4,640.0" fill="rgb(3,69,42)"/>
  <polygon points="288.0,557.6 411.4,640.0 274.3,640.0" fill="rgb(26,128,80)"/>
  <polygon points="420.5,552.4 557.9,554.2 411.4,640.0" fill="rgb(26,128,80)"/>
  <polygon points="557.9,554.2 548.6,640.0 411.4,640.0" fill="rgb(9,97,53)"/>
  <polygon points="557.9,554.2 684.9,545.6 685.7,640.0" fill="rgb(9,97,53)"/>
  <polygon points="557.9,554.2 685.7,640.0 548.6,640.0" fill="rgb(180,105,50)"/>
  <polygon points="684.9,545.6 809.7,546.0 685.7,640.0" fill="rgb(180,105,50)"/>
  <polygon points="809.7,546.0 822.9,640.0 685.7,640.0" fill="rgb(3,56,33)"/>
  <polygon points="809.7,546.0 960.9,558.2 960.0,640.0" fill="rgb(3,56,33)"/>
  <polygon points="809.7,546.0 960.0,640.0 822.9,640.0" fill="rgb(3,69,42)"/>
  <polygon points="960.9,558.2 1086.7,557.9 960.0,640.0" fill="rgb(3,69,42)"/>
  <polygon points="1086.7,557.9 1097.1,640.0 960.0,640.0" fill="rgb(9,97,53)"/>
  <polygon points="1086.7,557.9 1245.5,545.0 1234.3,640.0" fill="rgb(9,97,53)"/>
  <polygon points="1086.7,557.9 1234.3,640.0 1097.1,640.0" fill="rgb(26,128,80)"/>
  <polygon points="1245.5,545.0 1378.3,560.1 1234.3,640.0" fill="rgb(26,128,80)"/>
  <polygon points="1378.3,560.1 1371.4,640.0 1234.3,640.0" fill="rgb(75,166,132)"/>
  <polygon points="1378.3,560.1 1524.0,554.8 1508.6,640.0" fill="rgb(75,166,132)"/>
  <polygon points="1378.3,560.1 1508.6,640.0 1371.4,640.0" fill="rgb(140,180,154)"/>
  <polygon points="1524.0,554.8 1639.2,545.8 1508.6,640.0" fill="rgb(140,180,154)"/>
  <polygon points="1639.2,545.8 1645.7,640.0 1508.6,640.0" fill="rgb(3,56,33)"/>
  <polygon points="1639.2,545.8 1778.5,543.3 1782.9,640.0" fill="rgb(3,56,33)"/>
  <polygon points="1639.2,545.8 1782.9,640.0 1645.7,640.0" fill="rgb(42,46,55)"/>
  <polygon points="1778.5,543.3 1920.0,548.6 1782.9,640.0" fill="rgb(42,46,55)"/>
  <polygon points="1920.0,548.6 1920.0,640.0 1782.9,640.0" fill="rgb(3,69,42)"/>
  <polygon points="0.0,0.0 768.0,0.0 576.0,640.0 0.0,640.0" fill="rgb(250,247,241)"/>
</svg>
