<?xml version="1.0" encoding="UTF-8" standalone="no"?>
<svg xmlns="http://www.w3.org/2000/svg" viewBox="0 0 1920 640" width="1920" height="640">
  <title>v7-shards-verticaux</title>
  <rect width="1920" height="640" fill="rgb(3,69,42)"/>
  <polygon points="700.0,0.0 1000.0,0.0 1100.0,640.0 800.0,640.0" fill="rgb(9,97,53)"/>
  <polygon points="950.0,0.0 1180.0,0.0 1280.0,640.0 1050.0,640.0" fill="rgb(26,128,80)" fill-opacity="0.941"/>
  <polygon points="1130.0,0.0 1400.0,0.0 1450.0,640.0 1180.0,640.0" fill="rgb(42,46,55)" fill-opacity="0.902"/>
  <polygon points="1350.0,0.0 1600.0,0.0 1620.0,640.0 1370.0,640.0" fill="rgb(217,138,70)" fill-opacity="0.863"/>
  <polygon points="1550.0,0.0 1800.0,0.0 1820.0,640.0 1570.0,640.0" fill="rgb(236,99,36)"/>
  <polygon points="1750.0,0.0 1920.0,0.0 1920.0,640.0 1770.0,640.0" fill="rgb(75,166,132)" fill-opacity="0.784"/>
  <polygon points="0.0,0.0 768.0,0.0 576.0,640.0 0.0,640.0" fill="rgb(250,247,241)"/>
</svg>
