<?xml version="1.0" encoding="UTF-8" standalone="no"?>
<svg xmlns="http://www.w3.org/2000/svg" viewBox="0 0 1920 640" width="1920" height="640">
  <title>v7-shards-flat</title>
  <rect width="1920" height="640" fill="rgb(9,97,53)"/>
  <polygon points="550.0,0.0 1920.0,0.0 1920.0,130.0 560.0,110.0" fill="rgb(3,56,33)"/>
  <polygon points="560.0,110.0 1920.0,130.0 1920.0,260.0 570.0,250.0" fill="rgb(9,97,53)"/>
  <polygon points="570.0,250.0 1920.0,260.0 1920.0,380.0 580.0,380.0" fill="rgb(26,128,80)"/>
  <polygon points="580.0,380.0 1920.0,380.0 1920.0,490.0 585.0,490.0" fill="rgb(180,105,50)"/>
  <polygon points="585.0,490.0 1920.0,490.0 1920.0,580.0 590.0,580.0" fill="rgb(210,95,50)"/>
  <polygon points="590.0,580.0 1920.0,580.0 1920.0,640.0 590.0,640.0" fill="rgb(236,99,36)"/>
  <ellipse cx="1610.0" cy="160.0" rx="110.0" ry="110.0" fill="rgb(245,145,95)" fill-opacity="0.863"/>
  <polygon points="0.0,0.0 768.0,0.0 576.0,640.0 0.0,640.0" fill="rgb(250,247,241)"/>
</svg>
