<?xml version="1.0" encoding="UTF-8" standalone="no"?>
<svg xmlns="http://www.w3.org/2000/svg" viewBox="0 0 1920 640" width="1920" height="640">
  <title>v7-shards-cubiste</title>
  <rect width="1920" height="640" fill="rgb(3,56,33)"/>
  <polygon points="500.0,0.0 1300.0,0.0 1100.0,200.0 450.0,280.0" fill="rgb(9,97,53)"/>
  <polygon points="900.0,100.0 1500.0,50.0 1500.0,350.0 1000.0,400.0" fill="rgb(42,46,55)" fill-opacity="0.941"/>
  <polygon points="1400.0,0.0 1700.0,100.0 1650.0,380.0 1380.0,320.0" fill="rgb(236,99,36)"/>
  <polygon points="550.0,280.0 1100.0,350.0 1050.0,640.0 450.0,580.0" fill="rgb(26,128,80)" fill-opacity="0.902"/>
  <polygon points="1100.0,380.0 1500.0,350.0 1450.0,640.0 1080.0,640.0" fill="rgb(217,138,70)" fill-opacity="0.863"/>
  <polygon points="1700.0,200.0 1920.0,250.0 1920.0,540.0 1650.0,480.0" fill="rgb(75,166,132)" fill-opacity="0.824"/>
  <polygon points="1500.0,480.0 1850.0,500.0 1820.0,640.0 1480.0,640.0" fill="rgb(80,85,95)" fill-opacity="0.902"/>
  <polygon points="0.0,0.0 768.0,0.0 576.0,640.0 0.0,640.0" fill="rgb(250,247,241)"/>
</svg>
