<?xml version="1.0" encoding="UTF-8" standalone="no"?>
<svg xmlns="http://www.w3.org/2000/svg" viewBox="0 0 1920 640" width="1920" height="640">
  <title>v7-shards-confetti</title>
  <rect width="1920" height="640" fill="rgb(3,69,42)"/>
  <polygon points="828.0,34.0 888.0,154.0 768.0,154.0" fill="rgb(9,97,53)" fill-opacity="0.902"/>
  <rect x="956.0" y="37.0" width="60.0" height="60.0" fill="rgb(26,128,80)" fill-opacity="0.902"/>
  <polygon points="1091.0,47.0 1121.0,107.0 1061.0,107.0" fill="rgb(75,166,132)" fill-opacity="0.902"/>
  <polygon points="1254.0,26.0 1314.0,146.0 1194.0,146.0" fill="rgb(236,99,36)" fill-opacity="0.902"/>
  <polygon points="1377.0,25.0 1417.0,65.0 1377.0,105.0 1337.0,65.0" fill="rgb(217,138,70)" fill-opacity="0.902"/>
  <polygon points="1510.0,48.0 1550.0,128.0 1470.0,128.0" fill="rgb(42,46,55)" fill-opacity="0.902"/>
  <rect x="1572.0" y="54.0" width="80.0" height="80.0" fill="rgb(180,105,50)" fill-opacity="0.902"/>
  <polygon points="1759.0,38.0 1809.0,88.0 1759.0,138.0 1709.0,88.0" fill="rgb(9,97,53)" fill-opacity="0.902"/>
  <polygon points="1865.0,23.0 1915.0,73.0 1865.0,123.0 1815.0,73.0" fill="rgb(26,128,80)" fill-opacity="0.902"/>
  <polygon points="2030.0,41.0 2060.0,101.0 2000.0,101.0" fill="rgb(75,166,132)" fill-opacity="0.902"/>
  <rect x="780.0" y="128.0" width="120.0" height="120.0" fill="rgb(236,99,36)" fill-opacity="0.902"/>
  <polygon points="1001.0,158.0 1041.0,198.0 1001.0,238.0 961.0,198.0" fill="rgb(217,138,70)" fill-opacity="0.902"/>
  <polygon points="1107.0,148.0 1147.0,188.0 1107.0,228.0 1067.0,188.0" fill="rgb(42,46,55)" fill-opacity="0.902"/>
  <rect x="1181.0" y="135.0" width="100.0" height="100.0" fill="rgb(180,105,50)" fill-opacity="0.902"/>
  <polygon points="1385.0,165.0 1435.0,215.0 1385.0,265.0 1335.0,215.0" fill="rgb(9,97,53)" fill-opacity="0.902"/>
  <rect x="1445.0" y="158.0" width="80.0" height="80.0" fill="rgb(26,128,80)" fill-opacity="0.902"/>
  <rect x="1568.0" y="148.0" width="100.0" height="100.0" fill="rgb(75,166,132)" fill-opacity="0.902"/>
  <polygon points="1765.0,154.0 1805.0,194.0 1765.0,234.0 1725.0,194.0" fill="rgb(236,99,36)" fill-opacity="0.902"/>
  <polygon points="1865.0,139.0 1915.0,239.0 1815.0,239.0" fill="rgb(217,138,70)" fill-opacity="0.902"/>
  <rect x="1962.0" y="125.0" width="120.0" height="120.0" fill="rgb(42,46,55)" fill-opacity="0.902"/>
  <polygon points="830.0,258.0 880.0,308.0 830.0,358.0 780.0,308.0" fill="rgb(180,105,50)" fill-opacity="0.902"/>
  <polygon points="1003.0,303.0 1033.0,333.0 1003.0,363.0 973.0,333.0" fill="rgb(9,97,53)" fill-opacity="0.902"/>
  <polygon points="1126.0,263.0 1176.0,313.0 1126.0,363.0 1076.0,313.0" fill="rgb(26,128,80)" fill-opacity="0.902"/>
  <rect x="1200.0" y="274.0" width="80.0" height="80.0" fill="rgb(75,166,132)" fill-opacity="0.902"/>
  <polygon points="1344.0,287.0 1384.0,327.0 1344.0,367.0 1304.0,327.0" fill="rgb(236,99,36)" fill-opacity="0.902"/>
  <rect x="1448.0" y="294.0" width="60.0" height="60.0" fill="rgb(217,138,70)" fill-opacity="0.902"/>
  <polygon points="1630.0,258.0 1680.0,358.0 1580.0,358.0" fill="rgb(42,46,55)" fill-opacity="0.902"/>
  <polygon points="1759.0,291.0 1799.0,371.0 1719.0,371.0" fill="rgb(180,105,50)" fill-opacity="0.902"/>
  <rect x="1833.0" y="278.0" width="80.0" height="80.0" fill="rgb(9,97,53)" fill-opacity="0.902"/>
  <rect x="1983.0" y="286.0" width="80.0" height="80.0" fill="rgb(26,128,80)" fill-opacity="0.902"/>
  <polygon points="827.0,398.0 857.0,458.0 797.0,458.0" fill="rgb(75,166,132)" fill-opacity="0.902"/>
  <polygon points="997.0,398.0 1037.0,438.0 997.0,478.0 957.0,438.0" fill="rgb(236,99,36)" fill-opacity="0.902"/>
  <polygon points="1133.0,391.0 1193.0,511.0 1073.0,511.0" fill="rgb(217,138,70)" fill-opacity="0.902"/>
  <polygon points="1242.0,411.0 1272.0,441.0 1242.0,471.0 1212.0,441.0" fill="rgb(42,46,55)" fill-opacity="0.902"/>
  <rect x="1319.0" y="379.0" width="120.0" height="120.0" fill="rgb(180,105,50)" fill-opacity="0.902"/>
  <polygon points="1506.0,393.0 1566.0,513.0 1446.0,513.0" fill="rgb(9,97,53)" fill-opacity="0.902"/>
  <rect x="1576.0" y="386.0" width="120.0" height="120.0" fill="rgb(26,128,80)" fill-opacity="0.902"/>
  <rect x="1720.0" y="406.0" width="60.0" height="60.0" fill="rgb(75,166,132)" fill-opacity="0.902"/>
  <polygon points="1886.0,406.0 1916.0,466.0 1856.0,466.0" fill="rgb(236,99,36)" fill-opacity="0.902"/>
  <polygon points="2020.0,401.0 2070.0,451.0 2020.0,501.0 1970.0,451.0" fill="rgb(217,138,70)" fill-opacity="0.902"/>
  <polygon points="825.0,519.0 855.0,549.0 825.0,579.0 795.0,549.0" fill="rgb(42,46,55)" fill-opacity="0.902"/>
  <rect x="944.0" y="505.0" width="80.0" height="80.0" fill="rgb(180,105,50)" fill-opacity="0.902"/>
  <polygon points="1128.0,533.0 1158.0,593.0 1098.0,593.0" fill="rgb(9,97,53)" fill-opacity="0.902"/>
  <polygon points="1246.0,533.0 1276.0,593.0 1216.0,593.0" fill="rgb(26,128,80)" fill-opacity="0.902"/>
  <polygon points="1343.0,522.0 1373.0,552.0 1343.0,582.0 1313.0,552.0" fill="rgb(75,166,132)" fill-opacity="0.902"/>
  <polygon points="1488.0,525.0 1518.0,585.0 1458.0,585.0" fill="rgb(236,99,36)" fill-opacity="0.902"/>
  <polygon points="1643.0,500.0 1703.0,560.0 1643.0,620.0 1583.0,560.0" fill="rgb(217,138,70)" fill-opacity="0.902"/>
  <polygon points="1764.0,522.0 1794.0,552.0 1764.0,582.0 1734.0,552.0" fill="rgb(42,46,55)" fill-opacity="0.902"/>
  <polygon points="1863.0,509.0 1923.0,569.0 1863.0,629.0 1803.0,569.0" fill="rgb(180,105,50)" fill-opacity="0.902"/>
  <polygon points="1993.0,519.0 2033.0,599.0 1953.0,599.0" fill="rgb(9,97,53)" fill-opacity="0.902"/>
  <polygon points="0.0,0.0 768.0,0.0 576.0,640.0 0.0,640.0" fill="rgb(250,247,241)"/>
</svg>
