<?xml version="1.0" encoding="UTF-8" standalone="no"?>
<svg xmlns="http://www.w3.org/2000/svg" viewBox="0 0 1920 640" width="1920" height="640">
  <title>v8-mosaic-hexagonal-chaud</title>
  <rect width="1920" height="640" fill="rgb(250,247,241)"/>
  <polygon points="-41.2,-23.8 -97.5,8.7 -153.8,-23.8 -153.8,-88.8 -97.5,-121.3 -41.2,-88.8" fill="rgb(217,138,70)"/>
  <polygon points="-41.2,88.8 -97.5,121.3 -153.8,88.8 -153.8,23.8 -97.5,-8.7 -41.2,23.8" fill="rgb(200,75,25)"/>
  <polygon points="-41.2,201.4 -97.5,233.9 -153.8,201.4 -153.8,136.4 -97.5,103.9 -41.2,136.4" fill="rgb(170,65,18)"/>
  <polygon points="-41.2,314.0 -97.5,346.5 -153.8,314.0 -153.8,249.0 -97.5,216.5 -41.2,249.0" fill="rgb(200,75,25)"/>
  <polygon points="-41.2,426.5 -97.5,459.0 -153.8,426.5 -153.8,361.5 -97.5,329.0 -41.2,361.5" fill="rgb(200,75,25)"/>
  <polygon points="-41.2,539.1 -97.5,571.6 -153.8,539.1 -153.8,474.1 -97.5,441.6 -41.2,474.1" fill="rgb(217,138,70)"/>
  <polygon points="-41.2,651.7 -97.5,684.2 -153.8,651.7 -153.8,586.7 -97.5,554.2 -41.2,586.7" fill="rgb(180,105,50)"/>
  <polygon points="-41.2,764.3 -97.5,796.8 -153.8,764.3 -153.8,699.3 -97.5,666.8 -41.2,699.3" fill="rgb(210,95,50)"/>
  <polygon points="56.3,-80.1 0.0,-47.6 -56.3,-80.1 -56.3,-145.1 -0.0,-177.6 56.3,-145.1" fill="rgb(200,75,25)"/>
  <polygon points="56.3,32.5 0.0,65.0 -56.3,32.5 -56.3,-32.5 -0.0,-65.0 56.3,-32.5" fill="rgb(200,75,25)"/>
  <polygon points="56.3,145.1 0.0,177.6 -56.3,145.1 -56.3,80.1 -0.0,47.6 56.3,80.1" fill="rgb(200,75,25)"/>
  <polygon points="56.3,257.7 0.0,290.2 -56.3,257.7 -56.3,192.7 -0.0,160.2 56.3,192.7" fill="rgb(236,99,36)"/>
  <polygon points="56.3,370.2 0.0,402.7 -56.3,370.2 -56.3,305.2 -0.0,272.7 56.3,305.2" fill="rgb(180,105,50)"/>
  <polygon points="56.3,482.8 0.0,515.3 -56.3,482.8 -56.3,417.8 -0.0,385.3 56.3,417.8" fill="rgb(210,95,50)"/>
  <polygon points="56.3,595.4 0.0,627.9 -56.3,595.4 -56.3,530.4 -0.0,497.9 56.3,530.4" fill="rgb(210,95,50)"/>
  <polygon points="56.3,708.0 0.0,740.5 -56.3,708.0 -56.3,643.0 -0.0,610.5 56.3,643.0" fill="rgb(3,69,42)"/>
  <polygon points="153.8,-23.8 97.5,8.7 41.2,-23.8 41.2,-88.8 97.5,-121.3 153.8,-88.8" fill="rgb(200,75,25)"/>
  <polygon points="153.8,88.8 97.5,121.3 41.2,88.8 41.2,23.8 97.5,-8.7 153.8,23.8" fill="rgb(217,138,70)"/>
  <polygon points="153.8,201.4 97.5,233.9 41.2,201.4 41.2,136.4 97.5,103.9 153.8,136.4" fill="rgb(217,138,70)"/>
  <polygon points="153.8,314.0 97.5,346.5 41.2,314.0 41.2,249.0 97.5,216.5 153.8,249.0" fill="rgb(180,105,50)"/>
  <polygon points="153.8,426.5 97.5,459.0 41.2,426.5 41.2,361.5 97.5,329.0 153.8,361.5" fill="rgb(200,75,25)"/>
  <polygon points="153.8,539.1 97.5,571.6 41.2,539.1 41.2,474.1 97.5,441.6 153.8,474.1" fill="rgb(3,69,42)"/>
  <polygon points="153.8,651.7 97.5,684.2 41.2,651.7 41.2,586.7 97.5,554.2 153.8,586.7" fill="rgb(3,69,42)"/>
  <polygon points="153.8,764.3 97.5,796.8 41.2,764.3 41.2,699.3 97.5,666.8 153.8,699.3" fill="rgb(217,138,70)"/>
  <polygon points="251.3,-80.1 195.0,-47.6 138.7,-80.1 138.7,-145.1 195.0,-177.6 251.3,-145.1" fill="rgb(217,138,70)"/>
  <polygon points="251.3,32.5 195.0,65.0 138.7,32.5 138.7,-32.5 195.0,-65.0 251.3,-32.5" fill="rgb(210,95,50)"/>
  <polygon points="251.3,145.1 195.0,177.6 138.7,145.1 138.7,80.1 195.0,47.6 251.3,80.1" fill="rgb(210,95,50)"/>
  <polygon points="251.3,257.7 195.0,290.2 138.7,257.7 138.7,192.7 195.0,160.2 251.3,192.7" fill="rgb(200,75,25)"/>
  <polygon points="251.3,370.2 195.0,402.7 138.7,370.2 138.7,305.2 195.0,272.7 251.3,305.2" fill="rgb(42,46,55)"/>
  <polygon points="251.3,482.8 195.0,515.3 138.7,482.8 138.7,417.8 195.0,385.3 251.3,417.8" fill="rgb(217,138,70)"/>
  <polygon points="251.3,595.4 195.0,627.9 138.7,595.4 138.7,530.4 195.0,497.9 251.3,530.4" fill="rgb(245,145,95)"/>
  <polygon points="251.3,708.0 195.0,740.5 138.7,708.0 138.7,643.0 195.0,610.5 251.3,643.0" fill="rgb(200,75,25)"/>
  <polygon points="348.8,-23.8 292.5,8.7 236.2,-23.8 236.2,-88.8 292.5,-121.3 348.8,-88.8" fill="rgb(210,95,50)"/>
  <polygon points="348.8,88.8 292.5,121.3 236.2,88.8 236.2,23.8 292.5,-8.7 348.8,23.8" fill="rgb(200,75,25)"/>
  <polygon points="348.8,201.4 292.5,233.9 236.2,201.4 236.2,136.4 292.5,103.9 348.8,136.4" fill="rgb(3,69,42)"/>
  <polygon points="348.8,314.0 292.5,346.5 236.2,314.0 236.2,249.0 292.5,216.5 348.8,249.0" fill="rgb(42,46,55)"/>
  <polygon points="348.8,426.5 292.5,459.0 236.2,426.5 236.2,361.5 292.5,329.0 348.8,361.5" fill="rgb(245,145,95)"/>
  <polygon points="348.8,539.1 292.5,571.6 236.2,539.1 236.2,474.1 292.5,441.6 348.8,474.1" fill="rgb(200,75,25)"/>
  <polygon points="348.8,651.7 292.5,684.2 236.2,651.7 236.2,586.7 292.5,554.2 348.8,586.7" fill="rgb(200,75,25)"/>
  <polygon points="348.8,764.3 292.5,796.8 236.2,764.3 236.2,699.3 292.5,666.8 348.8,699.3" fill="rgb(200,75,25)"/>
  <polygon points="446.3,-80.1 390.0,-47.6 333.7,-80.1 333.7,-145.1 390.0,-177.6 446.3,-145.1" fill="rgb(3,69,42)"/>
  <polygon points="446.3,32.5 390.0,65.0 333.7,32.5 333.7,-32.5 390.0,-65.0 446.3,-32.5" fill="rgb(217,138,70)"/>
  <polygon points="446.3,145.1 390.0,177.6 333.7,145.1 333.7,80.1 390.0,47.6 446.3,80.1" fill="rgb(245,145,95)"/>
  <polygon points="446.3,257.7 390.0,290.2 333.7,257.7 333.7,192.7 390.0,160.2 446.3,192.7" fill="rgb(200,75,25)"/>
  <polygon points="446.3,370.2 390.0,402.7 333.7,370.2 333.7,305.2 390.0,272.7 446.3,305.2" fill="rgb(200,75,25)"/>
  <polygon points="446.3,482.8 390.0,515.3 333.7,482.8 333.7,417.8 390.0,385.3 446.3,417.8" fill="rgb(200,75,25)"/>
  <polygon points="446.3,595.4 390.0,627.9 333.7,595.4 333.7,530.4 390.0,497.9 446.3,530.4" fill="rgb(200,75,25)"/>
  <polygon points="446.3,708.0 390.0,740.5 333.7,708.0 333.7,643.0 390.0,610.5 446.3,643.0" fill="rgb(236,99,36)"/>
  <polygon points="543.8,-23.8 487.5,8.7 431.2,-23.8 431.2,-88.8 487.5,-121.3 543.8,-88.8" fill="rgb(245,145,95)"/>
  <polygon points="543.8,88.8 487.5,121.3 431.2,88.8 431.2,23.8 487.5,-8.7 543.8,23.8" fill="rgb(200,75,25)"/>
  <polygon points="543.8,201.4 487.5,233.9 431.2,201.4 431.2,136.4 487.5,103.9 543.8,136.4" fill="rgb(170,65,18)"/>
  <polygon points="543.8,314.0 487.5,346.5 431.2,314.0 431.2,249.0 487.5,216.5 543.8,249.0" fill="rgb(200,75,25)"/>
  <polygon points="543.8,426.5 487.5,459.0 431.2,426.5 431.2,361.5 487.5,329.0 543.8,361.5" fill="rgb(236,99,36)"/>
  <polygon points="543.8,539.1 487.5,571.6 431.2,539.1 431.2,474.1 487.5,441.6 543.8,474.1" fill="rgb(236,99,36)"/>
  <polygon points="543.8,651.7 487.5,684.2 431.2,651.7 431.2,586.7 487.5,554.2 543.8,586.7" fill="rgb(180,105,50)"/>
  <polygon points="543.8,764.3 487.5,796.8 431.2,764.3 431.2,699.3 487.5,666.8 543.8,699.3" fill="rgb(180,105,50)"/>
  <polygon points="641.3,-80.1 585.0,-47.6 528.7,-80.1 528.7,-145.1 585.0,-177.6 641.3,-145.1" fill="rgb(200,75,25)"/>
  <polygon points="641.3,32.5 585.0,65.0 528.7,32.5 528.7,-32.5 585.0,-65.0 641.3,-32.5" fill="rgb(200,75,25)"/>
  <polygon points="641.3,145.1 585.0,177.6 528.7,145.1 528.7,80.1 585.0,47.6 641.3,80.1" fill="rgb(236,99,36)"/>
  <polygon points="641.3,257.7 585.0,290.2 528.7,257.7 528.7,192.7 585.0,160.2 641.3,192.7" fill="rgb(217,138,70)"/>
  <polygon points="641.3,370.2 585.0,402.7 528.7,370.2 528.7,305.2 585.0,272.7 641.3,305.2" fill="rgb(180,105,50)"/>
  <polygon points="641.3,482.8 585.0,515.3 528.7,482.8 528.7,417.8 585.0,385.3 641.3,417.8" fill="rgb(210,95,50)"/>
  <polygon points="641.3,595.4 585.0,627.9 528.7,595.4 528.7,530.4 585.0,497.9 641.3,530.4" fill="rgb(200,75,25)"/>
  <polygon points="641.3,708.0 585.0,740.5 528.7,708.0 528.7,643.0 585.0,610.5 641.3,643.0" fill="rgb(200,75,25)"/>
  <polygon points="738.8,-23.8 682.5,8.7 626.2,-23.8 626.2,-88.8 682.5,-121.3 738.8,-88.8" fill="rgb(236,99,36)"/>
  <polygon points="738.8,88.8 682.5,121.3 626.2,88.8 626.2,23.8 682.5,-8.7 738.8,23.8" fill="rgb(217,138,70)"/>
  <polygon points="738.8,201.4 682.5,233.9 626.2,201.4 626.2,136.4 682.5,103.9 738.8,136.4" fill="rgb(180,105,50)"/>
  <polygon points="738.8,314.0 682.5,346.5 626.2,314.0 626.2,249.0 682.5,216.5 738.8,249.0" fill="rgb(210,95,50)"/>
  <polygon points="738.8,426.5 682.5,459.0 626.2,426.5 626.2,361.5 682.5,329.0 738.8,361.5" fill="rgb(200,75,25)"/>
  <polygon points="738.8,539.1 682.5,571.6 626.2,539.1 626.2,474.1 682.5,441.6 738.8,474.1" fill="rgb(200,75,25)"/>
  <polygon points="738.8,651.7 682.5,684.2 626.2,651.7 626.2,586.7 682.5,554.2 738.8,586.7" fill="rgb(3,69,42)"/>
  <polygon points="738.8,764.3 682.5,796.8 626.2,764.3 626.2,699.3 682.5,666.8 738.8,699.3" fill="rgb(42,46,55)"/>
  <polygon points="836.3,-80.1 780.0,-47.6 723.7,-80.1 723.7,-145.1 780.0,-177.6 836.3,-145.1" fill="rgb(217,138,70)"/>
  <polygon points="836.3,32.5 780.0,65.0 723.7,32.5 723.7,-32.5 780.0,-65.0 836.3,-32.5" fill="rgb(180,105,50)"/>
  <polygon points="836.3,145.1 780.0,177.6 723.7,145.1 723.7,80.1 780.0,47.6 836.3,80.1" fill="rgb(200,75,25)"/>
  <polygon points="836.3,257.7 780.0,290.2 723.7,257.7 723.7,192.7 780.0,160.2 836.3,192.7" fill="rgb(3,69,42)"/>
  <polygon points="836.3,370.2 780.0,402.7 723.7,370.2 723.7,305.2 780.0,272.7 836.3,305.2" fill="rgb(3,69,42)"/>
  <polygon points="836.3,482.8 780.0,515.3 723.7,482.8 723.7,417.8 780.0,385.3 836.3,417.8" fill="rgb(217,138,70)"/>
  <polygon points="836.3,595.4 780.0,627.9 723.7,595.4 723.7,530.4 780.0,497.9 836.3,530.4" fill="rgb(217,138,70)"/>
  <polygon points="836.3,708.0 780.0,740.5 723.7,708.0 723.7,643.0 780.0,610.5 836.3,643.0" fill="rgb(245,145,95)"/>
  <polygon points="933.8,-23.8 877.5,8.7 821.2,-23.8 821.2,-88.8 877.5,-121.3 933.8,-88.8" fill="rgb(210,95,50)"/>
  <polygon points="933.8,88.8 877.5,121.3 821.2,88.8 821.2,23.8 877.5,-8.7 933.8,23.8" fill="rgb(3,69,42)"/>
  <polygon points="933.8,201.4 877.5,233.9 821.2,201.4 821.2,136.4 877.5,103.9 933.8,136.4" fill="rgb(3,69,42)"/>
  <polygon points="933.8,314.0 877.5,346.5 821.2,314.0 821.2,249.0 877.5,216.5 933.8,249.0" fill="rgb(217,138,70)"/>
  <polygon points="933.8,426.5 877.5,459.0 821.2,426.5 821.2,361.5 877.5,329.0 933.8,361.5" fill="rgb(217,138,70)"/>
  <polygon points="933.8,539.1 877.5,571.6 821.2,539.1 821.2,474.1 877.5,441.6 933.8,474.1" fill="rgb(200,75,25)"/>
  <polygon points="933.8,651.7 877.5,684.2 821.2,651.7 821.2,586.7 877.5,554.2 933.8,586.7" fill="rgb(170,65,18)"/>
  <polygon points="933.8,764.3 877.5,796.8 821.2,764.3 821.2,699.3 877.5,666.8 933.8,699.3" fill="rgb(170,65,18)"/>
  <polygon points="1031.3,-80.1 975.0,-47.6 918.7,-80.1 918.7,-145.1 975.0,-177.6 1031.3,-145.1" fill="rgb(3,69,42)"/>
  <polygon points="1031.3,32.5 975.0,65.0 918.7,32.5 918.7,-32.5 975.0,-65.0 1031.3,-32.5" fill="rgb(217,138,70)"/>
  <polygon points="1031.3,145.1 975.0,177.6 918.7,145.1 918.7,80.1 975.0,47.6 1031.3,80.1" fill="rgb(217,138,70)"/>
  <polygon points="1031.3,257.7 975.0,290.2 918.7,257.7 918.7,192.7 975.0,160.2 1031.3,192.7" fill="rgb(245,145,95)"/>
  <polygon points="1031.3,370.2 975.0,402.7 918.7,370.2 918.7,305.2 975.0,272.7 1031.3,305.2" fill="rgb(170,65,18)"/>
  <polygon points="1031.3,482.8 975.0,515.3 918.7,482.8 918.7,417.8 975.0,385.3 1031.3,417.8" fill="rgb(170,65,18)"/>
  <polygon points="1031.3,595.4 975.0,627.9 918.7,595.4 918.7,530.4 975.0,497.9 1031.3,530.4" fill="rgb(200,75,25)"/>
  <polygon points="1031.3,708.0 975.0,740.5 918.7,708.0 918.7,643.0 975.0,610.5 1031.3,643.0" fill="rgb(217,138,70)"/>
  <polygon points="1128.8,-23.8 1072.5,8.7 1016.2,-23.8 1016.2,-88.8 1072.5,-121.3 1128.8,-88.8" fill="rgb(217,138,70)"/>
  <polygon points="1128.8,88.8 1072.5,121.3 1016.2,88.8 1016.2,23.8 1072.5,-8.7 1128.8,23.8" fill="rgb(245,145,95)"/>
  <polygon points="1128.8,201.4 1072.5,233.9 1016.2,201.4 1016.2,136.4 1072.5,103.9 1128.8,136.4" fill="rgb(200,75,25)"/>
  <polygon points="1128.8,314.0 1072.5,346.5 1016.2,314.0 1016.2,249.0 1072.5,216.5 1128.8,249.0" fill="rgb(170,65,18)"/>
  <polygon points="1128.8,426.5 1072.5,459.0 1016.2,426.5 1016.2,361.5 1072.5,329.0 1128.8,361.5" fill="rgb(200,75,25)"/>
  <polygon points="1128.8,539.1 1072.5,571.6 1016.2,539.1 1016.2,474.1 1072.5,441.6 1128.8,474.1" fill="rgb(236,99,36)"/>
  <polygon points="1128.8,651.7 1072.5,684.2 1016.2,651.7 1016.2,586.7 1072.5,554.2 1128.8,586.7" fill="rgb(217,138,70)"/>
  <polygon points="1128.8,764.3 1072.5,796.8 1016.2,764.3 1016.2,699.3 1072.5,666.8 1128.8,699.3" fill="rgb(180,105,50)"/>
  <polygon points="1226.3,-80.1 1170.0,-47.6 1113.7,-80.1 1113.7,-145.1 1170.0,-177.6 1226.3,-145.1" fill="rgb(170,65,18)"/>
  <polygon points="1226.3,32.5 1170.0,65.0 1113.7,32.5 1113.7,-32.5 1170.0,-65.0 1226.3,-32.5" fill="rgb(200,75,25)"/>
  <polygon points="1226.3,145.1 1170.0,177.6 1113.7,145.1 1113.7,80.1 1170.0,47.6 1226.3,80.1" fill="rgb(236,99,36)"/>
  <polygon points="1226.3,257.7 1170.0,290.2 1113.7,257.7 1113.7,192.7 1170.0,160.2 1226.3,192.7" fill="rgb(236,99,36)"/>
  <polygon points="1226.3,370.2 1170.0,402.7 1113.7,370.2 1113.7,305.2 1170.0,272.7 1226.3,305.2" fill="rgb(180,105,50)"/>
  <polygon points="1226.3,482.8 1170.0,515.3 1113.7,482.8 1113.7,417.8 1170.0,385.3 1226.3,417.8" fill="rgb(180,105,50)"/>
  <polygon points="1226.3,595.4 1170.0,627.9 1113.7,595.4 1113.7,530.4 1170.0,497.9 1226.3,530.4" fill="rgb(200,75,25)"/>
  <polygon points="1226.3,708.0 1170.0,740.5 1113.7,708.0 1113.7,643.0 1170.0,610.5 1226.3,643.0" fill="rgb(3,69,42)"/>
  <polygon points="1323.8,-23.8 1267.5,8.7 1211.2,-23.8 1211.2,-88.8 1267.5,-121.3 1323.8,-88.8" fill="rgb(236,99,36)"/>
  <polygon points="1323.8,88.8 1267.5,121.3 1211.2,88.8 1211.2,23.8 1267.5,-8.7 1323.8,23.8" fill="rgb(236,99,36)"/>
  <polygon points="1323.8,201.4 1267.5,233.9 1211.2,201.4 1211.2,136.4 1267.5,103.9 1323.8,136.4" fill="rgb(180,105,50)"/>
  <polygon points="1323.8,314.0 1267.5,346.5 1211.2,314.0 1211.2,249.0 1267.5,216.5 1323.8,249.0" fill="rgb(210,95,50)"/>
  <polygon points="1323.8,426.5 1267.5,459.0 1211.2,426.5 1211.2,361.5 1267.5,329.0 1323.8,361.5" fill="rgb(200,75,25)"/>
  <polygon points="1323.8,539.1 1267.5,571.6 1211.2,539.1 1211.2,474.1 1267.5,441.6 1323.8,474.1" fill="rgb(3,69,42)"/>
  <polygon points="1323.8,651.7 1267.5,684.2 1211.2,651.7 1211.2,586.7 1267.5,554.2 1323.8,586.7" fill="rgb(3,69,42)"/>
  <polygon points="1323.8,764.3 1267.5,796.8 1211.2,764.3 1211.2,699.3 1267.5,666.8 1323.8,699.3" fill="rgb(217,138,70)"/>
  <polygon points="1421.3,-80.1 1365.0,-47.6 1308.7,-80.1 1308.7,-145.1 1365.0,-177.6 1421.3,-145.1" fill="rgb(180,105,50)"/>
  <polygon points="1421.3,32.5 1365.0,65.0 1308.7,32.5 1308.7,-32.5 1365.0,-65.0 1421.3,-32.5" fill="rgb(210,95,50)"/>
  <polygon points="1421.3,145.1 1365.0,177.6 1308.7,145.1 1308.7,80.1 1365.0,47.6 1421.3,80.1" fill="rgb(200,75,25)"/>
  <polygon points="1421.3,257.7 1365.0,290.2 1308.7,257.7 1308.7,192.7 1365.0,160.2 1421.3,192.7" fill="rgb(3,69,42)"/>
  <polygon points="1421.3,370.2 1365.0,402.7 1308.7,370.2 1308.7,305.2 1365.0,272.7 1421.3,305.2" fill="rgb(3,69,42)"/>
  <polygon points="1421.3,482.8 1365.0,515.3 1308.7,482.8 1308.7,417.8 1365.0,385.3 1421.3,417.8" fill="rgb(217,138,70)"/>
  <polygon points="1421.3,595.4 1365.0,627.9 1308.7,595.4 1308.7,530.4 1365.0,497.9 1421.3,530.4" fill="rgb(217,138,70)"/>
  <polygon points="1421.3,708.0 1365.0,740.5 1308.7,708.0 1308.7,643.0 1365.0,610.5 1421.3,643.0" fill="rgb(200,75,25)"/>
  <polygon points="1518.8,-23.8 1462.5,8.7 1406.2,-23.8 1406.2,-88.8 1462.5,-121.3 1518.8,-88.8" fill="rgb(200,75,25)"/>
  <polygon points="1518.8,88.8 1462.5,121.3 1406.2,88.8 1406.2,23.8 1462.5,-8.7 1518.8,23.8" fill="rgb(200,75,25)"/>
  <polygon points="1518.8,201.4 1462.5,233.9 1406.2,201.4 1406.2,136.4 1462.5,103.9 1518.8,136.4" fill="rgb(42,46,55)"/>
  <polygon points="1518.8,314.0 1462.5,346.5 1406.2,314.0 1406.2,249.0 1462.5,216.5 1518.8,249.0" fill="rgb(217,138,70)"/>
  <polygon points="1518.8,426.5 1462.5,459.0 1406.2,426.5 1406.2,361.5 1462.5,329.0 1518.8,361.5" fill="rgb(245,145,95)"/>
  <polygon points="1518.8,539.1 1462.5,571.6 1406.2,539.1 1406.2,474.1 1462.5,441.6 1518.8,474.1" fill="rgb(245,145,95)"/>
  <polygon points="1518.8,651.7 1462.5,684.2 1406.2,651.7 1406.2,586.7 1462.5,554.2 1518.8,586.7" fill="rgb(170,65,18)"/>
  <polygon points="1518.8,764.3 1462.5,796.8 1406.2,764.3 1406.2,699.3 1462.5,666.8 1518.8,699.3" fill="rgb(170,65,18)"/>
  <polygon points="1616.3,-80.1 1560.0,-47.6 1503.7,-80.1 1503.7,-145.1 1560.0,-177.6 1616.3,-145.1" fill="rgb(3,69,42)"/>
  <polygon points="1616.3,32.5 1560.0,65.0 1503.7,32.5 1503.7,-32.5 1560.0,-65.0 1616.3,-32.5" fill="rgb(42,46,55)"/>
  <polygon points="1616.3,145.1 1560.0,177.6 1503.7,145.1 1503.7,80.1 1560.0,47.6 1616.3,80.1" fill="rgb(217,138,70)"/>
  <polygon points="1616.3,257.7 1560.0,290.2 1503.7,257.7 1503.7,192.7 1560.0,160.2 1616.3,192.7" fill="rgb(200,75,25)"/>
  <polygon points="1616.3,370.2 1560.0,402.7 1503.7,370.2 1503.7,305.2 1560.0,272.7 1616.3,305.2" fill="rgb(170,65,18)"/>
  <polygon points="1616.3,482.8 1560.0,515.3 1503.7,482.8 1503.7,417.8 1560.0,385.3 1616.3,417.8" fill="rgb(200,75,25)"/>
  <polygon points="1616.3,595.4 1560.0,627.9 1503.7,595.4 1503.7,530.4 1560.0,497.9 1616.3,530.4" fill="rgb(236,99,36)"/>
  <polygon points="1616.3,708.0 1560.0,740.5 1503.7,708.0 1503.7,643.0 1560.0,610.5 1616.3,643.0" fill="rgb(217,138,70)"/>
  <polygon points="1713.8,-23.8 1657.5,8.7 1601.2,-23.8 1601.2,-88.8 1657.5,-121.3 1713.8,-88.8" fill="rgb(245,145,95)"/>
  <polygon points="1713.8,88.8 1657.5,121.3 1601.2,88.8 1601.2,23.8 1657.5,-8.7 1713.8,23.8" fill="rgb(200,75,25)"/>
  <polygon points="1713.8,201.4 1657.5,233.9 1601.2,201.4 1601.2,136.4 1657.5,103.9 1713.8,136.4" fill="rgb(170,65,18)"/>
  <polygon points="1713.8,314.0 1657.5,346.5 1601.2,314.0 1601.2,249.0 1657.5,216.5 1713.8,249.0" fill="rgb(170,65,18)"/>
  <polygon points="1713.8,426.5 1657.5,459.0 1601.2,426.5 1601.2,361.5 1657.5,329.0 1713.8,361.5" fill="rgb(200,75,25)"/>
  <polygon points="1713.8,539.1 1657.5,571.6 1601.2,539.1 1601.2,474.1 1657.5,441.6 1713.8,474.1" fill="rgb(236,99,36)"/>
  <polygon points="1713.8,651.7 1657.5,684.2 1601.2,651.7 1601.2,586.7 1657.5,554.2 1713.8,586.7" fill="rgb(217,138,70)"/>
  <polygon points="1713.8,764.3 1657.5,796.8 1601.2,764.3 1601.2,699.3 1657.5,666.8 1713.8,699.3" fill="rgb(180,105,50)"/>
  <polygon points="1811.3,-80.1 1755.0,-47.6 1698.7,-80.1 1698.7,-145.1 1755.0,-177.6 1811.3,-145.1" fill="rgb(170,65,18)"/>
  <polygon points="1811.3,32.5 1755.0,65.0 1698.7,32.5 1698.7,-32.5 1755.0,-65.0 1811.3,-32.5" fill="rgb(170,65,18)"/>
  <polygon points="1811.3,145.1 1755.0,177.6 1698.7,145.1 1698.7,80.1 1755.0,47.6 1811.3,80.1" fill="rgb(236,99,36)"/>
  <polygon points="1811.3,257.7 1755.0,290.2 1698.7,257.7 1698.7,192.7 1755.0,160.2 1811.3,192.7" fill="rgb(236,99,36)"/>
  <polygon points="1811.3,370.2 1755.0,402.7 1698.7,370.2 1698.7,305.2 1755.0,272.7 1811.3,305.2" fill="rgb(217,138,70)"/>
  <polygon points="1811.3,482.8 1755.0,515.3 1698.7,482.8 1698.7,417.8 1755.0,385.3 1811.3,417.8" fill="rgb(210,95,50)"/>
  <polygon points="1811.3,595.4 1755.0,627.9 1698.7,595.4 1698.7,530.4 1755.0,497.9 1811.3,530.4" fill="rgb(200,75,25)"/>
  <polygon points="1811.3,708.0 1755.0,740.5 1698.7,708.0 1698.7,643.0 1755.0,610.5 1811.3,643.0" fill="rgb(200,75,25)"/>
  <polygon points="1908.8,-23.8 1852.5,8.7 1796.2,-23.8 1796.2,-88.8 1852.5,-121.3 1908.8,-88.8" fill="rgb(200,75,25)"/>
  <polygon points="1908.8,88.8 1852.5,121.3 1796.2,88.8 1796.2,23.8 1852.5,-8.7 1908.8,23.8" fill="rgb(236,99,36)"/>
  <polygon points="1908.8,201.4 1852.5,233.9 1796.2,201.4 1796.2,136.4 1852.5,103.9 1908.8,136.4" fill="rgb(180,105,50)"/>
  <polygon points="1908.8,314.0 1852.5,346.5 1796.2,314.0 1796.2,249.0 1852.5,216.5 1908.8,249.0" fill="rgb(210,95,50)"/>
  <polygon points="1908.8,426.5 1852.5,459.0 1796.2,426.5 1796.2,361.5 1852.5,329.0 1908.8,361.5" fill="rgb(210,95,50)"/>
  <polygon points="1908.8,539.1 1852.5,571.6 1796.2,539.1 1796.2,474.1 1852.5,441.6 1908.8,474.1" fill="rgb(200,75,25)"/>
  <polygon points="1908.8,651.7 1852.5,684.2 1796.2,651.7 1796.2,586.7 1852.5,554.2 1908.8,586.7" fill="rgb(3,69,42)"/>
  <polygon points="1908.8,764.3 1852.5,796.8 1796.2,764.3 1796.2,699.3 1852.5,666.8 1908.8,699.3" fill="rgb(42,46,55)"/>
  <polygon points="2006.3,-80.1 1950.0,-47.6 1893.7,-80.1 1893.7,-145.1 1950.0,-177.6 2006.3,-145.1" fill="rgb(180,105,50)"/>
  <polygon points="2006.3,32.5 1950.0,65.0 1893.7,32.5 1893.7,-32.5 1950.0,-65.0 2006.3,-32.5" fill="rgb(180,105,50)"/>
  <polygon points="2006.3,145.1 1950.0,177.6 1893.7,145.1 1893.7,80.1 1950.0,47.6 2006.3,80.1" fill="rgb(210,95,50)"/>
  <polygon points="2006.3,257.7 1950.0,290.2 1893.7,257.7 1893.7,192.7 1950.0,160.2 2006.3,192.7" fill="rgb(200,75,25)"/>
  <polygon points="2006.3,370.2 1950.0,402.7 1893.7,370.2 1893.7,305.2 1950.0,272.7 2006.3,305.2" fill="rgb(3,69,42)"/>
  <polygon points="2006.3,482.8 1950.0,515.3 1893.7,482.8 1893.7,417.8 1950.0,385.3 2006.3,417.8" fill="rgb(42,46,55)"/>
  <polygon points="2006.3,595.4 1950.0,627.9 1893.7,595.4 1893.7,530.4 1950.0,497.9 2006.3,530.4" fill="rgb(245,145,95)"/>
  <polygon points="2006.3,708.0 1950.0,740.5 1893.7,708.0 1893.7,643.0 1950.0,610.5 2006.3,643.0" fill="rgb(200,75,25)"/>
  <polygon points="0.0,0.0 768.0,0.0 576.0,640.0 0.0,640.0" fill="rgb(250,247,241)"/>
</svg>
