<?xml version="1.0" encoding="UTF-8" standalone="no"?>
<svg xmlns="http://www.w3.org/2000/svg" viewBox="0 0 1920 640" width="1920" height="640">
  <title>v8-mosaic-diagonal</title>
  <rect width="1920" height="640" fill="rgb(250,247,241)"/>
  <polygon points="-165.0,-142.5 -110.0,-95.0 -165.0,-47.5" fill="rgb(180,105,50)"/>
  <polygon points="-165.0,-142.5 -165.0,-47.5 -220.0,-95.0" fill="rgb(75,166,132)"/>
  <polygon points="-55.0,-142.5 0.0,-95.0 -55.0,-47.5" fill="rgb(140,180,154)"/>
  <polygon points="-55.0,-142.5 -55.0,-47.5 -110.0,-95.0" fill="rgb(3,56,33)"/>
  <polygon points="55.0,-142.5 110.0,-95.0 55.0,-47.5" fill="rgb(140,180,154)"/>
  <polygon points="55.0,-142.5 55.0,-47.5 0.0,-95.0" fill="rgb(9,97,53)"/>
  <polygon points="165.0,-142.5 220.0,-95.0 165.0,-47.5" fill="rgb(3,56,33)"/>
  <polygon points="165.0,-142.5 165.0,-47.5 110.0,-95.0" fill="rgb(236,99,36)"/>
  <polygon points="275.0,-142.5 330.0,-95.0 275.0,-47.5" fill="rgb(3,69,42)"/>
  <polygon points="275.0,-142.5 275.0,-47.5 220.0,-95.0" fill="rgb(75,166,132)"/>
  <polygon points="385.0,-142.5 440.0,-95.0 385.0,-47.5" fill="rgb(9,97,53)"/>
  <polygon points="385.0,-142.5 385.0,-47.5 330.0,-95.0" fill="rgb(140,180,154)"/>
  <polygon points="495.0,-142.5 550.0,-95.0 495.0,-47.5" fill="rgb(26,128,80)"/>
  <polygon points="495.0,-142.5 495.0,-47.5 440.0,-95.0" fill="rgb(9,97,53)"/>
  <polygon points="605.0,-142.5 660.0,-95.0 605.0,-47.5" fill="rgb(236,99,36)"/>
  <polygon points="605.0,-142.5 605.0,-47.5 550.0,-95.0" fill="rgb(236,99,36)"/>
  <polygon points="715.0,-142.5 770.0,-95.0 715.0,-47.5" fill="rgb(236,99,36)"/>
  <polygon points="715.0,-142.5 715.0,-47.5 660.0,-95.0" fill="rgb(180,105,50)"/>
  <polygon points="825.0,-142.5 880.0,-95.0 825.0,-47.5" fill="rgb(42,46,55)"/>
  <polygon points="825.0,-142.5 825.0,-47.5 770.0,-95.0" fill="rgb(3,56,33)"/>
  <polygon points="935.0,-142.5 990.0,-95.0 935.0,-47.5" fill="rgb(75,166,132)"/>
  <polygon points="935.0,-142.5 935.0,-47.5 880.0,-95.0" fill="rgb(26,128,80)"/>
  <polygon points="1045.0,-142.5 1100.0,-95.0 1045.0,-47.5" fill="rgb(180,105,50)"/>
  <polygon points="1045.0,-142.5 1045.0,-47.5 990.0,-95.0" fill="rgb(42,46,55)"/>
  <polygon points="1155.0,-142.5 1210.0,-95.0 1155.0,-47.5" fill="rgb(180,105,50)"/>
  <polygon points="1155.0,-142.5 1155.0,-47.5 1100.0,-95.0" fill="rgb(180,105,50)"/>
  <polygon points="1265.0,-142.5 1320.0,-95.0 1265.0,-47.5" fill="rgb(140,180,154)"/>
  <polygon points="1265.0,-142.5 1265.0,-47.5 1210.0,-95.0" fill="rgb(140,180,154)"/>
  <polygon points="1375.0,-142.5 1430.0,-95.0 1375.0,-47.5" fill="rgb(3,56,33)"/>
  <polygon points="1375.0,-142.5 1375.0,-47.5 1320.0,-95.0" fill="rgb(9,97,53)"/>
  <polygon points="1485.0,-142.5 1540.0,-95.0 1485.0,-47.5" fill="rgb(3,69,42)"/>
  <polygon points="1485.0,-142.5 1485.0,-47.5 1430.0,-95.0" fill="rgb(236,99,36)"/>
  <polygon points="1595.0,-142.5 1650.0,-95.0 1595.0,-47.5" fill="rgb(3,69,42)"/>
  <polygon points="1595.0,-142.5 1595.0,-47.5 1540.0,-95.0" fill="rgb(180,105,50)"/>
  <polygon points="1705.0,-142.5 1760.0,-95.0 1705.0,-47.5" fill="rgb(26,128,80)"/>
  <polygon points="1705.0,-142.5 1705.0,-47.5 1650.0,-95.0" fill="rgb(3,56,33)"/>
  <polygon points="1815.0,-142.5 1870.0,-95.0 1815.0,-47.5" fill="rgb(26,128,80)"/>
  <polygon points="1815.0,-142.5 1815.0,-47.5 1760.0,-95.0" fill="rgb(26,128,80)"/>
  <polygon points="1925.0,-142.5 1980.0,-95.0 1925.0,-47.5" fill="rgb(170,65,18)"/>
  <polygon points="1925.0,-142.5 1925.0,-47.5 1870.0,-95.0" fill="rgb(236,99,36)"/>
  <polygon points="2035.0,-142.5 2090.0,-95.0 2035.0,-47.5" fill="rgb(236,99,36)"/>
  <polygon points="2035.0,-142.5 2035.0,-47.5 1980.0,-95.0" fill="rgb(180,105,50)"/>
  <polygon points="-110.0,-47.5 -55.0,0.0 -110.0,47.5" fill="rgb(3,56,33)"/>
  <polygon points="-110.0,-47.5 -110.0,47.5 -165.0,0.0" fill="rgb(9,97,53)"/>
  <polygon points="0.0,-47.5 55.0,0.0 0.0,47.5" fill="rgb(3,69,42)"/>
  <polygon points="0.0,-47.5 0.0,47.5 -55.0,0.0" fill="rgb(3,56,33)"/>
  <polygon points="110.0,-47.5 165.0,0.0 110.0,47.5" fill="rgb(3,69,42)"/>
  <polygon points="110.0,-47.5 110.0,47.5 55.0,0.0" fill="rgb(26,128,80)"/>
  <polygon points="220.0,-47.5 275.0,0.0 220.0,47.5" fill="rgb(26,128,80)"/>
  <polygon points="220.0,-47.5 220.0,47.5 165.0,0.0" fill="rgb(217,138,70)"/>
  <polygon points="330.0,-47.5 385.0,0.0 330.0,47.5" fill="rgb(170,65,18)"/>
  <polygon points="330.0,-47.5 330.0,47.5 275.0,0.0" fill="rgb(9,97,53)"/>
  <polygon points="440.0,-47.5 495.0,0.0 440.0,47.5" fill="rgb(236,99,36)"/>
  <polygon points="440.0,-47.5 440.0,47.5 385.0,0.0" fill="rgb(3,69,42)"/>
  <polygon points="550.0,-47.5 605.0,0.0 550.0,47.5" fill="rgb(42,46,55)"/>
  <polygon points="550.0,-47.5 550.0,47.5 495.0,0.0" fill="rgb(170,65,18)"/>
  <polygon points="660.0,-47.5 715.0,0.0 660.0,47.5" fill="rgb(217,138,70)"/>
  <polygon points="660.0,-47.5 660.0,47.5 605.0,0.0" fill="rgb(42,46,55)"/>
  <polygon points="770.0,-47.5 825.0,0.0 770.0,47.5" fill="rgb(75,166,132)"/>
  <polygon points="770.0,-47.5 770.0,47.5 715.0,0.0" fill="rgb(9,97,53)"/>
  <polygon points="880.0,-47.5 935.0,0.0 880.0,47.5" fill="rgb(75,166,132)"/>
  <polygon points="880.0,-47.5 880.0,47.5 825.0,0.0" fill="rgb(3,56,33)"/>
  <polygon points="990.0,-47.5 1045.0,0.0 990.0,47.5" fill="rgb(9,97,53)"/>
  <polygon points="990.0,-47.5 990.0,47.5 935.0,0.0" fill="rgb(170,65,18)"/>
  <polygon points="1100.0,-47.5 1155.0,0.0 1100.0,47.5" fill="rgb(140,180,154)"/>
  <polygon points="1100.0,-47.5 1100.0,47.5 1045.0,0.0" fill="rgb(42,46,55)"/>
  <polygon points="1210.0,-47.5 1265.0,0.0 1210.0,47.5" fill="rgb(3,56,33)"/>
  <polygon points="1210.0,-47.5 1210.0,47.5 1155.0,0.0" fill="rgb(9,97,53)"/>
  <polygon points="1320.0,-47.5 1375.0,0.0 1320.0,47.5" fill="rgb(3,69,42)"/>
  <polygon points="1320.0,-47.5 1320.0,47.5 1265.0,0.0" fill="rgb(3,56,33)"/>
  <polygon points="1430.0,-47.5 1485.0,0.0 1430.0,47.5" fill="rgb(3,69,42)"/>
  <polygon points="1430.0,-47.5 1430.0,47.5 1375.0,0.0" fill="rgb(26,128,80)"/>
  <polygon points="1540.0,-47.5 1595.0,0.0 1540.0,47.5" fill="rgb(26,128,80)"/>
  <polygon points="1540.0,-47.5 1540.0,47.5 1485.0,0.0" fill="rgb(42,46,55)"/>
  <polygon points="1650.0,-47.5 1705.0,0.0 1650.0,47.5" fill="rgb(26,128,80)"/>
  <polygon points="1650.0,-47.5 1650.0,47.5 1595.0,0.0" fill="rgb(180,105,50)"/>
  <polygon points="1760.0,-47.5 1815.0,0.0 1760.0,47.5" fill="rgb(170,65,18)"/>
  <polygon points="1760.0,-47.5 1760.0,47.5 1705.0,0.0" fill="rgb(3,56,33)"/>
  <polygon points="1870.0,-47.5 1925.0,0.0 1870.0,47.5" fill="rgb(42,46,55)"/>
  <polygon points="1870.0,-47.5 1870.0,47.5 1815.0,0.0" fill="rgb(170,65,18)"/>
  <polygon points="1980.0,-47.5 2035.0,0.0 1980.0,47.5" fill="rgb(217,138,70)"/>
  <polygon points="1980.0,-47.5 1980.0,47.5 1925.0,0.0" fill="rgb(217,138,70)"/>
  <polygon points="2090.0,-47.5 2145.0,0.0 2090.0,47.5" fill="rgb(217,138,70)"/>
  <polygon points="2090.0,-47.5 2090.0,47.5 2035.0,0.0" fill="rgb(180,105,50)"/>
  <polygon points="-55.0,47.5 0.0,95.0 -55.0,142.5" fill="rgb(9,97,53)"/>
  <polygon points="-55.0,47.5 -55.0,142.5 -110.0,95.0" fill="rgb(9,97,53)"/>
  <polygon points="55.0,47.5 110.0,95.0 55.0,142.5" fill="rgb(26,128,80)"/>
  <polygon points="55.0,47.5 55.0,142.5 0.0,95.0" fill="rgb(3,69,42)"/>
  <polygon points="165.0,47.5 220.0,95.0 165.0,142.5" fill="rgb(26,128,80)"/>
  <polygon points="165.0,47.5 165.0,142.5 110.0,95.0" fill="rgb(170,65,18)"/>
  <polygon points="275.0,47.5 330.0,95.0 275.0,142.5" fill="rgb(236,99,36)"/>
  <polygon points="275.0,47.5 275.0,142.5 220.0,95.0" fill="rgb(217,138,70)"/>
  <polygon points="385.0,47.5 440.0,95.0 385.0,142.5" fill="rgb(42,46,55)"/>
  <polygon points="385.0,47.5 385.0,142.5 330.0,95.0" fill="rgb(9,97,53)"/>
  <polygon points="495.0,47.5 550.0,95.0 495.0,142.5" fill="rgb(217,138,70)"/>
  <polygon points="495.0,47.5 495.0,142.5 440.0,95.0" fill="rgb(9,97,53)"/>
  <polygon points="605.0,47.5 660.0,95.0 605.0,142.5" fill="rgb(217,138,70)"/>
  <polygon points="605.0,47.5 605.0,142.5 550.0,95.0" fill="rgb(236,99,36)"/>
  <polygon points="715.0,47.5 770.0,95.0 715.0,142.5" fill="rgb(180,105,50)"/>
  <polygon points="715.0,47.5 715.0,142.5 660.0,95.0" fill="rgb(217,138,70)"/>
  <polygon points="825.0,47.5 880.0,95.0 825.0,142.5" fill="rgb(9,97,53)"/>
  <polygon points="825.0,47.5 825.0,142.5 770.0,95.0" fill="rgb(9,97,53)"/>
  <polygon points="935.0,47.5 990.0,95.0 935.0,142.5" fill="rgb(9,97,53)"/>
  <polygon points="935.0,47.5 935.0,142.5 880.0,95.0" fill="rgb(3,69,42)"/>
  <polygon points="1045.0,47.5 1100.0,95.0 1045.0,142.5" fill="rgb(140,180,154)"/>
  <polygon points="1045.0,47.5 1045.0,142.5 990.0,95.0" fill="rgb(236,99,36)"/>
  <polygon points="1155.0,47.5 1210.0,95.0 1155.0,142.5" fill="rgb(3,56,33)"/>
  <polygon points="1155.0,47.5 1155.0,142.5 1100.0,95.0" fill="rgb(75,166,132)"/>
  <polygon points="1265.0,47.5 1320.0,95.0 1265.0,142.5" fill="rgb(9,97,53)"/>
  <polygon points="1265.0,47.5 1265.0,142.5 1210.0,95.0" fill="rgb(140,180,154)"/>
  <polygon points="1375.0,47.5 1430.0,95.0 1375.0,142.5" fill="rgb(9,97,53)"/>
  <polygon points="1375.0,47.5 1375.0,142.5 1320.0,95.0" fill="rgb(3,69,42)"/>
  <polygon points="1485.0,47.5 1540.0,95.0 1485.0,142.5" fill="rgb(26,128,80)"/>
  <polygon points="1485.0,47.5 1485.0,142.5 1430.0,95.0" fill="rgb(236,99,36)"/>
  <polygon points="1595.0,47.5 1650.0,95.0 1595.0,142.5" fill="rgb(236,99,36)"/>
  <polygon points="1595.0,47.5 1595.0,142.5 1540.0,95.0" fill="rgb(217,138,70)"/>
  <polygon points="1705.0,47.5 1760.0,95.0 1705.0,142.5" fill="rgb(42,46,55)"/>
  <polygon points="1705.0,47.5 1705.0,142.5 1650.0,95.0" fill="rgb(9,97,53)"/>
  <polygon points="1815.0,47.5 1870.0,95.0 1815.0,142.5" fill="rgb(42,46,55)"/>
  <polygon points="1815.0,47.5 1815.0,142.5 1760.0,95.0" fill="rgb(3,69,42)"/>
  <polygon points="1925.0,47.5 1980.0,95.0 1925.0,142.5" fill="rgb(217,138,70)"/>
  <polygon points="1925.0,47.5 1925.0,142.5 1870.0,95.0" fill="rgb(236,99,36)"/>
  <polygon points="2035.0,47.5 2090.0,95.0 2035.0,142.5" fill="rgb(75,166,132)"/>
  <polygon points="2035.0,47.5 2035.0,142.5 1980.0,95.0" fill="rgb(75,166,132)"/>
  <polygon points="2145.0,47.5 2200.0,95.0 2145.0,142.5" fill="rgb(9,97,53)"/>
  <polygon points="2145.0,47.5 2145.0,142.5 2090.0,95.0" fill="rgb(9,97,53)"/>
  <polygon points="0.0,142.5 55.0,190.0 0.0,237.5" fill="rgb(170,65,18)"/>
  <polygon points="0.0,142.5 0.0,237.5 -55.0,190.0" fill="rgb(140,180,154)"/>
  <polygon points="110.0,142.5 165.0,190.0 110.0,237.5" fill="rgb(170,65,18)"/>
  <polygon points="110.0,142.5 110.0,237.5 55.0,190.0" fill="rgb(26,128,80)"/>
  <polygon points="220.0,142.5 275.0,190.0 220.0,237.5" fill="rgb(236,99,36)"/>
  <polygon points="220.0,142.5 220.0,237.5 165.0,190.0" fill="rgb(236,99,36)"/>
  <polygon points="330.0,142.5 385.0,190.0 330.0,237.5" fill="rgb(42,46,55)"/>
  <polygon points="330.0,142.5 330.0,237.5 275.0,190.0" fill="rgb(180,105,50)"/>
  <polygon points="440.0,142.5 495.0,190.0 440.0,237.5" fill="rgb(75,166,132)"/>
  <polygon points="440.0,142.5 440.0,237.5 385.0,190.0" fill="rgb(3,56,33)"/>
  <polygon points="550.0,142.5 605.0,190.0 550.0,237.5" fill="rgb(75,166,132)"/>
  <polygon points="550.0,142.5 550.0,237.5 495.0,190.0" fill="rgb(26,128,80)"/>
  <polygon points="660.0,142.5 715.0,190.0 660.0,237.5" fill="rgb(9,97,53)"/>
  <polygon points="660.0,142.5 660.0,237.5 605.0,190.0" fill="rgb(42,46,55)"/>
  <polygon points="770.0,142.5 825.0,190.0 770.0,237.5" fill="rgb(9,97,53)"/>
  <polygon points="770.0,142.5 770.0,237.5 715.0,190.0" fill="rgb(75,166,132)"/>
  <polygon points="880.0,142.5 935.0,190.0 880.0,237.5" fill="rgb(3,56,33)"/>
  <polygon points="880.0,142.5 880.0,237.5 825.0,190.0" fill="rgb(140,180,154)"/>
  <polygon points="990.0,142.5 1045.0,190.0 990.0,237.5" fill="rgb(3,56,33)"/>
  <polygon points="990.0,142.5 990.0,237.5 935.0,190.0" fill="rgb(9,97,53)"/>
  <polygon points="1100.0,142.5 1155.0,190.0 1100.0,237.5" fill="rgb(3,69,42)"/>
  <polygon points="1100.0,142.5 1100.0,237.5 1045.0,190.0" fill="rgb(42,46,55)"/>
  <polygon points="1210.0,142.5 1265.0,190.0 1210.0,237.5" fill="rgb(9,97,53)"/>
  <polygon points="1210.0,142.5 1210.0,237.5 1155.0,190.0" fill="rgb(180,105,50)"/>
  <polygon points="1320.0,142.5 1375.0,190.0 1320.0,237.5" fill="rgb(26,128,80)"/>
  <polygon points="1320.0,142.5 1320.0,237.5 1265.0,190.0" fill="rgb(3,56,33)"/>
  <polygon points="1430.0,142.5 1485.0,190.0 1430.0,237.5" fill="rgb(170,65,18)"/>
  <polygon points="1430.0,142.5 1430.0,237.5 1375.0,190.0" fill="rgb(26,128,80)"/>
  <polygon points="1540.0,142.5 1595.0,190.0 1540.0,237.5" fill="rgb(42,46,55)"/>
  <polygon points="1540.0,142.5 1540.0,237.5 1485.0,190.0" fill="rgb(42,46,55)"/>
  <polygon points="1650.0,142.5 1705.0,190.0 1650.0,237.5" fill="rgb(42,46,55)"/>
  <polygon points="1650.0,142.5 1650.0,237.5 1595.0,190.0" fill="rgb(75,166,132)"/>
  <polygon points="1760.0,142.5 1815.0,190.0 1760.0,237.5" fill="rgb(217,138,70)"/>
  <polygon points="1760.0,142.5 1760.0,237.5 1705.0,190.0" fill="rgb(3,56,33)"/>
  <polygon points="1870.0,142.5 1925.0,190.0 1870.0,237.5" fill="rgb(180,105,50)"/>
  <polygon points="1870.0,142.5 1870.0,237.5 1815.0,190.0" fill="rgb(26,128,80)"/>
  <polygon points="1980.0,142.5 2035.0,190.0 1980.0,237.5" fill="rgb(9,97,53)"/>
  <polygon points="1980.0,142.5 1980.0,237.5 1925.0,190.0" fill="rgb(42,46,55)"/>
  <polygon points="2090.0,142.5 2145.0,190.0 2090.0,237.5" fill="rgb(140,180,154)"/>
  <polygon points="2090.0,142.5 2090.0,237.5 2035.0,190.0" fill="rgb(180,105,50)"/>
  <polygon points="2200.0,142.5 2255.0,190.0 2200.0,237.5" fill="rgb(3,56,33)"/>
  <polygon points="2200.0,142.5 2200.0,237.5 2145.0,190.0" fill="rgb(3,56,33)"/>
  <polygon points="55.0,237.5 110.0,285.0 55.0,332.5" fill="rgb(236,99,36)"/>
  <polygon points="55.0,237.5 55.0,332.5 0.0,285.0" fill="rgb(3,69,42)"/>
  <polygon points="165.0,237.5 220.0,285.0 165.0,332.5" fill="rgb(42,46,55)"/>
  <polygon points="165.0,237.5 165.0,332.5 110.0,285.0" fill="rgb(170,65,18)"/>
  <polygon points="275.0,237.5 330.0,285.0 275.0,332.5" fill="rgb(217,138,70)"/>
  <polygon points="275.0,237.5 275.0,332.5 220.0,285.0" fill="rgb(42,46,55)"/>
  <polygon points="385.0,237.5 440.0,285.0 385.0,332.5" fill="rgb(180,105,50)"/>
  <polygon points="385.0,237.5 385.0,332.5 330.0,285.0" fill="rgb(180,105,50)"/>
  <polygon points="495.0,237.5 550.0,285.0 495.0,332.5" fill="rgb(180,105,50)"/>
  <polygon points="495.0,237.5 495.0,332.5 440.0,285.0" fill="rgb(3,56,33)"/>
  <polygon points="605.0,237.5 660.0,285.0 605.0,332.5" fill="rgb(9,97,53)"/>
  <polygon points="605.0,237.5 605.0,332.5 550.0,285.0" fill="rgb(26,128,80)"/>
  <polygon points="715.0,237.5 770.0,285.0 715.0,332.5" fill="rgb(3,56,33)"/>
  <polygon points="715.0,237.5 715.0,332.5 660.0,285.0" fill="rgb(42,46,55)"/>
  <polygon points="825.0,237.5 880.0,285.0 825.0,332.5" fill="rgb(3,56,33)"/>
  <polygon points="825.0,237.5 825.0,332.5 770.0,285.0" fill="rgb(9,97,53)"/>
  <polygon points="935.0,237.5 990.0,285.0 935.0,332.5" fill="rgb(9,97,53)"/>
  <polygon points="935.0,237.5 935.0,332.5 880.0,285.0" fill="rgb(3,69,42)"/>
  <polygon points="1045.0,237.5 1100.0,285.0 1045.0,332.5" fill="rgb(9,97,53)"/>
  <polygon points="1045.0,237.5 1045.0,332.5 990.0,285.0" fill="rgb(170,65,18)"/>
  <polygon points="1155.0,237.5 1210.0,285.0 1155.0,332.5" fill="rgb(170,65,18)"/>
  <polygon points="1155.0,237.5 1155.0,332.5 1100.0,285.0" fill="rgb(217,138,70)"/>
  <polygon points="1265.0,237.5 1320.0,285.0 1265.0,332.5" fill="rgb(236,99,36)"/>
  <polygon points="1265.0,237.5 1265.0,332.5 1210.0,285.0" fill="rgb(9,97,53)"/>
  <polygon points="1375.0,237.5 1430.0,285.0 1375.0,332.5" fill="rgb(236,99,36)"/>
  <polygon points="1375.0,237.5 1375.0,332.5 1320.0,285.0" fill="rgb(3,56,33)"/>
  <polygon points="1485.0,237.5 1540.0,285.0 1485.0,332.5" fill="rgb(217,138,70)"/>
  <polygon points="1485.0,237.5 1485.0,332.5 1430.0,285.0" fill="rgb(170,65,18)"/>
  <polygon points="1595.0,237.5 1650.0,285.0 1595.0,332.5" fill="rgb(217,138,70)"/>
  <polygon points="1595.0,237.5 1595.0,332.5 1540.0,285.0" fill="rgb(217,138,70)"/>
  <polygon points="1705.0,237.5 1760.0,285.0 1705.0,332.5" fill="rgb(75,166,132)"/>
  <polygon points="1705.0,237.5 1705.0,332.5 1650.0,285.0" fill="rgb(9,97,53)"/>
  <polygon points="1815.0,237.5 1870.0,285.0 1815.0,332.5" fill="rgb(180,105,50)"/>
  <polygon points="1815.0,237.5 1815.0,332.5 1760.0,285.0" fill="rgb(3,56,33)"/>
  <polygon points="1925.0,237.5 1980.0,285.0 1925.0,332.5" fill="rgb(9,97,53)"/>
  <polygon points="1925.0,237.5 1925.0,332.5 1870.0,285.0" fill="rgb(170,65,18)"/>
  <polygon points="2035.0,237.5 2090.0,285.0 2035.0,332.5" fill="rgb(140,180,154)"/>
  <polygon points="2035.0,237.5 2035.0,332.5 1980.0,285.0" fill="rgb(42,46,55)"/>
  <polygon points="2145.0,237.5 2200.0,285.0 2145.0,332.5" fill="rgb(3,56,33)"/>
  <polygon points="2145.0,237.5 2145.0,332.5 2090.0,285.0" fill="rgb(180,105,50)"/>
  <polygon points="2255.0,237.5 2310.0,285.0 2255.0,332.5" fill="rgb(3,69,42)"/>
  <polygon points="2255.0,237.5 2255.0,332.5 2200.0,285.0" fill="rgb(3,56,33)"/>
  <polygon points="110.0,332.5 165.0,380.0 110.0,427.5" fill="rgb(217,138,70)"/>
  <polygon points="110.0,332.5 110.0,427.5 55.0,380.0" fill="rgb(3,69,42)"/>
  <polygon points="220.0,332.5 275.0,380.0 220.0,427.5" fill="rgb(75,166,132)"/>
  <polygon points="220.0,332.5 220.0,427.5 165.0,380.0" fill="rgb(236,99,36)"/>
  <polygon points="330.0,332.5 385.0,380.0 330.0,427.5" fill="rgb(180,105,50)"/>
  <polygon points="330.0,332.5 330.0,427.5 275.0,380.0" fill="rgb(217,138,70)"/>
  <polygon points="440.0,332.5 495.0,380.0 440.0,427.5" fill="rgb(9,97,53)"/>
  <polygon points="440.0,332.5 440.0,427.5 385.0,380.0" fill="rgb(9,97,53)"/>
  <polygon points="550.0,332.5 605.0,380.0 550.0,427.5" fill="rgb(3,56,33)"/>
  <polygon points="550.0,332.5 550.0,427.5 495.0,380.0" fill="rgb(9,97,53)"/>
  <polygon points="660.0,332.5 715.0,380.0 660.0,427.5" fill="rgb(3,56,33)"/>
  <polygon points="660.0,332.5 660.0,427.5 605.0,380.0" fill="rgb(170,65,18)"/>
  <polygon points="770.0,332.5 825.0,380.0 770.0,427.5" fill="rgb(9,97,53)"/>
  <polygon points="770.0,332.5 770.0,427.5 715.0,380.0" fill="rgb(75,166,132)"/>
  <polygon points="880.0,332.5 935.0,380.0 880.0,427.5" fill="rgb(26,128,80)"/>
  <polygon points="880.0,332.5 880.0,427.5 825.0,380.0" fill="rgb(9,97,53)"/>
  <polygon points="990.0,332.5 1045.0,380.0 990.0,427.5" fill="rgb(26,128,80)"/>
  <polygon points="990.0,332.5 990.0,427.5 935.0,380.0" fill="rgb(9,97,53)"/>
  <polygon points="1100.0,332.5 1155.0,380.0 1100.0,427.5" fill="rgb(236,99,36)"/>
  <polygon points="1100.0,332.5 1100.0,427.5 1045.0,380.0" fill="rgb(170,65,18)"/>
  <polygon points="1210.0,332.5 1265.0,380.0 1210.0,427.5" fill="rgb(236,99,36)"/>
  <polygon points="1210.0,332.5 1210.0,427.5 1155.0,380.0" fill="rgb(75,166,132)"/>
  <polygon points="1320.0,332.5 1375.0,380.0 1320.0,427.5" fill="rgb(217,138,70)"/>
  <polygon points="1320.0,332.5 1320.0,427.5 1265.0,380.0" fill="rgb(140,180,154)"/>
  <polygon points="1430.0,332.5 1485.0,380.0 1430.0,427.5" fill="rgb(217,138,70)"/>
  <polygon points="1430.0,332.5 1430.0,427.5 1375.0,380.0" fill="rgb(3,69,42)"/>
  <polygon points="1540.0,332.5 1595.0,380.0 1540.0,427.5" fill="rgb(180,105,50)"/>
  <polygon points="1540.0,332.5 1540.0,427.5 1485.0,380.0" fill="rgb(170,65,18)"/>
  <polygon points="1650.0,332.5 1705.0,380.0 1650.0,427.5" fill="rgb(9,97,53)"/>
  <polygon points="1650.0,332.5 1650.0,427.5 1595.0,380.0" fill="rgb(217,138,70)"/>
  <polygon points="1760.0,332.5 1815.0,380.0 1760.0,427.5" fill="rgb(9,97,53)"/>
  <polygon points="1760.0,332.5 1760.0,427.5 1705.0,380.0" fill="rgb(9,97,53)"/>
  <polygon points="1870.0,332.5 1925.0,380.0 1870.0,427.5" fill="rgb(3,56,33)"/>
  <polygon points="1870.0,332.5 1870.0,427.5 1815.0,380.0" fill="rgb(9,97,53)"/>
  <polygon points="1980.0,332.5 2035.0,380.0 1980.0,427.5" fill="rgb(3,56,33)"/>
  <polygon points="1980.0,332.5 1980.0,427.5 1925.0,380.0" fill="rgb(236,99,36)"/>
  <polygon points="2090.0,332.5 2145.0,380.0 2090.0,427.5" fill="rgb(3,69,42)"/>
  <polygon points="2090.0,332.5 2090.0,427.5 2035.0,380.0" fill="rgb(75,166,132)"/>
  <polygon points="2200.0,332.5 2255.0,380.0 2200.0,427.5" fill="rgb(9,97,53)"/>
  <polygon points="2200.0,332.5 2200.0,427.5 2145.0,380.0" fill="rgb(9,97,53)"/>
  <polygon points="2310.0,332.5 2365.0,380.0 2310.0,427.5" fill="rgb(26,128,80)"/>
  <polygon points="2310.0,332.5 2310.0,427.5 2255.0,380.0" fill="rgb(3,69,42)"/>
  <polygon points="165.0,427.5 220.0,475.0 165.0,522.5" fill="rgb(9,97,53)"/>
  <polygon points="165.0,427.5 165.0,522.5 110.0,475.0" fill="rgb(26,128,80)"/>
  <polygon points="275.0,427.5 330.0,475.0 275.0,522.5" fill="rgb(9,97,53)"/>
  <polygon points="275.0,427.5 275.0,522.5 220.0,475.0" fill="rgb(236,99,36)"/>
  <polygon points="385.0,427.5 440.0,475.0 385.0,522.5" fill="rgb(3,56,33)"/>
  <polygon points="385.0,427.5 385.0,522.5 330.0,475.0" fill="rgb(180,105,50)"/>
  <polygon points="495.0,427.5 550.0,475.0 495.0,522.5" fill="rgb(3,56,33)"/>
  <polygon points="495.0,427.5 495.0,522.5 440.0,475.0" fill="rgb(140,180,154)"/>
  <polygon points="605.0,427.5 660.0,475.0 605.0,522.5" fill="rgb(3,69,42)"/>
  <polygon points="605.0,427.5 605.0,522.5 550.0,475.0" fill="rgb(9,97,53)"/>
  <polygon points="715.0,427.5 770.0,475.0 715.0,522.5" fill="rgb(26,128,80)"/>
  <polygon points="715.0,427.5 715.0,522.5 660.0,475.0" fill="rgb(42,46,55)"/>
  <polygon points="825.0,427.5 880.0,475.0 825.0,522.5" fill="rgb(170,65,18)"/>
  <polygon points="825.0,427.5 825.0,522.5 770.0,475.0" fill="rgb(180,105,50)"/>
  <polygon points="935.0,427.5 990.0,475.0 935.0,522.5" fill="rgb(236,99,36)"/>
  <polygon points="935.0,427.5 935.0,522.5 880.0,475.0" fill="rgb(140,180,154)"/>
  <polygon points="1045.0,427.5 1100.0,475.0 1045.0,522.5" fill="rgb(236,99,36)"/>
  <polygon points="1045.0,427.5 1045.0,522.5 990.0,475.0" fill="rgb(9,97,53)"/>
  <polygon points="1155.0,427.5 1210.0,475.0 1155.0,522.5" fill="rgb(217,138,70)"/>
  <polygon points="1155.0,427.5 1155.0,522.5 1100.0,475.0" fill="rgb(42,46,55)"/>
  <polygon points="1265.0,427.5 1320.0,475.0 1265.0,522.5" fill="rgb(217,138,70)"/>
  <polygon points="1265.0,427.5 1265.0,522.5 1210.0,475.0" fill="rgb(75,166,132)"/>
  <polygon points="1375.0,427.5 1430.0,475.0 1375.0,522.5" fill="rgb(75,166,132)"/>
  <polygon points="1375.0,427.5 1375.0,522.5 1320.0,475.0" fill="rgb(3,56,33)"/>
  <polygon points="1485.0,427.5 1540.0,475.0 1485.0,522.5" fill="rgb(180,105,50)"/>
  <polygon points="1485.0,427.5 1485.0,522.5 1430.0,475.0" fill="rgb(9,97,53)"/>
  <polygon points="1595.0,427.5 1650.0,475.0 1595.0,522.5" fill="rgb(140,180,154)"/>
  <polygon points="1595.0,427.5 1595.0,522.5 1540.0,475.0" fill="rgb(236,99,36)"/>
  <polygon points="1705.0,427.5 1760.0,475.0 1705.0,522.5" fill="rgb(3,56,33)"/>
  <polygon points="1705.0,427.5 1705.0,522.5 1650.0,475.0" fill="rgb(180,105,50)"/>
  <polygon points="1815.0,427.5 1870.0,475.0 1815.0,522.5" fill="rgb(3,69,42)"/>
  <polygon points="1815.0,427.5 1815.0,522.5 1760.0,475.0" fill="rgb(3,56,33)"/>
  <polygon points="1925.0,427.5 1980.0,475.0 1925.0,522.5" fill="rgb(3,69,42)"/>
  <polygon points="1925.0,427.5 1925.0,522.5 1870.0,475.0" fill="rgb(26,128,80)"/>
  <polygon points="2035.0,427.5 2090.0,475.0 2035.0,522.5" fill="rgb(26,128,80)"/>
  <polygon points="2035.0,427.5 2035.0,522.5 1980.0,475.0" fill="rgb(42,46,55)"/>
  <polygon points="2145.0,427.5 2200.0,475.0 2145.0,522.5" fill="rgb(170,65,18)"/>
  <polygon points="2145.0,427.5 2145.0,522.5 2090.0,475.0" fill="rgb(75,166,132)"/>
  <polygon points="2255.0,427.5 2310.0,475.0 2255.0,522.5" fill="rgb(236,99,36)"/>
  <polygon points="2255.0,427.5 2255.0,522.5 2200.0,475.0" fill="rgb(140,180,154)"/>
  <polygon points="2365.0,427.5 2420.0,475.0 2365.0,522.5" fill="rgb(42,46,55)"/>
  <polygon points="2365.0,427.5 2365.0,522.5 2310.0,475.0" fill="rgb(9,97,53)"/>
  <polygon points="220.0,522.5 275.0,570.0 220.0,617.5" fill="rgb(140,180,154)"/>
  <polygon points="220.0,522.5 220.0,617.5 165.0,570.0" fill="rgb(26,128,80)"/>
  <polygon points="330.0,522.5 385.0,570.0 330.0,617.5" fill="rgb(3,56,33)"/>
  <polygon points="330.0,522.5 330.0,617.5 275.0,570.0" fill="rgb(217,138,70)"/>
  <polygon points="440.0,522.5 495.0,570.0 440.0,617.5" fill="rgb(3,69,42)"/>
  <polygon points="440.0,522.5 440.0,617.5 385.0,570.0" fill="rgb(180,105,50)"/>
  <polygon points="550.0,522.5 605.0,570.0 550.0,617.5" fill="rgb(9,97,53)"/>
  <polygon points="550.0,522.5 550.0,617.5 495.0,570.0" fill="rgb(3,69,42)"/>
  <polygon points="660.0,522.5 715.0,570.0 660.0,617.5" fill="rgb(26,128,80)"/>
  <polygon points="660.0,522.5 660.0,617.5 605.0,570.0" fill="rgb(170,65,18)"/>
  <polygon points="770.0,522.5 825.0,570.0 770.0,617.5" fill="rgb(236,99,36)"/>
  <polygon points="770.0,522.5 770.0,617.5 715.0,570.0" fill="rgb(42,46,55)"/>
  <polygon points="880.0,522.5 935.0,570.0 880.0,617.5" fill="rgb(42,46,55)"/>
  <polygon points="880.0,522.5 880.0,617.5 825.0,570.0" fill="rgb(180,105,50)"/>
  <polygon points="990.0,522.5 1045.0,570.0 990.0,617.5" fill="rgb(217,138,70)"/>
  <polygon points="990.0,522.5 990.0,617.5 935.0,570.0" fill="rgb(3,56,33)"/>
  <polygon points="1100.0,522.5 1155.0,570.0 1100.0,617.5" fill="rgb(75,166,132)"/>
  <polygon points="1100.0,522.5 1100.0,617.5 1045.0,570.0" fill="rgb(26,128,80)"/>
  <polygon points="1210.0,522.5 1265.0,570.0 1210.0,617.5" fill="rgb(75,166,132)"/>
  <polygon points="1210.0,522.5 1210.0,617.5 1155.0,570.0" fill="rgb(217,138,70)"/>
  <polygon points="1320.0,522.5 1375.0,570.0 1320.0,617.5" fill="rgb(180,105,50)"/>
  <polygon points="1320.0,522.5 1320.0,617.5 1265.0,570.0" fill="rgb(180,105,50)"/>
  <polygon points="1430.0,522.5 1485.0,570.0 1430.0,617.5" fill="rgb(140,180,154)"/>
  <polygon points="1430.0,522.5 1430.0,617.5 1375.0,570.0" fill="rgb(3,69,42)"/>
  <polygon points="1540.0,522.5 1595.0,570.0 1540.0,617.5" fill="rgb(3,56,33)"/>
  <polygon points="1540.0,522.5 1540.0,617.5 1485.0,570.0" fill="rgb(170,65,18)"/>
  <polygon points="1650.0,522.5 1705.0,570.0 1650.0,617.5" fill="rgb(3,56,33)"/>
  <polygon points="1650.0,522.5 1650.0,617.5 1595.0,570.0" fill="rgb(217,138,70)"/>
  <polygon points="1760.0,522.5 1815.0,570.0 1760.0,617.5" fill="rgb(3,69,42)"/>
  <polygon points="1760.0,522.5 1760.0,617.5 1705.0,570.0" fill="rgb(180,105,50)"/>
  <polygon points="1870.0,522.5 1925.0,570.0 1870.0,617.5" fill="rgb(26,128,80)"/>
  <polygon points="1870.0,522.5 1870.0,617.5 1815.0,570.0" fill="rgb(3,56,33)"/>
  <polygon points="1980.0,522.5 2035.0,570.0 1980.0,617.5" fill="rgb(170,65,18)"/>
  <polygon points="1980.0,522.5 1980.0,617.5 1925.0,570.0" fill="rgb(26,128,80)"/>
  <polygon points="2090.0,522.5 2145.0,570.0 2090.0,617.5" fill="rgb(170,65,18)"/>
  <polygon points="2090.0,522.5 2090.0,617.5 2035.0,570.0" fill="rgb(42,46,55)"/>
  <polygon points="2200.0,522.5 2255.0,570.0 2200.0,617.5" fill="rgb(236,99,36)"/>
  <polygon points="2200.0,522.5 2200.0,617.5 2145.0,570.0" fill="rgb(180,105,50)"/>
  <polygon points="2310.0,522.5 2365.0,570.0 2310.0,617.5" fill="rgb(217,138,70)"/>
  <polygon points="2310.0,522.5 2310.0,617.5 2255.0,570.0" fill="rgb(3,56,33)"/>
  <polygon points="2420.0,522.5 2475.0,570.0 2420.0,617.5" fill="rgb(75,166,132)"/>
  <polygon points="2420.0,522.5 2420.0,617.5 2365.0,570.0" fill="rgb(170,65,18)"/>
  <polygon points="275.0,617.5 330.0,665.0 275.0,712.5" fill="rgb(3,69,42)"/>
  <polygon points="275.0,617.5 275.0,712.5 220.0,665.0" fill="rgb(170,65,18)"/>
  <polygon points="385.0,617.5 440.0,665.0 385.0,712.5" fill="rgb(26,128,80)"/>
  <polygon points="385.0,617.5 385.0,712.5 330.0,665.0" fill="rgb(217,138,70)"/>
  <polygon points="495.0,617.5 550.0,665.0 495.0,712.5" fill="rgb(170,65,18)"/>
  <polygon points="495.0,617.5 495.0,712.5 440.0,665.0" fill="rgb(9,97,53)"/>
  <polygon points="605.0,617.5 660.0,665.0 605.0,712.5" fill="rgb(236,99,36)"/>
  <polygon points="605.0,617.5 605.0,712.5 550.0,665.0" fill="rgb(9,97,53)"/>
  <polygon points="715.0,617.5 770.0,665.0 715.0,712.5" fill="rgb(42,46,55)"/>
  <polygon points="715.0,617.5 715.0,712.5 660.0,665.0" fill="rgb(236,99,36)"/>
  <polygon points="825.0,617.5 880.0,665.0 825.0,712.5" fill="rgb(217,138,70)"/>
  <polygon points="825.0,617.5 825.0,712.5 770.0,665.0" fill="rgb(217,138,70)"/>
  <polygon points="935.0,617.5 990.0,665.0 935.0,712.5" fill="rgb(217,138,70)"/>
  <polygon points="935.0,617.5 935.0,712.5 880.0,665.0" fill="rgb(140,180,154)"/>
  <polygon points="1045.0,617.5 1100.0,665.0 1045.0,712.5" fill="rgb(75,166,132)"/>
  <polygon points="1045.0,617.5 1045.0,712.5 990.0,665.0" fill="rgb(9,97,53)"/>
  <polygon points="1155.0,617.5 1210.0,665.0 1155.0,712.5" fill="rgb(9,97,53)"/>
  <polygon points="1155.0,617.5 1155.0,712.5 1100.0,665.0" fill="rgb(170,65,18)"/>
  <polygon points="1265.0,617.5 1320.0,665.0 1265.0,712.5" fill="rgb(140,180,154)"/>
  <polygon points="1265.0,617.5 1265.0,712.5 1210.0,665.0" fill="rgb(217,138,70)"/>
  <polygon points="1375.0,617.5 1430.0,665.0 1375.0,712.5" fill="rgb(3,56,33)"/>
  <polygon points="1375.0,617.5 1375.0,712.5 1320.0,665.0" fill="rgb(140,180,154)"/>
  <polygon points="1485.0,617.5 1540.0,665.0 1485.0,712.5" fill="rgb(3,56,33)"/>
  <polygon points="1485.0,617.5 1485.0,712.5 1430.0,665.0" fill="rgb(9,97,53)"/>
  <polygon points="1595.0,617.5 1650.0,665.0 1595.0,712.5" fill="rgb(9,97,53)"/>
  <polygon points="1595.0,617.5 1595.0,712.5 1540.0,665.0" fill="rgb(170,65,18)"/>
  <polygon points="1705.0,617.5 1760.0,665.0 1705.0,712.5" fill="rgb(9,97,53)"/>
  <polygon points="1705.0,617.5 1705.0,712.5 1650.0,665.0" fill="rgb(75,166,132)"/>
  <polygon points="1815.0,617.5 1870.0,665.0 1815.0,712.5" fill="rgb(170,65,18)"/>
  <polygon points="1815.0,617.5 1815.0,712.5 1760.0,665.0" fill="rgb(9,97,53)"/>
  <polygon points="1925.0,617.5 1980.0,665.0 1925.0,712.5" fill="rgb(170,65,18)"/>
  <polygon points="1925.0,617.5 1925.0,712.5 1870.0,665.0" fill="rgb(3,69,42)"/>
  <polygon points="2035.0,617.5 2090.0,665.0 2035.0,712.5" fill="rgb(42,46,55)"/>
  <polygon points="2035.0,617.5 2035.0,712.5 1980.0,665.0" fill="rgb(170,65,18)"/>
  <polygon points="2145.0,617.5 2200.0,665.0 2145.0,712.5" fill="rgb(217,138,70)"/>
  <polygon points="2145.0,617.5 2145.0,712.5 2090.0,665.0" fill="rgb(75,166,132)"/>
  <polygon points="2255.0,617.5 2310.0,665.0 2255.0,712.5" fill="rgb(75,166,132)"/>
  <polygon points="2255.0,617.5 2255.0,712.5 2200.0,665.0" fill="rgb(9,97,53)"/>
  <polygon points="2365.0,617.5 2420.0,665.0 2365.0,712.5" fill="rgb(75,166,132)"/>
  <polygon points="2365.0,617.5 2365.0,712.5 2310.0,665.0" fill="rgb(3,69,42)"/>
  <polygon points="2475.0,617.5 2530.0,665.0 2475.0,712.5" fill="rgb(9,97,53)"/>
  <polygon points="2475.0,617.5 2475.0,712.5 2420.0,665.0" fill="rgb(236,99,36)"/>
  <polygon points="330.0,712.5 385.0,760.0 330.0,807.5" fill="rgb(170,65,18)"/>
  <polygon points="330.0,712.5 330.0,807.5 275.0,760.0" fill="rgb(42,46,55)"/>
  <polygon points="440.0,712.5 495.0,760.0 440.0,807.5" fill="rgb(170,65,18)"/>
  <polygon points="440.0,712.5 440.0,807.5 385.0,760.0" fill="rgb(180,105,50)"/>
  <polygon points="550.0,712.5 605.0,760.0 550.0,807.5" fill="rgb(236,99,36)"/>
  <polygon points="550.0,712.5 550.0,807.5 495.0,760.0" fill="rgb(3,56,33)"/>
  <polygon points="660.0,712.5 715.0,760.0 660.0,807.5" fill="rgb(42,46,55)"/>
  <polygon points="660.0,712.5 660.0,807.5 605.0,760.0" fill="rgb(26,128,80)"/>
  <polygon points="770.0,712.5 825.0,760.0 770.0,807.5" fill="rgb(75,166,132)"/>
  <polygon points="770.0,712.5 770.0,807.5 715.0,760.0" fill="rgb(42,46,55)"/>
  <polygon points="880.0,712.5 935.0,760.0 880.0,807.5" fill="rgb(75,166,132)"/>
  <polygon points="880.0,712.5 880.0,807.5 825.0,760.0" fill="rgb(180,105,50)"/>
  <polygon points="990.0,712.5 1045.0,760.0 990.0,807.5" fill="rgb(180,105,50)"/>
  <polygon points="990.0,712.5 990.0,807.5 935.0,760.0" fill="rgb(3,56,33)"/>
  <polygon points="1100.0,712.5 1155.0,760.0 1100.0,807.5" fill="rgb(9,97,53)"/>
  <polygon points="1100.0,712.5 1100.0,807.5 1045.0,760.0" fill="rgb(26,128,80)"/>
  <polygon points="1210.0,712.5 1265.0,760.0 1210.0,807.5" fill="rgb(140,180,154)"/>
  <polygon points="1210.0,712.5 1210.0,807.5 1155.0,760.0" fill="rgb(42,46,55)"/>
  <polygon points="1320.0,712.5 1375.0,760.0 1320.0,807.5" fill="rgb(3,56,33)"/>
  <polygon points="1320.0,712.5 1320.0,807.5 1265.0,760.0" fill="rgb(180,105,50)"/>
  <polygon points="1430.0,712.5 1485.0,760.0 1430.0,807.5" fill="rgb(9,97,53)"/>
  <polygon points="1430.0,712.5 1430.0,807.5 1375.0,760.0" fill="rgb(140,180,154)"/>
  <polygon points="1540.0,712.5 1595.0,760.0 1540.0,807.5" fill="rgb(9,97,53)"/>
  <polygon points="1540.0,712.5 1540.0,807.5 1485.0,760.0" fill="rgb(26,128,80)"/>
  <polygon points="1650.0,712.5 1705.0,760.0 1650.0,807.5" fill="rgb(170,65,18)"/>
  <polygon points="1650.0,712.5 1650.0,807.5 1595.0,760.0" fill="rgb(42,46,55)"/>
  <polygon points="1760.0,712.5 1815.0,760.0 1760.0,807.5" fill="rgb(236,99,36)"/>
  <polygon points="1760.0,712.5 1760.0,807.5 1705.0,760.0" fill="rgb(180,105,50)"/>
  <polygon points="1870.0,712.5 1925.0,760.0 1870.0,807.5" fill="rgb(42,46,55)"/>
  <polygon points="1870.0,712.5 1870.0,807.5 1815.0,760.0" fill="rgb(140,180,154)"/>
  <polygon points="1980.0,712.5 2035.0,760.0 1980.0,807.5" fill="rgb(217,138,70)"/>
  <polygon points="1980.0,712.5 1980.0,807.5 1925.0,760.0" fill="rgb(9,97,53)"/>
  <polygon points="2090.0,712.5 2145.0,760.0 2090.0,807.5" fill="rgb(75,166,132)"/>
  <polygon points="2090.0,712.5 2090.0,807.5 2035.0,760.0" fill="rgb(236,99,36)"/>
  <polygon points="2200.0,712.5 2255.0,760.0 2200.0,807.5" fill="rgb(75,166,132)"/>
  <polygon points="2200.0,712.5 2200.0,807.5 2145.0,760.0" fill="rgb(75,166,132)"/>
  <polygon points="2310.0,712.5 2365.0,760.0 2310.0,807.5" fill="rgb(180,105,50)"/>
  <polygon points="2310.0,712.5 2310.0,807.5 2255.0,760.0" fill="rgb(3,56,33)"/>
  <polygon points="2420.0,712.5 2475.0,760.0 2420.0,807.5" fill="rgb(9,97,53)"/>
  <polygon points="2420.0,712.5 2420.0,807.5 2365.0,760.0" fill="rgb(26,128,80)"/>
  <polygon points="2530.0,712.5 2585.0,760.0 2530.0,807.5" fill="rgb(140,180,154)"/>
  <polygon points="2530.0,712.5 2530.0,807.5 2475.0,760.0" fill="rgb(42,46,55)"/>
  <polygon points="0.0,0.0 768.0,0.0 576.0,640.0 0.0,640.0" fill="rgb(250,247,241)"/>
</svg>
