<?xml version="1.0" encoding="UTF-8" standalone="no"?>
<svg xmlns="http://www.w3.org/2000/svg" viewBox="0 0 1920 640" width="1920" height="640">
  <title>v8-mosaic-spirale</title>
  <rect width="1920" height="640" fill="rgb(250,247,241)"/>
  <polygon points="1535.6,320.0 1497.6,340.9 1459.6,320.0 1497.6,299.1" fill="rgb(3,69,42)"/>
  <polygon points="1450.3,363.3 1464.3,322.1 1506.5,311.8 1492.6,353.0" fill="rgb(9,97,53)"/>
  <polygon points="1504.2,245.3 1521.8,285.2 1497.5,321.5 1479.9,281.5" fill="rgb(9,97,53)"/>
  <polygon points="1548.3,386.2 1508.3,368.6 1501.7,325.3 1541.7,342.9" fill="rgb(170,65,18)"/>
  <polygon points="1408.5,304.2 1450.1,290.1 1484.3,317.6 1442.7,331.8" fill="rgb(170,65,18)"/>
  <polygon points="1579.2,268.1 1558.0,306.7 1514.1,309.5 1535.3,270.9" fill="rgb(200,75,25)"/>
  <polygon points="1471.0,418.9 1460.5,376.0 1491.1,344.1 1501.6,387.0" fill="rgb(217,138,70)"/>
  <polygon points="1448.0,224.5 1484.8,249.1 1483.8,293.4 1447.0,268.8" fill="rgb(180,105,50)"/>
  <polygon points="1603.2,358.6 1559.3,365.3 1530.1,331.9 1574.0,325.1" fill="rgb(75,166,132)"/>
  <polygon points="1389.4,364.7 1417.3,329.9 1461.6,334.9 1433.7,369.6" fill="rgb(75,166,132)"/>
  <polygon points="1549.0,210.1 1551.9,254.7 1515.9,281.0 1513.0,236.4" fill="rgb(140,180,154)"/>
  <polygon points="1535.2,439.7 1502.8,408.7 1511.7,364.8 1544.0,395.8" fill="rgb(3,56,33)"/>
  <polygon points="1385.6,255.1 1430.5,256.1 1453.7,294.6 1408.8,293.6" fill="rgb(3,56,33)"/>
  <polygon points="1627.7,291.4 1593.8,321.1 1550.6,308.3 1584.5,278.7" fill="rgb(3,69,42)"/>
  <polygon points="1418.9,432.0 1423.8,387.1 1464.4,367.2 1459.5,412.1" fill="rgb(26,128,80)"/>
  <polygon points="1479.6,180.8 1506.3,217.3 1489.8,259.5 1463.0,222.9" fill="rgb(26,128,80)"/>
  <polygon points="1607.6,412.7 1563.0,403.8 1546.7,361.4 1591.2,370.3" fill="rgb(170,65,18)"/>
  <polygon points="1350.6,326.1 1389.6,302.5 1430.4,322.8 1391.4,346.4" fill="rgb(217,138,70)"/>
  <polygon points="1604.2,213.9 1591.3,257.8 1547.4,270.4 1560.3,226.6" fill="rgb(217,138,70)"/>
  <polygon points="1490.5,473.3 1470.3,432.2 1494.2,393.1 1514.4,434.2" fill="rgb(180,105,50)"/>
  <polygon points="1397.3,199.8 1440.1,216.5 1448.9,261.7 1406.1,244.9" fill="rgb(42,46,55)"/>
  <polygon points="1655.7,341.3 1612.7,357.9 1575.6,330.5 1618.6,313.9" fill="rgb(236,99,36)"/>
  <polygon points="1364.2,412.8 1384.8,371.4 1430.7,366.5 1410.2,407.9" fill="rgb(140,180,154)"/>
  <polygon points="1533.9,158.7 1546.8,203.3 1516.1,238.0 1503.2,193.4" fill="rgb(3,56,33)"/>
  <polygon points="1581.2,465.9 1541.5,441.7 1540.7,395.2 1580.4,419.4" fill="rgb(3,56,33)"/>
  <polygon points="1334.8,268.1 1380.6,259.1 1412.7,292.9 1366.9,301.9" fill="rgb(3,69,42)"/>
  <polygon points="1655.1,247.2 1627.4,284.8 1580.8,281.6 1608.5,243.9" fill="rgb(26,128,80)"/>
  <polygon points="1429.6,482.5 1424.6,435.9 1461.3,406.7 1466.3,453.3" fill="rgb(170,65,18)"/>
  <polygon points="1437.1,151.8 1472.4,182.9 1465.0,229.3 1429.7,198.2" fill="rgb(170,65,18)"/>
  <polygon points="1658.1,404.4 1611.0,405.2 1585.0,365.9 1632.1,365.0" fill="rgb(200,75,25)"/>
  <polygon points="1319.8,366.9 1354.1,334.3 1399.9,345.7 1365.7,378.3" fill="rgb(180,105,50)"/>
  <polygon points="1598.4,163.3 1595.1,210.6 1553.4,233.2 1556.7,185.9" fill="rgb(42,46,55)"/>
  <polygon points="1529.6,506.0 1499.9,468.8 1515.5,423.9 1545.1,461.1" fill="rgb(75,166,132)"/>
  <polygon points="1346.5,203.0 1393.6,210.4 1412.5,254.1 1365.4,246.7" fill="rgb(236,99,36)"/>
  <polygon points="1690.4,304.0 1650.6,330.4 1607.0,310.9 1646.8,284.5" fill="rgb(236,99,36)"/>
  <polygon points="1364.6,463.7 1376.2,417.2 1421.7,402.1 1410.1,448.6" fill="rgb(3,56,33)"/>
  <polygon points="1498.6,121.9 1521.5,164.1 1498.2,206.1 1475.2,163.9" fill="rgb(3,69,42)"/>
  <polygon points="1632.2,468.4 1586.7,452.7 1575.5,405.9 1621.1,421.5" fill="rgb(9,97,53)"/>
  <polygon points="1295.9,301.3 1340.2,282.0 1380.2,309.1 1335.9,328.4" fill="rgb(26,128,80)"/>
  <polygon points="1660.7,196.2 1641.1,240.4 1593.1,247.5 1612.8,203.2" fill="rgb(26,128,80)"/>
  <polygon points="1460.6,523.7 1445.1,477.6 1475.8,439.9 1491.2,486.0" fill="rgb(170,65,18)"/>
  <polygon points="1386.2,143.0 1428.8,166.6 1431.7,215.2 1389.1,191.6" fill="rgb(217,138,70)"/>
  <polygon points="1701.4,375.8 1653.9,387.2 1618.8,353.2 1666.3,341.8" fill="rgb(217,138,70)"/>
  <polygon points="1307.7,417.4 1335.1,376.8 1384.1,378.3 1356.7,418.8" fill="rgb(42,46,55)"/>
  <polygon points="1572.5,118.0 1579.7,166.5 1542.6,198.6 1535.4,150.1" fill="rgb(75,166,132)"/>
  <polygon points="1579.6,521.5 1541.4,490.5 1547.1,441.6 1585.3,472.6" fill="rgb(75,166,132)"/>
  <polygon points="1299.2,226.0 1348.4,223.0 1377.3,263.0 1328.1,266.0" fill="rgb(236,99,36)"/>
  <polygon points="1709.4,254.7 1675.0,290.3 1626.5,280.3 1660.9,244.7" fill="rgb(140,180,154)"/>
  <polygon points="1384.5,512.9 1385.9,463.3 1428.5,437.9 1427.1,487.5" fill="rgb(3,69,42)"/>
  <polygon points="1450.2,99.4 1482.8,137.0 1468.5,184.7 1436.0,147.1" fill="rgb(3,69,42)"/>
  <polygon points="1683.1,451.8 1633.6,446.1 1611.9,401.2 1661.4,406.9" fill="rgb(26,128,80)"/>
  <polygon points="1269.9,348.4 1310.4,319.1 1356.8,337.5 1316.3,366.9" fill="rgb(170,65,18)"/>
  <polygon points="1647.6,143.8 1637.5,192.9 1590.7,210.7 1600.7,161.6" fill="rgb(200,75,25)"/>
  <polygon points="1506.1,553.2 1480.3,510.0 1502.9,465.1 1528.7,508.3" fill="rgb(200,75,25)"/>
  <polygon points="1332.5,152.5 1380.8,166.9 1394.5,215.4 1346.2,201.0" fill="rgb(217,138,70)"/>
  <polygon points="1734.4,332.1 1688.9,354.2 1646.0,327.6 1691.4,305.5" fill="rgb(180,105,50)"/>
  <polygon points="1313.4,472.2 1332.1,425.1 1381.8,415.7 1363.2,462.7" fill="rgb(42,46,55)"/>
  <polygon points="1530.9,81.5 1549.0,129.0 1518.6,169.7 1500.5,122.2" fill="rgb(75,166,132)"/>
  <polygon points="1635.2,519.8 1589.7,497.0 1584.6,446.3 1630.1,469.2" fill="rgb(236,99,36)"/>
  <polygon points="1259.4,265.2 1308.5,251.2 1346.6,285.2 1297.5,299.2" fill="rgb(3,56,33)"/>
  <polygon points="1711.8,198.6 1685.0,242.2 1633.8,242.8 1660.7,199.3" fill="rgb(3,56,33)"/>
  <polygon points="1421.1,555.9 1411.4,505.5 1448.8,470.4 1458.5,520.8" fill="rgb(9,97,53)"/>
  <polygon points="1393.9,92.7 1435.2,123.5 1431.3,174.7 1390.1,144.0" fill="rgb(9,97,53)"/>
  <polygon points="1729.2,418.2 1677.9,423.5 1646.0,383.0 1697.3,377.7" fill="rgb(26,128,80)"/>
  <polygon points="1258.8,404.6 1293.2,366.0 1344.2,374.3 1309.9,412.9" fill="rgb(170,65,18)"/>
  <polygon points="1617.3,94.8 1618.1,146.7 1574.7,175.0 1574.0,123.2" fill="rgb(217,138,70)"/>
  <polygon points="1561.8,568.6 1526.2,530.8 1539.1,480.4 1574.7,518.2" fill="rgb(180,105,50)"/>
  <polygon points="1280.9,179.2 1332.8,183.0 1357.4,228.9 1305.5,225.1" fill="rgb(180,105,50)"/>
  <polygon points="1754.2,277.2 1713.2,309.5 1664.0,292.2 1704.9,259.9" fill="rgb(42,46,55)"/>
  <polygon points="1336.3,526.2 1344.7,474.6 1392.8,454.0 1384.4,505.6" fill="rgb(236,99,36)"/>
  <polygon points="1477.1,57.3 1505.9,101.2 1484.3,149.0 1455.5,105.1" fill="rgb(140,180,154)"/>
  <polygon points="1691.4,501.0 1640.4,488.1 1624.0,438.1 1675.0,451.0" fill="rgb(140,180,154)"/>
  <polygon points="1230.8,317.4 1277.2,292.4 1323.2,318.3 1276.7,343.3" fill="rgb(3,56,33)"/>
  <polygon points="1697.3,140.6 1679.9,190.5 1628.4,202.5 1645.8,152.6" fill="rgb(9,97,53)"/>
  <polygon points="1471.4,588.8 1450.5,540.1 1480.4,496.4 1501.3,545.1" fill="rgb(26,128,80)"/>
  <polygon points="1334.4,102.8 1382.8,124.6 1390.3,177.2 1341.9,155.4" fill="rgb(26,128,80)"/>
  <polygon points="1766.3,370.2 1715.7,386.9 1674.5,353.1 1725.1,336.4" fill="rgb(170,65,18)"/>
  <polygon points="1264.2,465.3 1290.3,418.7 1343.6,415.8 1317.5,462.4" fill="rgb(200,75,25)"/>
  <polygon points="1572.0,53.7 1584.2,105.8 1546.8,144.0 1534.5,91.9" fill="rgb(180,105,50)"/>
  <polygon points="1623.4,568.0 1579.0,537.8 1580.8,484.2 1625.2,514.4" fill="rgb(42,46,55)"/>
  <polygon points="1235.8,221.5 1289.1,213.8 1324.0,254.7 1270.8,262.4" fill="rgb(42,46,55)"/>
  <polygon points="1758.6,215.2 1724.4,256.9 1670.9,250.4 1705.1,208.7" fill="rgb(75,166,132)"/>
  <polygon points="1375.2,574.9 1372.3,521.0 1416.2,489.6 1419.2,543.5" fill="rgb(140,180,154)"/>
  <polygon points="1415.2,47.9 1453.9,85.7 1442.7,138.7 1403.9,100.9" fill="rgb(3,56,33)"/>
  <polygon points="1743.5,465.7 1689.3,464.0 1661.7,417.2 1715.9,419.0" fill="rgb(3,69,42)"/>
  <polygon points="1216.3,379.0 1257.6,343.5 1309.7,359.4 1268.4,394.9" fill="rgb(3,69,42)"/>
  <polygon points="1666.1,85.3 1659.5,139.4 1610.3,163.0 1616.8,108.8" fill="rgb(26,128,80)"/>
  <polygon points="1532.1,608.4 1500.2,563.9 1520.7,513.2 1552.6,557.7" fill="rgb(26,128,80)"/>
  <polygon points="1276.2,129.7 1329.9,141.0 1349.1,192.3 1295.4,181.0" fill="rgb(200,75,25)"/>
  <polygon points="1790.9,310.7 1743.6,338.7 1694.6,313.8 1741.9,285.8" fill="rgb(200,75,25)"/>
  <polygon points="1286.5,526.0 1302.5,473.3 1355.6,458.6 1339.6,511.3" fill="rgb(217,138,70)"/>
  <polygon points="1514.2,24.1 1538.0,73.9 1508.8,120.7 1484.9,70.9" fill="rgb(42,46,55)"/>
  <polygon points="1686.2,550.6 1634.9,529.9 1624.8,475.5 1676.1,496.1" fill="rgb(42,46,55)"/>
  <polygon points="1201.3,277.2 1253.3,257.7 1297.5,291.1 1245.6,310.6" fill="rgb(236,99,36)"/>
  <polygon points="1746.2,150.6 1721.0,200.2 1665.7,205.5 1690.8,155.9" fill="rgb(236,99,36)"/>
  <polygon points="1428.4,614.2 1413.4,560.5 1450.8,519.2 1465.7,572.8" fill="rgb(3,56,33)"/>
  <polygon points="1349.2,55.0 1396.6,84.6 1397.0,140.4 1349.6,110.9" fill="rgb(3,56,33)"/>
  <polygon points="1787.4,415.6 1732.3,425.8 1694.2,384.8 1749.2,374.6" fill="rgb(3,69,42)"/>
  <polygon points="1218.1,445.9 1251.8,401.0 1307.7,405.5 1274.0,450.3" fill="rgb(26,128,80)"/>
  <polygon points="1619.3,37.1 1624.7,93.1 1580.3,127.6 1574.9,71.6" fill="rgb(26,128,80)"/>
  <polygon points="1599.5,612.1 1557.6,574.4 1566.9,518.9 1608.9,556.6" fill="rgb(200,75,25)"/>
  <polygon points="1223.9,172.7 1280.4,172.2 1311.1,219.6 1254.6,220.2" fill="rgb(200,75,25)"/>
  <polygon points="1800.3,243.4 1758.9,282.0 1704.0,267.7 1745.5,229.1" fill="rgb(180,105,50)"/>
  <polygon points="1325.4,582.1 1329.9,525.5 1380.0,499.0 1375.6,555.6" fill="rgb(180,105,50)"/>
  <polygon points="1447.3,9.0 1482.3,53.9 1463.2,107.5 1428.2,62.6" fill="rgb(42,46,55)"/>
  <polygon points="1745.8,516.2 1689.6,506.7 1667.4,454.2 1723.7,463.6" fill="rgb(236,99,36)"/>
  <polygon points="1180.7,343.1 1228.6,312.0 1280.6,335.8 1232.6,367.0" fill="rgb(236,99,36)"/>
  <polygon points="1716.6,87.9 1702.2,143.3 1647.7,160.9 1662.1,105.4" fill="rgb(3,56,33)"/>
  <polygon points="1492.9,640.5 1466.0,589.8 1494.4,539.9 1521.3,590.6" fill="rgb(3,56,33)"/>
  <polygon points="1283.7,79.5 1337.9,98.7 1350.7,154.9 1296.5,135.6" fill="rgb(9,97,53)"/>
  <polygon points="1819.1,353.0 1766.0,375.5 1718.6,342.7 1771.7,320.2" fill="rgb(9,97,53)"/>
  <polygon points="1237.1,513.7 1261.2,461.1 1318.4,453.2 1294.4,505.8" fill="rgb(170,65,18)"/>
  <polygon points="1559.1,-0.1 1576.9,55.0 1539.9,99.6 1522.1,44.5" fill="rgb(170,65,18)"/>
  <polygon points="1669.2,598.7 1618.7,570.0 1615.8,512.0 1666.3,540.7" fill="rgb(200,75,25)"/>
  <polygon points="1181.5,230.1 1238.3,217.0 1279.6,258.0 1222.9,271.0" fill="rgb(217,138,70)"/>
  <polygon points="1792.6,172.2 1759.5,220.3 1701.2,218.0 1734.3,170.0" fill="rgb(42,46,55)"/>
  <polygon points="1379.4,629.5 1371.4,571.6 1416.0,533.7 1424.0,591.7" fill="rgb(75,166,132)"/>
  <polygon points="1375.2,10.8 1420.4,48.1 1413.0,106.2 1367.9,68.9" fill="rgb(236,99,36)"/>
  <polygon points="1797.9,465.9 1739.3,468.9 1705.4,421.0 1764.0,418.0" fill="rgb(236,99,36)"/>
  <polygon points="1176.3,415.6 1217.7,373.7 1275.2,386.2 1233.9,428.1" fill="rgb(3,56,33)"/>
  <polygon points="1670.6,31.4 1668.4,90.3 1617.4,120.0 1619.6,61.1" fill="rgb(3,56,33)"/>
  <polygon points="1565.3,650.9 1527.0,605.9 1544.5,549.5 1582.8,594.5" fill="rgb(3,69,42)"/>
  <polygon points="1223.1,120.9 1281.9,128.3 1307.1,181.9 1248.4,174.5" fill="rgb(26,128,80)"/>
  <polygon points="1835.8,281.2 1787.3,315.6 1732.4,293.1 1780.8,258.7" fill="rgb(170,65,18)"/>
  <polygon points="1273.6,578.0 1286.1,519.8 1342.0,499.3 1329.5,557.4" fill="rgb(170,65,18)"/>
  <polygon points="1488.4,-22.8 1518.6,28.6 1491.2,81.6 1461.1,30.2" fill="rgb(217,138,70)"/>
  <polygon points="1736.8,567.5 1679.7,549.9 1664.0,492.2 1721.1,509.8" fill="rgb(217,138,70)"/>
  <polygon points="1152.8,299.0 1206.9,273.4 1257.5,305.4 1203.4,331.0" fill="rgb(180,105,50)"/>
  <polygon points="1767.1,101.8 1744.4,157.3 1685.3,168.0 1708.0,112.4" fill="rgb(42,46,55)"/>
  <polygon points="1446.2,664.2 1425.3,607.8 1461.7,559.9 1482.6,616.3" fill="rgb(75,166,132)"/>
  <polygon points="1302.3,30.4 1356.0,58.0 1361.4,118.0 1307.8,90.4" fill="rgb(236,99,36)"/>
  <polygon points="1838.4,401.9 1780.1,417.9 1735.5,377.2 1793.7,361.2" fill="rgb(3,56,33)"/>
  <polygon points="1189.9,490.4 1222.1,439.2 1282.7,439.0 1250.4,490.2" fill="rgb(3,69,42)"/>
  <polygon points="1609.8,-14.7 1620.6,45.0 1576.0,86.1 1565.2,26.4" fill="rgb(9,97,53)"/>
  <polygon points="1641.5,643.7 1593.0,606.9 1598.2,546.4 1646.6,583.1" fill="rgb(9,97,53)"/>
  <polygon points="1171.7,178.0 1232.4,172.4 1269.6,220.6 1208.9,226.2" fill="rgb(170,65,18)"/>
  <polygon points="1835.0,204.2 1793.9,249.4 1733.8,238.9 1774.8,193.7" fill="rgb(200,75,25)"/>
  <polygon points="1326.5,634.4 1326.2,573.2 1377.7,540.2 1378.0,601.4" fill="rgb(200,75,25)"/>
  <polygon points="1411.1,-28.6 1452.8,16.4 1437.0,75.7 1395.4,30.7" fill="rgb(217,138,70)"/>
  <polygon points="1797.8,519.3 1736.6,514.2 1708.1,459.8 1769.4,464.9" fill="rgb(42,46,55)"/>
  <polygon points="1140.4,376.0 1189.1,338.3 1247.0,359.3 1198.3,397.0" fill="rgb(42,46,55)"/>
  <polygon points="1723.9,36.4 1713.4,97.3 1656.5,121.0 1666.9,60.1" fill="rgb(236,99,36)"/>
  <polygon points="1522.3,683.2 1488.9,631.1 1515.0,575.0 1548.4,627.1" fill="rgb(236,99,36)"/>
  <polygon points="1233.2,68.1 1293.1,83.9 1311.8,143.0 1251.9,127.2" fill="rgb(3,56,33)"/>
  <polygon points="1863.9,327.1 1809.0,356.0 1755.1,325.0 1810.1,296.2" fill="rgb(3,56,33)"/>
  <polygon points="1221.7,563.0 1242.8,504.4 1303.6,490.9 1282.5,549.4" fill="rgb(9,97,53)"/>
  <polygon points="1537.0,-46.7 1561.0,10.9 1525.3,62.0 1501.3,4.4" fill="rgb(9,97,53)"/>
  <polygon points="1716.9,618.0 1660.2,591.7 1652.0,529.8 1708.7,556.0" fill="rgb(26,128,80)"/>
  <polygon points="1133.4,248.2 1193.1,229.2 1241.1,269.4 1181.4,288.4" fill="rgb(200,75,25)"/>
  <polygon points="1815.6,126.3 1784.4,180.7 1721.7,183.5 1752.9,129.1" fill="rgb(200,75,25)"/>
  <polygon points="1393.6,678.8 1379.8,617.4 1424.3,572.9 1438.1,634.3" fill="rgb(217,138,70)"/>
  <polygon points="1331.4,-15.8 1383.1,20.2 1380.4,83.1 1328.7,47.1" fill="rgb(180,105,50)"/>
  <polygon points="1848.1,455.8 1785.5,464.2 1744.9,415.8 1807.5,407.4" fill="rgb(75,166,132)"/>
  <polygon points="1146.3,457.0 1186.9,408.5 1249.6,416.7 1209.1,465.3" fill="rgb(236,99,36)"/>
  <polygon points="1664.6,-19.4 1667.4,44.0 1615.5,80.3 1612.6,17.0" fill="rgb(140,180,154)"/>
  <polygon points="1604.1,684.1 1559.0,639.3 1572.8,577.3 1617.8,622.1" fill="rgb(3,56,33)"/>
  <polygon points="1172.2,122.8 1235.8,125.5 1267.6,180.6 1204.0,178.0" fill="rgb(3,69,42)"/>
  <polygon points="1871.9,245.3 1823.1,286.4 1762.3,267.2 1811.1,226.1" fill="rgb(9,97,53)"/>
  <polygon points="1271.4,628.8 1279.6,565.4 1337.6,538.5 1329.3,601.8" fill="rgb(26,128,80)"/>
  <polygon points="1455.7,-61.7 1492.5,-9.3 1467.9,49.9 1431.1,-2.5" fill="rgb(170,65,18)"/>
  <polygon points="1787.2,573.9 1724.5,560.1 1702.6,499.7 1765.3,513.6" fill="rgb(170,65,18)"/>
  <polygon points="1111.4,328.4 1167.1,296.2 1224.1,326.0 1168.5,358.2" fill="rgb(217,138,70)"/>
  <polygon points="1777.5,52.1 1758.2,113.6 1695.9,130.2 1715.2,68.8" fill="rgb(217,138,70)"/>
  <polygon points="1472.1,707.7 1444.7,649.2 1479.5,594.8 1506.9,653.3" fill="rgb(42,46,55)"/>
  <polygon points="1253.8,16.0 1313.6,40.7 1324.8,104.5 1265.0,79.8" fill="rgb(75,166,132)"/>
  <polygon points="1883.8,379.7 1822.9,401.9 1771.5,362.3 1832.4,340.1" fill="rgb(75,166,132)"/>
  <polygon points="1171.6,537.5 1201.6,479.9 1266.3,474.3 1236.3,532.0" fill="rgb(236,99,36)"/>
  <polygon points="1591.3,-61.7 1608.2,1.2 1564.1,49.1 1547.3,-13.8" fill="rgb(140,180,154)"/>
  <polygon points="1686.9,665.7 1631.8,630.7 1632.0,565.5 1687.0,600.5" fill="rgb(3,56,33)"/>
  <polygon points="1123.4,192.5 1187.8,181.2 1231.9,229.5 1167.5,240.8" fill="rgb(9,97,53)"/>
  <polygon points="1860.6,160.8 1820.7,212.7 1755.5,206.9 1795.4,154.9" fill="rgb(9,97,53)"/>
  <polygon points="1337.0,683.6 1331.3,618.2 1383.5,578.4 1389.2,643.8" fill="rgb(26,128,80)"/>
  <polygon points="1370.0,-57.6 1418.5,-13.2 1406.9,51.5 1358.5,7.1" fill="rgb(170,65,18)"/>
  <polygon points="1847.7,512.8 1781.8,512.8 1746.6,457.1 1812.5,457.2" fill="rgb(217,138,70)"/>
  <polygon points="1108.1,414.6 1156.8,370.0 1220.5,387.3 1171.8,431.8" fill="rgb(217,138,70)"/>
  <polygon points="1721.5,-13.7 1715.7,52.1 1656.9,82.5 1662.8,16.6" fill="rgb(180,105,50)"/>
  <polygon points="1558.1,718.4 1517.8,665.8 1540.7,603.6 1581.0,656.2" fill="rgb(75,166,132)"/>
  <polygon points="1183.0,66.4 1248.4,78.0 1273.6,139.4 1208.2,127.8" fill="rgb(75,166,132)"/>
  <polygon points="1902.0,294.4 1845.8,330.1 1785.6,301.8 1841.8,266.1" fill="rgb(236,99,36)"/>
  <polygon points="1215.9,612.8 1233.3,548.4 1296.9,528.6 1279.6,593.0" fill="rgb(3,56,33)"/>
  <polygon points="1507.5,-87.2 1538.3,-27.9 1504.7,29.8 1473.9,-29.5" fill="rgb(3,56,33)"/>
  <polygon points="1766.1,627.8 1703.2,604.8 1689.0,539.4 1751.8,562.4" fill="rgb(9,97,53)"/>
  <polygon points="1090.7,274.3 1152.6,248.7 1207.4,287.4 1145.4,312.9" fill="rgb(26,128,80)"/>
  <polygon points="1829.4,78.2 1800.9,139.0 1734.3,147.5 1762.8,86.7" fill="rgb(170,65,18)"/>
  <polygon points="1416.0,723.5 1395.9,659.3 1439.4,607.9 1459.5,672.1" fill="rgb(170,65,18)"/>
  <polygon points="1284.6,-33.5 1343.0,0.3 1345.6,67.7 1287.3,33.8" fill="rgb(200,75,25)"/>
  <polygon points="1894.5,437.1 1828.5,451.6 1780.9,403.6 1846.9,389.1" fill="rgb(217,138,70)"/>
  <polygon points="1124.9,502.2 1163.8,446.8 1231.5,450.1 1192.5,505.4" fill="rgb(42,46,55)"/>
  <polygon points="1649.8,-67.1 1658.4,0.2 1606.3,43.5 1597.6,-23.7" fill="rgb(75,166,132)"/>
  <polygon points="1647.3,709.2 1595.3,665.4 1604.5,598.0 1656.5,641.9" fill="rgb(236,99,36)"/>
  <polygon points="1123.4,133.6 1191.4,130.9 1230.2,186.8 1162.2,189.6" fill="rgb(140,180,154)"/>
  <polygon points="1900.4,204.4 1852.0,252.5 1785.5,237.3 1833.9,189.3" fill="rgb(3,56,33)"/>
  <polygon points="1278.1,678.3 1281.3,610.0 1340.7,576.1 1337.5,644.4" fill="rgb(3,56,33)"/>
  <polygon points="1417.2,-93.5 1461.1,-40.9 1440.1,24.3 1396.3,-28.3" fill="rgb(9,97,53)"/>
  <polygon points="1837.0,571.2 1769.0,562.0 1740.4,499.7 1808.4,508.9" fill="rgb(26,128,80)"/>
  <polygon points="1076.6,364.1 1133.1,324.9 1196.4,351.6 1140.0,390.8" fill="rgb(26,128,80)"/>
  <polygon points="1778.9,2.3 1763.7,69.5 1698.9,92.7 1714.0,25.5" fill="rgb(200,75,25)"/>
  <polygon points="1504.8,745.3 1470.5,685.4 1502.8,624.4 1537.0,684.3" fill="rgb(200,75,25)"/>
  <polygon points="1204.3,10.5 1270.1,31.5 1287.6,98.4 1221.8,77.4" fill="rgb(217,138,70)"/>
  <polygon points="1924.0,350.2 1861.1,379.2 1802.9,341.6 1865.8,312.6" fill="rgb(180,105,50)"/>
  <polygon points="1162.0,586.4 1188.8,522.4 1257.2,510.8 1230.4,574.8" fill="rgb(75,166,132)"/>
  <polygon points="1565.2,-104.2 1588.7,-38.7 1546.1,16.1 1522.6,-49.3" fill="rgb(236,99,36)"/>
  <polygon points="1734.8,679.3 1673.2,646.9 1667.6,577.5 1729.2,609.9" fill="rgb(236,99,36)"/>
  <polygon points="1079.0,215.0 1146.5,197.3 1197.6,244.8 1130.1,262.5" fill="rgb(3,56,33)"/>
  <polygon points="1878.1,114.1 1840.2,172.9 1770.3,172.4 1808.2,113.7" fill="rgb(3,69,42)"/>
  <polygon points="1355.8,729.8 1343.9,660.7 1395.9,613.8 1407.7,682.8" fill="rgb(3,69,42)"/>
  <polygon points="1325.0,-78.9 1380.4,-35.9 1373.8,33.9 1318.4,-9.0" fill="rgb(9,97,53)"/>
  <polygon points="1895.3,497.9 1825.2,503.7 1782.8,447.6 1852.9,441.9" fill="rgb(170,65,18)"/>
  <polygon points="1083.2,457.7 1131.1,406.1 1200.3,418.8 1152.5,470.5" fill="rgb(170,65,18)"/>
  <polygon points="1710.6,-62.4 1710.2,8.2 1650.4,45.7 1650.8,-24.9" fill="rgb(200,75,25)"/>
  <polygon points="1599.0,746.8 1551.6,694.4 1570.4,626.3 1617.9,678.7" fill="rgb(217,138,70)"/>
  <polygon points="1133.6,73.2 1204.2,79.8 1236.4,142.9 1165.9,136.3" fill="rgb(180,105,50)"/>
  <polygon points="1933.7,256.0 1877.1,298.8 1810.6,274.0 1867.2,231.2" fill="rgb(42,46,55)"/>
  <polygon points="1218.7,662.5 1231.4,592.6 1297.3,566.0 1284.6,635.9" fill="rgb(236,99,36)"/>
  <polygon points="1471.8,-122.0 1509.7,-61.7 1479.1,2.6 1441.2,-57.7" fill="rgb(140,180,154)"/>
  <polygon points="1815.9,629.2 1747.1,610.3 1726.2,542.1 1795.0,561.0" fill="rgb(140,180,154)"/>
  <polygon points="1053.0,307.0 1116.7,274.4 1178.2,310.6 1114.6,343.2" fill="rgb(3,69,42)"/>
  <polygon points="1834.9,28.7 1810.0,95.8 1740.0,110.7 1764.9,43.5" fill="rgb(9,97,53)"/>
  <polygon points="1445.5,763.7 1418.5,697.2 1460.2,638.8 1487.2,705.3" fill="rgb(9,97,53)"/>
  <polygon points="1235.7,-43.1 1300.6,-12.3 1309.4,59.0 1244.4,28.2" fill="rgb(170,65,18)"/>
  <polygon points="1937.0,411.1 1868.2,432.2 1813.5,385.5 1882.3,364.3" fill="rgb(170,65,18)"/>
  <polygon points="1111.3,550.2 1147.8,488.0 1219.8,485.5 1183.3,547.7" fill="rgb(200,75,25)"/>
  <polygon points="1627.3,-111.6 1642.4,-41.0 1590.9,9.6 1575.7,-61.0" fill="rgb(180,105,50)"/>
  <polygon points="1694.0,726.8 1635.0,684.8 1638.8,612.5 1697.8,654.5" fill="rgb(180,105,50)"/>
  <polygon points="1077.1,152.3 1149.1,143.4 1195.2,199.4 1123.2,208.3" fill="rgb(75,166,132)"/>
  <polygon points="1921.8,159.3 1874.7,214.5 1802.8,204.4 1849.9,149.1" fill="rgb(75,166,132)"/>
  <polygon points="1292.9,726.0 1290.3,653.2 1350.3,612.1 1353.0,684.8" fill="rgb(236,99,36)"/>
  <polygon points="1374.0,-118.5 1425.2,-66.6 1408.7,4.4 1357.5,-47.5" fill="rgb(140,180,154)"/>
  <polygon points="1885.8,560.4 1812.8,556.6 1777.0,493.0 1849.9,496.8" fill="rgb(3,69,42)"/>
  <polygon points="1048.0,405.1 1104.5,358.6 1174.0,381.3 1117.6,427.8" fill="rgb(9,97,53)"/>
  <polygon points="1772.2,-47.2 1762.0,25.4 1695.3,55.6 1705.4,-16.9" fill="rgb(9,97,53)"/>
  <polygon points="1543.3,777.2 1501.7,716.7 1530.5,649.2 1572.1,709.7" fill="rgb(26,128,80)"/>
  <polygon points="1154.3,13.1 1226.0,29.6 1250.4,99.0 1178.8,82.5" fill="rgb(170,65,18)"/>
  <polygon points="1959.0,314.4 1894.9,350.7 1829.9,316.0 1894.0,279.7" fill="rgb(217,138,70)"/>
  <polygon points="1160.4,636.4 1183.2,566.2 1254.8,547.9 1231.9,618.1" fill="rgb(180,105,50)"/>
  <polygon points="1532.5,-142.0 1563.2,-74.8 1522.8,-12.8 1492.1,-80.1" fill="rgb(42,46,55)"/>
  <polygon points="1784.5,685.1 1716.4,656.1 1704.3,583.0 1772.5,612.0" fill="rgb(75,166,132)"/>
  <polygon points="1038.5,244.5 1108.4,219.8 1166.8,265.6 1096.8,290.3" fill="rgb(236,99,36)"/>
  <polygon points="1887.9,65.0 1853.0,130.6 1778.9,136.3 1813.8,70.7" fill="rgb(236,99,36)"/>
  <polygon points="1381.8,772.6 1363.2,700.5 1414.1,646.2 1432.7,718.3" fill="rgb(3,56,33)"/>
  <polygon points="1276.8,-92.8 1339.4,-52.1 1338.5,22.4 1276.0,-18.2" fill="rgb(3,69,42)"/>
  <polygon points="1940.1,475.6 1866.4,487.9 1816.6,432.2 1890.3,419.9" fill="rgb(9,97,53)"/>
  <polygon points="1065.3,504.6 1111.5,445.6 1185.9,453.1 1139.8,512.0" fill="rgb(9,97,53)"/>
  <polygon points="1692.1,-109.0 1697.9,-34.2 1637.8,10.7 1632.0,-64.1" fill="rgb(170,65,18)"/>
  <polygon points="1644.3,768.6 1589.4,717.3 1603.4,643.5 1658.2,694.8" fill="rgb(200,75,25)"/>
  <polygon points="1085.6,87.8 1160.9,88.6 1200.5,152.6 1125.3,151.8" fill="rgb(200,75,25)"/>
  <polygon points="1959.1,212.7 1903.0,263.0 1830.5,242.6 1886.6,192.3" fill="rgb(180,105,50)"/>
  <polygon points="1229.2,711.7 1236.6,636.5 1304.0,602.5 1296.7,677.7" fill="rgb(180,105,50)"/>
  <polygon points="1430.8,-151.0 1476.2,-90.5 1449.4,-19.8 1404.0,-80.3" fill="rgb(42,46,55)"/>
  <polygon points="1865.8,622.8 1791.3,608.8 1763.2,538.4 1837.7,552.4" fill="rgb(236,99,36)"/>
  <polygon points="1020.7,345.5 1085.1,305.4 1153.5,338.4 1089.0,378.5" fill="rgb(236,99,36)"/>
  <polygon points="1832.7,-21.6 1812.2,51.6 1739.4,73.5 1759.9,0.3" fill="rgb(3,56,33)"/>
  <polygon points="1481.2,799.2 1446.8,731.2 1485.8,665.8 1520.2,733.7" fill="rgb(3,69,42)"/>
  <polygon points="1185.4,-45.1 1256.8,-18.2 1272.3,56.5 1200.9,29.6" fill="rgb(9,97,53)"/>
  <polygon points="1975.4,378.4 1904.4,406.9 1842.4,362.2 1913.4,333.7" fill="rgb(9,97,53)"/>
  <polygon points="1105.1,600.2 1138.2,531.2 1214.3,522.3 1181.1,591.2" fill="rgb(26,128,80)"/>
  <polygon points="1598.0,-152.6 1620.1,-79.3 1570.0,-21.2 1547.9,-94.6" fill="rgb(170,65,18)"/>
  <polygon points="1743.3,737.1 1677.3,697.9 1675.0,621.1 1741.1,660.3" fill="rgb(217,138,70)"/>
  <polygon points="1033.8,178.2 1109.1,162.4 1162.7,217.6 1087.4,233.3" fill="rgb(180,105,50)"/>
  <polygon points="1936.3,110.9 1891.3,173.5 1814.3,169.0 1859.3,106.4" fill="rgb(180,105,50)"/>
  <polygon points="1315.1,771.4 1305.9,694.7 1365.8,646.0 1374.9,722.6" fill="rgb(75,166,132)"/>
  <polygon points="1327.0,-137.0 1385.6,-86.5 1374.4,-10.0 1315.8,-60.5" fill="rgb(236,99,36)"/>
  <polygon points="1932.9,542.1 1855.5,544.5 1812.0,480.4 1889.4,478.0" fill="rgb(140,180,154)"/>
  <polygon points="1025.7,450.5 1081.2,396.3 1156.7,414.3 1101.2,468.4" fill="rgb(3,56,33)"/>
  <polygon points="1757.9,-95.8 1753.5,-18.2 1685.6,19.7 1690.0,-57.9" fill="rgb(3,56,33)"/>
  <polygon points="1586.7,803.3 1537.4,743.0 1562.0,669.2 1611.2,729.4" fill="rgb(9,97,53)"/>
  <polygon points="1104.7,23.2 1181.9,34.4 1213.8,105.6 1136.6,94.4" fill="rgb(26,128,80)"/>
  <polygon points="1988.7,273.3 1924.1,317.3 1852.4,286.3 1917.0,242.3" fill="rgb(170,65,18)"/>
  <polygon points="1166.4,686.8 1184.4,610.6 1258.3,585.0 1240.3,661.2" fill="rgb(200,75,25)"/>
  <polygon points="1494.0,-175.1 1532.3,-106.7 1495.0,-37.8 1456.8,-106.1" fill="rgb(217,138,70)"/>
  <polygon points="1835.3,683.3 1760.7,658.7 1741.6,582.6 1816.1,607.2" fill="rgb(180,105,50)"/>
  <polygon points="1002.3,280.1 1074.0,247.9 1139.6,291.2 1067.9,323.4" fill="rgb(42,46,55)"/>
  <polygon points="1890.5,14.3 1859.3,86.6 1781.6,99.0 1812.7,26.7" fill="rgb(42,46,55)"/>
  <polygon points="1414.3,811.7 1388.3,737.2 1437.4,675.4 1463.3,749.9" fill="rgb(236,99,36)"/>
  <polygon points="1226.4,-99.6 1296.0,-62.1 1301.6,16.7 1232.0,-20.8" fill="rgb(140,180,154)"/>
  <polygon points="1981.9,446.5 1905.1,465.8 1847.7,411.4 1924.4,392.0" fill="rgb(3,56,33)"/>
  <polygon points="1054.3,554.3 1097.9,488.1 1177.1,489.4 1133.6,555.6" fill="rgb(3,69,42)"/>
  <polygon points="1666.5,-153.1 1679.2,-74.7 1619.7,-22.0 1607.1,-100.4" fill="rgb(9,97,53)"/>
  <polygon points="1692.9,783.7 1630.6,734.4 1638.8,655.3 1701.2,704.6" fill="rgb(9,97,53)"/>
  <polygon points="1039.5,109.6 1119.0,103.9 1166.4,167.9 1086.9,173.6" fill="rgb(170,65,18)"/>
  <polygon points="0.0,0.0 768.0,0.0 576.0,640.0 0.0,640.0" fill="rgb(250,247,241)"/>
</svg>
