<?xml version="1.0" encoding="UTF-8" standalone="no"?>
<svg xmlns="http://www.w3.org/2000/svg" viewBox="0 0 1920 640" width="1920" height="640">
  <title>v8-mosaic-eclat</title>
  <rect width="1920" height="640" fill="rgb(250,247,241)"/>
  <polygon points="0.0,0.0 160.0,0.0 160.0,106.7" fill="rgb(3,69,42)"/>
  <polygon points="0.0,0.0 160.0,106.7 0.0,106.7" fill="rgb(9,97,53)"/>
  <polygon points="160.0,0.0 320.0,0.0 320.0,106.7" fill="rgb(9,97,53)"/>
  <polygon points="160.0,0.0 320.0,106.7 160.0,106.7" fill="rgb(42,46,55)"/>
  <polygon points="0.0,106.7 40.0,106.7 0.0,133.3" fill="rgb(9,97,53)"/>
  <polygon points="40.0,106.7 40.0,133.3 0.0,133.3" fill="rgb(3,56,33)"/>
  <polygon points="40.0,106.7 80.0,106.7 80.0,133.3" fill="rgb(9,97,53)"/>
  <polygon points="40.0,106.7 80.0,133.3 40.0,133.3" fill="rgb(180,105,50)"/>
  <polygon points="0.0,133.3 40.0,133.3 0.0,160.0" fill="rgb(236,99,36)"/>
  <polygon points="40.0,133.3 40.0,160.0 0.0,160.0" fill="rgb(3,69,42)"/>
  <polygon points="40.0,133.3 80.0,133.3 80.0,160.0" fill="rgb(3,69,42)"/>
  <polygon points="40.0,133.3 80.0,160.0 40.0,160.0" fill="rgb(26,128,80)"/>
  <polygon points="80.0,106.7 120.0,106.7 120.0,133.3" fill="rgb(42,46,55)"/>
  <polygon points="80.0,106.7 120.0,133.3 80.0,133.3" fill="rgb(236,99,36)"/>
  <polygon points="120.0,106.7 160.0,106.7 160.0,133.3" fill="rgb(75,166,132)"/>
  <polygon points="120.0,106.7 160.0,133.3 120.0,133.3" fill="rgb(3,69,42)"/>
  <polygon points="80.0,133.3 120.0,133.3 120.0,160.0" fill="rgb(3,56,33)"/>
  <polygon points="80.0,133.3 120.0,160.0 80.0,160.0" fill="rgb(9,97,53)"/>
  <polygon points="120.0,133.3 160.0,133.3 120.0,160.0" fill="rgb(26,128,80)"/>
  <polygon points="160.0,133.3 160.0,160.0 120.0,160.0" fill="rgb(9,97,53)"/>
  <polygon points="0.0,160.0 80.0,160.0 80.0,213.3" fill="rgb(236,99,36)"/>
  <polygon points="0.0,160.0 80.0,213.3 0.0,213.3" fill="rgb(9,97,53)"/>
  <polygon points="80.0,160.0 160.0,160.0 80.0,213.3" fill="rgb(236,99,36)"/>
  <polygon points="160.0,160.0 160.0,213.3 80.0,213.3" fill="rgb(236,99,36)"/>
  <polygon points="160.0,106.7 320.0,106.7 320.0,213.3" fill="rgb(42,46,55)"/>
  <polygon points="160.0,106.7 320.0,213.3 160.0,213.3" fill="rgb(217,138,70)"/>
  <polygon points="320.0,0.0 480.0,0.0 480.0,106.7" fill="rgb(3,69,42)"/>
  <polygon points="320.0,0.0 480.0,106.7 320.0,106.7" fill="rgb(217,138,70)"/>
  <polygon points="480.0,0.0 640.0,0.0 640.0,106.7" fill="rgb(75,166,132)"/>
  <polygon points="480.0,0.0 640.0,106.7 480.0,106.7" fill="rgb(140,180,154)"/>
  <polygon points="320.0,106.7 480.0,106.7 320.0,213.3" fill="rgb(3,69,42)"/>
  <polygon points="480.0,106.7 480.0,213.3 320.0,213.3" fill="rgb(42,46,55)"/>
  <polygon points="480.0,106.7 520.0,106.7 520.0,133.3" fill="rgb(26,128,80)"/>
  <polygon points="480.0,106.7 520.0,133.3 480.0,133.3" fill="rgb(140,180,154)"/>
  <polygon points="520.0,106.7 560.0,106.7 520.0,133.3" fill="rgb(26,128,80)"/>
  <polygon points="560.0,106.7 560.0,133.3 520.0,133.3" fill="rgb(3,56,33)"/>
  <polygon points="480.0,133.3 520.0,133.3 480.0,160.0" fill="rgb(75,166,132)"/>
  <polygon points="520.0,133.3 520.0,160.0 480.0,160.0" fill="rgb(3,69,42)"/>
  <polygon points="520.0,133.3 560.0,133.3 520.0,160.0" fill="rgb(3,56,33)"/>
  <polygon points="560.0,133.3 560.0,160.0 520.0,160.0" fill="rgb(140,180,154)"/>
  <polygon points="560.0,106.7 640.0,106.7 560.0,160.0" fill="rgb(42,46,55)"/>
  <polygon points="640.0,106.7 640.0,160.0 560.0,160.0" fill="rgb(217,138,70)"/>
  <polygon points="480.0,160.0 560.0,160.0 560.0,213.3" fill="rgb(9,97,53)"/>
  <polygon points="480.0,160.0 560.0,213.3 480.0,213.3" fill="rgb(9,97,53)"/>
  <polygon points="560.0,160.0 640.0,160.0 640.0,213.3" fill="rgb(9,97,53)"/>
  <polygon points="560.0,160.0 640.0,213.3 560.0,213.3" fill="rgb(3,56,33)"/>
  <polygon points="640.0,0.0 800.0,0.0 800.0,106.7" fill="rgb(180,105,50)"/>
  <polygon points="640.0,0.0 800.0,106.7 640.0,106.7" fill="rgb(3,56,33)"/>
  <polygon points="800.0,0.0 880.0,0.0 880.0,53.3" fill="rgb(3,69,42)"/>
  <polygon points="800.0,0.0 880.0,53.3 800.0,53.3" fill="rgb(9,97,53)"/>
  <polygon points="880.0,0.0 920.0,0.0 880.0,26.7" fill="rgb(236,99,36)"/>
  <polygon points="920.0,0.0 920.0,26.7 880.0,26.7" fill="rgb(9,97,53)"/>
  <polygon points="920.0,0.0 960.0,0.0 960.0,26.7" fill="rgb(140,180,154)"/>
  <polygon points="920.0,0.0 960.0,26.7 920.0,26.7" fill="rgb(140,180,154)"/>
  <polygon points="880.0,26.7 920.0,26.7 920.0,53.3" fill="rgb(140,180,154)"/>
  <polygon points="880.0,26.7 920.0,53.3 880.0,53.3" fill="rgb(26,128,80)"/>
  <polygon points="920.0,26.7 960.0,26.7 920.0,53.3" fill="rgb(75,166,132)"/>
  <polygon points="960.0,26.7 960.0,53.3 920.0,53.3" fill="rgb(180,105,50)"/>
  <polygon points="800.0,53.3 880.0,53.3 800.0,106.7" fill="rgb(26,128,80)"/>
  <polygon points="880.0,53.3 880.0,106.7 800.0,106.7" fill="rgb(3,69,42)"/>
  <polygon points="880.0,53.3 960.0,53.3 880.0,106.7" fill="rgb(236,99,36)"/>
  <polygon points="960.0,53.3 960.0,106.7 880.0,106.7" fill="rgb(217,138,70)"/>
  <polygon points="640.0,106.7 800.0,106.7 640.0,213.3" fill="rgb(9,97,53)"/>
  <polygon points="800.0,106.7 800.0,213.3 640.0,213.3" fill="rgb(236,99,36)"/>
  <polygon points="800.0,106.7 960.0,106.7 960.0,213.3" fill="rgb(3,69,42)"/>
  <polygon points="800.0,106.7 960.0,213.3 800.0,213.3" fill="rgb(3,69,42)"/>
  <polygon points="960.0,0.0 1040.0,0.0 1040.0,53.3" fill="rgb(9,97,53)"/>
  <polygon points="960.0,0.0 1040.0,53.3 960.0,53.3" fill="rgb(9,97,53)"/>
  <polygon points="1040.0,0.0 1120.0,0.0 1120.0,53.3" fill="rgb(75,166,132)"/>
  <polygon points="1040.0,0.0 1120.0,53.3 1040.0,53.3" fill="rgb(75,166,132)"/>
  <polygon points="960.0,53.3 1040.0,53.3 960.0,106.7" fill="rgb(42,46,55)"/>
  <polygon points="1040.0,53.3 1040.0,106.7 960.0,106.7" fill="rgb(9,97,53)"/>
  <polygon points="1040.0,53.3 1080.0,53.3 1040.0,80.0" fill="rgb(75,166,132)"/>
  <polygon points="1080.0,53.3 1080.0,80.0 1040.0,80.0" fill="rgb(180,105,50)"/>
  <polygon points="1080.0,53.3 1120.0,53.3 1080.0,80.0" fill="rgb(75,166,132)"/>
  <polygon points="1120.0,53.3 1120.0,80.0 1080.0,80.0" fill="rgb(3,69,42)"/>
  <polygon points="1040.0,80.0 1080.0,80.0 1040.0,106.7" fill="rgb(3,69,42)"/>
  <polygon points="1080.0,80.0 1080.0,106.7 1040.0,106.7" fill="rgb(9,97,53)"/>
  <polygon points="1080.0,80.0 1120.0,80.0 1120.0,106.7" fill="rgb(180,105,50)"/>
  <polygon points="1080.0,80.0 1120.0,106.7 1080.0,106.7" fill="rgb(140,180,154)"/>
  <polygon points="1120.0,0.0 1280.0,0.0 1280.0,106.7" fill="rgb(3,56,33)"/>
  <polygon points="1120.0,0.0 1280.0,106.7 1120.0,106.7" fill="rgb(236,99,36)"/>
  <polygon points="960.0,106.7 1120.0,106.7 1120.0,213.3" fill="rgb(42,46,55)"/>
  <polygon points="960.0,106.7 1120.0,213.3 960.0,213.3" fill="rgb(180,105,50)"/>
  <polygon points="1120.0,106.7 1200.0,106.7 1200.0,160.0" fill="rgb(236,99,36)"/>
  <polygon points="1120.0,106.7 1200.0,160.0 1120.0,160.0" fill="rgb(3,56,33)"/>
  <polygon points="1200.0,106.7 1280.0,106.7 1280.0,160.0" fill="rgb(236,99,36)"/>
  <polygon points="1200.0,106.7 1280.0,160.0 1200.0,160.0" fill="rgb(3,56,33)"/>
  <polygon points="1120.0,160.0 1200.0,160.0 1120.0,213.3" fill="rgb(3,69,42)"/>
  <polygon points="1200.0,160.0 1200.0,213.3 1120.0,213.3" fill="rgb(75,166,132)"/>
  <polygon points="1200.0,160.0 1280.0,160.0 1280.0,213.3" fill="rgb(140,180,154)"/>
  <polygon points="1200.0,160.0 1280.0,213.3 1200.0,213.3" fill="rgb(236,99,36)"/>
  <polygon points="1280.0,0.0 1440.0,0.0 1280.0,106.7" fill="rgb(9,97,53)"/>
  <polygon points="1440.0,0.0 1440.0,106.7 1280.0,106.7" fill="rgb(236,99,36)"/>
  <polygon points="1440.0,0.0 1520.0,0.0 1440.0,53.3" fill="rgb(140,180,154)"/>
  <polygon points="1520.0,0.0 1520.0,53.3 1440.0,53.3" fill="rgb(217,138,70)"/>
  <polygon points="1520.0,0.0 1600.0,0.0 1600.0,53.3" fill="rgb(9,97,53)"/>
  <polygon points="1520.0,0.0 1600.0,53.3 1520.0,53.3" fill="rgb(3,69,42)"/>
  <polygon points="1440.0,53.3 1520.0,53.3 1520.0,106.7" fill="rgb(140,180,154)"/>
  <polygon points="1440.0,53.3 1520.0,106.7 1440.0,106.7" fill="rgb(42,46,55)"/>
  <polygon points="1520.0,53.3 1600.0,53.3 1520.0,106.7" fill="rgb(26,128,80)"/>
  <polygon points="1600.0,53.3 1600.0,106.7 1520.0,106.7" fill="rgb(42,46,55)"/>
  <polygon points="1280.0,106.7 1440.0,106.7 1440.0,213.3" fill="rgb(9,97,53)"/>
  <polygon points="1280.0,106.7 1440.0,213.3 1280.0,213.3" fill="rgb(180,105,50)"/>
  <polygon points="1440.0,106.7 1520.0,106.7 1440.0,160.0" fill="rgb(9,97,53)"/>
  <polygon points="1520.0,106.7 1520.0,160.0 1440.0,160.0" fill="rgb(9,97,53)"/>
  <polygon points="1520.0,106.7 1600.0,106.7 1600.0,160.0" fill="rgb(217,138,70)"/>
  <polygon points="1520.0,106.7 1600.0,160.0 1520.0,160.0" fill="rgb(9,97,53)"/>
  <polygon points="1440.0,160.0 1520.0,160.0 1440.0,213.3" fill="rgb(140,180,154)"/>
  <polygon points="1520.0,160.0 1520.0,213.3 1440.0,213.3" fill="rgb(75,166,132)"/>
  <polygon points="1520.0,160.0 1600.0,160.0 1520.0,213.3" fill="rgb(9,97,53)"/>
  <polygon points="1600.0,160.0 1600.0,213.3 1520.0,213.3" fill="rgb(9,97,53)"/>
  <polygon points="1600.0,0.0 1760.0,0.0 1760.0,106.7" fill="rgb(3,69,42)"/>
  <polygon points="1600.0,0.0 1760.0,106.7 1600.0,106.7" fill="rgb(3,69,42)"/>
  <polygon points="1760.0,0.0 1920.0,0.0 1760.0,106.7" fill="rgb(140,180,154)"/>
  <polygon points="1920.0,0.0 1920.0,106.7 1760.0,106.7" fill="rgb(3,69,42)"/>
  <polygon points="1600.0,106.7 1680.0,106.7 1680.0,160.0" fill="rgb(42,46,55)"/>
  <polygon points="1600.0,106.7 1680.0,160.0 1600.0,160.0" fill="rgb(236,99,36)"/>
  <polygon points="1680.0,106.7 1720.0,106.7 1680.0,133.3" fill="rgb(3,69,42)"/>
  <polygon points="1720.0,106.7 1720.0,133.3 1680.0,133.3" fill="rgb(3,69,42)"/>
  <polygon points="1720.0,106.7 1760.0,106.7 1760.0,133.3" fill="rgb(3,69,42)"/>
  <polygon points="1720.0,106.7 1760.0,133.3 1720.0,133.3" fill="rgb(9,97,53)"/>
  <polygon points="1680.0,133.3 1720.0,133.3 1680.0,160.0" fill="rgb(3,56,33)"/>
  <polygon points="1720.0,133.3 1720.0,160.0 1680.0,160.0" fill="rgb(236,99,36)"/>
  <polygon points="1720.0,133.3 1760.0,133.3 1760.0,160.0" fill="rgb(42,46,55)"/>
  <polygon points="1720.0,133.3 1760.0,160.0 1720.0,160.0" fill="rgb(3,69,42)"/>
  <polygon points="1600.0,160.0 1640.0,160.0 1640.0,186.7" fill="rgb(3,56,33)"/>
  <polygon points="1600.0,160.0 1640.0,186.7 1600.0,186.7" fill="rgb(26,128,80)"/>
  <polygon points="1640.0,160.0 1680.0,160.0 1640.0,186.7" fill="rgb(26,128,80)"/>
  <polygon points="1680.0,160.0 1680.0,186.7 1640.0,186.7" fill="rgb(26,128,80)"/>
  <polygon points="1600.0,186.7 1640.0,186.7 1600.0,213.3" fill="rgb(75,166,132)"/>
  <polygon points="1640.0,186.7 1640.0,213.3 1600.0,213.3" fill="rgb(9,97,53)"/>
  <polygon points="1640.0,186.7 1680.0,186.7 1680.0,213.3" fill="rgb(3,69,42)"/>
  <polygon points="1640.0,186.7 1680.0,213.3 1640.0,213.3" fill="rgb(26,128,80)"/>
  <polygon points="1680.0,160.0 1760.0,160.0 1680.0,213.3" fill="rgb(3,69,42)"/>
  <polygon points="1760.0,160.0 1760.0,213.3 1680.0,213.3" fill="rgb(9,97,53)"/>
  <polygon points="1760.0,106.7 1920.0,106.7 1920.0,213.3" fill="rgb(9,97,53)"/>
  <polygon points="1760.0,106.7 1920.0,213.3 1760.0,213.3" fill="rgb(3,69,42)"/>
  <polygon points="0.0,213.3 40.0,213.3 0.0,240.0" fill="rgb(236,99,36)"/>
  <polygon points="40.0,213.3 40.0,240.0 0.0,240.0" fill="rgb(75,166,132)"/>
  <polygon points="40.0,213.3 80.0,213.3 80.0,240.0" fill="rgb(3,56,33)"/>
  <polygon points="40.0,213.3 80.0,240.0 40.0,240.0" fill="rgb(217,138,70)"/>
  <polygon points="0.0,240.0 40.0,240.0 40.0,266.7" fill="rgb(26,128,80)"/>
  <polygon points="0.0,240.0 40.0,266.7 0.0,266.7" fill="rgb(3,56,33)"/>
  <polygon points="40.0,240.0 80.0,240.0 40.0,266.7" fill="rgb(3,69,42)"/>
  <polygon points="80.0,240.0 80.0,266.7 40.0,266.7" fill="rgb(9,97,53)"/>
  <polygon points="80.0,213.3 160.0,213.3 160.0,266.7" fill="rgb(3,69,42)"/>
  <polygon points="80.0,213.3 160.0,266.7 80.0,266.7" fill="rgb(217,138,70)"/>
  <polygon points="0.0,266.7 80.0,266.7 0.0,320.0" fill="rgb(42,46,55)"/>
  <polygon points="80.0,266.7 80.0,320.0 0.0,320.0" fill="rgb(140,180,154)"/>
  <polygon points="80.0,266.7 160.0,266.7 80.0,320.0" fill="rgb(75,166,132)"/>
  <polygon points="160.0,266.7 160.0,320.0 80.0,320.0" fill="rgb(3,69,42)"/>
  <polygon points="160.0,213.3 320.0,213.3 160.0,320.0" fill="rgb(3,69,42)"/>
  <polygon points="320.0,213.3 320.0,320.0 160.0,320.0" fill="rgb(75,166,132)"/>
  <polygon points="0.0,320.0 160.0,320.0 160.0,426.7" fill="rgb(217,138,70)"/>
  <polygon points="0.0,320.0 160.0,426.7 0.0,426.7" fill="rgb(26,128,80)"/>
  <polygon points="160.0,320.0 320.0,320.0 160.0,426.7" fill="rgb(217,138,70)"/>
  <polygon points="320.0,320.0 320.0,426.7 160.0,426.7" fill="rgb(42,46,55)"/>
  <polygon points="320.0,213.3 360.0,213.3 320.0,240.0" fill="rgb(9,97,53)"/>
  <polygon points="360.0,213.3 360.0,240.0 320.0,240.0" fill="rgb(236,99,36)"/>
  <polygon points="360.0,213.3 400.0,213.3 400.0,240.0" fill="rgb(236,99,36)"/>
  <polygon points="360.0,213.3 400.0,240.0 360.0,240.0" fill="rgb(9,97,53)"/>
  <polygon points="320.0,240.0 360.0,240.0 360.0,266.7" fill="rgb(9,97,53)"/>
  <polygon points="320.0,240.0 360.0,266.7 320.0,266.7" fill="rgb(26,128,80)"/>
  <polygon points="360.0,240.0 400.0,240.0 360.0,266.7" fill="rgb(3,69,42)"/>
  <polygon points="400.0,240.0 400.0,266.7 360.0,266.7" fill="rgb(217,138,70)"/>
  <polygon points="400.0,213.3 480.0,213.3 400.0,266.7" fill="rgb(9,97,53)"/>
  <polygon points="480.0,213.3 480.0,266.7 400.0,266.7" fill="rgb(140,180,154)"/>
  <polygon points="320.0,266.7 360.0,266.7 320.0,293.3" fill="rgb(26,128,80)"/>
  <polygon points="360.0,266.7 360.0,293.3 320.0,293.3" fill="rgb(140,180,154)"/>
  <polygon points="360.0,266.7 400.0,266.7 400.0,293.3" fill="rgb(9,97,53)"/>
  <polygon points="360.0,266.7 400.0,293.3 360.0,293.3" fill="rgb(42,46,55)"/>
  <polygon points="320.0,293.3 360.0,293.3 320.0,320.0" fill="rgb(3,56,33)"/>
  <polygon points="360.0,293.3 360.0,320.0 320.0,320.0" fill="rgb(42,46,55)"/>
  <polygon points="360.0,293.3 400.0,293.3 400.0,320.0" fill="rgb(26,128,80)"/>
  <polygon points="360.0,293.3 400.0,320.0 360.0,320.0" fill="rgb(3,69,42)"/>
  <polygon points="400.0,266.7 480.0,266.7 400.0,320.0" fill="rgb(75,166,132)"/>
  <polygon points="480.0,266.7 480.0,320.0 400.0,320.0" fill="rgb(3,69,42)"/>
  <polygon points="480.0,213.3 640.0,213.3 640.0,320.0" fill="rgb(3,69,42)"/>
  <polygon points="480.0,213.3 640.0,320.0 480.0,320.0" fill="rgb(75,166,132)"/>
  <polygon points="320.0,320.0 480.0,320.0 320.0,426.7" fill="rgb(42,46,55)"/>
  <polygon points="480.0,320.0 480.0,426.7 320.0,426.7" fill="rgb(3,69,42)"/>
  <polygon points="480.0,320.0 640.0,320.0 480.0,426.7" fill="rgb(3,69,42)"/>
  <polygon points="640.0,320.0 640.0,426.7 480.0,426.7" fill="rgb(140,180,154)"/>
  <polygon points="640.0,213.3 720.0,213.3 720.0,266.7" fill="rgb(26,128,80)"/>
  <polygon points="640.0,213.3 720.0,266.7 640.0,266.7" fill="rgb(75,166,132)"/>
  <polygon points="720.0,213.3 800.0,213.3 720.0,266.7" fill="rgb(9,97,53)"/>
  <polygon points="800.0,213.3 800.0,266.7 720.0,266.7" fill="rgb(3,56,33)"/>
  <polygon points="640.0,266.7 680.0,266.7 640.0,293.3" fill="rgb(3,56,33)"/>
  <polygon points="680.0,266.7 680.0,293.3 640.0,293.3" fill="rgb(236,99,36)"/>
  <polygon points="680.0,266.7 720.0,266.7 720.0,293.3" fill="rgb(3,69,42)"/>
  <polygon points="680.0,266.7 720.0,293.3 680.0,293.3" fill="rgb(9,97,53)"/>
  <polygon points="640.0,293.3 680.0,293.3 680.0,320.0" fill="rgb(180,105,50)"/>
  <polygon points="640.0,293.3 680.0,320.0 640.0,320.0" fill="rgb(9,97,53)"/>
  <polygon points="680.0,293.3 720.0,293.3 680.0,320.0" fill="rgb(180,105,50)"/>
  <polygon points="720.0,293.3 720.0,320.0 680.0,320.0" fill="rgb(3,56,33)"/>
  <polygon points="720.0,266.7 800.0,266.7 800.0,320.0" fill="rgb(180,105,50)"/>
  <polygon points="720.0,266.7 800.0,320.0 720.0,320.0" fill="rgb(9,97,53)"/>
  <polygon points="800.0,213.3 960.0,213.3 960.0,320.0" fill="rgb(140,180,154)"/>
  <polygon points="800.0,213.3 960.0,320.0 800.0,320.0" fill="rgb(3,56,33)"/>
  <polygon points="640.0,320.0 800.0,320.0 800.0,426.7" fill="rgb(42,46,55)"/>
  <polygon points="640.0,320.0 800.0,426.7 640.0,426.7" fill="rgb(26,128,80)"/>
  <polygon points="800.0,320.0 960.0,320.0 960.0,426.7" fill="rgb(217,138,70)"/>
  <polygon points="800.0,320.0 960.0,426.7 800.0,426.7" fill="rgb(26,128,80)"/>
  <polygon points="960.0,213.3 1120.0,213.3 960.0,320.0" fill="rgb(26,128,80)"/>
  <polygon points="1120.0,213.3 1120.0,320.0 960.0,320.0" fill="rgb(9,97,53)"/>
  <polygon points="1120.0,213.3 1280.0,213.3 1120.0,320.0" fill="rgb(42,46,55)"/>
  <polygon points="1280.0,213.3 1280.0,320.0 1120.0,320.0" fill="rgb(26,128,80)"/>
  <polygon points="960.0,320.0 1120.0,320.0 1120.0,426.7" fill="rgb(9,97,53)"/>
  <polygon points="960.0,320.0 1120.0,426.7 960.0,426.7" fill="rgb(236,99,36)"/>
  <polygon points="1120.0,320.0 1280.0,320.0 1120.0,426.7" fill="rgb(3,56,33)"/>
  <polygon points="1280.0,320.0 1280.0,426.7 1120.0,426.7" fill="rgb(140,180,154)"/>
  <polygon points="1280.0,213.3 1440.0,213.3 1440.0,320.0" fill="rgb(9,97,53)"/>
  <polygon points="1280.0,213.3 1440.0,320.0 1280.0,320.0" fill="rgb(3,56,33)"/>
  <polygon points="1440.0,213.3 1600.0,213.3 1440.0,320.0" fill="rgb(140,180,154)"/>
  <polygon points="1600.0,213.3 1600.0,320.0 1440.0,320.0" fill="rgb(42,46,55)"/>
  <polygon points="1280.0,320.0 1440.0,320.0 1440.0,426.7" fill="rgb(236,99,36)"/>
  <polygon points="1280.0,320.0 1440.0,426.7 1280.0,426.7" fill="rgb(217,138,70)"/>
  <polygon points="1440.0,320.0 1600.0,320.0 1600.0,426.7" fill="rgb(180,105,50)"/>
  <polygon points="1440.0,320.0 1600.0,426.7 1440.0,426.7" fill="rgb(3,69,42)"/>
  <polygon points="1600.0,213.3 1760.0,213.3 1760.0,320.0" fill="rgb(42,46,55)"/>
  <polygon points="1600.0,213.3 1760.0,320.0 1600.0,320.0" fill="rgb(140,180,154)"/>
  <polygon points="1760.0,213.3 1840.0,213.3 1840.0,266.7" fill="rgb(75,166,132)"/>
  <polygon points="1760.0,213.3 1840.0,266.7 1760.0,266.7" fill="rgb(3,69,42)"/>
  <polygon points="1840.0,213.3 1920.0,213.3 1840.0,266.7" fill="rgb(236,99,36)"/>
  <polygon points="1920.0,213.3 1920.0,266.7 1840.0,266.7" fill="rgb(75,166,132)"/>
  <polygon points="1760.0,266.7 1840.0,266.7 1760.0,320.0" fill="rgb(42,46,55)"/>
  <polygon points="1840.0,266.7 1840.0,320.0 1760.0,320.0" fill="rgb(236,99,36)"/>
  <polygon points="1840.0,266.7 1920.0,266.7 1920.0,320.0" fill="rgb(236,99,36)"/>
  <polygon points="1840.0,266.7 1920.0,320.0 1840.0,320.0" fill="rgb(140,180,154)"/>
  <polygon points="1600.0,320.0 1760.0,320.0 1600.0,426.7" fill="rgb(3,69,42)"/>
  <polygon points="1760.0,320.0 1760.0,426.7 1600.0,426.7" fill="rgb(9,97,53)"/>
  <polygon points="1760.0,320.0 1840.0,320.0 1760.0,373.3" fill="rgb(26,128,80)"/>
  <polygon points="1840.0,320.0 1840.0,373.3 1760.0,373.3" fill="rgb(180,105,50)"/>
  <polygon points="1840.0,320.0 1920.0,320.0 1840.0,373.3" fill="rgb(42,46,55)"/>
  <polygon points="1920.0,320.0 1920.0,373.3 1840.0,373.3" fill="rgb(217,138,70)"/>
  <polygon points="1760.0,373.3 1840.0,373.3 1760.0,426.7" fill="rgb(26,128,80)"/>
  <polygon points="1840.0,373.3 1840.0,426.7 1760.0,426.7" fill="rgb(9,97,53)"/>
  <polygon points="1840.0,373.3 1920.0,373.3 1840.0,426.7" fill="rgb(42,46,55)"/>
  <polygon points="1920.0,373.3 1920.0,426.7 1840.0,426.7" fill="rgb(180,105,50)"/>
  <polygon points="0.0,426.7 160.0,426.7 0.0,533.3" fill="rgb(75,166,132)"/>
  <polygon points="160.0,426.7 160.0,533.3 0.0,533.3" fill="rgb(140,180,154)"/>
  <polygon points="160.0,426.7 240.0,426.7 240.0,480.0" fill="rgb(9,97,53)"/>
  <polygon points="160.0,426.7 240.0,480.0 160.0,480.0" fill="rgb(3,56,33)"/>
  <polygon points="240.0,426.7 320.0,426.7 320.0,480.0" fill="rgb(217,138,70)"/>
  <polygon points="240.0,426.7 320.0,480.0 240.0,480.0" fill="rgb(26,128,80)"/>
  <polygon points="160.0,480.0 240.0,480.0 160.0,533.3" fill="rgb(3,56,33)"/>
  <polygon points="240.0,480.0 240.0,533.3 160.0,533.3" fill="rgb(180,105,50)"/>
  <polygon points="240.0,480.0 320.0,480.0 320.0,533.3" fill="rgb(140,180,154)"/>
  <polygon points="240.0,480.0 320.0,533.3 240.0,533.3" fill="rgb(9,97,53)"/>
  <polygon points="0.0,533.3 160.0,533.3 160.0,640.0" fill="rgb(3,69,42)"/>
  <polygon points="0.0,533.3 160.0,640.0 0.0,640.0" fill="rgb(9,97,53)"/>
  <polygon points="160.0,533.3 320.0,533.3 160.0,640.0" fill="rgb(9,97,53)"/>
  <polygon points="320.0,533.3 320.0,640.0 160.0,640.0" fill="rgb(3,69,42)"/>
  <polygon points="320.0,426.7 480.0,426.7 320.0,533.3" fill="rgb(3,69,42)"/>
  <polygon points="480.0,426.7 480.0,533.3 320.0,533.3" fill="rgb(3,56,33)"/>
  <polygon points="480.0,426.7 640.0,426.7 480.0,533.3" fill="rgb(42,46,55)"/>
  <polygon points="640.0,426.7 640.0,533.3 480.0,533.3" fill="rgb(3,69,42)"/>
  <polygon points="320.0,533.3 360.0,533.3 360.0,560.0" fill="rgb(3,69,42)"/>
  <polygon points="320.0,533.3 360.0,560.0 320.0,560.0" fill="rgb(26,128,80)"/>
  <polygon points="360.0,533.3 400.0,533.3 400.0,560.0" fill="rgb(26,128,80)"/>
  <polygon points="360.0,533.3 400.0,560.0 360.0,560.0" fill="rgb(180,105,50)"/>
  <polygon points="320.0,560.0 360.0,560.0 320.0,586.7" fill="rgb(3,69,42)"/>
  <polygon points="360.0,560.0 360.0,586.7 320.0,586.7" fill="rgb(3,69,42)"/>
  <polygon points="360.0,560.0 400.0,560.0 360.0,586.7" fill="rgb(3,69,42)"/>
  <polygon points="400.0,560.0 400.0,586.7 360.0,586.7" fill="rgb(3,56,33)"/>
  <polygon points="400.0,533.3 480.0,533.3 400.0,586.7" fill="rgb(42,46,55)"/>
  <polygon points="480.0,533.3 480.0,586.7 400.0,586.7" fill="rgb(9,97,53)"/>
  <polygon points="320.0,586.7 400.0,586.7 400.0,640.0" fill="rgb(9,97,53)"/>
  <polygon points="320.0,586.7 400.0,640.0 320.0,640.0" fill="rgb(75,166,132)"/>
  <polygon points="400.0,586.7 480.0,586.7 400.0,640.0" fill="rgb(180,105,50)"/>
  <polygon points="480.0,586.7 480.0,640.0 400.0,640.0" fill="rgb(217,138,70)"/>
  <polygon points="480.0,533.3 640.0,533.3 640.0,640.0" fill="rgb(75,166,132)"/>
  <polygon points="480.0,533.3 640.0,640.0 480.0,640.0" fill="rgb(140,180,154)"/>
  <polygon points="640.0,426.7 800.0,426.7 800.0,533.3" fill="rgb(9,97,53)"/>
  <polygon points="640.0,426.7 800.0,533.3 640.0,533.3" fill="rgb(3,69,42)"/>
  <polygon points="800.0,426.7 960.0,426.7 800.0,533.3" fill="rgb(236,99,36)"/>
  <polygon points="960.0,426.7 960.0,533.3 800.0,533.3" fill="rgb(3,56,33)"/>
  <polygon points="640.0,533.3 680.0,533.3 640.0,560.0" fill="rgb(180,105,50)"/>
  <polygon points="680.0,533.3 680.0,560.0 640.0,560.0" fill="rgb(9,97,53)"/>
  <polygon points="680.0,533.3 720.0,533.3 680.0,560.0" fill="rgb(236,99,36)"/>
  <polygon points="720.0,533.3 720.0,560.0 680.0,560.0" fill="rgb(42,46,55)"/>
  <polygon points="640.0,560.0 680.0,560.0 680.0,586.7" fill="rgb(180,105,50)"/>
  <polygon points="640.0,560.0 680.0,586.7 640.0,586.7" fill="rgb(217,138,70)"/>
  <polygon points="680.0,560.0 720.0,560.0 720.0,586.7" fill="rgb(3,56,33)"/>
  <polygon points="680.0,560.0 720.0,586.7 680.0,586.7" fill="rgb(217,138,70)"/>
  <polygon points="720.0,533.3 800.0,533.3 720.0,586.7" fill="rgb(9,97,53)"/>
  <polygon points="800.0,533.3 800.0,586.7 720.0,586.7" fill="rgb(9,97,53)"/>
  <polygon points="640.0,586.7 680.0,586.7 640.0,613.3" fill="rgb(217,138,70)"/>
  <polygon points="680.0,586.7 680.0,613.3 640.0,613.3" fill="rgb(42,46,55)"/>
  <polygon points="680.0,586.7 720.0,586.7 720.0,613.3" fill="rgb(26,128,80)"/>
  <polygon points="680.0,586.7 720.0,613.3 680.0,613.3" fill="rgb(236,99,36)"/>
  <polygon points="640.0,613.3 680.0,613.3 680.0,640.0" fill="rgb(75,166,132)"/>
  <polygon points="640.0,613.3 680.0,640.0 640.0,640.0" fill="rgb(9,97,53)"/>
  <polygon points="680.0,613.3 720.0,613.3 720.0,640.0" fill="rgb(3,69,42)"/>
  <polygon points="680.0,613.3 720.0,640.0 680.0,640.0" fill="rgb(42,46,55)"/>
  <polygon points="720.0,586.7 800.0,586.7 800.0,640.0" fill="rgb(180,105,50)"/>
  <polygon points="720.0,586.7 800.0,640.0 720.0,640.0" fill="rgb(9,97,53)"/>
  <polygon points="800.0,533.3 960.0,533.3 800.0,640.0" fill="rgb(75,166,132)"/>
  <polygon points="960.0,533.3 960.0,640.0 800.0,640.0" fill="rgb(3,69,42)"/>
  <polygon points="960.0,426.7 1040.0,426.7 960.0,480.0" fill="rgb(26,128,80)"/>
  <polygon points="1040.0,426.7 1040.0,480.0 960.0,480.0" fill="rgb(236,99,36)"/>
  <polygon points="1040.0,426.7 1120.0,426.7 1040.0,480.0" fill="rgb(42,46,55)"/>
  <polygon points="1120.0,426.7 1120.0,480.0 1040.0,480.0" fill="rgb(3,69,42)"/>
  <polygon points="960.0,480.0 1040.0,480.0 960.0,533.3" fill="rgb(9,97,53)"/>
  <polygon points="1040.0,480.0 1040.0,533.3 960.0,533.3" fill="rgb(236,99,36)"/>
  <polygon points="1040.0,480.0 1120.0,480.0 1120.0,533.3" fill="rgb(236,99,36)"/>
  <polygon points="1040.0,480.0 1120.0,533.3 1040.0,533.3" fill="rgb(140,180,154)"/>
  <polygon points="1120.0,426.7 1280.0,426.7 1120.0,533.3" fill="rgb(236,99,36)"/>
  <polygon points="1280.0,426.7 1280.0,533.3 1120.0,533.3" fill="rgb(180,105,50)"/>
  <polygon points="960.0,533.3 1040.0,533.3 1040.0,586.7" fill="rgb(9,97,53)"/>
  <polygon points="960.0,533.3 1040.0,586.7 960.0,586.7" fill="rgb(9,97,53)"/>
  <polygon points="1040.0,533.3 1080.0,533.3 1040.0,560.0" fill="rgb(3,56,33)"/>
  <polygon points="1080.0,533.3 1080.0,560.0 1040.0,560.0" fill="rgb(42,46,55)"/>
  <polygon points="1080.0,533.3 1120.0,533.3 1120.0,560.0" fill="rgb(9,97,53)"/>
  <polygon points="1080.0,533.3 1120.0,560.0 1080.0,560.0" fill="rgb(9,97,53)"/>
  <polygon points="1040.0,560.0 1080.0,560.0 1040.0,586.7" fill="rgb(9,97,53)"/>
  <polygon points="1080.0,560.0 1080.0,586.7 1040.0,586.7" fill="rgb(140,180,154)"/>
  <polygon points="1080.0,560.0 1120.0,560.0 1080.0,586.7" fill="rgb(9,97,53)"/>
  <polygon points="1120.0,560.0 1120.0,586.7 1080.0,586.7" fill="rgb(236,99,36)"/>
  <polygon points="960.0,586.7 1000.0,586.7 1000.0,613.3" fill="rgb(75,166,132)"/>
  <polygon points="960.0,586.7 1000.0,613.3 960.0,613.3" fill="rgb(180,105,50)"/>
  <polygon points="1000.0,586.7 1040.0,586.7 1000.0,613.3" fill="rgb(3,69,42)"/>
  <polygon points="1040.0,586.7 1040.0,613.3 1000.0,613.3" fill="rgb(180,105,50)"/>
  <polygon points="960.0,613.3 1000.0,613.3 960.0,640.0" fill="rgb(140,180,154)"/>
  <polygon points="1000.0,613.3 1000.0,640.0 960.0,640.0" fill="rgb(75,166,132)"/>
  <polygon points="1000.0,613.3 1040.0,613.3 1040.0,640.0" fill="rgb(236,99,36)"/>
  <polygon points="1000.0,613.3 1040.0,640.0 1000.0,640.0" fill="rgb(217,138,70)"/>
  <polygon points="1040.0,586.7 1120.0,586.7 1120.0,640.0" fill="rgb(9,97,53)"/>
  <polygon points="1040.0,586.7 1120.0,640.0 1040.0,640.0" fill="rgb(236,99,36)"/>
  <polygon points="1120.0,533.3 1280.0,533.3 1280.0,640.0" fill="rgb(75,166,132)"/>
  <polygon points="1120.0,533.3 1280.0,640.0 1120.0,640.0" fill="rgb(140,180,154)"/>
  <polygon points="1280.0,426.7 1440.0,426.7 1280.0,533.3" fill="rgb(3,69,42)"/>
  <polygon points="1440.0,426.7 1440.0,533.3 1280.0,533.3" fill="rgb(3,69,42)"/>
  <polygon points="1440.0,426.7 1600.0,426.7 1440.0,533.3" fill="rgb(217,138,70)"/>
  <polygon points="1600.0,426.7 1600.0,533.3 1440.0,533.3" fill="rgb(3,69,42)"/>
  <polygon points="1280.0,533.3 1440.0,533.3 1280.0,640.0" fill="rgb(180,105,50)"/>
  <polygon points="1440.0,533.3 1440.0,640.0 1280.0,640.0" fill="rgb(3,69,42)"/>
  <polygon points="1440.0,533.3 1520.0,533.3 1440.0,586.7" fill="rgb(180,105,50)"/>
  <polygon points="1520.0,533.3 1520.0,586.7 1440.0,586.7" fill="rgb(236,99,36)"/>
  <polygon points="1520.0,533.3 1600.0,533.3 1520.0,586.7" fill="rgb(217,138,70)"/>
  <polygon points="1600.0,533.3 1600.0,586.7 1520.0,586.7" fill="rgb(180,105,50)"/>
  <polygon points="1440.0,586.7 1520.0,586.7 1520.0,640.0" fill="rgb(3,69,42)"/>
  <polygon points="1440.0,586.7 1520.0,640.0 1440.0,640.0" fill="rgb(140,180,154)"/>
  <polygon points="1520.0,586.7 1600.0,586.7 1520.0,640.0" fill="rgb(9,97,53)"/>
  <polygon points="1600.0,586.7 1600.0,640.0 1520.0,640.0" fill="rgb(3,56,33)"/>
  <polygon points="1600.0,426.7 1680.0,426.7 1680.0,480.0" fill="rgb(9,97,53)"/>
  <polygon points="1600.0,426.7 1680.0,480.0 1600.0,480.0" fill="rgb(75,166,132)"/>
  <polygon points="1680.0,426.7 1720.0,426.7 1720.0,453.3" fill="rgb(3,56,33)"/>
  <polygon points="1680.0,426.7 1720.0,453.3 1680.0,453.3" fill="rgb(9,97,53)"/>
  <polygon points="1720.0,426.7 1760.0,426.7 1760.0,453.3" fill="rgb(3,69,42)"/>
  <polygon points="1720.0,426.7 1760.0,453.3 1720.0,453.3" fill="rgb(75,166,132)"/>
  <polygon points="1680.0,453.3 1720.0,453.3 1680.0,480.0" fill="rgb(26,128,80)"/>
  <polygon points="1720.0,453.3 1720.0,480.0 1680.0,480.0" fill="rgb(26,128,80)"/>
  <polygon points="1720.0,453.3 1760.0,453.3 1760.0,480.0" fill="rgb(217,138,70)"/>
  <polygon points="1720.0,453.3 1760.0,480.0 1720.0,480.0" fill="rgb(42,46,55)"/>
  <polygon points="1600.0,480.0 1640.0,480.0 1640.0,506.7" fill="rgb(140,180,154)"/>
  <polygon points="1600.0,480.0 1640.0,506.7 1600.0,506.7" fill="rgb(75,166,132)"/>
  <polygon points="1640.0,480.0 1680.0,480.0 1640.0,506.7" fill="rgb(180,105,50)"/>
  <polygon points="1680.0,480.0 1680.0,506.7 1640.0,506.7" fill="rgb(217,138,70)"/>
  <polygon points="1600.0,506.7 1640.0,506.7 1600.0,533.3" fill="rgb(180,105,50)"/>
  <polygon points="1640.0,506.7 1640.0,533.3 1600.0,533.3" fill="rgb(9,97,53)"/>
  <polygon points="1640.0,506.7 1680.0,506.7 1640.0,533.3" fill="rgb(180,105,50)"/>
  <polygon points="1680.0,506.7 1680.0,533.3 1640.0,533.3" fill="rgb(180,105,50)"/>
  <polygon points="1680.0,480.0 1760.0,480.0 1680.0,533.3" fill="rgb(9,97,53)"/>
  <polygon points="1760.0,480.0 1760.0,533.3 1680.0,533.3" fill="rgb(9,97,53)"/>
  <polygon points="1760.0,426.7 1920.0,426.7 1760.0,533.3" fill="rgb(9,97,53)"/>
  <polygon points="1920.0,426.7 1920.0,533.3 1760.0,533.3" fill="rgb(180,105,50)"/>
  <polygon points="1600.0,533.3 1680.0,533.3 1680.0,586.7" fill="rgb(3,69,42)"/>
  <polygon points="1600.0,533.3 1680.0,586.7 1600.0,586.7" fill="rgb(3,56,33)"/>
  <polygon points="1680.0,533.3 1720.0,533.3 1720.0,560.0" fill="rgb(9,97,53)"/>
  <polygon points="1680.0,533.3 1720.0,560.0 1680.0,560.0" fill="rgb(3,69,42)"/>
  <polygon points="1720.0,533.3 1760.0,533.3 1720.0,560.0" fill="rgb(217,138,70)"/>
  <polygon points="1760.0,533.3 1760.0,560.0 1720.0,560.0" fill="rgb(3,56,33)"/>
  <polygon points="1680.0,560.0 1720.0,560.0 1680.0,586.7" fill="rgb(9,97,53)"/>
  <polygon points="1720.0,560.0 1720.0,586.7 1680.0,586.7" fill="rgb(217,138,70)"/>
  <polygon points="1720.0,560.0 1760.0,560.0 1720.0,586.7" fill="rgb(217,138,70)"/>
  <polygon points="1760.0,560.0 1760.0,586.7 1720.0,586.7" fill="rgb(9,97,53)"/>
  <polygon points="1600.0,586.7 1680.0,586.7 1600.0,640.0" fill="rgb(9,97,53)"/>
  <polygon points="1680.0,586.7 1680.0,640.0 1600.0,640.0" fill="rgb(3,69,42)"/>
  <polygon points="1680.0,586.7 1760.0,586.7 1680.0,640.0" fill="rgb(217,138,70)"/>
  <polygon points="1760.0,586.7 1760.0,640.0 1680.0,640.0" fill="rgb(180,105,50)"/>
  <polygon points="1760.0,533.3 1800.0,533.3 1760.0,560.0" fill="rgb(217,138,70)"/>
  <polygon points="1800.0,533.3 1800.0,560.0 1760.0,560.0" fill="rgb(3,56,33)"/>
  <polygon points="1800.0,533.3 1840.0,533.3 1840.0,560.0" fill="rgb(3,69,42)"/>
  <polygon points="1800.0,533.3 1840.0,560.0 1800.0,560.0" fill="rgb(217,138,70)"/>
  <polygon points="1760.0,560.0 1800.0,560.0 1760.0,586.7" fill="rgb(236,99,36)"/>
  <polygon points="1800.0,560.0 1800.0,586.7 1760.0,586.7" fill="rgb(3,69,42)"/>
  <polygon points="1800.0,560.0 1840.0,560.0 1840.0,586.7" fill="rgb(42,46,55)"/>
  <polygon points="1800.0,560.0 1840.0,586.7 1800.0,586.7" fill="rgb(217,138,70)"/>
  <polygon points="1840.0,533.3 1920.0,533.3 1920.0,586.7" fill="rgb(236,99,36)"/>
  <polygon points="1840.0,533.3 1920.0,586.7 1840.0,586.7" fill="rgb(3,69,42)"/>
  <polygon points="1760.0,586.7 1840.0,586.7 1760.0,640.0" fill="rgb(140,180,154)"/>
  <polygon points="1840.0,586.7 1840.0,640.0 1760.0,640.0" fill="rgb(217,138,70)"/>
  <polygon points="1840.0,586.7 1920.0,586.7 1840.0,640.0" fill="rgb(140,180,154)"/>
  <polygon points="1920.0,586.7 1920.0,640.0 1840.0,640.0" fill="rgb(236,99,36)"/>
  <polygon points="0.0,0.0 768.0,0.0 576.0,640.0 0.0,640.0" fill="rgb(250,247,241)"/>
</svg>
