<?xml version="1.0" encoding="UTF-8" standalone="no"?>
<svg xmlns="http://www.w3.org/2000/svg" viewBox="0 0 1920 640" width="1920" height="640">
  <title>v8-mosaic-bandes</title>
  <rect width="1920" height="640" fill="rgb(250,247,241)"/>
  <polygon points="0.0,0.0 60.0,0.0 60.0,80.0 0.0,80.0" fill="rgb(3,56,33)"/>
  <polygon points="0.0,80.0 60.0,80.0 60.0,160.0 0.0,160.0" fill="rgb(3,56,33)"/>
  <polygon points="0.0,160.0 60.0,160.0 60.0,239.8 0.0,239.8" fill="rgb(3,69,42)"/>
  <polygon points="0.0,239.8 60.0,239.8 60.0,320.0 0.0,320.0" fill="rgb(26,128,80)"/>
  <polygon points="0.0,320.0 60.0,320.0 60.0,413.4 0.0,413.4" fill="rgb(9,97,53)"/>
  <polygon points="0.0,413.4 60.0,413.4 60.0,480.0 0.0,480.0" fill="rgb(75,166,132)"/>
  <polygon points="0.0,480.0 60.0,480.0 60.0,543.6 0.0,543.6" fill="rgb(26,128,80)"/>
  <polygon points="0.0,543.6 60.0,543.6 60.0,640.0 0.0,640.0" fill="rgb(140,180,154)"/>
  <polygon points="60.0,0.0 120.0,0.0 120.0,80.0 60.0,80.0" fill="rgb(3,69,42)"/>
  <polygon points="60.0,80.0 120.0,80.0 120.0,160.0 60.0,160.0" fill="rgb(9,97,53)"/>
  <polygon points="60.0,160.0 120.0,160.0 120.0,231.6 60.0,231.6" fill="rgb(9,97,53)"/>
  <polygon points="60.0,231.6 120.0,231.6 120.0,320.0 60.0,320.0" fill="rgb(217,138,70)"/>
  <polygon points="60.0,320.0 120.0,320.0 120.0,415.4 60.0,415.4" fill="rgb(26,128,80)"/>
  <polygon points="60.0,415.4 120.0,415.4 120.0,480.0 60.0,480.0" fill="rgb(180,105,50)"/>
  <polygon points="60.0,480.0 120.0,480.0 120.0,558.7 60.0,558.7" fill="rgb(236,99,36)"/>
  <polygon points="60.0,558.7 120.0,558.7 120.0,640.0 60.0,640.0" fill="rgb(9,97,53)"/>
  <polygon points="120.0,0.0 180.0,0.0 180.0,80.0 120.0,80.0" fill="rgb(9,97,53)"/>
  <polygon points="120.0,80.0 180.0,80.0 180.0,160.0 120.0,160.0" fill="rgb(236,99,36)"/>
  <polygon points="120.0,160.0 180.0,160.0 180.0,248.7 120.0,248.7" fill="rgb(26,128,80)"/>
  <polygon points="120.0,248.7 180.0,248.7 180.0,320.0 120.0,320.0" fill="rgb(42,46,55)"/>
  <polygon points="120.0,320.0 180.0,320.0 180.0,414.5 120.0,414.5" fill="rgb(236,99,36)"/>
  <polygon points="120.0,414.5 180.0,414.5 180.0,480.0 120.0,480.0" fill="rgb(200,75,25)"/>
  <polygon points="120.0,480.0 180.0,480.0 180.0,569.6 120.0,569.6" fill="rgb(217,138,70)"/>
  <polygon points="120.0,569.6 180.0,569.6 180.0,640.0 120.0,640.0" fill="rgb(3,69,42)"/>
  <polygon points="180.0,0.0 240.0,0.0 240.0,80.0 180.0,80.0" fill="rgb(26,128,80)"/>
  <polygon points="180.0,80.0 240.0,80.0 240.0,160.0 180.0,160.0" fill="rgb(75,166,132)"/>
  <polygon points="180.0,160.0 240.0,160.0 240.0,238.2 180.0,238.2" fill="rgb(236,99,36)"/>
  <polygon points="180.0,238.2 240.0,238.2 240.0,320.0 180.0,320.0" fill="rgb(140,180,154)"/>
  <polygon points="180.0,320.0 240.0,320.0 240.0,391.3 180.0,391.3" fill="rgb(217,138,70)"/>
  <polygon points="180.0,391.3 240.0,391.3 240.0,480.0 180.0,480.0" fill="rgb(3,56,33)"/>
  <polygon points="180.0,480.0 240.0,480.0 240.0,544.3 180.0,544.3" fill="rgb(75,166,132)"/>
  <polygon points="180.0,544.3 240.0,544.3 240.0,640.0 180.0,640.0" fill="rgb(26,128,80)"/>
  <polygon points="240.0,0.0 300.0,0.0 300.0,80.0 240.0,80.0" fill="rgb(236,99,36)"/>
  <polygon points="240.0,80.0 300.0,80.0 300.0,160.0 240.0,160.0" fill="rgb(180,105,50)"/>
  <polygon points="240.0,160.0 300.0,160.0 300.0,238.2 240.0,238.2" fill="rgb(217,138,70)"/>
  <polygon points="240.0,238.2 300.0,238.2 300.0,320.0 240.0,320.0" fill="rgb(9,97,53)"/>
  <polygon points="240.0,320.0 300.0,320.0 300.0,397.7 240.0,397.7" fill="rgb(75,166,132)"/>
  <polygon points="240.0,397.7 300.0,397.7 300.0,480.0 240.0,480.0" fill="rgb(9,97,53)"/>
  <polygon points="240.0,480.0 300.0,480.0 300.0,554.0 240.0,554.0" fill="rgb(42,46,55)"/>
  <polygon points="240.0,554.0 300.0,554.0 300.0,640.0 240.0,640.0" fill="rgb(217,138,70)"/>
  <polygon points="300.0,0.0 360.0,0.0 360.0,80.0 300.0,80.0" fill="rgb(217,138,70)"/>
  <polygon points="300.0,80.0 360.0,80.0 360.0,160.0 300.0,160.0" fill="rgb(200,75,25)"/>
  <polygon points="300.0,160.0 360.0,160.0 360.0,236.8 300.0,236.8" fill="rgb(75,166,132)"/>
  <polygon points="300.0,236.8 360.0,236.8 360.0,320.0 300.0,320.0" fill="rgb(3,69,42)"/>
  <polygon points="300.0,320.0 360.0,320.0 360.0,406.7 300.0,406.7" fill="rgb(42,46,55)"/>
  <polygon points="300.0,406.7 360.0,406.7 360.0,480.0 300.0,480.0" fill="rgb(236,99,36)"/>
  <polygon points="300.0,480.0 360.0,480.0 360.0,548.2 300.0,548.2" fill="rgb(180,105,50)"/>
  <polygon points="300.0,548.2 360.0,548.2 360.0,640.0 300.0,640.0" fill="rgb(42,46,55)"/>
  <polygon points="360.0,0.0 420.0,0.0 420.0,80.0 360.0,80.0" fill="rgb(75,166,132)"/>
  <polygon points="360.0,80.0 420.0,80.0 420.0,160.0 360.0,160.0" fill="rgb(3,56,33)"/>
  <polygon points="360.0,160.0 420.0,160.0 420.0,259.2 360.0,259.2" fill="rgb(42,46,55)"/>
  <polygon points="360.0,259.2 420.0,259.2 420.0,320.0 360.0,320.0" fill="rgb(26,128,80)"/>
  <polygon points="360.0,320.0 420.0,320.0 420.0,387.6 360.0,387.6" fill="rgb(180,105,50)"/>
  <polygon points="360.0,387.6 420.0,387.6 420.0,480.0 360.0,480.0" fill="rgb(75,166,132)"/>
  <polygon points="360.0,480.0 420.0,480.0 420.0,562.9 360.0,562.9" fill="rgb(140,180,154)"/>
  <polygon points="360.0,562.9 420.0,562.9 420.0,640.0 360.0,640.0" fill="rgb(140,180,154)"/>
  <polygon points="420.0,0.0 480.0,0.0 480.0,80.0 420.0,80.0" fill="rgb(42,46,55)"/>
  <polygon points="420.0,80.0 480.0,80.0 480.0,160.0 420.0,160.0" fill="rgb(9,97,53)"/>
  <polygon points="420.0,160.0 480.0,160.0 480.0,220.8 420.0,220.8" fill="rgb(180,105,50)"/>
  <polygon points="420.0,220.8 480.0,220.8 480.0,320.0 420.0,320.0" fill="rgb(217,138,70)"/>
  <polygon points="420.0,320.0 480.0,320.0 480.0,411.8 420.0,411.8" fill="rgb(140,180,154)"/>
  <polygon points="420.0,411.8 480.0,411.8 480.0,480.0 420.0,480.0" fill="rgb(180,105,50)"/>
  <polygon points="420.0,480.0 480.0,480.0 480.0,572.4 420.0,572.4" fill="rgb(200,75,25)"/>
  <polygon points="420.0,572.4 480.0,572.4 480.0,640.0 420.0,640.0" fill="rgb(9,97,53)"/>
  <polygon points="480.0,0.0 540.0,0.0 540.0,80.0 480.0,80.0" fill="rgb(180,105,50)"/>
  <polygon points="480.0,80.0 540.0,80.0 540.0,160.0 480.0,160.0" fill="rgb(236,99,36)"/>
  <polygon points="480.0,160.0 540.0,160.0 540.0,251.3 480.0,251.3" fill="rgb(140,180,154)"/>
  <polygon points="480.0,251.3 540.0,251.3 540.0,320.0 480.0,320.0" fill="rgb(42,46,55)"/>
  <polygon points="480.0,320.0 540.0,320.0 540.0,388.1 480.0,388.1" fill="rgb(200,75,25)"/>
  <polygon points="480.0,388.1 540.0,388.1 540.0,480.0 480.0,480.0" fill="rgb(200,75,25)"/>
  <polygon points="480.0,480.0 540.0,480.0 540.0,576.7 480.0,576.7" fill="rgb(9,97,53)"/>
  <polygon points="480.0,576.7 540.0,576.7 540.0,640.0 480.0,640.0" fill="rgb(3,69,42)"/>
  <polygon points="540.0,0.0 600.0,0.0 600.0,80.0 540.0,80.0" fill="rgb(140,180,154)"/>
  <polygon points="540.0,80.0 600.0,80.0 600.0,160.0 540.0,160.0" fill="rgb(75,166,132)"/>
  <polygon points="540.0,160.0 600.0,160.0 600.0,224.1 540.0,224.1" fill="rgb(200,75,25)"/>
  <polygon points="540.0,224.1 600.0,224.1 600.0,320.0 540.0,320.0" fill="rgb(140,180,154)"/>
  <polygon points="540.0,320.0 600.0,320.0 600.0,392.0 540.0,392.0" fill="rgb(9,97,53)"/>
  <polygon points="540.0,392.0 600.0,392.0 600.0,480.0 540.0,480.0" fill="rgb(3,56,33)"/>
  <polygon points="540.0,480.0 600.0,480.0 600.0,567.0 540.0,567.0" fill="rgb(3,56,33)"/>
  <polygon points="540.0,567.0 600.0,567.0 600.0,640.0 540.0,640.0" fill="rgb(26,128,80)"/>
  <polygon points="600.0,0.0 660.0,0.0 660.0,80.0 600.0,80.0" fill="rgb(200,75,25)"/>
  <polygon points="600.0,80.0 660.0,80.0 660.0,160.0 600.0,160.0" fill="rgb(180,105,50)"/>
  <polygon points="600.0,160.0 660.0,160.0 660.0,227.9 600.0,227.9" fill="rgb(9,97,53)"/>
  <polygon points="600.0,227.9 660.0,227.9 660.0,320.0 600.0,320.0" fill="rgb(9,97,53)"/>
  <polygon points="600.0,320.0 660.0,320.0 660.0,401.1 600.0,401.1" fill="rgb(3,56,33)"/>
  <polygon points="600.0,401.1 660.0,401.1 660.0,480.0 600.0,480.0" fill="rgb(9,97,53)"/>
  <polygon points="600.0,480.0 660.0,480.0 660.0,562.6 600.0,562.6" fill="rgb(3,69,42)"/>
  <polygon points="600.0,562.6 660.0,562.6 660.0,640.0 600.0,640.0" fill="rgb(217,138,70)"/>
  <polygon points="660.0,0.0 720.0,0.0 720.0,80.0 660.0,80.0" fill="rgb(9,97,53)"/>
  <polygon points="660.0,80.0 720.0,80.0 720.0,160.0 660.0,160.0" fill="rgb(200,75,25)"/>
  <polygon points="660.0,160.0 720.0,160.0 720.0,238.2 660.0,238.2" fill="rgb(3,56,33)"/>
  <polygon points="660.0,238.2 720.0,238.2 720.0,320.0 660.0,320.0" fill="rgb(3,69,42)"/>
  <polygon points="660.0,320.0 720.0,320.0 720.0,402.9 660.0,402.9" fill="rgb(3,69,42)"/>
  <polygon points="660.0,402.9 720.0,402.9 720.0,480.0 660.0,480.0" fill="rgb(236,99,36)"/>
  <polygon points="660.0,480.0 720.0,480.0 720.0,575.5 660.0,575.5" fill="rgb(9,97,53)"/>
  <polygon points="660.0,575.5 720.0,575.5 720.0,640.0 660.0,640.0" fill="rgb(42,46,55)"/>
  <polygon points="720.0,0.0 780.0,0.0 780.0,80.0 720.0,80.0" fill="rgb(3,56,33)"/>
  <polygon points="720.0,80.0 780.0,80.0 780.0,160.0 720.0,160.0" fill="rgb(3,56,33)"/>
  <polygon points="720.0,160.0 780.0,160.0 780.0,230.6 720.0,230.6" fill="rgb(3,69,42)"/>
  <polygon points="720.0,230.6 780.0,230.6 780.0,320.0 720.0,320.0" fill="rgb(26,128,80)"/>
  <polygon points="720.0,320.0 780.0,320.0 780.0,402.0 720.0,402.0" fill="rgb(9,97,53)"/>
  <polygon points="720.0,402.0 780.0,402.0 780.0,480.0 720.0,480.0" fill="rgb(75,166,132)"/>
  <polygon points="720.0,480.0 780.0,480.0 780.0,572.4 720.0,572.4" fill="rgb(26,128,80)"/>
  <polygon points="720.0,572.4 780.0,572.4 780.0,640.0 720.0,640.0" fill="rgb(140,180,154)"/>
  <polygon points="780.0,0.0 840.0,0.0 840.0,80.0 780.0,80.0" fill="rgb(3,69,42)"/>
  <polygon points="780.0,80.0 840.0,80.0 840.0,160.0 780.0,160.0" fill="rgb(9,97,53)"/>
  <polygon points="780.0,160.0 840.0,160.0 840.0,238.1 780.0,238.1" fill="rgb(9,97,53)"/>
  <polygon points="780.0,238.1 840.0,238.1 840.0,320.0 780.0,320.0" fill="rgb(217,138,70)"/>
  <polygon points="780.0,320.0 840.0,320.0 840.0,396.6 780.0,396.6" fill="rgb(26,128,80)"/>
  <polygon points="780.0,396.6 840.0,396.6 840.0,480.0 780.0,480.0" fill="rgb(180,105,50)"/>
  <polygon points="780.0,480.0 840.0,480.0 840.0,569.7 780.0,569.7" fill="rgb(236,99,36)"/>
  <polygon points="780.0,569.7 840.0,569.7 840.0,640.0 780.0,640.0" fill="rgb(9,97,53)"/>
  <polygon points="840.0,0.0 900.0,0.0 900.0,80.0 840.0,80.0" fill="rgb(9,97,53)"/>
  <polygon points="840.0,80.0 900.0,80.0 900.0,160.0 840.0,160.0" fill="rgb(236,99,36)"/>
  <polygon points="840.0,160.0 900.0,160.0 900.0,254.7 840.0,254.7" fill="rgb(26,128,80)"/>
  <polygon points="840.0,254.7 900.0,254.7 900.0,320.0 840.0,320.0" fill="rgb(42,46,55)"/>
  <polygon points="840.0,320.0 900.0,320.0 900.0,404.3 840.0,404.3" fill="rgb(236,99,36)"/>
  <polygon points="840.0,404.3 900.0,404.3 900.0,480.0 840.0,480.0" fill="rgb(200,75,25)"/>
  <polygon points="840.0,480.0 900.0,480.0 900.0,565.6 840.0,565.6" fill="rgb(217,138,70)"/>
  <polygon points="840.0,565.6 900.0,565.6 900.0,640.0 840.0,640.0" fill="rgb(3,69,42)"/>
  <polygon points="900.0,0.0 960.0,0.0 960.0,80.0 900.0,80.0" fill="rgb(26,128,80)"/>
  <polygon points="900.0,80.0 960.0,80.0 960.0,160.0 900.0,160.0" fill="rgb(75,166,132)"/>
  <polygon points="900.0,160.0 960.0,160.0 960.0,234.4 900.0,234.4" fill="rgb(236,99,36)"/>
  <polygon points="900.0,234.4 960.0,234.4 960.0,320.0 900.0,320.0" fill="rgb(140,180,154)"/>
  <polygon points="900.0,320.0 960.0,320.0 960.0,394.9 900.0,394.9" fill="rgb(217,138,70)"/>
  <polygon points="900.0,394.9 960.0,394.9 960.0,480.0 900.0,480.0" fill="rgb(3,56,33)"/>
  <polygon points="900.0,480.0 960.0,480.0 960.0,542.5 900.0,542.5" fill="rgb(75,166,132)"/>
  <polygon points="900.0,542.5 960.0,542.5 960.0,640.0 900.0,640.0" fill="rgb(26,128,80)"/>
  <polygon points="960.0,0.0 1020.0,0.0 1020.0,80.0 960.0,80.0" fill="rgb(236,99,36)"/>
  <polygon points="960.0,80.0 1020.0,80.0 1020.0,160.0 960.0,160.0" fill="rgb(180,105,50)"/>
  <polygon points="960.0,160.0 1020.0,160.0 1020.0,224.0 960.0,224.0" fill="rgb(217,138,70)"/>
  <polygon points="960.0,224.0 1020.0,224.0 1020.0,320.0 960.0,320.0" fill="rgb(9,97,53)"/>
  <polygon points="960.0,320.0 1020.0,320.0 1020.0,392.7 960.0,392.7" fill="rgb(75,166,132)"/>
  <polygon points="960.0,392.7 1020.0,392.7 1020.0,480.0 960.0,480.0" fill="rgb(9,97,53)"/>
  <polygon points="960.0,480.0 1020.0,480.0 1020.0,562.6 960.0,562.6" fill="rgb(42,46,55)"/>
  <polygon points="960.0,562.6 1020.0,562.6 1020.0,640.0 960.0,640.0" fill="rgb(217,138,70)"/>
  <polygon points="1020.0,0.0 1080.0,0.0 1080.0,80.0 1020.0,80.0" fill="rgb(217,138,70)"/>
  <polygon points="1020.0,80.0 1080.0,80.0 1080.0,160.0 1020.0,160.0" fill="rgb(200,75,25)"/>
  <polygon points="1020.0,160.0 1080.0,160.0 1080.0,228.5 1020.0,228.5" fill="rgb(75,166,132)"/>
  <polygon points="1020.0,228.5 1080.0,228.5 1080.0,320.0 1020.0,320.0" fill="rgb(3,69,42)"/>
  <polygon points="1020.0,320.0 1080.0,320.0 1080.0,381.2 1020.0,381.2" fill="rgb(42,46,55)"/>
  <polygon points="1020.0,381.2 1080.0,381.2 1080.0,480.0 1020.0,480.0" fill="rgb(236,99,36)"/>
  <polygon points="1020.0,480.0 1080.0,480.0 1080.0,561.4 1020.0,561.4" fill="rgb(180,105,50)"/>
  <polygon points="1020.0,561.4 1080.0,561.4 1080.0,640.0 1020.0,640.0" fill="rgb(42,46,55)"/>
  <polygon points="1080.0,0.0 1140.0,0.0 1140.0,80.0 1080.0,80.0" fill="rgb(75,166,132)"/>
  <polygon points="1080.0,80.0 1140.0,80.0 1140.0,160.0 1080.0,160.0" fill="rgb(3,56,33)"/>
  <polygon points="1080.0,160.0 1140.0,160.0 1140.0,257.0 1080.0,257.0" fill="rgb(42,46,55)"/>
  <polygon points="1080.0,257.0 1140.0,257.0 1140.0,320.0 1080.0,320.0" fill="rgb(26,128,80)"/>
  <polygon points="1080.0,320.0 1140.0,320.0 1140.0,393.7 1080.0,393.7" fill="rgb(180,105,50)"/>
  <polygon points="1080.0,393.7 1140.0,393.7 1140.0,480.0 1080.0,480.0" fill="rgb(75,166,132)"/>
  <polygon points="1080.0,480.0 1140.0,480.0 1140.0,558.5 1080.0,558.5" fill="rgb(140,180,154)"/>
  <polygon points="1080.0,558.5 1140.0,558.5 1140.0,640.0 1080.0,640.0" fill="rgb(140,180,154)"/>
  <polygon points="1140.0,0.0 1200.0,0.0 1200.0,80.0 1140.0,80.0" fill="rgb(42,46,55)"/>
  <polygon points="1140.0,80.0 1200.0,80.0 1200.0,160.0 1140.0,160.0" fill="rgb(9,97,53)"/>
  <polygon points="1140.0,160.0 1200.0,160.0 1200.0,238.9 1140.0,238.9" fill="rgb(180,105,50)"/>
  <polygon points="1140.0,238.9 1200.0,238.9 1200.0,320.0 1140.0,320.0" fill="rgb(217,138,70)"/>
  <polygon points="1140.0,320.0 1200.0,320.0 1200.0,385.2 1140.0,385.2" fill="rgb(140,180,154)"/>
  <polygon points="1140.0,385.2 1200.0,385.2 1200.0,480.0 1140.0,480.0" fill="rgb(180,105,50)"/>
  <polygon points="1140.0,480.0 1200.0,480.0 1200.0,543.2 1140.0,543.2" fill="rgb(200,75,25)"/>
  <polygon points="1140.0,543.2 1200.0,543.2 1200.0,640.0 1140.0,640.0" fill="rgb(9,97,53)"/>
  <polygon points="1200.0,0.0 1260.0,0.0 1260.0,80.0 1200.0,80.0" fill="rgb(180,105,50)"/>
  <polygon points="1200.0,80.0 1260.0,80.0 1260.0,160.0 1200.0,160.0" fill="rgb(236,99,36)"/>
  <polygon points="1200.0,160.0 1260.0,160.0 1260.0,243.4 1200.0,243.4" fill="rgb(140,180,154)"/>
  <polygon points="1200.0,243.4 1260.0,243.4 1260.0,320.0 1200.0,320.0" fill="rgb(42,46,55)"/>
  <polygon points="1200.0,320.0 1260.0,320.0 1260.0,381.0 1200.0,381.0" fill="rgb(200,75,25)"/>
  <polygon points="1200.0,381.0 1260.0,381.0 1260.0,480.0 1200.0,480.0" fill="rgb(200,75,25)"/>
  <polygon points="1200.0,480.0 1260.0,480.0 1260.0,558.4 1200.0,558.4" fill="rgb(9,97,53)"/>
  <polygon points="1200.0,558.4 1260.0,558.4 1260.0,640.0 1200.0,640.0" fill="rgb(3,69,42)"/>
  <polygon points="1260.0,0.0 1320.0,0.0 1320.0,80.0 1260.0,80.0" fill="rgb(140,180,154)"/>
  <polygon points="1260.0,80.0 1320.0,80.0 1320.0,160.0 1260.0,160.0" fill="rgb(75,166,132)"/>
  <polygon points="1260.0,160.0 1320.0,160.0 1320.0,232.8 1260.0,232.8" fill="rgb(200,75,25)"/>
  <polygon points="1260.0,232.8 1320.0,232.8 1320.0,320.0 1260.0,320.0" fill="rgb(140,180,154)"/>
  <polygon points="1260.0,320.0 1320.0,320.0 1320.0,381.9 1260.0,381.9" fill="rgb(9,97,53)"/>
  <polygon points="1260.0,381.9 1320.0,381.9 1320.0,480.0 1260.0,480.0" fill="rgb(3,56,33)"/>
  <polygon points="1260.0,480.0 1320.0,480.0 1320.0,567.9 1260.0,567.9" fill="rgb(3,56,33)"/>
  <polygon points="1260.0,567.9 1320.0,567.9 1320.0,640.0 1260.0,640.0" fill="rgb(26,128,80)"/>
  <polygon points="1320.0,0.0 1380.0,0.0 1380.0,80.0 1320.0,80.0" fill="rgb(200,75,25)"/>
  <polygon points="1320.0,80.0 1380.0,80.0 1380.0,160.0 1320.0,160.0" fill="rgb(180,105,50)"/>
  <polygon points="1320.0,160.0 1380.0,160.0 1380.0,232.7 1320.0,232.7" fill="rgb(9,97,53)"/>
  <polygon points="1320.0,232.7 1380.0,232.7 1380.0,320.0 1320.0,320.0" fill="rgb(9,97,53)"/>
  <polygon points="1320.0,320.0 1380.0,320.0 1380.0,381.3 1320.0,381.3" fill="rgb(3,56,33)"/>
  <polygon points="1320.0,381.3 1380.0,381.3 1380.0,480.0 1320.0,480.0" fill="rgb(9,97,53)"/>
  <polygon points="1320.0,480.0 1380.0,480.0 1380.0,554.7 1320.0,554.7" fill="rgb(3,69,42)"/>
  <polygon points="1320.0,554.7 1380.0,554.7 1380.0,640.0 1320.0,640.0" fill="rgb(217,138,70)"/>
  <polygon points="1380.0,0.0 1440.0,0.0 1440.0,80.0 1380.0,80.0" fill="rgb(9,97,53)"/>
  <polygon points="1380.0,80.0 1440.0,80.0 1440.0,160.0 1380.0,160.0" fill="rgb(200,75,25)"/>
  <polygon points="1380.0,160.0 1440.0,160.0 1440.0,246.2 1380.0,246.2" fill="rgb(3,56,33)"/>
  <polygon points="1380.0,246.2 1440.0,246.2 1440.0,320.0 1380.0,320.0" fill="rgb(3,69,42)"/>
  <polygon points="1380.0,320.0 1440.0,320.0 1440.0,386.5 1380.0,386.5" fill="rgb(3,69,42)"/>
  <polygon points="1380.0,386.5 1440.0,386.5 1440.0,480.0 1380.0,480.0" fill="rgb(236,99,36)"/>
  <polygon points="1380.0,480.0 1440.0,480.0 1440.0,564.9 1380.0,564.9" fill="rgb(9,97,53)"/>
  <polygon points="1380.0,564.9 1440.0,564.9 1440.0,640.0 1380.0,640.0" fill="rgb(42,46,55)"/>
  <polygon points="1440.0,0.0 1500.0,0.0 1500.0,80.0 1440.0,80.0" fill="rgb(3,56,33)"/>
  <polygon points="1440.0,80.0 1500.0,80.0 1500.0,160.0 1440.0,160.0" fill="rgb(3,56,33)"/>
  <polygon points="1440.0,160.0 1500.0,160.0 1500.0,258.7 1440.0,258.7" fill="rgb(3,69,42)"/>
  <polygon points="1440.0,258.7 1500.0,258.7 1500.0,320.0 1440.0,320.0" fill="rgb(26,128,80)"/>
  <polygon points="1440.0,320.0 1500.0,320.0 1500.0,406.1 1440.0,406.1" fill="rgb(9,97,53)"/>
  <polygon points="1440.0,406.1 1500.0,406.1 1500.0,480.0 1440.0,480.0" fill="rgb(75,166,132)"/>
  <polygon points="1440.0,480.0 1500.0,480.0 1500.0,578.7 1440.0,578.7" fill="rgb(26,128,80)"/>
  <polygon points="1440.0,578.7 1500.0,578.7 1500.0,640.0 1440.0,640.0" fill="rgb(140,180,154)"/>
  <polygon points="1500.0,0.0 1560.0,0.0 1560.0,80.0 1500.0,80.0" fill="rgb(3,69,42)"/>
  <polygon points="1500.0,80.0 1560.0,80.0 1560.0,160.0 1500.0,160.0" fill="rgb(9,97,53)"/>
  <polygon points="1500.0,160.0 1560.0,160.0 1560.0,242.0 1500.0,242.0" fill="rgb(9,97,53)"/>
  <polygon points="1500.0,242.0 1560.0,242.0 1560.0,320.0 1500.0,320.0" fill="rgb(217,138,70)"/>
  <polygon points="1500.0,320.0 1560.0,320.0 1560.0,406.1 1500.0,406.1" fill="rgb(26,128,80)"/>
  <polygon points="1500.0,406.1 1560.0,406.1 1560.0,480.0 1500.0,480.0" fill="rgb(180,105,50)"/>
  <polygon points="1500.0,480.0 1560.0,480.0 1560.0,558.0 1500.0,558.0" fill="rgb(236,99,36)"/>
  <polygon points="1500.0,558.0 1560.0,558.0 1560.0,640.0 1500.0,640.0" fill="rgb(9,97,53)"/>
  <polygon points="1560.0,0.0 1620.0,0.0 1620.0,80.0 1560.0,80.0" fill="rgb(9,97,53)"/>
  <polygon points="1560.0,80.0 1620.0,80.0 1620.0,160.0 1560.0,160.0" fill="rgb(236,99,36)"/>
  <polygon points="1560.0,160.0 1620.0,160.0 1620.0,231.5 1560.0,231.5" fill="rgb(26,128,80)"/>
  <polygon points="1560.0,231.5 1620.0,231.5 1620.0,320.0 1560.0,320.0" fill="rgb(42,46,55)"/>
  <polygon points="1560.0,320.0 1620.0,320.0 1620.0,382.7 1560.0,382.7" fill="rgb(236,99,36)"/>
  <polygon points="1560.0,382.7 1620.0,382.7 1620.0,480.0 1560.0,480.0" fill="rgb(200,75,25)"/>
  <polygon points="1560.0,480.0 1620.0,480.0 1620.0,577.1 1560.0,577.1" fill="rgb(217,138,70)"/>
  <polygon points="1560.0,577.1 1620.0,577.1 1620.0,640.0 1560.0,640.0" fill="rgb(3,69,42)"/>
  <polygon points="1620.0,0.0 1680.0,0.0 1680.0,80.0 1620.0,80.0" fill="rgb(26,128,80)"/>
  <polygon points="1620.0,80.0 1680.0,80.0 1680.0,160.0 1620.0,160.0" fill="rgb(75,166,132)"/>
  <polygon points="1620.0,160.0 1680.0,160.0 1680.0,238.7 1620.0,238.7" fill="rgb(236,99,36)"/>
  <polygon points="1620.0,238.7 1680.0,238.7 1680.0,320.0 1620.0,320.0" fill="rgb(140,180,154)"/>
  <polygon points="1620.0,320.0 1680.0,320.0 1680.0,410.0 1620.0,410.0" fill="rgb(217,138,70)"/>
  <polygon points="1620.0,410.0 1680.0,410.0 1680.0,480.0 1620.0,480.0" fill="rgb(3,56,33)"/>
  <polygon points="1620.0,480.0 1680.0,480.0 1680.0,572.6 1620.0,572.6" fill="rgb(75,166,132)"/>
  <polygon points="1620.0,572.6 1680.0,572.6 1680.0,640.0 1620.0,640.0" fill="rgb(26,128,80)"/>
  <polygon points="1680.0,0.0 1740.0,0.0 1740.0,80.0 1680.0,80.0" fill="rgb(236,99,36)"/>
  <polygon points="1680.0,80.0 1740.0,80.0 1740.0,160.0 1680.0,160.0" fill="rgb(180,105,50)"/>
  <polygon points="1680.0,160.0 1740.0,160.0 1740.0,235.7 1680.0,235.7" fill="rgb(217,138,70)"/>
  <polygon points="1680.0,235.7 1740.0,235.7 1740.0,320.0 1680.0,320.0" fill="rgb(9,97,53)"/>
  <polygon points="1680.0,320.0 1740.0,320.0 1740.0,382.5 1680.0,382.5" fill="rgb(75,166,132)"/>
  <polygon points="1680.0,382.5 1740.0,382.5 1740.0,480.0 1680.0,480.0" fill="rgb(9,97,53)"/>
  <polygon points="1680.0,480.0 1740.0,480.0 1740.0,548.0 1680.0,548.0" fill="rgb(42,46,55)"/>
  <polygon points="1680.0,548.0 1740.0,548.0 1740.0,640.0 1680.0,640.0" fill="rgb(217,138,70)"/>
  <polygon points="1740.0,0.0 1800.0,0.0 1800.0,80.0 1740.0,80.0" fill="rgb(217,138,70)"/>
  <polygon points="1740.0,80.0 1800.0,80.0 1800.0,160.0 1740.0,160.0" fill="rgb(200,75,25)"/>
  <polygon points="1740.0,160.0 1800.0,160.0 1800.0,243.4 1740.0,243.4" fill="rgb(75,166,132)"/>
  <polygon points="1740.0,243.4 1800.0,243.4 1800.0,320.0 1740.0,320.0" fill="rgb(3,69,42)"/>
  <polygon points="1740.0,320.0 1800.0,320.0 1800.0,415.4 1740.0,415.4" fill="rgb(42,46,55)"/>
  <polygon points="1740.0,415.4 1800.0,415.4 1800.0,480.0 1740.0,480.0" fill="rgb(236,99,36)"/>
  <polygon points="1740.0,480.0 1800.0,480.0 1800.0,551.3 1740.0,551.3" fill="rgb(180,105,50)"/>
  <polygon points="1740.0,551.3 1800.0,551.3 1800.0,640.0 1740.0,640.0" fill="rgb(42,46,55)"/>
  <polygon points="1800.0,0.0 1860.0,0.0 1860.0,80.0 1800.0,80.0" fill="rgb(75,166,132)"/>
  <polygon points="1800.0,80.0 1860.0,80.0 1860.0,160.0 1800.0,160.0" fill="rgb(3,56,33)"/>
  <polygon points="1800.0,160.0 1860.0,160.0 1860.0,240.3 1800.0,240.3" fill="rgb(42,46,55)"/>
  <polygon points="1800.0,240.3 1860.0,240.3 1860.0,320.0 1800.0,320.0" fill="rgb(26,128,80)"/>
  <polygon points="1800.0,320.0 1860.0,320.0 1860.0,392.8 1800.0,392.8" fill="rgb(180,105,50)"/>
  <polygon points="1800.0,392.8 1860.0,392.8 1860.0,480.0 1800.0,480.0" fill="rgb(75,166,132)"/>
  <polygon points="1800.0,480.0 1860.0,480.0 1860.0,545.7 1800.0,545.7" fill="rgb(140,180,154)"/>
  <polygon points="1800.0,545.7 1860.0,545.7 1860.0,640.0 1800.0,640.0" fill="rgb(140,180,154)"/>
  <polygon points="1860.0,0.0 1920.0,0.0 1920.0,80.0 1860.0,80.0" fill="rgb(42,46,55)"/>
  <polygon points="1860.0,80.0 1920.0,80.0 1920.0,160.0 1860.0,160.0" fill="rgb(9,97,53)"/>
  <polygon points="1860.0,160.0 1920.0,160.0 1920.0,258.0 1860.0,258.0" fill="rgb(180,105,50)"/>
  <polygon points="1860.0,258.0 1920.0,258.0 1920.0,320.0 1860.0,320.0" fill="rgb(217,138,70)"/>
  <polygon points="1860.0,320.0 1920.0,320.0 1920.0,405.1 1860.0,405.1" fill="rgb(140,180,154)"/>
  <polygon points="1860.0,405.1 1920.0,405.1 1920.0,480.0 1860.0,480.0" fill="rgb(180,105,50)"/>
  <polygon points="1860.0,480.0 1920.0,480.0 1920.0,577.6 1860.0,577.6" fill="rgb(200,75,25)"/>
  <polygon points="1860.0,577.6 1920.0,577.6 1920.0,640.0 1860.0,640.0" fill="rgb(9,97,53)"/>
  <polygon points="0.0,0.0 768.0,0.0 576.0,640.0 0.0,640.0" fill="rgb(250,247,241)"/>
</svg>
