<?xml version="1.0" encoding="UTF-8" standalone="no"?>
<svg xmlns="http://www.w3.org/2000/svg" viewBox="0 0 1920 640" width="1920" height="640">
  <title>v8-mosaic-eclat-chaud</title>
  <rect width="1920" height="640" fill="rgb(250,247,241)"/>
  <polygon points="0.0,0.0 137.1,0.0 0.0,106.7" fill="rgb(217,138,70)"/>
  <polygon points="137.1,0.0 137.1,106.7 0.0,106.7" fill="rgb(217,138,70)"/>
  <polygon points="137.1,0.0 274.3,0.0 137.1,106.7" fill="rgb(42,46,55)"/>
  <polygon points="274.3,0.0 274.3,106.7 137.1,106.7" fill="rgb(42,46,55)"/>
  <polygon points="0.0,106.7 137.1,106.7 137.1,213.3" fill="rgb(217,138,70)"/>
  <polygon points="0.0,106.7 137.1,213.3 0.0,213.3" fill="rgb(200,75,25)"/>
  <polygon points="137.1,106.7 205.7,106.7 205.7,160.0" fill="rgb(170,65,18)"/>
  <polygon points="137.1,106.7 205.7,160.0 137.1,160.0" fill="rgb(200,75,25)"/>
  <polygon points="205.7,106.7 274.3,106.7 205.7,160.0" fill="rgb(200,75,25)"/>
  <polygon points="274.3,106.7 274.3,160.0 205.7,160.0" fill="rgb(180,105,50)"/>
  <polygon points="137.1,160.0 205.7,160.0 137.1,213.3" fill="rgb(217,138,70)"/>
  <polygon points="205.7,160.0 205.7,213.3 137.1,213.3" fill="rgb(3,69,42)"/>
  <polygon points="205.7,160.0 274.3,160.0 205.7,213.3" fill="rgb(3,69,42)"/>
  <polygon points="274.3,160.0 274.3,213.3 205.7,213.3" fill="rgb(3,69,42)"/>
  <polygon points="274.3,0.0 411.4,0.0 274.3,106.7" fill="rgb(180,105,50)"/>
  <polygon points="411.4,0.0 411.4,106.7 274.3,106.7" fill="rgb(245,145,95)"/>
  <polygon points="411.4,0.0 548.6,0.0 411.4,106.7" fill="rgb(210,95,50)"/>
  <polygon points="548.6,0.0 548.6,106.7 411.4,106.7" fill="rgb(200,75,25)"/>
  <polygon points="274.3,106.7 342.9,106.7 274.3,160.0" fill="rgb(210,95,50)"/>
  <polygon points="342.9,106.7 342.9,160.0 274.3,160.0" fill="rgb(217,138,70)"/>
  <polygon points="342.9,106.7 377.1,106.7 342.9,133.3" fill="rgb(180,105,50)"/>
  <polygon points="377.1,106.7 377.1,133.3 342.9,133.3" fill="rgb(42,46,55)"/>
  <polygon points="377.1,106.7 411.4,106.7 411.4,133.3" fill="rgb(217,138,70)"/>
  <polygon points="377.1,106.7 411.4,133.3 377.1,133.3" fill="rgb(217,138,70)"/>
  <polygon points="342.9,133.3 377.1,133.3 377.1,160.0" fill="rgb(180,105,50)"/>
  <polygon points="342.9,133.3 377.1,160.0 342.9,160.0" fill="rgb(200,75,25)"/>
  <polygon points="377.1,133.3 411.4,133.3 411.4,160.0" fill="rgb(200,75,25)"/>
  <polygon points="377.1,133.3 411.4,160.0 377.1,160.0" fill="rgb(3,69,42)"/>
  <polygon points="274.3,160.0 342.9,160.0 342.9,213.3" fill="rgb(200,75,25)"/>
  <polygon points="274.3,160.0 342.9,213.3 274.3,213.3" fill="rgb(42,46,55)"/>
  <polygon points="342.9,160.0 377.1,160.0 342.9,186.7" fill="rgb(180,105,50)"/>
  <polygon points="377.1,160.0 377.1,186.7 342.9,186.7" fill="rgb(210,95,50)"/>
  <polygon points="377.1,160.0 411.4,160.0 377.1,186.7" fill="rgb(245,145,95)"/>
  <polygon points="411.4,160.0 411.4,186.7 377.1,186.7" fill="rgb(200,75,25)"/>
  <polygon points="342.9,186.7 377.1,186.7 377.1,213.3" fill="rgb(180,105,50)"/>
  <polygon points="342.9,186.7 377.1,213.3 342.9,213.3" fill="rgb(217,138,70)"/>
  <polygon points="377.1,186.7 411.4,186.7 411.4,213.3" fill="rgb(217,138,70)"/>
  <polygon points="377.1,186.7 411.4,213.3 377.1,213.3" fill="rgb(200,75,25)"/>
  <polygon points="411.4,106.7 548.6,106.7 411.4,213.3" fill="rgb(217,138,70)"/>
  <polygon points="548.6,106.7 548.6,213.3 411.4,213.3" fill="rgb(200,75,25)"/>
  <polygon points="548.6,0.0 685.7,0.0 548.6,106.7" fill="rgb(217,138,70)"/>
  <polygon points="685.7,0.0 685.7,106.7 548.6,106.7" fill="rgb(217,138,70)"/>
  <polygon points="685.7,0.0 720.0,0.0 720.0,26.7" fill="rgb(200,75,25)"/>
  <polygon points="685.7,0.0 720.0,26.7 685.7,26.7" fill="rgb(236,99,36)"/>
  <polygon points="720.0,0.0 754.3,0.0 754.3,26.7" fill="rgb(245,145,95)"/>
  <polygon points="720.0,0.0 754.3,26.7 720.0,26.7" fill="rgb(42,46,55)"/>
  <polygon points="685.7,26.7 720.0,26.7 685.7,53.3" fill="rgb(180,105,50)"/>
  <polygon points="720.0,26.7 720.0,53.3 685.7,53.3" fill="rgb(245,145,95)"/>
  <polygon points="720.0,26.7 754.3,26.7 754.3,53.3" fill="rgb(217,138,70)"/>
  <polygon points="720.0,26.7 754.3,53.3 720.0,53.3" fill="rgb(180,105,50)"/>
  <polygon points="754.3,0.0 822.9,0.0 754.3,53.3" fill="rgb(200,75,25)"/>
  <polygon points="822.9,0.0 822.9,53.3 754.3,53.3" fill="rgb(42,46,55)"/>
  <polygon points="685.7,53.3 754.3,53.3 685.7,106.7" fill="rgb(236,99,36)"/>
  <polygon points="754.3,53.3 754.3,106.7 685.7,106.7" fill="rgb(170,65,18)"/>
  <polygon points="754.3,53.3 822.9,53.3 822.9,106.7" fill="rgb(170,65,18)"/>
  <polygon points="754.3,53.3 822.9,106.7 754.3,106.7" fill="rgb(180,105,50)"/>
  <polygon points="548.6,106.7 617.1,106.7 548.6,160.0" fill="rgb(200,75,25)"/>
  <polygon points="617.1,106.7 617.1,160.0 548.6,160.0" fill="rgb(180,105,50)"/>
  <polygon points="617.1,106.7 685.7,106.7 685.7,160.0" fill="rgb(217,138,70)"/>
  <polygon points="617.1,106.7 685.7,160.0 617.1,160.0" fill="rgb(180,105,50)"/>
  <polygon points="548.6,160.0 582.9,160.0 582.9,186.7" fill="rgb(42,46,55)"/>
  <polygon points="548.6,160.0 582.9,186.7 548.6,186.7" fill="rgb(217,138,70)"/>
  <polygon points="582.9,160.0 617.1,160.0 617.1,186.7" fill="rgb(217,138,70)"/>
  <polygon points="582.9,160.0 617.1,186.7 582.9,186.7" fill="rgb(217,138,70)"/>
  <polygon points="548.6,186.7 582.9,186.7 582.9,213.3" fill="rgb(217,138,70)"/>
  <polygon points="548.6,186.7 582.9,213.3 548.6,213.3" fill="rgb(170,65,18)"/>
  <polygon points="582.9,186.7 617.1,186.7 617.1,213.3" fill="rgb(3,69,42)"/>
  <polygon points="582.9,186.7 617.1,213.3 582.9,213.3" fill="rgb(245,145,95)"/>
  <polygon points="617.1,160.0 651.4,160.0 617.1,186.7" fill="rgb(42,46,55)"/>
  <polygon points="651.4,160.0 651.4,186.7 617.1,186.7" fill="rgb(217,138,70)"/>
  <polygon points="651.4,160.0 685.7,160.0 651.4,186.7" fill="rgb(200,75,25)"/>
  <polygon points="685.7,160.0 685.7,186.7 651.4,186.7" fill="rgb(200,75,25)"/>
  <polygon points="617.1,186.7 651.4,186.7 651.4,213.3" fill="rgb(42,46,55)"/>
  <polygon points="617.1,186.7 651.4,213.3 617.1,213.3" fill="rgb(180,105,50)"/>
  <polygon points="651.4,186.7 685.7,186.7 685.7,213.3" fill="rgb(180,105,50)"/>
  <polygon points="651.4,186.7 685.7,213.3 651.4,213.3" fill="rgb(200,75,25)"/>
  <polygon points="685.7,106.7 754.3,106.7 685.7,160.0" fill="rgb(170,65,18)"/>
  <polygon points="754.3,106.7 754.3,160.0 685.7,160.0" fill="rgb(217,138,70)"/>
  <polygon points="754.3,106.7 822.9,106.7 822.9,160.0" fill="rgb(236,99,36)"/>
  <polygon points="754.3,106.7 822.9,160.0 754.3,160.0" fill="rgb(180,105,50)"/>
  <polygon points="685.7,160.0 720.0,160.0 720.0,186.7" fill="rgb(210,95,50)"/>
  <polygon points="685.7,160.0 720.0,186.7 685.7,186.7" fill="rgb(3,69,42)"/>
  <polygon points="720.0,160.0 754.3,160.0 720.0,186.7" fill="rgb(200,75,25)"/>
  <polygon points="754.3,160.0 754.3,186.7 720.0,186.7" fill="rgb(3,69,42)"/>
  <polygon points="685.7,186.7 720.0,186.7 720.0,213.3" fill="rgb(200,75,25)"/>
  <polygon points="685.7,186.7 720.0,213.3 685.7,213.3" fill="rgb(42,46,55)"/>
  <polygon points="720.0,186.7 754.3,186.7 720.0,213.3" fill="rgb(200,75,25)"/>
  <polygon points="754.3,186.7 754.3,213.3 720.0,213.3" fill="rgb(3,69,42)"/>
  <polygon points="754.3,160.0 822.9,160.0 754.3,213.3" fill="rgb(170,65,18)"/>
  <polygon points="822.9,160.0 822.9,213.3 754.3,213.3" fill="rgb(217,138,70)"/>
  <polygon points="822.9,0.0 857.1,0.0 822.9,26.7" fill="rgb(217,138,70)"/>
  <polygon points="857.1,0.0 857.1,26.7 822.9,26.7" fill="rgb(200,75,25)"/>
  <polygon points="857.1,0.0 891.4,0.0 891.4,26.7" fill="rgb(200,75,25)"/>
  <polygon points="857.1,0.0 891.4,26.7 857.1,26.7" fill="rgb(42,46,55)"/>
  <polygon points="822.9,26.7 857.1,26.7 857.1,53.3" fill="rgb(180,105,50)"/>
  <polygon points="822.9,26.7 857.1,53.3 822.9,53.3" fill="rgb(42,46,55)"/>
  <polygon points="857.1,26.7 891.4,26.7 891.4,53.3" fill="rgb(200,75,25)"/>
  <polygon points="857.1,26.7 891.4,53.3 857.1,53.3" fill="rgb(217,138,70)"/>
  <polygon points="891.4,0.0 960.0,0.0 960.0,53.3" fill="rgb(245,145,95)"/>
  <polygon points="891.4,0.0 960.0,53.3 891.4,53.3" fill="rgb(3,69,42)"/>
  <polygon points="822.9,53.3 891.4,53.3 891.4,106.7" fill="rgb(42,46,55)"/>
  <polygon points="822.9,53.3 891.4,106.7 822.9,106.7" fill="rgb(217,138,70)"/>
  <polygon points="891.4,53.3 925.7,53.3 925.7,80.0" fill="rgb(3,69,42)"/>
  <polygon points="891.4,53.3 925.7,80.0 891.4,80.0" fill="rgb(236,99,36)"/>
  <polygon points="925.7,53.3 960.0,53.3 925.7,80.0" fill="rgb(200,75,25)"/>
  <polygon points="960.0,53.3 960.0,80.0 925.7,80.0" fill="rgb(236,99,36)"/>
  <polygon points="891.4,80.0 925.7,80.0 925.7,106.7" fill="rgb(170,65,18)"/>
  <polygon points="891.4,80.0 925.7,106.7 891.4,106.7" fill="rgb(170,65,18)"/>
  <polygon points="925.7,80.0 960.0,80.0 925.7,106.7" fill="rgb(217,138,70)"/>
  <polygon points="960.0,80.0 960.0,106.7 925.7,106.7" fill="rgb(180,105,50)"/>
  <polygon points="960.0,0.0 1097.1,0.0 1097.1,106.7" fill="rgb(170,65,18)"/>
  <polygon points="960.0,0.0 1097.1,106.7 960.0,106.7" fill="rgb(217,138,70)"/>
  <polygon points="822.9,106.7 960.0,106.7 822.9,213.3" fill="rgb(170,65,18)"/>
  <polygon points="960.0,106.7 960.0,213.3 822.9,213.3" fill="rgb(3,69,42)"/>
  <polygon points="960.0,106.7 1028.6,106.7 1028.6,160.0" fill="rgb(42,46,55)"/>
  <polygon points="960.0,106.7 1028.6,160.0 960.0,160.0" fill="rgb(217,138,70)"/>
  <polygon points="1028.6,106.7 1097.1,106.7 1028.6,160.0" fill="rgb(210,95,50)"/>
  <polygon points="1097.1,106.7 1097.1,160.0 1028.6,160.0" fill="rgb(170,65,18)"/>
  <polygon points="960.0,160.0 994.3,160.0 960.0,186.7" fill="rgb(200,75,25)"/>
  <polygon points="994.3,160.0 994.3,186.7 960.0,186.7" fill="rgb(180,105,50)"/>
  <polygon points="994.3,160.0 1028.6,160.0 994.3,186.7" fill="rgb(245,145,95)"/>
  <polygon points="1028.6,160.0 1028.6,186.7 994.3,186.7" fill="rgb(42,46,55)"/>
  <polygon points="960.0,186.7 994.3,186.7 960.0,213.3" fill="rgb(217,138,70)"/>
  <polygon points="994.3,186.7 994.3,213.3 960.0,213.3" fill="rgb(180,105,50)"/>
  <polygon points="994.3,186.7 1028.6,186.7 1028.6,213.3" fill="rgb(210,95,50)"/>
  <polygon points="994.3,186.7 1028.6,213.3 994.3,213.3" fill="rgb(245,145,95)"/>
  <polygon points="1028.6,160.0 1062.9,160.0 1028.6,186.7" fill="rgb(42,46,55)"/>
  <polygon points="1062.9,160.0 1062.9,186.7 1028.6,186.7" fill="rgb(170,65,18)"/>
  <polygon points="1062.9,160.0 1097.1,160.0 1097.1,186.7" fill="rgb(200,75,25)"/>
  <polygon points="1062.9,160.0 1097.1,186.7 1062.9,186.7" fill="rgb(180,105,50)"/>
  <polygon points="1028.6,186.7 1062.9,186.7 1062.9,213.3" fill="rgb(236,99,36)"/>
  <polygon points="1028.6,186.7 1062.9,213.3 1028.6,213.3" fill="rgb(236,99,36)"/>
  <polygon points="1062.9,186.7 1097.1,186.7 1062.9,213.3" fill="rgb(200,75,25)"/>
  <polygon points="1097.1,186.7 1097.1,213.3 1062.9,213.3" fill="rgb(42,46,55)"/>
  <polygon points="1097.1,0.0 1234.3,0.0 1234.3,106.7" fill="rgb(236,99,36)"/>
  <polygon points="1097.1,0.0 1234.3,106.7 1097.1,106.7" fill="rgb(42,46,55)"/>
  <polygon points="1234.3,0.0 1371.4,0.0 1371.4,106.7" fill="rgb(200,75,25)"/>
  <polygon points="1234.3,0.0 1371.4,106.7 1234.3,106.7" fill="rgb(170,65,18)"/>
  <polygon points="1097.1,106.7 1165.7,106.7 1097.1,160.0" fill="rgb(180,105,50)"/>
  <polygon points="1165.7,106.7 1165.7,160.0 1097.1,160.0" fill="rgb(245,145,95)"/>
  <polygon points="1165.7,106.7 1234.3,106.7 1234.3,160.0" fill="rgb(236,99,36)"/>
  <polygon points="1165.7,106.7 1234.3,160.0 1165.7,160.0" fill="rgb(3,69,42)"/>
  <polygon points="1097.1,160.0 1165.7,160.0 1165.7,213.3" fill="rgb(245,145,95)"/>
  <polygon points="1097.1,160.0 1165.7,213.3 1097.1,213.3" fill="rgb(217,138,70)"/>
  <polygon points="1165.7,160.0 1234.3,160.0 1234.3,213.3" fill="rgb(3,69,42)"/>
  <polygon points="1165.7,160.0 1234.3,213.3 1165.7,213.3" fill="rgb(217,138,70)"/>
  <polygon points="1234.3,106.7 1371.4,106.7 1234.3,213.3" fill="rgb(200,75,25)"/>
  <polygon points="1371.4,106.7 1371.4,213.3 1234.3,213.3" fill="rgb(170,65,18)"/>
  <polygon points="1371.4,0.0 1405.7,0.0 1371.4,26.7" fill="rgb(200,75,25)"/>
  <polygon points="1405.7,0.0 1405.7,26.7 1371.4,26.7" fill="rgb(170,65,18)"/>
  <polygon points="1405.7,0.0 1440.0,0.0 1440.0,26.7" fill="rgb(210,95,50)"/>
  <polygon points="1405.7,0.0 1440.0,26.7 1405.7,26.7" fill="rgb(180,105,50)"/>
  <polygon points="1371.4,26.7 1405.7,26.7 1405.7,53.3" fill="rgb(245,145,95)"/>
  <polygon points="1371.4,26.7 1405.7,53.3 1371.4,53.3" fill="rgb(217,138,70)"/>
  <polygon points="1405.7,26.7 1440.0,26.7 1405.7,53.3" fill="rgb(236,99,36)"/>
  <polygon points="1440.0,26.7 1440.0,53.3 1405.7,53.3" fill="rgb(170,65,18)"/>
  <polygon points="1440.0,0.0 1508.6,0.0 1440.0,53.3" fill="rgb(180,105,50)"/>
  <polygon points="1508.6,0.0 1508.6,53.3 1440.0,53.3" fill="rgb(217,138,70)"/>
  <polygon points="1371.4,53.3 1440.0,53.3 1440.0,106.7" fill="rgb(200,75,25)"/>
  <polygon points="1371.4,53.3 1440.0,106.7 1371.4,106.7" fill="rgb(236,99,36)"/>
  <polygon points="1440.0,53.3 1474.3,53.3 1440.0,80.0" fill="rgb(245,145,95)"/>
  <polygon points="1474.3,53.3 1474.3,80.0 1440.0,80.0" fill="rgb(200,75,25)"/>
  <polygon points="1474.3,53.3 1508.6,53.3 1474.3,80.0" fill="rgb(180,105,50)"/>
  <polygon points="1508.6,53.3 1508.6,80.0 1474.3,80.0" fill="rgb(180,105,50)"/>
  <polygon points="1440.0,80.0 1474.3,80.0 1440.0,106.7" fill="rgb(200,75,25)"/>
  <polygon points="1474.3,80.0 1474.3,106.7 1440.0,106.7" fill="rgb(180,105,50)"/>
  <polygon points="1474.3,80.0 1508.6,80.0 1508.6,106.7" fill="rgb(236,99,36)"/>
  <polygon points="1474.3,80.0 1508.6,106.7 1474.3,106.7" fill="rgb(42,46,55)"/>
  <polygon points="1508.6,0.0 1645.7,0.0 1645.7,106.7" fill="rgb(180,105,50)"/>
  <polygon points="1508.6,0.0 1645.7,106.7 1508.6,106.7" fill="rgb(236,99,36)"/>
  <polygon points="1371.4,106.7 1440.0,106.7 1440.0,160.0" fill="rgb(3,69,42)"/>
  <polygon points="1371.4,106.7 1440.0,160.0 1371.4,160.0" fill="rgb(200,75,25)"/>
  <polygon points="1440.0,106.7 1474.3,106.7 1474.3,133.3" fill="rgb(200,75,25)"/>
  <polygon points="1440.0,106.7 1474.3,133.3 1440.0,133.3" fill="rgb(180,105,50)"/>
  <polygon points="1474.3,106.7 1508.6,106.7 1474.3,133.3" fill="rgb(200,75,25)"/>
  <polygon points="1508.6,106.7 1508.6,133.3 1474.3,133.3" fill="rgb(217,138,70)"/>
  <polygon points="1440.0,133.3 1474.3,133.3 1474.3,160.0" fill="rgb(42,46,55)"/>
  <polygon points="1440.0,133.3 1474.3,160.0 1440.0,160.0" fill="rgb(217,138,70)"/>
  <polygon points="1474.3,133.3 1508.6,133.3 1508.6,160.0" fill="rgb(170,65,18)"/>
  <polygon points="1474.3,133.3 1508.6,160.0 1474.3,160.0" fill="rgb(245,145,95)"/>
  <polygon points="1371.4,160.0 1440.0,160.0 1440.0,213.3" fill="rgb(200,75,25)"/>
  <polygon points="1371.4,160.0 1440.0,213.3 1371.4,213.3" fill="rgb(180,105,50)"/>
  <polygon points="1440.0,160.0 1508.6,160.0 1508.6,213.3" fill="rgb(3,69,42)"/>
  <polygon points="1440.0,160.0 1508.6,213.3 1440.0,213.3" fill="rgb(200,75,25)"/>
  <polygon points="1508.6,106.7 1542.9,106.7 1508.6,133.3" fill="rgb(217,138,70)"/>
  <polygon points="1542.9,106.7 1542.9,133.3 1508.6,133.3" fill="rgb(180,105,50)"/>
  <polygon points="1542.9,106.7 1577.1,106.7 1542.9,133.3" fill="rgb(245,145,95)"/>
  <polygon points="1577.1,106.7 1577.1,133.3 1542.9,133.3" fill="rgb(170,65,18)"/>
  <polygon points="1508.6,133.3 1542.9,133.3 1508.6,160.0" fill="rgb(236,99,36)"/>
  <polygon points="1542.9,133.3 1542.9,160.0 1508.6,160.0" fill="rgb(210,95,50)"/>
  <polygon points="1542.9,133.3 1577.1,133.3 1542.9,160.0" fill="rgb(3,69,42)"/>
  <polygon points="1577.1,133.3 1577.1,160.0 1542.9,160.0" fill="rgb(217,138,70)"/>
  <polygon points="1577.1,106.7 1611.4,106.7 1611.4,133.3" fill="rgb(210,95,50)"/>
  <polygon points="1577.1,106.7 1611.4,133.3 1577.1,133.3" fill="rgb(245,145,95)"/>
  <polygon points="1611.4,106.7 1645.7,106.7 1611.4,133.3" fill="rgb(217,138,70)"/>
  <polygon points="1645.7,106.7 1645.7,133.3 1611.4,133.3" fill="rgb(180,105,50)"/>
  <polygon points="1577.1,133.3 1611.4,133.3 1577.1,160.0" fill="rgb(245,145,95)"/>
  <polygon points="1611.4,133.3 1611.4,160.0 1577.1,160.0" fill="rgb(200,75,25)"/>
  <polygon points="1611.4,133.3 1645.7,133.3 1645.7,160.0" fill="rgb(200,75,25)"/>
  <polygon points="1611.4,133.3 1645.7,160.0 1611.4,160.0" fill="rgb(200,75,25)"/>
  <polygon points="1508.6,160.0 1577.1,160.0 1508.6,213.3" fill="rgb(200,75,25)"/>
  <polygon points="1577.1,160.0 1577.1,213.3 1508.6,213.3" fill="rgb(217,138,70)"/>
  <polygon points="1577.1,160.0 1611.4,160.0 1611.4,186.7" fill="rgb(236,99,36)"/>
  <polygon points="1577.1,160.0 1611.4,186.7 1577.1,186.7" fill="rgb(245,145,95)"/>
  <polygon points="1611.4,160.0 1645.7,160.0 1645.7,186.7" fill="rgb(217,138,70)"/>
  <polygon points="1611.4,160.0 1645.7,186.7 1611.4,186.7" fill="rgb(200,75,25)"/>
  <polygon points="1577.1,186.7 1611.4,186.7 1577.1,213.3" fill="rgb(217,138,70)"/>
  <polygon points="1611.4,186.7 1611.4,213.3 1577.1,213.3" fill="rgb(3,69,42)"/>
  <polygon points="1611.4,186.7 1645.7,186.7 1611.4,213.3" fill="rgb(236,99,36)"/>
  <polygon points="1645.7,186.7 1645.7,213.3 1611.4,213.3" fill="rgb(217,138,70)"/>
  <polygon points="1645.7,0.0 1714.3,0.0 1714.3,53.3" fill="rgb(180,105,50)"/>
  <polygon points="1645.7,0.0 1714.3,53.3 1645.7,53.3" fill="rgb(210,95,50)"/>
  <polygon points="1714.3,0.0 1782.9,0.0 1782.9,53.3" fill="rgb(217,138,70)"/>
  <polygon points="1714.3,0.0 1782.9,53.3 1714.3,53.3" fill="rgb(217,138,70)"/>
  <polygon points="1645.7,53.3 1714.3,53.3 1714.3,106.7" fill="rgb(217,138,70)"/>
  <polygon points="1645.7,53.3 1714.3,106.7 1645.7,106.7" fill="rgb(200,75,25)"/>
  <polygon points="1714.3,53.3 1782.9,53.3 1782.9,106.7" fill="rgb(200,75,25)"/>
  <polygon points="1714.3,53.3 1782.9,106.7 1714.3,106.7" fill="rgb(200,75,25)"/>
  <polygon points="1782.9,0.0 1817.1,0.0 1782.9,26.7" fill="rgb(3,69,42)"/>
  <polygon points="1817.1,0.0 1817.1,26.7 1782.9,26.7" fill="rgb(3,69,42)"/>
  <polygon points="1817.1,0.0 1851.4,0.0 1817.1,26.7" fill="rgb(200,75,25)"/>
  <polygon points="1851.4,0.0 1851.4,26.7 1817.1,26.7" fill="rgb(217,138,70)"/>
  <polygon points="1782.9,26.7 1817.1,26.7 1782.9,53.3" fill="rgb(210,95,50)"/>
  <polygon points="1817.1,26.7 1817.1,53.3 1782.9,53.3" fill="rgb(170,65,18)"/>
  <polygon points="1817.1,26.7 1851.4,26.7 1817.1,53.3" fill="rgb(236,99,36)"/>
  <polygon points="1851.4,26.7 1851.4,53.3 1817.1,53.3" fill="rgb(236,99,36)"/>
  <polygon points="1851.4,0.0 1920.0,0.0 1851.4,53.3" fill="rgb(180,105,50)"/>
  <polygon points="1920.0,0.0 1920.0,53.3 1851.4,53.3" fill="rgb(217,138,70)"/>
  <polygon points="1782.9,53.3 1817.1,53.3 1782.9,80.0" fill="rgb(217,138,70)"/>
  <polygon points="1817.1,53.3 1817.1,80.0 1782.9,80.0" fill="rgb(217,138,70)"/>
  <polygon points="1817.1,53.3 1851.4,53.3 1817.1,80.0" fill="rgb(3,69,42)"/>
  <polygon points="1851.4,53.3 1851.4,80.0 1817.1,80.0" fill="rgb(217,138,70)"/>
  <polygon points="1782.9,80.0 1817.1,80.0 1817.1,106.7" fill="rgb(42,46,55)"/>
  <polygon points="1782.9,80.0 1817.1,106.7 1782.9,106.7" fill="rgb(245,145,95)"/>
  <polygon points="1817.1,80.0 1851.4,80.0 1851.4,106.7" fill="rgb(200,75,25)"/>
  <polygon points="1817.1,80.0 1851.4,106.7 1817.1,106.7" fill="rgb(210,95,50)"/>
  <polygon points="1851.4,53.3 1920.0,53.3 1851.4,106.7" fill="rgb(217,138,70)"/>
  <polygon points="1920.0,53.3 1920.0,106.7 1851.4,106.7" fill="rgb(217,138,70)"/>
  <polygon points="1645.7,106.7 1714.3,106.7 1645.7,160.0" fill="rgb(210,95,50)"/>
  <polygon points="1714.3,106.7 1714.3,160.0 1645.7,160.0" fill="rgb(217,138,70)"/>
  <polygon points="1714.3,106.7 1782.9,106.7 1714.3,160.0" fill="rgb(200,75,25)"/>
  <polygon points="1782.9,106.7 1782.9,160.0 1714.3,160.0" fill="rgb(217,138,70)"/>
  <polygon points="1645.7,160.0 1680.0,160.0 1680.0,186.7" fill="rgb(42,46,55)"/>
  <polygon points="1645.7,160.0 1680.0,186.7 1645.7,186.7" fill="rgb(180,105,50)"/>
  <polygon points="1680.0,160.0 1714.3,160.0 1680.0,186.7" fill="rgb(42,46,55)"/>
  <polygon points="1714.3,160.0 1714.3,186.7 1680.0,186.7" fill="rgb(42,46,55)"/>
  <polygon points="1645.7,186.7 1680.0,186.7 1645.7,213.3" fill="rgb(170,65,18)"/>
  <polygon points="1680.0,186.7 1680.0,213.3 1645.7,213.3" fill="rgb(180,105,50)"/>
  <polygon points="1680.0,186.7 1714.3,186.7 1714.3,213.3" fill="rgb(236,99,36)"/>
  <polygon points="1680.0,186.7 1714.3,213.3 1680.0,213.3" fill="rgb(170,65,18)"/>
  <polygon points="1714.3,160.0 1782.9,160.0 1714.3,213.3" fill="rgb(42,46,55)"/>
  <polygon points="1782.9,160.0 1782.9,213.3 1714.3,213.3" fill="rgb(217,138,70)"/>
  <polygon points="1782.9,106.7 1920.0,106.7 1782.9,213.3" fill="rgb(245,145,95)"/>
  <polygon points="1920.0,106.7 1920.0,213.3 1782.9,213.3" fill="rgb(236,99,36)"/>
  <polygon points="0.0,213.3 68.6,213.3 68.6,266.7" fill="rgb(180,105,50)"/>
  <polygon points="0.0,213.3 68.6,266.7 0.0,266.7" fill="rgb(170,65,18)"/>
  <polygon points="68.6,213.3 137.1,213.3 137.1,266.7" fill="rgb(217,138,70)"/>
  <polygon points="68.6,213.3 137.1,266.7 68.6,266.7" fill="rgb(217,138,70)"/>
  <polygon points="0.0,266.7 68.6,266.7 0.0,320.0" fill="rgb(236,99,36)"/>
  <polygon points="68.6,266.7 68.6,320.0 0.0,320.0" fill="rgb(217,138,70)"/>
  <polygon points="68.6,266.7 102.9,266.7 68.6,293.3" fill="rgb(170,65,18)"/>
  <polygon points="102.9,266.7 102.9,293.3 68.6,293.3" fill="rgb(42,46,55)"/>
  <polygon points="102.9,266.7 137.1,266.7 137.1,293.3" fill="rgb(3,69,42)"/>
  <polygon points="102.9,266.7 137.1,293.3 102.9,293.3" fill="rgb(170,65,18)"/>
  <polygon points="68.6,293.3 102.9,293.3 68.6,320.0" fill="rgb(200,75,25)"/>
  <polygon points="102.9,293.3 102.9,320.0 68.6,320.0" fill="rgb(3,69,42)"/>
  <polygon points="102.9,293.3 137.1,293.3 137.1,320.0" fill="rgb(170,65,18)"/>
  <polygon points="102.9,293.3 137.1,320.0 102.9,320.0" fill="rgb(210,95,50)"/>
  <polygon points="137.1,213.3 205.7,213.3 137.1,266.7" fill="rgb(180,105,50)"/>
  <polygon points="205.7,213.3 205.7,266.7 137.1,266.7" fill="rgb(217,138,70)"/>
  <polygon points="205.7,213.3 274.3,213.3 274.3,266.7" fill="rgb(236,99,36)"/>
  <polygon points="205.7,213.3 274.3,266.7 205.7,266.7" fill="rgb(210,95,50)"/>
  <polygon points="137.1,266.7 205.7,266.7 205.7,320.0" fill="rgb(236,99,36)"/>
  <polygon points="137.1,266.7 205.7,320.0 137.1,320.0" fill="rgb(210,95,50)"/>
  <polygon points="205.7,266.7 240.0,266.7 205.7,293.3" fill="rgb(217,138,70)"/>
  <polygon points="240.0,266.7 240.0,293.3 205.7,293.3" fill="rgb(170,65,18)"/>
  <polygon points="240.0,266.7 274.3,266.7 240.0,293.3" fill="rgb(245,145,95)"/>
  <polygon points="274.3,266.7 274.3,293.3 240.0,293.3" fill="rgb(210,95,50)"/>
  <polygon points="205.7,293.3 240.0,293.3 240.0,320.0" fill="rgb(200,75,25)"/>
  <polygon points="205.7,293.3 240.0,320.0 205.7,320.0" fill="rgb(245,145,95)"/>
  <polygon points="240.0,293.3 274.3,293.3 240.0,320.0" fill="rgb(236,99,36)"/>
  <polygon points="274.3,293.3 274.3,320.0 240.0,320.0" fill="rgb(210,95,50)"/>
  <polygon points="0.0,320.0 68.6,320.0 0.0,373.3" fill="rgb(3,69,42)"/>
  <polygon points="68.6,320.0 68.6,373.3 0.0,373.3" fill="rgb(170,65,18)"/>
  <polygon points="68.6,320.0 137.1,320.0 137.1,373.3" fill="rgb(210,95,50)"/>
  <polygon points="68.6,320.0 137.1,373.3 68.6,373.3" fill="rgb(210,95,50)"/>
  <polygon points="0.0,373.3 68.6,373.3 68.6,426.7" fill="rgb(170,65,18)"/>
  <polygon points="0.0,373.3 68.6,426.7 0.0,426.7" fill="rgb(42,46,55)"/>
  <polygon points="68.6,373.3 137.1,373.3 137.1,426.7" fill="rgb(210,95,50)"/>
  <polygon points="68.6,373.3 137.1,426.7 68.6,426.7" fill="rgb(217,138,70)"/>
  <polygon points="137.1,320.0 205.7,320.0 205.7,373.3" fill="rgb(180,105,50)"/>
  <polygon points="137.1,320.0 205.7,373.3 137.1,373.3" fill="rgb(200,75,25)"/>
  <polygon points="205.7,320.0 274.3,320.0 274.3,373.3" fill="rgb(3,69,42)"/>
  <polygon points="205.7,320.0 274.3,373.3 205.7,373.3" fill="rgb(200,75,25)"/>
  <polygon points="137.1,373.3 205.7,373.3 205.7,426.7" fill="rgb(3,69,42)"/>
  <polygon points="137.1,373.3 205.7,426.7 137.1,426.7" fill="rgb(42,46,55)"/>
  <polygon points="205.7,373.3 274.3,373.3 274.3,426.7" fill="rgb(180,105,50)"/>
  <polygon points="205.7,373.3 274.3,426.7 205.7,426.7" fill="rgb(245,145,95)"/>
  <polygon points="274.3,213.3 308.6,213.3 274.3,240.0" fill="rgb(200,75,25)"/>
  <polygon points="308.6,213.3 308.6,240.0 274.3,240.0" fill="rgb(200,75,25)"/>
  <polygon points="308.6,213.3 342.9,213.3 308.6,240.0" fill="rgb(170,65,18)"/>
  <polygon points="342.9,213.3 342.9,240.0 308.6,240.0" fill="rgb(180,105,50)"/>
  <polygon points="274.3,240.0 308.6,240.0 274.3,266.7" fill="rgb(200,75,25)"/>
  <polygon points="308.6,240.0 308.6,266.7 274.3,266.7" fill="rgb(42,46,55)"/>
  <polygon points="308.6,240.0 342.9,240.0 342.9,266.7" fill="rgb(210,95,50)"/>
  <polygon points="308.6,240.0 342.9,266.7 308.6,266.7" fill="rgb(236,99,36)"/>
  <polygon points="342.9,213.3 411.4,213.3 342.9,266.7" fill="rgb(170,65,18)"/>
  <polygon points="411.4,213.3 411.4,266.7 342.9,266.7" fill="rgb(217,138,70)"/>
  <polygon points="274.3,266.7 342.9,266.7 274.3,320.0" fill="rgb(42,46,55)"/>
  <polygon points="342.9,266.7 342.9,320.0 274.3,320.0" fill="rgb(236,99,36)"/>
  <polygon points="342.9,266.7 411.4,266.7 342.9,320.0" fill="rgb(200,75,25)"/>
  <polygon points="411.4,266.7 411.4,320.0 342.9,320.0" fill="rgb(245,145,95)"/>
  <polygon points="411.4,213.3 445.7,213.3 445.7,240.0" fill="rgb(3,69,42)"/>
  <polygon points="411.4,213.3 445.7,240.0 411.4,240.0" fill="rgb(200,75,25)"/>
  <polygon points="445.7,213.3 480.0,213.3 480.0,240.0" fill="rgb(42,46,55)"/>
  <polygon points="445.7,213.3 480.0,240.0 445.7,240.0" fill="rgb(245,145,95)"/>
  <polygon points="411.4,240.0 445.7,240.0 445.7,266.7" fill="rgb(245,145,95)"/>
  <polygon points="411.4,240.0 445.7,266.7 411.4,266.7" fill="rgb(245,145,95)"/>
  <polygon points="445.7,240.0 480.0,240.0 480.0,266.7" fill="rgb(3,69,42)"/>
  <polygon points="445.7,240.0 480.0,266.7 445.7,266.7" fill="rgb(180,105,50)"/>
  <polygon points="480.0,213.3 548.6,213.3 480.0,266.7" fill="rgb(180,105,50)"/>
  <polygon points="548.6,213.3 548.6,266.7 480.0,266.7" fill="rgb(245,145,95)"/>
  <polygon points="411.4,266.7 480.0,266.7 480.0,320.0" fill="rgb(200,75,25)"/>
  <polygon points="411.4,266.7 480.0,320.0 411.4,320.0" fill="rgb(217,138,70)"/>
  <polygon points="480.0,266.7 548.6,266.7 548.6,320.0" fill="rgb(236,99,36)"/>
  <polygon points="480.0,266.7 548.6,320.0 480.0,320.0" fill="rgb(217,138,70)"/>
  <polygon points="274.3,320.0 342.9,320.0 274.3,373.3" fill="rgb(3,69,42)"/>
  <polygon points="342.9,320.0 342.9,373.3 274.3,373.3" fill="rgb(200,75,25)"/>
  <polygon points="342.9,320.0 411.4,320.0 411.4,373.3" fill="rgb(217,138,70)"/>
  <polygon points="342.9,320.0 411.4,373.3 342.9,373.3" fill="rgb(200,75,25)"/>
  <polygon points="274.3,373.3 342.9,373.3 342.9,426.7" fill="rgb(3,69,42)"/>
  <polygon points="274.3,373.3 342.9,426.7 274.3,426.7" fill="rgb(245,145,95)"/>
  <polygon points="342.9,373.3 411.4,373.3 342.9,426.7" fill="rgb(200,75,25)"/>
  <polygon points="411.4,373.3 411.4,426.7 342.9,426.7" fill="rgb(180,105,50)"/>
  <polygon points="411.4,320.0 548.6,320.0 411.4,426.7" fill="rgb(217,138,70)"/>
  <polygon points="548.6,320.0 548.6,426.7 411.4,426.7" fill="rgb(180,105,50)"/>
  <polygon points="548.6,213.3 617.1,213.3 617.1,266.7" fill="rgb(180,105,50)"/>
  <polygon points="548.6,213.3 617.1,266.7 548.6,266.7" fill="rgb(245,145,95)"/>
  <polygon points="617.1,213.3 685.7,213.3 685.7,266.7" fill="rgb(42,46,55)"/>
  <polygon points="617.1,213.3 685.7,266.7 617.1,266.7" fill="rgb(245,145,95)"/>
  <polygon points="548.6,266.7 582.9,266.7 548.6,293.3" fill="rgb(3,69,42)"/>
  <polygon points="582.9,266.7 582.9,293.3 548.6,293.3" fill="rgb(200,75,25)"/>
  <polygon points="582.9,266.7 617.1,266.7 582.9,293.3" fill="rgb(42,46,55)"/>
  <polygon points="617.1,266.7 617.1,293.3 582.9,293.3" fill="rgb(180,105,50)"/>
  <polygon points="548.6,293.3 582.9,293.3 582.9,320.0" fill="rgb(236,99,36)"/>
  <polygon points="548.6,293.3 582.9,320.0 548.6,320.0" fill="rgb(217,138,70)"/>
  <polygon points="582.9,293.3 617.1,293.3 617.1,320.0" fill="rgb(3,69,42)"/>
  <polygon points="582.9,293.3 617.1,320.0 582.9,320.0" fill="rgb(200,75,25)"/>
  <polygon points="617.1,266.7 685.7,266.7 617.1,320.0" fill="rgb(200,75,25)"/>
  <polygon points="685.7,266.7 685.7,320.0 617.1,320.0" fill="rgb(210,95,50)"/>
  <polygon points="685.7,213.3 822.9,213.3 685.7,320.0" fill="rgb(180,105,50)"/>
  <polygon points="822.9,213.3 822.9,320.0 685.7,320.0" fill="rgb(180,105,50)"/>
  <polygon points="548.6,320.0 617.1,320.0 617.1,373.3" fill="rgb(210,95,50)"/>
  <polygon points="548.6,320.0 617.1,373.3 548.6,373.3" fill="rgb(200,75,25)"/>
  <polygon points="617.1,320.0 685.7,320.0 617.1,373.3" fill="rgb(42,46,55)"/>
  <polygon points="685.7,320.0 685.7,373.3 617.1,373.3" fill="rgb(210,95,50)"/>
  <polygon points="548.6,373.3 617.1,373.3 548.6,426.7" fill="rgb(3,69,42)"/>
  <polygon points="617.1,373.3 617.1,426.7 548.6,426.7" fill="rgb(236,99,36)"/>
  <polygon points="617.1,373.3 685.7,373.3 617.1,426.7" fill="rgb(245,145,95)"/>
  <polygon points="685.7,373.3 685.7,426.7 617.1,426.7" fill="rgb(180,105,50)"/>
  <polygon points="685.7,320.0 754.3,320.0 685.7,373.3" fill="rgb(217,138,70)"/>
  <polygon points="754.3,320.0 754.3,373.3 685.7,373.3" fill="rgb(236,99,36)"/>
  <polygon points="754.3,320.0 788.6,320.0 754.3,346.7" fill="rgb(200,75,25)"/>
  <polygon points="788.6,320.0 788.6,346.7 754.3,346.7" fill="rgb(200,75,25)"/>
  <polygon points="788.6,320.0 822.9,320.0 822.9,346.7" fill="rgb(3,69,42)"/>
  <polygon points="788.6,320.0 822.9,346.7 788.6,346.7" fill="rgb(217,138,70)"/>
  <polygon points="754.3,346.7 788.6,346.7 754.3,373.3" fill="rgb(245,145,95)"/>
  <polygon points="788.6,346.7 788.6,373.3 754.3,373.3" fill="rgb(245,145,95)"/>
  <polygon points="788.6,346.7 822.9,346.7 822.9,373.3" fill="rgb(3,69,42)"/>
  <polygon points="788.6,346.7 822.9,373.3 788.6,373.3" fill="rgb(210,95,50)"/>
  <polygon points="685.7,373.3 754.3,373.3 754.3,426.7" fill="rgb(180,105,50)"/>
  <polygon points="685.7,373.3 754.3,426.7 685.7,426.7" fill="rgb(217,138,70)"/>
  <polygon points="754.3,373.3 822.9,373.3 822.9,426.7" fill="rgb(3,69,42)"/>
  <polygon points="754.3,373.3 822.9,426.7 754.3,426.7" fill="rgb(200,75,25)"/>
  <polygon points="822.9,213.3 891.4,213.3 822.9,266.7" fill="rgb(3,69,42)"/>
  <polygon points="891.4,213.3 891.4,266.7 822.9,266.7" fill="rgb(3,69,42)"/>
  <polygon points="891.4,213.3 960.0,213.3 960.0,266.7" fill="rgb(217,138,70)"/>
  <polygon points="891.4,213.3 960.0,266.7 891.4,266.7" fill="rgb(200,75,25)"/>
  <polygon points="822.9,266.7 891.4,266.7 891.4,320.0" fill="rgb(210,95,50)"/>
  <polygon points="822.9,266.7 891.4,320.0 822.9,320.0" fill="rgb(42,46,55)"/>
  <polygon points="891.4,266.7 960.0,266.7 960.0,320.0" fill="rgb(3,69,42)"/>
  <polygon points="891.4,266.7 960.0,320.0 891.4,320.0" fill="rgb(236,99,36)"/>
  <polygon points="960.0,213.3 1097.1,213.3 1097.1,320.0" fill="rgb(170,65,18)"/>
  <polygon points="960.0,213.3 1097.1,320.0 960.0,320.0" fill="rgb(42,46,55)"/>
  <polygon points="822.9,320.0 891.4,320.0 822.9,373.3" fill="rgb(200,75,25)"/>
  <polygon points="891.4,320.0 891.4,373.3 822.9,373.3" fill="rgb(210,95,50)"/>
  <polygon points="891.4,320.0 960.0,320.0 960.0,373.3" fill="rgb(217,138,70)"/>
  <polygon points="891.4,320.0 960.0,373.3 891.4,373.3" fill="rgb(210,95,50)"/>
  <polygon points="822.9,373.3 891.4,373.3 891.4,426.7" fill="rgb(180,105,50)"/>
  <polygon points="822.9,373.3 891.4,426.7 822.9,426.7" fill="rgb(217,138,70)"/>
  <polygon points="891.4,373.3 960.0,373.3 960.0,426.7" fill="rgb(217,138,70)"/>
  <polygon points="891.4,373.3 960.0,426.7 891.4,426.7" fill="rgb(217,138,70)"/>
  <polygon points="960.0,320.0 1097.1,320.0 960.0,426.7" fill="rgb(3,69,42)"/>
  <polygon points="1097.1,320.0 1097.1,426.7 960.0,426.7" fill="rgb(180,105,50)"/>
  <polygon points="1097.1,213.3 1234.3,213.3 1097.1,320.0" fill="rgb(236,99,36)"/>
  <polygon points="1234.3,213.3 1234.3,320.0 1097.1,320.0" fill="rgb(180,105,50)"/>
  <polygon points="1234.3,213.3 1268.6,213.3 1234.3,240.0" fill="rgb(217,138,70)"/>
  <polygon points="1268.6,213.3 1268.6,240.0 1234.3,240.0" fill="rgb(3,69,42)"/>
  <polygon points="1268.6,213.3 1302.9,213.3 1302.9,240.0" fill="rgb(217,138,70)"/>
  <polygon points="1268.6,213.3 1302.9,240.0 1268.6,240.0" fill="rgb(42,46,55)"/>
  <polygon points="1234.3,240.0 1268.6,240.0 1268.6,266.7" fill="rgb(245,145,95)"/>
  <polygon points="1234.3,240.0 1268.6,266.7 1234.3,266.7" fill="rgb(180,105,50)"/>
  <polygon points="1268.6,240.0 1302.9,240.0 1302.9,266.7" fill="rgb(200,75,25)"/>
  <polygon points="1268.6,240.0 1302.9,266.7 1268.6,266.7" fill="rgb(217,138,70)"/>
  <polygon points="1302.9,213.3 1371.4,213.3 1302.9,266.7" fill="rgb(217,138,70)"/>
  <polygon points="1371.4,213.3 1371.4,266.7 1302.9,266.7" fill="rgb(210,95,50)"/>
  <polygon points="1234.3,266.7 1302.9,266.7 1234.3,320.0" fill="rgb(170,65,18)"/>
  <polygon points="1302.9,266.7 1302.9,320.0 1234.3,320.0" fill="rgb(210,95,50)"/>
  <polygon points="1302.9,266.7 1371.4,266.7 1302.9,320.0" fill="rgb(200,75,25)"/>
  <polygon points="1371.4,266.7 1371.4,320.0 1302.9,320.0" fill="rgb(245,145,95)"/>
  <polygon points="1097.1,320.0 1165.7,320.0 1165.7,373.3" fill="rgb(245,145,95)"/>
  <polygon points="1097.1,320.0 1165.7,373.3 1097.1,373.3" fill="rgb(170,65,18)"/>
  <polygon points="1165.7,320.0 1234.3,320.0 1234.3,373.3" fill="rgb(180,105,50)"/>
  <polygon points="1165.7,320.0 1234.3,373.3 1165.7,373.3" fill="rgb(210,95,50)"/>
  <polygon points="1097.1,373.3 1165.7,373.3 1097.1,426.7" fill="rgb(200,75,25)"/>
  <polygon points="1165.7,373.3 1165.7,426.7 1097.1,426.7" fill="rgb(180,105,50)"/>
  <polygon points="1165.7,373.3 1234.3,373.3 1234.3,426.7" fill="rgb(200,75,25)"/>
  <polygon points="1165.7,373.3 1234.3,426.7 1165.7,426.7" fill="rgb(210,95,50)"/>
  <polygon points="1234.3,320.0 1371.4,320.0 1371.4,426.7" fill="rgb(217,138,70)"/>
  <polygon points="1234.3,320.0 1371.4,426.7 1234.3,426.7" fill="rgb(217,138,70)"/>
  <polygon points="1371.4,213.3 1508.6,213.3 1371.4,320.0" fill="rgb(42,46,55)"/>
  <polygon points="1508.6,213.3 1508.6,320.0 1371.4,320.0" fill="rgb(180,105,50)"/>
  <polygon points="1508.6,213.3 1542.9,213.3 1508.6,240.0" fill="rgb(180,105,50)"/>
  <polygon points="1542.9,213.3 1542.9,240.0 1508.6,240.0" fill="rgb(217,138,70)"/>
  <polygon points="1542.9,213.3 1577.1,213.3 1542.9,240.0" fill="rgb(180,105,50)"/>
  <polygon points="1577.1,213.3 1577.1,240.0 1542.9,240.0" fill="rgb(180,105,50)"/>
  <polygon points="1508.6,240.0 1542.9,240.0 1542.9,266.7" fill="rgb(200,75,25)"/>
  <polygon points="1508.6,240.0 1542.9,266.7 1508.6,266.7" fill="rgb(217,138,70)"/>
  <polygon points="1542.9,240.0 1577.1,240.0 1542.9,266.7" fill="rgb(210,95,50)"/>
  <polygon points="1577.1,240.0 1577.1,266.7 1542.9,266.7" fill="rgb(170,65,18)"/>
  <polygon points="1577.1,213.3 1645.7,213.3 1645.7,266.7" fill="rgb(180,105,50)"/>
  <polygon points="1577.1,213.3 1645.7,266.7 1577.1,266.7" fill="rgb(217,138,70)"/>
  <polygon points="1508.6,266.7 1542.9,266.7 1508.6,293.3" fill="rgb(236,99,36)"/>
  <polygon points="1542.9,266.7 1542.9,293.3 1508.6,293.3" fill="rgb(210,95,50)"/>
  <polygon points="1542.9,266.7 1577.1,266.7 1577.1,293.3" fill="rgb(180,105,50)"/>
  <polygon points="1542.9,266.7 1577.1,293.3 1542.9,293.3" fill="rgb(200,75,25)"/>
  <polygon points="1508.6,293.3 1542.9,293.3 1508.6,320.0" fill="rgb(180,105,50)"/>
  <polygon points="1542.9,293.3 1542.9,320.0 1508.6,320.0" fill="rgb(200,75,25)"/>
  <polygon points="1542.9,293.3 1577.1,293.3 1542.9,320.0" fill="rgb(217,138,70)"/>
  <polygon points="1577.1,293.3 1577.1,320.0 1542.9,320.0" fill="rgb(245,145,95)"/>
  <polygon points="1577.1,266.7 1645.7,266.7 1645.7,320.0" fill="rgb(217,138,70)"/>
  <polygon points="1577.1,266.7 1645.7,320.0 1577.1,320.0" fill="rgb(236,99,36)"/>
  <polygon points="1371.4,320.0 1440.0,320.0 1371.4,373.3" fill="rgb(200,75,25)"/>
  <polygon points="1440.0,320.0 1440.0,373.3 1371.4,373.3" fill="rgb(170,65,18)"/>
  <polygon points="1440.0,320.0 1508.6,320.0 1440.0,373.3" fill="rgb(245,145,95)"/>
  <polygon points="1508.6,320.0 1508.6,373.3 1440.0,373.3" fill="rgb(245,145,95)"/>
  <polygon points="1371.4,373.3 1405.7,373.3 1371.4,400.0" fill="rgb(217,138,70)"/>
  <polygon points="1405.7,373.3 1405.7,400.0 1371.4,400.0" fill="rgb(180,105,50)"/>
  <polygon points="1405.7,373.3 1440.0,373.3 1405.7,400.0" fill="rgb(180,105,50)"/>
  <polygon points="1440.0,373.3 1440.0,400.0 1405.7,400.0" fill="rgb(210,95,50)"/>
  <polygon points="1371.4,400.0 1405.7,400.0 1405.7,426.7" fill="rgb(200,75,25)"/>
  <polygon points="1371.4,400.0 1405.7,426.7 1371.4,426.7" fill="rgb(236,99,36)"/>
  <polygon points="1405.7,400.0 1440.0,400.0 1405.7,426.7" fill="rgb(180,105,50)"/>
  <polygon points="1440.0,400.0 1440.0,426.7 1405.7,426.7" fill="rgb(200,75,25)"/>
  <polygon points="1440.0,373.3 1508.6,373.3 1440.0,426.7" fill="rgb(200,75,25)"/>
  <polygon points="1508.6,373.3 1508.6,426.7 1440.0,426.7" fill="rgb(200,75,25)"/>
  <polygon points="1508.6,320.0 1645.7,320.0 1645.7,426.7" fill="rgb(200,75,25)"/>
  <polygon points="1508.6,320.0 1645.7,426.7 1508.6,426.7" fill="rgb(217,138,70)"/>
  <polygon points="1645.7,213.3 1680.0,213.3 1680.0,240.0" fill="rgb(210,95,50)"/>
  <polygon points="1645.7,213.3 1680.0,240.0 1645.7,240.0" fill="rgb(217,138,70)"/>
  <polygon points="1680.0,213.3 1714.3,213.3 1680.0,240.0" fill="rgb(3,69,42)"/>
  <polygon points="1714.3,213.3 1714.3,240.0 1680.0,240.0" fill="rgb(245,145,95)"/>
  <polygon points="1645.7,240.0 1680.0,240.0 1680.0,266.7" fill="rgb(42,46,55)"/>
  <polygon points="1645.7,240.0 1680.0,266.7 1645.7,266.7" fill="rgb(200,75,25)"/>
  <polygon points="1680.0,240.0 1714.3,240.0 1680.0,266.7" fill="rgb(245,145,95)"/>
  <polygon points="1714.3,240.0 1714.3,266.7 1680.0,266.7" fill="rgb(245,145,95)"/>
  <polygon points="1714.3,213.3 1782.9,213.3 1782.9,266.7" fill="rgb(42,46,55)"/>
  <polygon points="1714.3,213.3 1782.9,266.7 1714.3,266.7" fill="rgb(180,105,50)"/>
  <polygon points="1645.7,266.7 1680.0,266.7 1645.7,293.3" fill="rgb(200,75,25)"/>
  <polygon points="1680.0,266.7 1680.0,293.3 1645.7,293.3" fill="rgb(180,105,50)"/>
  <polygon points="1680.0,266.7 1714.3,266.7 1714.3,293.3" fill="rgb(217,138,70)"/>
  <polygon points="1680.0,266.7 1714.3,293.3 1680.0,293.3" fill="rgb(42,46,55)"/>
  <polygon points="1645.7,293.3 1680.0,293.3 1645.7,320.0" fill="rgb(42,46,55)"/>
  <polygon points="1680.0,293.3 1680.0,320.0 1645.7,320.0" fill="rgb(210,95,50)"/>
  <polygon points="1680.0,293.3 1714.3,293.3 1680.0,320.0" fill="rgb(210,95,50)"/>
  <polygon points="1714.3,293.3 1714.3,320.0 1680.0,320.0" fill="rgb(236,99,36)"/>
  <polygon points="1714.3,266.7 1782.9,266.7 1782.9,320.0" fill="rgb(200,75,25)"/>
  <polygon points="1714.3,266.7 1782.9,320.0 1714.3,320.0" fill="rgb(236,99,36)"/>
  <polygon points="1782.9,213.3 1851.4,213.3 1851.4,266.7" fill="rgb(217,138,70)"/>
  <polygon points="1782.9,213.3 1851.4,266.7 1782.9,266.7" fill="rgb(180,105,50)"/>
  <polygon points="1851.4,213.3 1920.0,213.3 1920.0,266.7" fill="rgb(200,75,25)"/>
  <polygon points="1851.4,213.3 1920.0,266.7 1851.4,266.7" fill="rgb(245,145,95)"/>
  <polygon points="1782.9,266.7 1851.4,266.7 1782.9,320.0" fill="rgb(200,75,25)"/>
  <polygon points="1851.4,266.7 1851.4,320.0 1782.9,320.0" fill="rgb(236,99,36)"/>
  <polygon points="1851.4,266.7 1920.0,266.7 1851.4,320.0" fill="rgb(210,95,50)"/>
  <polygon points="1920.0,266.7 1920.0,320.0 1851.4,320.0" fill="rgb(42,46,55)"/>
  <polygon points="1645.7,320.0 1714.3,320.0 1714.3,373.3" fill="rgb(210,95,50)"/>
  <polygon points="1645.7,320.0 1714.3,373.3 1645.7,373.3" fill="rgb(200,75,25)"/>
  <polygon points="1714.3,320.0 1782.9,320.0 1714.3,373.3" fill="rgb(217,138,70)"/>
  <polygon points="1782.9,320.0 1782.9,373.3 1714.3,373.3" fill="rgb(200,75,25)"/>
  <polygon points="1645.7,373.3 1714.3,373.3 1645.7,426.7" fill="rgb(200,75,25)"/>
  <polygon points="1714.3,373.3 1714.3,426.7 1645.7,426.7" fill="rgb(200,75,25)"/>
  <polygon points="1714.3,373.3 1748.6,373.3 1714.3,400.0" fill="rgb(245,145,95)"/>
  <polygon points="1748.6,373.3 1748.6,400.0 1714.3,400.0" fill="rgb(180,105,50)"/>
  <polygon points="1748.6,373.3 1782.9,373.3 1748.6,400.0" fill="rgb(210,95,50)"/>
  <polygon points="1782.9,373.3 1782.9,400.0 1748.6,400.0" fill="rgb(3,69,42)"/>
  <polygon points="1714.3,400.0 1748.6,400.0 1714.3,426.7" fill="rgb(217,138,70)"/>
  <polygon points="1748.6,400.0 1748.6,426.7 1714.3,426.7" fill="rgb(200,75,25)"/>
  <polygon points="1748.6,400.0 1782.9,400.0 1748.6,426.7" fill="rgb(236,99,36)"/>
  <polygon points="1782.9,400.0 1782.9,426.7 1748.6,426.7" fill="rgb(3,69,42)"/>
  <polygon points="1782.9,320.0 1851.4,320.0 1782.9,373.3" fill="rgb(217,138,70)"/>
  <polygon points="1851.4,320.0 1851.4,373.3 1782.9,373.3" fill="rgb(200,75,25)"/>
  <polygon points="1851.4,320.0 1920.0,320.0 1920.0,373.3" fill="rgb(3,69,42)"/>
  <polygon points="1851.4,320.0 1920.0,373.3 1851.4,373.3" fill="rgb(200,75,25)"/>
  <polygon points="1782.9,373.3 1851.4,373.3 1851.4,426.7" fill="rgb(3,69,42)"/>
  <polygon points="1782.9,373.3 1851.4,426.7 1782.9,426.7" fill="rgb(180,105,50)"/>
  <polygon points="1851.4,373.3 1920.0,373.3 1920.0,426.7" fill="rgb(180,105,50)"/>
  <polygon points="1851.4,373.3 1920.0,426.7 1851.4,426.7" fill="rgb(200,75,25)"/>
  <polygon points="0.0,426.7 68.6,426.7 68.6,480.0" fill="rgb(180,105,50)"/>
  <polygon points="0.0,426.7 68.6,480.0 0.0,480.0" fill="rgb(170,65,18)"/>
  <polygon points="68.6,426.7 102.9,426.7 68.6,453.3" fill="rgb(217,138,70)"/>
  <polygon points="102.9,426.7 102.9,453.3 68.6,453.3" fill="rgb(217,138,70)"/>
  <polygon points="102.9,426.7 137.1,426.7 102.9,453.3" fill="rgb(170,65,18)"/>
  <polygon points="137.1,426.7 137.1,453.3 102.9,453.3" fill="rgb(200,75,25)"/>
  <polygon points="68.6,453.3 102.9,453.3 102.9,480.0" fill="rgb(3,69,42)"/>
  <polygon points="68.6,453.3 102.9,480.0 68.6,480.0" fill="rgb(42,46,55)"/>
  <polygon points="102.9,453.3 137.1,453.3 102.9,480.0" fill="rgb(180,105,50)"/>
  <polygon points="137.1,453.3 137.1,480.0 102.9,480.0" fill="rgb(170,65,18)"/>
  <polygon points="0.0,480.0 68.6,480.0 68.6,533.3" fill="rgb(200,75,25)"/>
  <polygon points="0.0,480.0 68.6,533.3 0.0,533.3" fill="rgb(245,145,95)"/>
  <polygon points="68.6,480.0 137.1,480.0 137.1,533.3" fill="rgb(236,99,36)"/>
  <polygon points="68.6,480.0 137.1,533.3 68.6,533.3" fill="rgb(3,69,42)"/>
  <polygon points="137.1,426.7 205.7,426.7 205.7,480.0" fill="rgb(3,69,42)"/>
  <polygon points="137.1,426.7 205.7,480.0 137.1,480.0" fill="rgb(200,75,25)"/>
  <polygon points="205.7,426.7 274.3,426.7 205.7,480.0" fill="rgb(180,105,50)"/>
  <polygon points="274.3,426.7 274.3,480.0 205.7,480.0" fill="rgb(180,105,50)"/>
  <polygon points="137.1,480.0 205.7,480.0 205.7,533.3" fill="rgb(210,95,50)"/>
  <polygon points="137.1,480.0 205.7,533.3 137.1,533.3" fill="rgb(200,75,25)"/>
  <polygon points="205.7,480.0 240.0,480.0 205.7,506.7" fill="rgb(210,95,50)"/>
  <polygon points="240.0,480.0 240.0,506.7 205.7,506.7" fill="rgb(42,46,55)"/>
  <polygon points="240.0,480.0 274.3,480.0 240.0,506.7" fill="rgb(42,46,55)"/>
  <polygon points="274.3,480.0 274.3,506.7 240.0,506.7" fill="rgb(200,75,25)"/>
  <polygon points="205.7,506.7 240.0,506.7 205.7,533.3" fill="rgb(3,69,42)"/>
  <polygon points="240.0,506.7 240.0,533.3 205.7,533.3" fill="rgb(217,138,70)"/>
  <polygon points="240.0,506.7 274.3,506.7 240.0,533.3" fill="rgb(217,138,70)"/>
  <polygon points="274.3,506.7 274.3,533.3 240.0,533.3" fill="rgb(200,75,25)"/>
  <polygon points="0.0,533.3 68.6,533.3 0.0,586.7" fill="rgb(217,138,70)"/>
  <polygon points="68.6,533.3 68.6,586.7 0.0,586.7" fill="rgb(217,138,70)"/>
  <polygon points="68.6,533.3 102.9,533.3 102.9,560.0" fill="rgb(180,105,50)"/>
  <polygon points="68.6,533.3 102.9,560.0 68.6,560.0" fill="rgb(180,105,50)"/>
  <polygon points="102.9,533.3 137.1,533.3 102.9,560.0" fill="rgb(42,46,55)"/>
  <polygon points="137.1,533.3 137.1,560.0 102.9,560.0" fill="rgb(217,138,70)"/>
  <polygon points="68.6,560.0 102.9,560.0 68.6,586.7" fill="rgb(200,75,25)"/>
  <polygon points="102.9,560.0 102.9,586.7 68.6,586.7" fill="rgb(245,145,95)"/>
  <polygon points="102.9,560.0 137.1,560.0 137.1,586.7" fill="rgb(210,95,50)"/>
  <polygon points="102.9,560.0 137.1,586.7 102.9,586.7" fill="rgb(217,138,70)"/>
  <polygon points="0.0,586.7 34.3,586.7 0.0,613.3" fill="rgb(236,99,36)"/>
  <polygon points="34.3,586.7 34.3,613.3 0.0,613.3" fill="rgb(170,65,18)"/>
  <polygon points="34.3,586.7 68.6,586.7 34.3,613.3" fill="rgb(217,138,70)"/>
  <polygon points="68.6,586.7 68.6,613.3 34.3,613.3" fill="rgb(217,138,70)"/>
  <polygon points="0.0,613.3 34.3,613.3 0.0,640.0" fill="rgb(236,99,36)"/>
  <polygon points="34.3,613.3 34.3,640.0 0.0,640.0" fill="rgb(210,95,50)"/>
  <polygon points="34.3,613.3 68.6,613.3 34.3,640.0" fill="rgb(236,99,36)"/>
  <polygon points="68.6,613.3 68.6,640.0 34.3,640.0" fill="rgb(210,95,50)"/>
  <polygon points="68.6,586.7 137.1,586.7 137.1,640.0" fill="rgb(217,138,70)"/>
  <polygon points="68.6,586.7 137.1,640.0 68.6,640.0" fill="rgb(180,105,50)"/>
  <polygon points="137.1,533.3 205.7,533.3 137.1,586.7" fill="rgb(170,65,18)"/>
  <polygon points="205.7,533.3 205.7,586.7 137.1,586.7" fill="rgb(170,65,18)"/>
  <polygon points="205.7,533.3 240.0,533.3 205.7,560.0" fill="rgb(170,65,18)"/>
  <polygon points="240.0,533.3 240.0,560.0 205.7,560.0" fill="rgb(217,138,70)"/>
  <polygon points="240.0,533.3 274.3,533.3 274.3,560.0" fill="rgb(180,105,50)"/>
  <polygon points="240.0,533.3 274.3,560.0 240.0,560.0" fill="rgb(245,145,95)"/>
  <polygon points="205.7,560.0 240.0,560.0 205.7,586.7" fill="rgb(180,105,50)"/>
  <polygon points="240.0,560.0 240.0,586.7 205.7,586.7" fill="rgb(42,46,55)"/>
  <polygon points="240.0,560.0 274.3,560.0 240.0,586.7" fill="rgb(217,138,70)"/>
  <polygon points="274.3,560.0 274.3,586.7 240.0,586.7" fill="rgb(217,138,70)"/>
  <polygon points="137.1,586.7 205.7,586.7 205.7,640.0" fill="rgb(180,105,50)"/>
  <polygon points="137.1,586.7 205.7,640.0 137.1,640.0" fill="rgb(217,138,70)"/>
  <polygon points="205.7,586.7 274.3,586.7 205.7,640.0" fill="rgb(245,145,95)"/>
  <polygon points="274.3,586.7 274.3,640.0 205.7,640.0" fill="rgb(217,138,70)"/>
  <polygon points="274.3,426.7 411.4,426.7 411.4,533.3" fill="rgb(180,105,50)"/>
  <polygon points="274.3,426.7 411.4,533.3 274.3,533.3" fill="rgb(245,145,95)"/>
  <polygon points="411.4,426.7 548.6,426.7 548.6,533.3" fill="rgb(200,75,25)"/>
  <polygon points="411.4,426.7 548.6,533.3 411.4,533.3" fill="rgb(245,145,95)"/>
  <polygon points="274.3,533.3 411.4,533.3 274.3,640.0" fill="rgb(245,145,95)"/>
  <polygon points="411.4,533.3 411.4,640.0 274.3,640.0" fill="rgb(42,46,55)"/>
  <polygon points="411.4,533.3 548.6,533.3 411.4,640.0" fill="rgb(42,46,55)"/>
  <polygon points="548.6,533.3 548.6,640.0 411.4,640.0" fill="rgb(200,75,25)"/>
  <polygon points="548.6,426.7 617.1,426.7 548.6,480.0" fill="rgb(42,46,55)"/>
  <polygon points="617.1,426.7 617.1,480.0 548.6,480.0" fill="rgb(245,145,95)"/>
  <polygon points="617.1,426.7 685.7,426.7 685.7,480.0" fill="rgb(42,46,55)"/>
  <polygon points="617.1,426.7 685.7,480.0 617.1,480.0" fill="rgb(180,105,50)"/>
  <polygon points="548.6,480.0 617.1,480.0 617.1,533.3" fill="rgb(180,105,50)"/>
  <polygon points="548.6,480.0 617.1,533.3 548.6,533.3" fill="rgb(200,75,25)"/>
  <polygon points="617.1,480.0 685.7,480.0 617.1,533.3" fill="rgb(200,75,25)"/>
  <polygon points="685.7,480.0 685.7,533.3 617.1,533.3" fill="rgb(42,46,55)"/>
  <polygon points="685.7,426.7 822.9,426.7 822.9,533.3" fill="rgb(42,46,55)"/>
  <polygon points="685.7,426.7 822.9,533.3 685.7,533.3" fill="rgb(236,99,36)"/>
  <polygon points="548.6,533.3 685.7,533.3 548.6,640.0" fill="rgb(210,95,50)"/>
  <polygon points="685.7,533.3 685.7,640.0 548.6,640.0" fill="rgb(217,138,70)"/>
  <polygon points="685.7,533.3 822.9,533.3 822.9,640.0" fill="rgb(245,145,95)"/>
  <polygon points="685.7,533.3 822.9,640.0 685.7,640.0" fill="rgb(170,65,18)"/>
  <polygon points="822.9,426.7 891.4,426.7 891.4,480.0" fill="rgb(180,105,50)"/>
  <polygon points="822.9,426.7 891.4,480.0 822.9,480.0" fill="rgb(3,69,42)"/>
  <polygon points="891.4,426.7 960.0,426.7 960.0,480.0" fill="rgb(180,105,50)"/>
  <polygon points="891.4,426.7 960.0,480.0 891.4,480.0" fill="rgb(217,138,70)"/>
  <polygon points="822.9,480.0 857.1,480.0 857.1,506.7" fill="rgb(200,75,25)"/>
  <polygon points="822.9,480.0 857.1,506.7 822.9,506.7" fill="rgb(42,46,55)"/>
  <polygon points="857.1,480.0 891.4,480.0 857.1,506.7" fill="rgb(180,105,50)"/>
  <polygon points="891.4,480.0 891.4,506.7 857.1,506.7" fill="rgb(180,105,50)"/>
  <polygon points="822.9,506.7 857.1,506.7 822.9,533.3" fill="rgb(200,75,25)"/>
  <polygon points="857.1,506.7 857.1,533.3 822.9,533.3" fill="rgb(217,138,70)"/>
  <polygon points="857.1,506.7 891.4,506.7 891.4,533.3" fill="rgb(200,75,25)"/>
  <polygon points="857.1,506.7 891.4,533.3 857.1,533.3" fill="rgb(217,138,70)"/>
  <polygon points="891.4,480.0 960.0,480.0 891.4,533.3" fill="rgb(200,75,25)"/>
  <polygon points="960.0,480.0 960.0,533.3 891.4,533.3" fill="rgb(210,95,50)"/>
  <polygon points="960.0,426.7 1097.1,426.7 960.0,533.3" fill="rgb(210,95,50)"/>
  <polygon points="1097.1,426.7 1097.1,533.3 960.0,533.3" fill="rgb(200,75,25)"/>
  <polygon points="822.9,533.3 960.0,533.3 822.9,640.0" fill="rgb(245,145,95)"/>
  <polygon points="960.0,533.3 960.0,640.0 822.9,640.0" fill="rgb(210,95,50)"/>
  <polygon points="960.0,533.3 1097.1,533.3 960.0,640.0" fill="rgb(42,46,55)"/>
  <polygon points="1097.1,533.3 1097.1,640.0 960.0,640.0" fill="rgb(200,75,25)"/>
  <polygon points="1097.1,426.7 1234.3,426.7 1097.1,533.3" fill="rgb(170,65,18)"/>
  <polygon points="1234.3,426.7 1234.3,533.3 1097.1,533.3" fill="rgb(245,145,95)"/>
  <polygon points="1234.3,426.7 1371.4,426.7 1234.3,533.3" fill="rgb(217,138,70)"/>
  <polygon points="1371.4,426.7 1371.4,533.3 1234.3,533.3" fill="rgb(236,99,36)"/>
  <polygon points="1097.1,533.3 1165.7,533.3 1165.7,586.7" fill="rgb(180,105,50)"/>
  <polygon points="1097.1,533.3 1165.7,586.7 1097.1,586.7" fill="rgb(245,145,95)"/>
  <polygon points="1165.7,533.3 1234.3,533.3 1234.3,586.7" fill="rgb(170,65,18)"/>
  <polygon points="1165.7,533.3 1234.3,586.7 1165.7,586.7" fill="rgb(200,75,25)"/>
  <polygon points="1097.1,586.7 1165.7,586.7 1097.1,640.0" fill="rgb(180,105,50)"/>
  <polygon points="1165.7,586.7 1165.7,640.0 1097.1,640.0" fill="rgb(217,138,70)"/>
  <polygon points="1165.7,586.7 1234.3,586.7 1165.7,640.0" fill="rgb(180,105,50)"/>
  <polygon points="1234.3,586.7 1234.3,640.0 1165.7,640.0" fill="rgb(200,75,25)"/>
  <polygon points="1234.3,533.3 1302.9,533.3 1302.9,586.7" fill="rgb(245,145,95)"/>
  <polygon points="1234.3,533.3 1302.9,586.7 1234.3,586.7" fill="rgb(180,105,50)"/>
  <polygon points="1302.9,533.3 1371.4,533.3 1302.9,586.7" fill="rgb(236,99,36)"/>
  <polygon points="1371.4,533.3 1371.4,586.7 1302.9,586.7" fill="rgb(236,99,36)"/>
  <polygon points="1234.3,586.7 1268.6,586.7 1234.3,613.3" fill="rgb(245,145,95)"/>
  <polygon points="1268.6,586.7 1268.6,613.3 1234.3,613.3" fill="rgb(210,95,50)"/>
  <polygon points="1268.6,586.7 1302.9,586.7 1268.6,613.3" fill="rgb(170,65,18)"/>
  <polygon points="1302.9,586.7 1302.9,613.3 1268.6,613.3" fill="rgb(180,105,50)"/>
  <polygon points="1234.3,613.3 1268.6,613.3 1268.6,640.0" fill="rgb(245,145,95)"/>
  <polygon points="1234.3,613.3 1268.6,640.0 1234.3,640.0" fill="rgb(180,105,50)"/>
  <polygon points="1268.6,613.3 1302.9,613.3 1302.9,640.0" fill="rgb(3,69,42)"/>
  <polygon points="1268.6,613.3 1302.9,640.0 1268.6,640.0" fill="rgb(3,69,42)"/>
  <polygon points="1302.9,586.7 1337.1,586.7 1337.1,613.3" fill="rgb(217,138,70)"/>
  <polygon points="1302.9,586.7 1337.1,613.3 1302.9,613.3" fill="rgb(200,75,25)"/>
  <polygon points="1337.1,586.7 1371.4,586.7 1371.4,613.3" fill="rgb(180,105,50)"/>
  <polygon points="1337.1,586.7 1371.4,613.3 1337.1,613.3" fill="rgb(200,75,25)"/>
  <polygon points="1302.9,613.3 1337.1,613.3 1337.1,640.0" fill="rgb(210,95,50)"/>
  <polygon points="1302.9,613.3 1337.1,640.0 1302.9,640.0" fill="rgb(245,145,95)"/>
  <polygon points="1337.1,613.3 1371.4,613.3 1337.1,640.0" fill="rgb(217,138,70)"/>
  <polygon points="1371.4,613.3 1371.4,640.0 1337.1,640.0" fill="rgb(245,145,95)"/>
  <polygon points="1371.4,426.7 1440.0,426.7 1440.0,480.0" fill="rgb(200,75,25)"/>
  <polygon points="1371.4,426.7 1440.0,480.0 1371.4,480.0" fill="rgb(210,95,50)"/>
  <polygon points="1440.0,426.7 1508.6,426.7 1440.0,480.0" fill="rgb(217,138,70)"/>
  <polygon points="1508.6,426.7 1508.6,480.0 1440.0,480.0" fill="rgb(3,69,42)"/>
  <polygon points="1371.4,480.0 1440.0,480.0 1371.4,533.3" fill="rgb(210,95,50)"/>
  <polygon points="1440.0,480.0 1440.0,533.3 1371.4,533.3" fill="rgb(200,75,25)"/>
  <polygon points="1440.0,480.0 1474.3,480.0 1474.3,506.7" fill="rgb(217,138,70)"/>
  <polygon points="1440.0,480.0 1474.3,506.7 1440.0,506.7" fill="rgb(200,75,25)"/>
  <polygon points="1474.3,480.0 1508.6,480.0 1508.6,506.7" fill="rgb(180,105,50)"/>
  <polygon points="1474.3,480.0 1508.6,506.7 1474.3,506.7" fill="rgb(3,69,42)"/>
  <polygon points="1440.0,506.7 1474.3,506.7 1474.3,533.3" fill="rgb(210,95,50)"/>
  <polygon points="1440.0,506.7 1474.3,533.3 1440.0,533.3" fill="rgb(3,69,42)"/>
  <polygon points="1474.3,506.7 1508.6,506.7 1474.3,533.3" fill="rgb(180,105,50)"/>
  <polygon points="1508.6,506.7 1508.6,533.3 1474.3,533.3" fill="rgb(200,75,25)"/>
  <polygon points="1508.6,426.7 1645.7,426.7 1645.7,533.3" fill="rgb(170,65,18)"/>
  <polygon points="1508.6,426.7 1645.7,533.3 1508.6,533.3" fill="rgb(42,46,55)"/>
  <polygon points="1371.4,533.3 1508.6,533.3 1508.6,640.0" fill="rgb(210,95,50)"/>
  <polygon points="1371.4,533.3 1508.6,640.0 1371.4,640.0" fill="rgb(217,138,70)"/>
  <polygon points="1508.6,533.3 1645.7,533.3 1508.6,640.0" fill="rgb(217,138,70)"/>
  <polygon points="1645.7,533.3 1645.7,640.0 1508.6,640.0" fill="rgb(210,95,50)"/>
  <polygon points="1645.7,426.7 1714.3,426.7 1645.7,480.0" fill="rgb(180,105,50)"/>
  <polygon points="1714.3,426.7 1714.3,480.0 1645.7,480.0" fill="rgb(236,99,36)"/>
  <polygon points="1714.3,426.7 1782.9,426.7 1714.3,480.0" fill="rgb(236,99,36)"/>
  <polygon points="1782.9,426.7 1782.9,480.0 1714.3,480.0" fill="rgb(245,145,95)"/>
  <polygon points="1645.7,480.0 1680.0,480.0 1645.7,506.7" fill="rgb(236,99,36)"/>
  <polygon points="1680.0,480.0 1680.0,506.7 1645.7,506.7" fill="rgb(3,69,42)"/>
  <polygon points="1680.0,480.0 1714.3,480.0 1714.3,506.7" fill="rgb(217,138,70)"/>
  <polygon points="1680.0,480.0 1714.3,506.7 1680.0,506.7" fill="rgb(245,145,95)"/>
  <polygon points="1645.7,506.7 1680.0,506.7 1680.0,533.3" fill="rgb(200,75,25)"/>
  <polygon points="1645.7,506.7 1680.0,533.3 1645.7,533.3" fill="rgb(217,138,70)"/>
  <polygon points="1680.0,506.7 1714.3,506.7 1680.0,533.3" fill="rgb(42,46,55)"/>
  <polygon points="1714.3,506.7 1714.3,533.3 1680.0,533.3" fill="rgb(217,138,70)"/>
  <polygon points="1714.3,480.0 1748.6,480.0 1748.6,506.7" fill="rgb(42,46,55)"/>
  <polygon points="1714.3,480.0 1748.6,506.7 1714.3,506.7" fill="rgb(217,138,70)"/>
  <polygon points="1748.6,480.0 1782.9,480.0 1782.9,506.7" fill="rgb(3,69,42)"/>
  <polygon points="1748.6,480.0 1782.9,506.7 1748.6,506.7" fill="rgb(236,99,36)"/>
  <polygon points="1714.3,506.7 1748.6,506.7 1714.3,533.3" fill="rgb(200,75,25)"/>
  <polygon points="1748.6,506.7 1748.6,533.3 1714.3,533.3" fill="rgb(210,95,50)"/>
  <polygon points="1748.6,506.7 1782.9,506.7 1782.9,533.3" fill="rgb(217,138,70)"/>
  <polygon points="1748.6,506.7 1782.9,533.3 1748.6,533.3" fill="rgb(3,69,42)"/>
  <polygon points="1782.9,426.7 1851.4,426.7 1782.9,480.0" fill="rgb(180,105,50)"/>
  <polygon points="1851.4,426.7 1851.4,480.0 1782.9,480.0" fill="rgb(42,46,55)"/>
  <polygon points="1851.4,426.7 1885.7,426.7 1851.4,453.3" fill="rgb(42,46,55)"/>
  <polygon points="1885.7,426.7 1885.7,453.3 1851.4,453.3" fill="rgb(210,95,50)"/>
  <polygon points="1885.7,426.7 1920.0,426.7 1885.7,453.3" fill="rgb(245,145,95)"/>
  <polygon points="1920.0,426.7 1920.0,453.3 1885.7,453.3" fill="rgb(210,95,50)"/>
  <polygon points="1851.4,453.3 1885.7,453.3 1885.7,480.0" fill="rgb(200,75,25)"/>
  <polygon points="1851.4,453.3 1885.7,480.0 1851.4,480.0" fill="rgb(3,69,42)"/>
  <polygon points="1885.7,453.3 1920.0,453.3 1920.0,480.0" fill="rgb(217,138,70)"/>
  <polygon points="1885.7,453.3 1920.0,480.0 1885.7,480.0" fill="rgb(42,46,55)"/>
  <polygon points="1782.9,480.0 1851.4,480.0 1851.4,533.3" fill="rgb(180,105,50)"/>
  <polygon points="1782.9,480.0 1851.4,533.3 1782.9,533.3" fill="rgb(200,75,25)"/>
  <polygon points="1851.4,480.0 1920.0,480.0 1851.4,533.3" fill="rgb(200,75,25)"/>
  <polygon points="1920.0,480.0 1920.0,533.3 1851.4,533.3" fill="rgb(200,75,25)"/>
  <polygon points="1645.7,533.3 1714.3,533.3 1645.7,586.7" fill="rgb(180,105,50)"/>
  <polygon points="1714.3,533.3 1714.3,586.7 1645.7,586.7" fill="rgb(210,95,50)"/>
  <polygon points="1714.3,533.3 1782.9,533.3 1782.9,586.7" fill="rgb(180,105,50)"/>
  <polygon points="1714.3,533.3 1782.9,586.7 1714.3,586.7" fill="rgb(200,75,25)"/>
  <polygon points="1645.7,586.7 1680.0,586.7 1645.7,613.3" fill="rgb(217,138,70)"/>
  <polygon points="1680.0,586.7 1680.0,613.3 1645.7,613.3" fill="rgb(170,65,18)"/>
  <polygon points="1680.0,586.7 1714.3,586.7 1714.3,613.3" fill="rgb(3,69,42)"/>
  <polygon points="1680.0,586.7 1714.3,613.3 1680.0,613.3" fill="rgb(170,65,18)"/>
  <polygon points="1645.7,613.3 1680.0,613.3 1645.7,640.0" fill="rgb(210,95,50)"/>
  <polygon points="1680.0,613.3 1680.0,640.0 1645.7,640.0" fill="rgb(217,138,70)"/>
  <polygon points="1680.0,613.3 1714.3,613.3 1680.0,640.0" fill="rgb(170,65,18)"/>
  <polygon points="1714.3,613.3 1714.3,640.0 1680.0,640.0" fill="rgb(245,145,95)"/>
  <polygon points="1714.3,586.7 1782.9,586.7 1782.9,640.0" fill="rgb(245,145,95)"/>
  <polygon points="1714.3,586.7 1782.9,640.0 1714.3,640.0" fill="rgb(180,105,50)"/>
  <polygon points="1782.9,533.3 1920.0,533.3 1782.9,640.0" fill="rgb(210,95,50)"/>
  <polygon points="1920.0,533.3 1920.0,640.0 1782.9,640.0" fill="rgb(200,75,25)"/>
  <polygon points="0.0,0.0 768.0,0.0 576.0,640.0 0.0,640.0" fill="rgb(250,247,241)"/>
</svg>
