<?xml version="1.0" encoding="UTF-8" standalone="no"?>
<svg xmlns="http://www.w3.org/2000/svg" viewBox="0 0 1920 640" width="1920" height="640">
  <title>v8-mosaic-radial-foret</title>
  <rect width="1920" height="640" fill="rgb(250,247,241)"/>
  <polygon points="1440.0,320.0 1673.9,331.1 1653.7,397.6" fill="rgb(3,56,33)"/>
  <polygon points="1440.0,320.0 1653.7,397.6 1627.9,458.2" fill="rgb(3,69,42)"/>
  <polygon points="1440.0,320.0 1627.9,458.2 1594.6,508.5" fill="rgb(9,97,53)"/>
  <polygon points="1440.0,320.0 1594.6,508.5 1521.0,533.7" fill="rgb(26,128,80)"/>
  <polygon points="1440.0,320.0 1521.0,533.7 1430.1,545.2" fill="rgb(75,166,132)"/>
  <polygon points="1440.0,320.0 1430.1,545.2 1359.9,527.2" fill="rgb(140,180,154)"/>
  <polygon points="1440.0,320.0 1359.9,527.2 1302.5,504.2" fill="rgb(3,56,33)"/>
  <polygon points="1440.0,320.0 1302.5,504.2 1258.0,465.7" fill="rgb(3,69,42)"/>
  <polygon points="1440.0,320.0 1258.0,465.7 1226.5,398.0" fill="rgb(42,46,55)"/>
  <polygon points="1440.0,320.0 1226.5,398.0 1211.1,333.5" fill="rgb(26,128,80)"/>
  <polygon points="1440.0,320.0 1211.1,333.5 1214.2,254.3" fill="rgb(180,105,50)"/>
  <polygon points="1440.0,320.0 1214.2,254.3 1248.5,179.2" fill="rgb(9,97,53)"/>
  <polygon points="1440.0,320.0 1248.5,179.2 1309.0,117.1" fill="rgb(3,56,33)"/>
  <polygon points="1440.0,320.0 1309.0,117.1 1372.8,101.1" fill="rgb(3,69,42)"/>
  <polygon points="1440.0,320.0 1372.8,101.1 1434.3,80.0" fill="rgb(9,97,53)"/>
  <polygon points="1440.0,320.0 1434.3,80.0 1519.1,98.0" fill="rgb(26,128,80)"/>
  <polygon points="1440.0,320.0 1519.1,98.0 1588.4,128.8" fill="rgb(75,166,132)"/>
  <polygon points="1440.0,320.0 1588.4,128.8 1628.7,182.8" fill="rgb(140,180,154)"/>
  <polygon points="1440.0,320.0 1628.7,182.8 1660.4,252.5" fill="rgb(3,56,33)"/>
  <polygon points="1440.0,320.0 1660.4,252.5 1673.9,331.1" fill="rgb(3,69,42)"/>
  <polygon points="1673.9,331.1 1653.7,397.6 1917.4,292.5" fill="rgb(3,69,42)"/>
  <polygon points="1653.7,397.6 1883.9,477.6 1917.4,292.5" fill="rgb(9,97,53)"/>
  <polygon points="1653.7,397.6 1627.9,458.2 1831.2,571.1" fill="rgb(9,97,53)"/>
  <polygon points="1653.7,397.6 1831.2,571.1 1883.9,477.6" fill="rgb(26,128,80)"/>
  <polygon points="1627.9,458.2 1594.6,508.5 1831.2,571.1" fill="rgb(26,128,80)"/>
  <polygon points="1594.6,508.5 1692.1,706.1 1831.2,571.1" fill="rgb(75,166,132)"/>
  <polygon points="1594.6,508.5 1521.0,533.7 1576.5,772.8" fill="rgb(75,166,132)"/>
  <polygon points="1594.6,508.5 1576.5,772.8 1692.1,706.1" fill="rgb(140,180,154)"/>
  <polygon points="1521.0,533.7 1430.1,545.2 1576.5,772.8" fill="rgb(140,180,154)"/>
  <polygon points="1430.1,545.2 1417.3,796.7 1576.5,772.8" fill="rgb(3,56,33)"/>
  <polygon points="1430.1,545.2 1359.9,527.2 1302.3,753.6" fill="rgb(3,56,33)"/>
  <polygon points="1430.1,545.2 1302.3,753.6 1417.3,796.7" fill="rgb(3,69,42)"/>
  <polygon points="1359.9,527.2 1302.5,504.2 1302.3,753.6" fill="rgb(3,69,42)"/>
  <polygon points="1302.5,504.2 1149.4,691.3 1302.3,753.6" fill="rgb(42,46,55)"/>
  <polygon points="1302.5,504.2 1258.0,465.7 1077.7,613.2" fill="rgb(42,46,55)"/>
  <polygon points="1302.5,504.2 1077.7,613.2 1149.4,691.3" fill="rgb(26,128,80)"/>
  <polygon points="1258.0,465.7 1226.5,398.0 1077.7,613.2" fill="rgb(26,128,80)"/>
  <polygon points="1226.5,398.0 990.6,455.8 1077.7,613.2" fill="rgb(180,105,50)"/>
  <polygon points="1226.5,398.0 1211.1,333.5 976.2,346.2" fill="rgb(180,105,50)"/>
  <polygon points="1226.5,398.0 976.2,346.2 990.6,455.8" fill="rgb(9,97,53)"/>
  <polygon points="1211.1,333.5 1214.2,254.3 976.2,346.2" fill="rgb(9,97,53)"/>
  <polygon points="1214.2,254.3 998.1,195.6 976.2,346.2" fill="rgb(3,56,33)"/>
  <polygon points="1214.2,254.3 1248.5,179.2 1073.8,31.5" fill="rgb(3,56,33)"/>
  <polygon points="1214.2,254.3 1073.8,31.5 998.1,195.6" fill="rgb(3,69,42)"/>
  <polygon points="1248.5,179.2 1309.0,117.1 1073.8,31.5" fill="rgb(3,69,42)"/>
  <polygon points="1309.0,117.1 1163.9,-45.9 1073.8,31.5" fill="rgb(9,97,53)"/>
  <polygon points="1309.0,117.1 1372.8,101.1 1278.6,-110.4" fill="rgb(9,97,53)"/>
  <polygon points="1309.0,117.1 1278.6,-110.4 1163.9,-45.9" fill="rgb(26,128,80)"/>
  <polygon points="1372.8,101.1 1434.3,80.0 1278.6,-110.4" fill="rgb(26,128,80)"/>
  <polygon points="1434.3,80.0 1442.6,-138.7 1278.6,-110.4" fill="rgb(75,166,132)"/>
  <polygon points="1434.3,80.0 1519.1,98.0 1610.0,-121.7" fill="rgb(75,166,132)"/>
  <polygon points="1434.3,80.0 1610.0,-121.7 1442.6,-138.7" fill="rgb(140,180,154)"/>
  <polygon points="1519.1,98.0 1588.4,128.8 1610.0,-121.7" fill="rgb(140,180,154)"/>
  <polygon points="1588.4,128.8 1741.3,-49.4 1610.0,-121.7" fill="rgb(3,56,33)"/>
  <polygon points="1588.4,128.8 1628.7,182.8 1827.0,58.0" fill="rgb(3,56,33)"/>
  <polygon points="1588.4,128.8 1827.0,58.0 1741.3,-49.4" fill="rgb(3,69,42)"/>
  <polygon points="1628.7,182.8 1660.4,252.5 1827.0,58.0" fill="rgb(3,69,42)"/>
  <polygon points="1660.4,252.5 1881.2,185.2 1827.0,58.0" fill="rgb(42,46,55)"/>
  <polygon points="1660.4,252.5 1673.9,331.1 1917.4,292.5" fill="rgb(42,46,55)"/>
  <polygon points="1660.4,252.5 1917.4,292.5 1881.2,185.2" fill="rgb(26,128,80)"/>
  <polygon points="1917.4,292.5 1883.9,477.6 2105.3,513.5" fill="rgb(9,97,53)"/>
  <polygon points="1917.4,292.5 2105.3,513.5 2148.1,302.1" fill="rgb(26,128,80)"/>
  <polygon points="1883.9,477.6 1831.2,571.1 2105.3,513.5" fill="rgb(26,128,80)"/>
  <polygon points="1831.2,571.1 2000.0,744.4 2105.3,513.5" fill="rgb(75,166,132)"/>
  <polygon points="1831.2,571.1 1692.1,706.1 1868.9,870.9" fill="rgb(75,166,132)"/>
  <polygon points="1831.2,571.1 1868.9,870.9 2000.0,744.4" fill="rgb(140,180,154)"/>
  <polygon points="1692.1,706.1 1576.5,772.8 1868.9,870.9" fill="rgb(140,180,154)"/>
  <polygon points="1576.5,772.8 1683.9,976.0 1868.9,870.9" fill="rgb(3,56,33)"/>
  <polygon points="1576.5,772.8 1417.3,796.7 1410.8,1026.6" fill="rgb(3,56,33)"/>
  <polygon points="1576.5,772.8 1410.8,1026.6 1683.9,976.0" fill="rgb(3,69,42)"/>
  <polygon points="1417.3,796.7 1302.3,753.6 1410.8,1026.6" fill="rgb(3,69,42)"/>
  <polygon points="1302.3,753.6 1236.4,979.9 1410.8,1026.6" fill="rgb(42,46,55)"/>
  <polygon points="1302.3,753.6 1149.4,691.3 1039.9,905.7" fill="rgb(42,46,55)"/>
  <polygon points="1302.3,753.6 1039.9,905.7 1236.4,979.9" fill="rgb(26,128,80)"/>
  <polygon points="1149.4,691.3 1077.7,613.2 1039.9,905.7" fill="rgb(26,128,80)"/>
  <polygon points="1077.7,613.2 847.8,708.5 1039.9,905.7" fill="rgb(180,105,50)"/>
  <polygon points="1077.7,613.2 990.6,455.8 764.5,521.7" fill="rgb(180,105,50)"/>
  <polygon points="1077.7,613.2 764.5,521.7 847.8,708.5" fill="rgb(9,97,53)"/>
  <polygon points="990.6,455.8 976.2,346.2 764.5,521.7" fill="rgb(9,97,53)"/>
  <polygon points="976.2,346.2 742.6,340.7 764.5,521.7" fill="rgb(3,56,33)"/>
  <polygon points="976.2,346.2 998.1,195.6 765.6,137.9" fill="rgb(3,56,33)"/>
  <polygon points="976.2,346.2 765.6,137.9 742.6,340.7" fill="rgb(3,69,42)"/>
  <polygon points="998.1,195.6 1073.8,31.5 765.6,137.9" fill="rgb(3,69,42)"/>
  <polygon points="1073.8,31.5 887.9,-95.4 765.6,137.9" fill="rgb(9,97,53)"/>
  <polygon points="1073.8,31.5 1163.9,-45.9 1014.7,-228.5" fill="rgb(9,97,53)"/>
  <polygon points="1073.8,31.5 1014.7,-228.5 887.9,-95.4" fill="rgb(26,128,80)"/>
  <polygon points="1163.9,-45.9 1278.6,-110.4 1014.7,-228.5" fill="rgb(26,128,80)"/>
  <polygon points="1278.6,-110.4 1235.8,-360.9 1014.7,-228.5" fill="rgb(75,166,132)"/>
  <polygon points="1278.6,-110.4 1442.6,-138.7 1442.4,-379.9" fill="rgb(75,166,132)"/>
  <polygon points="1278.6,-110.4 1442.4,-379.9 1235.8,-360.9" fill="rgb(140,180,154)"/>
  <polygon points="1442.6,-138.7 1610.0,-121.7 1442.4,-379.9" fill="rgb(140,180,154)"/>
  <polygon points="1610.0,-121.7 1686.3,-323.0 1442.4,-379.9" fill="rgb(3,56,33)"/>
  <polygon points="1610.0,-121.7 1741.3,-49.4 1835.1,-255.3" fill="rgb(3,56,33)"/>
  <polygon points="1610.0,-121.7 1835.1,-255.3 1686.3,-323.0" fill="rgb(3,69,42)"/>
  <polygon points="1741.3,-49.4 1827.0,58.0 1835.1,-255.3" fill="rgb(3,69,42)"/>
  <polygon points="1827.0,58.0 2012.2,-69.5 1835.1,-255.3" fill="rgb(42,46,55)"/>
  <polygon points="1827.0,58.0 1881.2,185.2 2107.2,105.1" fill="rgb(42,46,55)"/>
  <polygon points="1827.0,58.0 2107.2,105.1 2012.2,-69.5" fill="rgb(26,128,80)"/>
  <polygon points="1881.2,185.2 1917.4,292.5 2107.2,105.1" fill="rgb(26,128,80)"/>
  <polygon points="1917.4,292.5 2148.1,302.1 2107.2,105.1" fill="rgb(180,105,50)"/>
  <polygon points="2148.1,302.1 2105.3,513.5 2370.9,372.7" fill="rgb(26,128,80)"/>
  <polygon points="2105.3,513.5 2340.9,605.2 2370.9,372.7" fill="rgb(75,166,132)"/>
  <polygon points="2105.3,513.5 2000.0,744.4 2154.1,905.1" fill="rgb(75,166,132)"/>
  <polygon points="2105.3,513.5 2154.1,905.1 2340.9,605.2" fill="rgb(140,180,154)"/>
  <polygon points="2000.0,744.4 1868.9,870.9 2154.1,905.1" fill="rgb(140,180,154)"/>
  <polygon points="1868.9,870.9 1954.9,1091.5 2154.1,905.1" fill="rgb(3,56,33)"/>
  <polygon points="1868.9,870.9 1683.9,976.0 1693.9,1205.7" fill="rgb(3,56,33)"/>
  <polygon points="1868.9,870.9 1693.9,1205.7 1954.9,1091.5" fill="rgb(3,69,42)"/>
  <polygon points="1683.9,976.0 1410.8,1026.6 1693.9,1205.7" fill="rgb(3,69,42)"/>
  <polygon points="1410.8,1026.6 1397.3,1251.6 1693.9,1205.7" fill="rgb(42,46,55)"/>
  <polygon points="1410.8,1026.6 1236.4,979.9 1143.6,1198.2" fill="rgb(42,46,55)"/>
  <polygon points="1410.8,1026.6 1143.6,1198.2 1397.3,1251.6" fill="rgb(26,128,80)"/>
  <polygon points="1236.4,979.9 1039.9,905.7 1143.6,1198.2" fill="rgb(26,128,80)"/>
  <polygon points="1039.9,905.7 899.0,1094.8 1143.6,1198.2" fill="rgb(180,105,50)"/>
  <polygon points="1039.9,905.7 847.8,708.5 669.7,828.3" fill="rgb(180,105,50)"/>
  <polygon points="1039.9,905.7 669.7,828.3 899.0,1094.8" fill="rgb(9,97,53)"/>
  <polygon points="847.8,708.5 764.5,521.7 669.7,828.3" fill="rgb(9,97,53)"/>
  <polygon points="764.5,521.7 565.4,662.5 669.7,828.3" fill="rgb(3,56,33)"/>
  <polygon points="764.5,521.7 742.6,340.7 511.1,359.5" fill="rgb(3,56,33)"/>
  <polygon points="764.5,521.7 511.1,359.5 565.4,662.5" fill="rgb(3,69,42)"/>
  <polygon points="742.6,340.7 765.6,137.9 511.1,359.5" fill="rgb(3,69,42)"/>
  <polygon points="765.6,137.9 564.9,1.7 511.1,359.5" fill="rgb(9,97,53)"/>
  <polygon points="765.6,137.9 887.9,-95.4 678.3,-222.1" fill="rgb(9,97,53)"/>
  <polygon points="765.6,137.9 678.3,-222.1 564.9,1.7" fill="rgb(26,128,80)"/>
  <polygon points="887.9,-95.4 1014.7,-228.5 678.3,-222.1" fill="rgb(26,128,80)"/>
  <polygon points="1014.7,-228.5 914.6,-451.0 678.3,-222.1" fill="rgb(75,166,132)"/>
  <polygon points="1014.7,-228.5 1235.8,-360.9 1152.0,-557.0" fill="rgb(75,166,132)"/>
  <polygon points="1014.7,-228.5 1152.0,-557.0 914.6,-451.0" fill="rgb(140,180,154)"/>
  <polygon points="1235.8,-360.9 1442.4,-379.9 1152.0,-557.0" fill="rgb(140,180,154)"/>
  <polygon points="1442.4,-379.9 1458.5,-617.0 1152.0,-557.0" fill="rgb(3,56,33)"/>
  <polygon points="1442.4,-379.9 1686.3,-323.0 1775.9,-550.6" fill="rgb(3,56,33)"/>
  <polygon points="1442.4,-379.9 1775.9,-550.6 1458.5,-617.0" fill="rgb(3,69,42)"/>
  <polygon points="1686.3,-323.0 1835.1,-255.3 1775.9,-550.6" fill="rgb(3,69,42)"/>
  <polygon points="1835.1,-255.3 1947.9,-458.5 1775.9,-550.6" fill="rgb(42,46,55)"/>
  <polygon points="1835.1,-255.3 2012.2,-69.5 2227.8,-197.4" fill="rgb(42,46,55)"/>
  <polygon points="1835.1,-255.3 2227.8,-197.4 1947.9,-458.5" fill="rgb(26,128,80)"/>
  <polygon points="2012.2,-69.5 2107.2,105.1 2227.8,-197.4" fill="rgb(26,128,80)"/>
  <polygon points="2107.2,105.1 2344.8,77.8 2227.8,-197.4" fill="rgb(180,105,50)"/>
  <polygon points="2107.2,105.1 2148.1,302.1 2370.9,372.7" fill="rgb(180,105,50)"/>
  <polygon points="2107.2,105.1 2370.9,372.7 2344.8,77.8" fill="rgb(9,97,53)"/>
  <polygon points="2370.9,372.7 2340.9,605.2 2550.5,668.3" fill="rgb(75,166,132)"/>
  <polygon points="2370.9,372.7 2550.5,668.3 2606.8,316.5" fill="rgb(140,180,154)"/>
  <polygon points="2340.9,605.2 2154.1,905.1 2550.5,668.3" fill="rgb(140,180,154)"/>
  <polygon points="2154.1,905.1 2389.4,994.2 2550.5,668.3" fill="rgb(3,56,33)"/>
  <polygon points="2154.1,905.1 1954.9,1091.5 2133.0,1251.3" fill="rgb(3,56,33)"/>
  <polygon points="2154.1,905.1 2133.0,1251.3 2389.4,994.2" fill="rgb(3,69,42)"/>
  <polygon points="1954.9,1091.5 1693.9,1205.7 2133.0,1251.3" fill="rgb(3,69,42)"/>
  <polygon points="1693.9,1205.7 1851.8,1400.6 2133.0,1251.3" fill="rgb(42,46,55)"/>
  <polygon points="1693.9,1205.7 1397.3,1251.6 1441.5,1490.8" fill="rgb(42,46,55)"/>
  <polygon points="1693.9,1205.7 1441.5,1490.8 1851.8,1400.6" fill="rgb(26,128,80)"/>
  <polygon points="1397.3,1251.6 1143.6,1198.2 1441.5,1490.8" fill="rgb(26,128,80)"/>
  <polygon points="1143.6,1198.2 1069.4,1435.3 1441.5,1490.8" fill="rgb(180,105,50)"/>
  <polygon points="1143.6,1198.2 899.0,1094.8 750.4,1249.3" fill="rgb(180,105,50)"/>
  <polygon points="1143.6,1198.2 750.4,1249.3 1069.4,1435.3" fill="rgb(9,97,53)"/>
  <polygon points="899.0,1094.8 669.7,828.3 750.4,1249.3" fill="rgb(9,97,53)"/>
  <polygon points="669.7,828.3 470.1,976.5 750.4,1249.3" fill="rgb(3,56,33)"/>
  <polygon points="669.7,828.3 565.4,662.5 306.8,619.8" fill="rgb(3,56,33)"/>
  <polygon points="669.7,828.3 306.8,619.8 470.1,976.5" fill="rgb(3,69,42)"/>
  <polygon points="565.4,662.5 511.1,359.5 306.8,619.8" fill="rgb(3,69,42)"/>
  <polygon points="511.1,359.5 279.3,312.7 306.8,619.8" fill="rgb(9,97,53)"/>
  <polygon points="511.1,359.5 564.9,1.7 320.6,11.0" fill="rgb(9,97,53)"/>
  <polygon points="511.1,359.5 320.6,11.0 279.3,312.7" fill="rgb(26,128,80)"/>
  <polygon points="564.9,1.7 678.3,-222.1 320.6,11.0" fill="rgb(26,128,80)"/>
  <polygon points="678.3,-222.1 461.3,-328.1 320.6,11.0" fill="rgb(75,166,132)"/>
  <polygon points="678.3,-222.1 914.6,-451.0 747.3,-608.4" fill="rgb(75,166,132)"/>
  <polygon points="678.3,-222.1 747.3,-608.4 461.3,-328.1" fill="rgb(140,180,154)"/>
  <polygon points="914.6,-451.0 1152.0,-557.0 747.3,-608.4" fill="rgb(140,180,154)"/>
  <polygon points="1152.0,-557.0 1027.3,-763.4 747.3,-608.4" fill="rgb(3,56,33)"/>
  <polygon points="1152.0,-557.0 1458.5,-617.0 1470.8,-838.0" fill="rgb(3,56,33)"/>
  <polygon points="1152.0,-557.0 1470.8,-838.0 1027.3,-763.4" fill="rgb(3,69,42)"/>
  <polygon points="1458.5,-617.0 1775.9,-550.6 1470.8,-838.0" fill="rgb(3,69,42)"/>
  <polygon points="1775.9,-550.6 1859.6,-768.3 1470.8,-838.0" fill="rgb(42,46,55)"/>
  <polygon points="1775.9,-550.6 1947.9,-458.5 2105.5,-631.5" fill="rgb(42,46,55)"/>
  <polygon points="1775.9,-550.6 2105.5,-631.5 1859.6,-768.3" fill="rgb(26,128,80)"/>
  <polygon points="1947.9,-458.5 2227.8,-197.4 2105.5,-631.5" fill="rgb(26,128,80)"/>
  <polygon points="2227.8,-197.4 2380.6,-369.2 2105.5,-631.5" fill="rgb(180,105,50)"/>
  <polygon points="2227.8,-197.4 2344.8,77.8 2569.1,-1.2" fill="rgb(180,105,50)"/>
  <polygon points="2227.8,-197.4 2569.1,-1.2 2380.6,-369.2" fill="rgb(9,97,53)"/>
  <polygon points="2344.8,77.8 2370.9,372.7 2569.1,-1.2" fill="rgb(9,97,53)"/>
  <polygon points="2370.9,372.7 2606.8,316.5 2569.1,-1.2" fill="rgb(3,56,33)"/>
  <polygon points="2606.8,316.5 2550.5,668.3 2840.7,289.5" fill="rgb(140,180,154)"/>
  <polygon points="2550.5,668.3 2790.2,699.2 2840.7,289.5" fill="rgb(3,56,33)"/>
  <polygon points="2550.5,668.3 2389.4,994.2 2619.2,1092.5" fill="rgb(3,56,33)"/>
  <polygon points="2550.5,668.3 2619.2,1092.5 2790.2,699.2" fill="rgb(3,69,42)"/>
  <polygon points="2389.4,994.2 2133.0,1251.3 2619.2,1092.5" fill="rgb(3,69,42)"/>
  <polygon points="2133.0,1251.3 2219.2,1484.9 2619.2,1092.5" fill="rgb(42,46,55)"/>
  <polygon points="2133.0,1251.3 1851.8,1400.6 1895.2,1635.9" fill="rgb(42,46,55)"/>
  <polygon points="2133.0,1251.3 1895.2,1635.9 2219.2,1484.9" fill="rgb(26,128,80)"/>
  <polygon points="1851.8,1400.6 1441.5,1490.8 1895.2,1635.9" fill="rgb(26,128,80)"/>
  <polygon points="1441.5,1490.8 1388.9,1721.2 1895.2,1635.9" fill="rgb(180,105,50)"/>
  <polygon points="1441.5,1490.8 1069.4,1435.3 933.7,1637.8" fill="rgb(180,105,50)"/>
  <polygon points="1441.5,1490.8 933.7,1637.8 1388.9,1721.2" fill="rgb(9,97,53)"/>
  <polygon points="1069.4,1435.3 750.4,1249.3 933.7,1637.8" fill="rgb(9,97,53)"/>
  <polygon points="750.4,1249.3 571.7,1431.8 933.7,1637.8" fill="rgb(3,56,33)"/>
  <polygon points="750.4,1249.3 470.1,976.5 344.5,1196.7" fill="rgb(3,56,33)"/>
  <polygon points="750.4,1249.3 344.5,1196.7 571.7,1431.8" fill="rgb(3,69,42)"/>
  <polygon points="470.1,976.5 306.8,619.8 344.5,1196.7" fill="rgb(3,69,42)"/>
  <polygon points="306.8,619.8 100.3,762.2 344.5,1196.7" fill="rgb(9,97,53)"/>
  <polygon points="306.8,619.8 279.3,312.7 36.2,338.3" fill="rgb(9,97,53)"/>
  <polygon points="306.8,619.8 36.2,338.3 100.3,762.2" fill="rgb(26,128,80)"/>
  <polygon points="279.3,312.7 320.6,11.0 36.2,338.3" fill="rgb(26,128,80)"/>
  <polygon points="320.6,11.0 109.5,-144.3 36.2,338.3" fill="rgb(75,166,132)"/>
  <polygon points="320.6,11.0 461.3,-328.1 340.8,-555.6" fill="rgb(75,166,132)"/>
  <polygon points="320.6,11.0 340.8,-555.6 109.5,-144.3" fill="rgb(140,180,154)"/>
  <polygon points="461.3,-328.1 747.3,-608.4 340.8,-555.6" fill="rgb(140,180,154)"/>
  <polygon points="747.3,-608.4 604.9,-798.8 340.8,-555.6" fill="rgb(3,56,33)"/>
  <polygon points="747.3,-608.4 1027.3,-763.4 983.0,-1000.6" fill="rgb(3,56,33)"/>
  <polygon points="747.3,-608.4 983.0,-1000.6 604.9,-798.8" fill="rgb(3,69,42)"/>
  <polygon points="1027.3,-763.4 1470.8,-838.0 983.0,-1000.6" fill="rgb(3,69,42)"/>
  <polygon points="1470.8,-838.0 1417.8,-1067.8 983.0,-1000.6" fill="rgb(42,46,55)"/>
  <polygon points="1470.8,-838.0 1859.6,-768.3 1891.2,-1016.8" fill="rgb(42,46,55)"/>
  <polygon points="1470.8,-838.0 1891.2,-1016.8 1417.8,-1067.8" fill="rgb(26,128,80)"/>
  <polygon points="1859.6,-768.3 2105.5,-631.5 1891.2,-1016.8" fill="rgb(26,128,80)"/>
  <polygon points="2105.5,-631.5 2318.4,-769.6 1891.2,-1016.8" fill="rgb(180,105,50)"/>
  <polygon points="2105.5,-631.5 2380.6,-369.2 2592.1,-475.8" fill="rgb(180,105,50)"/>
  <polygon points="2105.5,-631.5 2592.1,-475.8 2318.4,-769.6" fill="rgb(9,97,53)"/>
  <polygon points="2380.6,-369.2 2569.1,-1.2 2592.1,-475.8" fill="rgb(9,97,53)"/>
  <polygon points="2569.1,-1.2 2789.6,-69.7 2592.1,-475.8" fill="rgb(3,56,33)"/>
  <polygon points="2569.1,-1.2 2606.8,316.5 2840.7,289.5" fill="rgb(3,56,33)"/>
  <polygon points="2569.1,-1.2 2840.7,289.5 2789.6,-69.7" fill="rgb(3,69,42)"/>
  <polygon points="0.0,0.0 768.0,0.0 576.0,640.0 0.0,640.0" fill="rgb(250,247,241)"/>
</svg>
