<?xml version="1.0" encoding="UTF-8" standalone="no"?>
<svg xmlns="http://www.w3.org/2000/svg" viewBox="0 0 1920 640" width="1920" height="640">
  <title>v8-mosaic-hexagonal</title>
  <rect width="1920" height="640" fill="rgb(250,247,241)"/>
  <polygon points="-34.9,-20.1 -82.5,7.4 -130.1,-20.1 -130.1,-75.1 -82.5,-102.6 -34.9,-75.1" fill="rgb(180,105,50)"/>
  <polygon points="-34.9,75.1 -82.5,102.6 -130.1,75.1 -130.1,20.1 -82.5,-7.4 -34.9,20.1" fill="rgb(3,69,42)"/>
  <polygon points="-34.9,170.4 -82.5,197.9 -130.1,170.4 -130.1,115.4 -82.5,87.9 -34.9,115.4" fill="rgb(26,128,80)"/>
  <polygon points="-34.9,265.7 -82.5,293.2 -130.1,265.7 -130.1,210.7 -82.5,183.2 -34.9,210.7" fill="rgb(42,46,55)"/>
  <polygon points="-34.9,360.9 -82.5,388.4 -130.1,360.9 -130.1,305.9 -82.5,278.4 -34.9,305.9" fill="rgb(140,180,154)"/>
  <polygon points="-34.9,456.2 -82.5,483.7 -130.1,456.2 -130.1,401.2 -82.5,373.7 -34.9,401.2" fill="rgb(3,69,42)"/>
  <polygon points="-34.9,551.4 -82.5,578.9 -130.1,551.4 -130.1,496.4 -82.5,468.9 -34.9,496.4" fill="rgb(26,128,80)"/>
  <polygon points="-34.9,646.7 -82.5,674.2 -130.1,646.7 -130.1,591.7 -82.5,564.2 -34.9,591.7" fill="rgb(42,46,55)"/>
  <polygon points="-34.9,742.0 -82.5,769.5 -130.1,742.0 -130.1,687.0 -82.5,659.5 -34.9,687.0" fill="rgb(180,105,50)"/>
  <polygon points="47.6,-67.8 0.0,-40.3 -47.6,-67.8 -47.6,-122.8 -0.0,-150.3 47.6,-122.8" fill="rgb(200,75,25)"/>
  <polygon points="47.6,27.5 0.0,55.0 -47.6,27.5 -47.6,-27.5 -0.0,-55.0 47.6,-27.5" fill="rgb(3,56,33)"/>
  <polygon points="47.6,122.8 0.0,150.3 -47.6,122.8 -47.6,67.8 -0.0,40.3 47.6,67.8" fill="rgb(75,166,132)"/>
  <polygon points="47.6,218.0 0.0,245.5 -47.6,218.0 -47.6,163.0 -0.0,135.5 47.6,163.0" fill="rgb(236,99,36)"/>
  <polygon points="47.6,313.3 0.0,340.8 -47.6,313.3 -47.6,258.3 -0.0,230.8 47.6,258.3" fill="rgb(200,75,25)"/>
  <polygon points="47.6,408.6 0.0,436.1 -47.6,408.6 -47.6,353.6 -0.0,326.1 47.6,353.6" fill="rgb(3,69,42)"/>
  <polygon points="47.6,503.8 0.0,531.3 -47.6,503.8 -47.6,448.8 -0.0,421.3 47.6,448.8" fill="rgb(26,128,80)"/>
  <polygon points="47.6,599.1 0.0,626.6 -47.6,599.1 -47.6,544.1 -0.0,516.6 47.6,544.1" fill="rgb(236,99,36)"/>
  <polygon points="47.6,694.3 0.0,721.8 -47.6,694.3 -47.6,639.3 -0.0,611.8 47.6,639.3" fill="rgb(200,75,25)"/>
  <polygon points="130.1,-20.1 82.5,7.4 34.9,-20.1 34.9,-75.1 82.5,-102.6 130.1,-75.1" fill="rgb(3,69,42)"/>
  <polygon points="130.1,75.1 82.5,102.6 34.9,75.1 34.9,20.1 82.5,-7.4 130.1,20.1" fill="rgb(9,97,53)"/>
  <polygon points="130.1,170.4 82.5,197.9 34.9,170.4 34.9,115.4 82.5,87.9 130.1,115.4" fill="rgb(42,46,55)"/>
  <polygon points="130.1,265.7 82.5,293.2 34.9,265.7 34.9,210.7 82.5,183.2 130.1,210.7" fill="rgb(180,105,50)"/>
  <polygon points="130.1,360.9 82.5,388.4 34.9,360.9 34.9,305.9 82.5,278.4 130.1,305.9" fill="rgb(3,69,42)"/>
  <polygon points="130.1,456.2 82.5,483.7 34.9,456.2 34.9,401.2 82.5,373.7 130.1,401.2" fill="rgb(9,97,53)"/>
  <polygon points="130.1,551.4 82.5,578.9 34.9,551.4 34.9,496.4 82.5,468.9 130.1,496.4" fill="rgb(42,46,55)"/>
  <polygon points="130.1,646.7 82.5,674.2 34.9,646.7 34.9,591.7 82.5,564.2 130.1,591.7" fill="rgb(180,105,50)"/>
  <polygon points="130.1,742.0 82.5,769.5 34.9,742.0 34.9,687.0 82.5,659.5 130.1,687.0" fill="rgb(200,75,25)"/>
  <polygon points="212.6,-67.8 165.0,-40.3 117.4,-67.8 117.4,-122.8 165.0,-150.3 212.6,-122.8" fill="rgb(3,69,42)"/>
  <polygon points="212.6,27.5 165.0,55.0 117.4,27.5 117.4,-27.5 165.0,-55.0 212.6,-27.5" fill="rgb(26,128,80)"/>
  <polygon points="212.6,122.8 165.0,150.3 117.4,122.8 117.4,67.8 165.0,40.3 212.6,67.8" fill="rgb(42,46,55)"/>
  <polygon points="212.6,218.0 165.0,245.5 117.4,218.0 117.4,163.0 165.0,135.5 212.6,163.0" fill="rgb(180,105,50)"/>
  <polygon points="212.6,313.3 165.0,340.8 117.4,313.3 117.4,258.3 165.0,230.8 212.6,258.3" fill="rgb(3,69,42)"/>
  <polygon points="212.6,408.6 165.0,436.1 117.4,408.6 117.4,353.6 165.0,326.1 212.6,353.6" fill="rgb(26,128,80)"/>
  <polygon points="212.6,503.8 165.0,531.3 117.4,503.8 117.4,448.8 165.0,421.3 212.6,448.8" fill="rgb(42,46,55)"/>
  <polygon points="212.6,599.1 165.0,626.6 117.4,599.1 117.4,544.1 165.0,516.6 212.6,544.1" fill="rgb(180,105,50)"/>
  <polygon points="212.6,694.3 165.0,721.8 117.4,694.3 117.4,639.3 165.0,611.8 212.6,639.3" fill="rgb(3,69,42)"/>
  <polygon points="295.1,-20.1 247.5,7.4 199.9,-20.1 199.9,-75.1 247.5,-102.6 295.1,-75.1" fill="rgb(3,69,42)"/>
  <polygon points="295.1,75.1 247.5,102.6 199.9,75.1 199.9,20.1 247.5,-7.4 295.1,20.1" fill="rgb(26,128,80)"/>
  <polygon points="295.1,170.4 247.5,197.9 199.9,170.4 199.9,115.4 247.5,87.9 295.1,115.4" fill="rgb(236,99,36)"/>
  <polygon points="295.1,265.7 247.5,293.2 199.9,265.7 199.9,210.7 247.5,183.2 295.1,210.7" fill="rgb(140,180,154)"/>
  <polygon points="295.1,360.9 247.5,388.4 199.9,360.9 199.9,305.9 247.5,278.4 295.1,305.9" fill="rgb(3,56,33)"/>
  <polygon points="295.1,456.2 247.5,483.7 199.9,456.2 199.9,401.2 247.5,373.7 295.1,401.2" fill="rgb(26,128,80)"/>
  <polygon points="295.1,551.4 247.5,578.9 199.9,551.4 199.9,496.4 247.5,468.9 295.1,496.4" fill="rgb(236,99,36)"/>
  <polygon points="295.1,646.7 247.5,674.2 199.9,646.7 199.9,591.7 247.5,564.2 295.1,591.7" fill="rgb(140,180,154)"/>
  <polygon points="295.1,742.0 247.5,769.5 199.9,742.0 199.9,687.0 247.5,659.5 295.1,687.0" fill="rgb(3,69,42)"/>
  <polygon points="377.6,-67.8 330.0,-40.3 282.4,-67.8 282.4,-122.8 330.0,-150.3 377.6,-122.8" fill="rgb(3,69,42)"/>
  <polygon points="377.6,27.5 330.0,55.0 282.4,27.5 282.4,-27.5 330.0,-55.0 377.6,-27.5" fill="rgb(42,46,55)"/>
  <polygon points="377.6,122.8 330.0,150.3 282.4,122.8 282.4,67.8 330.0,40.3 377.6,67.8" fill="rgb(217,138,70)"/>
  <polygon points="377.6,218.0 330.0,245.5 282.4,218.0 282.4,163.0 330.0,135.5 377.6,163.0" fill="rgb(200,75,25)"/>
  <polygon points="377.6,313.3 330.0,340.8 282.4,313.3 282.4,258.3 330.0,230.8 377.6,258.3" fill="rgb(9,97,53)"/>
  <polygon points="377.6,408.6 330.0,436.1 282.4,408.6 282.4,353.6 330.0,326.1 377.6,353.6" fill="rgb(42,46,55)"/>
  <polygon points="377.6,503.8 330.0,531.3 282.4,503.8 282.4,448.8 330.0,421.3 377.6,448.8" fill="rgb(217,138,70)"/>
  <polygon points="377.6,599.1 330.0,626.6 282.4,599.1 282.4,544.1 330.0,516.6 377.6,544.1" fill="rgb(3,69,42)"/>
  <polygon points="377.6,694.3 330.0,721.8 282.4,694.3 282.4,639.3 330.0,611.8 377.6,639.3" fill="rgb(9,97,53)"/>
  <polygon points="460.1,-20.1 412.5,7.4 364.9,-20.1 364.9,-75.1 412.5,-102.6 460.1,-75.1" fill="rgb(26,128,80)"/>
  <polygon points="460.1,75.1 412.5,102.6 364.9,75.1 364.9,20.1 412.5,-7.4 460.1,20.1" fill="rgb(42,46,55)"/>
  <polygon points="460.1,170.4 412.5,197.9 364.9,170.4 364.9,115.4 412.5,87.9 460.1,115.4" fill="rgb(180,105,50)"/>
  <polygon points="460.1,265.7 412.5,293.2 364.9,265.7 364.9,210.7 412.5,183.2 460.1,210.7" fill="rgb(3,69,42)"/>
  <polygon points="460.1,360.9 412.5,388.4 364.9,360.9 364.9,305.9 412.5,278.4 460.1,305.9" fill="rgb(26,128,80)"/>
  <polygon points="460.1,456.2 412.5,483.7 364.9,456.2 364.9,401.2 412.5,373.7 460.1,401.2" fill="rgb(236,99,36)"/>
  <polygon points="460.1,551.4 412.5,578.9 364.9,551.4 364.9,496.4 412.5,468.9 460.1,496.4" fill="rgb(180,105,50)"/>
  <polygon points="460.1,646.7 412.5,674.2 364.9,646.7 364.9,591.7 412.5,564.2 460.1,591.7" fill="rgb(3,56,33)"/>
  <polygon points="460.1,742.0 412.5,769.5 364.9,742.0 364.9,687.0 412.5,659.5 460.1,687.0" fill="rgb(9,97,53)"/>
  <polygon points="542.6,-67.8 495.0,-40.3 447.4,-67.8 447.4,-122.8 495.0,-150.3 542.6,-122.8" fill="rgb(26,128,80)"/>
  <polygon points="542.6,27.5 495.0,55.0 447.4,27.5 447.4,-27.5 495.0,-55.0 542.6,-27.5" fill="rgb(236,99,36)"/>
  <polygon points="542.6,122.8 495.0,150.3 447.4,122.8 447.4,67.8 495.0,40.3 542.6,67.8" fill="rgb(140,180,154)"/>
  <polygon points="542.6,218.0 495.0,245.5 447.4,218.0 447.4,163.0 495.0,135.5 542.6,163.0" fill="rgb(3,56,33)"/>
  <polygon points="542.6,313.3 495.0,340.8 447.4,313.3 447.4,258.3 495.0,230.8 542.6,258.3" fill="rgb(26,128,80)"/>
  <polygon points="542.6,408.6 495.0,436.1 447.4,408.6 447.4,353.6 495.0,326.1 542.6,353.6" fill="rgb(217,138,70)"/>
  <polygon points="542.6,503.8 495.0,531.3 447.4,503.8 447.4,448.8 495.0,421.3 542.6,448.8" fill="rgb(200,75,25)"/>
  <polygon points="542.6,599.1 495.0,626.6 447.4,599.1 447.4,544.1 495.0,516.6 542.6,544.1" fill="rgb(3,56,33)"/>
  <polygon points="542.6,694.3 495.0,721.8 447.4,694.3 447.4,639.3 495.0,611.8 542.6,639.3" fill="rgb(75,166,132)"/>
  <polygon points="625.1,-20.1 577.5,7.4 529.9,-20.1 529.9,-75.1 577.5,-102.6 625.1,-75.1" fill="rgb(75,166,132)"/>
  <polygon points="625.1,75.1 577.5,102.6 529.9,75.1 529.9,20.1 577.5,-7.4 625.1,20.1" fill="rgb(217,138,70)"/>
  <polygon points="625.1,170.4 577.5,197.9 529.9,170.4 529.9,115.4 577.5,87.9 625.1,115.4" fill="rgb(3,69,42)"/>
  <polygon points="625.1,265.7 577.5,293.2 529.9,265.7 529.9,210.7 577.5,183.2 625.1,210.7" fill="rgb(9,97,53)"/>
  <polygon points="625.1,360.9 577.5,388.4 529.9,360.9 529.9,305.9 577.5,278.4 625.1,305.9" fill="rgb(42,46,55)"/>
  <polygon points="625.1,456.2 577.5,483.7 529.9,456.2 529.9,401.2 577.5,373.7 625.1,401.2" fill="rgb(217,138,70)"/>
  <polygon points="625.1,551.4 577.5,578.9 529.9,551.4 529.9,496.4 577.5,468.9 625.1,496.4" fill="rgb(200,75,25)"/>
  <polygon points="625.1,646.7 577.5,674.2 529.9,646.7 529.9,591.7 577.5,564.2 625.1,591.7" fill="rgb(9,97,53)"/>
  <polygon points="625.1,742.0 577.5,769.5 529.9,742.0 529.9,687.0 577.5,659.5 625.1,687.0" fill="rgb(75,166,132)"/>
  <polygon points="707.6,-67.8 660.0,-40.3 612.4,-67.8 612.4,-122.8 660.0,-150.3 707.6,-122.8" fill="rgb(42,46,55)"/>
  <polygon points="707.6,27.5 660.0,55.0 612.4,27.5 612.4,-27.5 660.0,-55.0 707.6,-27.5" fill="rgb(140,180,154)"/>
  <polygon points="707.6,122.8 660.0,150.3 612.4,122.8 612.4,67.8 660.0,40.3 707.6,67.8" fill="rgb(3,69,42)"/>
  <polygon points="707.6,218.0 660.0,245.5 612.4,218.0 612.4,163.0 660.0,135.5 707.6,163.0" fill="rgb(9,97,53)"/>
  <polygon points="707.6,313.3 660.0,340.8 612.4,313.3 612.4,258.3 660.0,230.8 707.6,258.3" fill="rgb(236,99,36)"/>
  <polygon points="707.6,408.6 660.0,436.1 612.4,408.6 612.4,353.6 660.0,326.1 707.6,353.6" fill="rgb(180,105,50)"/>
  <polygon points="707.6,503.8 660.0,531.3 612.4,503.8 612.4,448.8 660.0,421.3 707.6,448.8" fill="rgb(3,56,33)"/>
  <polygon points="707.6,599.1 660.0,626.6 612.4,599.1 612.4,544.1 660.0,516.6 707.6,544.1" fill="rgb(26,128,80)"/>
  <polygon points="707.6,694.3 660.0,721.8 612.4,694.3 612.4,639.3 660.0,611.8 707.6,639.3" fill="rgb(42,46,55)"/>
  <polygon points="790.1,-20.1 742.5,7.4 694.9,-20.1 694.9,-75.1 742.5,-102.6 790.1,-75.1" fill="rgb(236,99,36)"/>
  <polygon points="790.1,75.1 742.5,102.6 694.9,75.1 694.9,20.1 742.5,-7.4 790.1,20.1" fill="rgb(140,180,154)"/>
  <polygon points="790.1,170.4 742.5,197.9 694.9,170.4 694.9,115.4 742.5,87.9 790.1,115.4" fill="rgb(3,56,33)"/>
  <polygon points="790.1,265.7 742.5,293.2 694.9,265.7 694.9,210.7 742.5,183.2 790.1,210.7" fill="rgb(26,128,80)"/>
  <polygon points="790.1,360.9 742.5,388.4 694.9,360.9 694.9,305.9 742.5,278.4 790.1,305.9" fill="rgb(217,138,70)"/>
  <polygon points="790.1,456.2 742.5,483.7 694.9,456.2 694.9,401.2 742.5,373.7 790.1,401.2" fill="rgb(140,180,154)"/>
  <polygon points="790.1,551.4 742.5,578.9 694.9,551.4 694.9,496.4 742.5,468.9 790.1,496.4" fill="rgb(3,56,33)"/>
  <polygon points="790.1,646.7 742.5,674.2 694.9,646.7 694.9,591.7 742.5,564.2 790.1,591.7" fill="rgb(26,128,80)"/>
  <polygon points="790.1,742.0 742.5,769.5 694.9,742.0 694.9,687.0 742.5,659.5 790.1,687.0" fill="rgb(236,99,36)"/>
  <polygon points="872.6,-67.8 825.0,-40.3 777.4,-67.8 777.4,-122.8 825.0,-150.3 872.6,-122.8" fill="rgb(217,138,70)"/>
  <polygon points="872.6,27.5 825.0,55.0 777.4,27.5 777.4,-27.5 825.0,-55.0 872.6,-27.5" fill="rgb(200,75,25)"/>
  <polygon points="872.6,122.8 825.0,150.3 777.4,122.8 777.4,67.8 825.0,40.3 872.6,67.8" fill="rgb(3,69,42)"/>
  <polygon points="872.6,218.0 825.0,245.5 777.4,218.0 777.4,163.0 825.0,135.5 872.6,163.0" fill="rgb(75,166,132)"/>
  <polygon points="872.6,313.3 825.0,340.8 777.4,313.3 777.4,258.3 825.0,230.8 872.6,258.3" fill="rgb(180,105,50)"/>
  <polygon points="872.6,408.6 825.0,436.1 777.4,408.6 777.4,353.6 825.0,326.1 872.6,353.6" fill="rgb(3,69,42)"/>
  <polygon points="872.6,503.8 825.0,531.3 777.4,503.8 777.4,448.8 825.0,421.3 872.6,448.8" fill="rgb(9,97,53)"/>
  <polygon points="872.6,599.1 825.0,626.6 777.4,599.1 777.4,544.1 825.0,516.6 872.6,544.1" fill="rgb(75,166,132)"/>
  <polygon points="872.6,694.3 825.0,721.8 777.4,694.3 777.4,639.3 825.0,611.8 872.6,639.3" fill="rgb(180,105,50)"/>
  <polygon points="955.1,-20.1 907.5,7.4 859.9,-20.1 859.9,-75.1 907.5,-102.6 955.1,-75.1" fill="rgb(140,180,154)"/>
  <polygon points="955.1,75.1 907.5,102.6 859.9,75.1 859.9,20.1 907.5,-7.4 955.1,20.1" fill="rgb(3,69,42)"/>
  <polygon points="955.1,170.4 907.5,197.9 859.9,170.4 859.9,115.4 907.5,87.9 955.1,115.4" fill="rgb(26,128,80)"/>
  <polygon points="955.1,265.7 907.5,293.2 859.9,265.7 859.9,210.7 907.5,183.2 955.1,210.7" fill="rgb(236,99,36)"/>
  <polygon points="955.1,360.9 907.5,388.4 859.9,360.9 859.9,305.9 907.5,278.4 955.1,305.9" fill="rgb(180,105,50)"/>
  <polygon points="955.1,456.2 907.5,483.7 859.9,456.2 859.9,401.2 907.5,373.7 955.1,401.2" fill="rgb(3,69,42)"/>
  <polygon points="955.1,551.4 907.5,578.9 859.9,551.4 859.9,496.4 907.5,468.9 955.1,496.4" fill="rgb(26,128,80)"/>
  <polygon points="955.1,646.7 907.5,674.2 859.9,646.7 859.9,591.7 907.5,564.2 955.1,591.7" fill="rgb(236,99,36)"/>
  <polygon points="955.1,742.0 907.5,769.5 859.9,742.0 859.9,687.0 907.5,659.5 955.1,687.0" fill="rgb(180,105,50)"/>
  <polygon points="1037.6,-67.8 990.0,-40.3 942.4,-67.8 942.4,-122.8 990.0,-150.3 1037.6,-122.8" fill="rgb(140,180,154)"/>
  <polygon points="1037.6,27.5 990.0,55.0 942.4,27.5 942.4,-27.5 990.0,-55.0 1037.6,-27.5" fill="rgb(3,69,42)"/>
  <polygon points="1037.6,122.8 990.0,150.3 942.4,122.8 942.4,67.8 990.0,40.3 1037.6,67.8" fill="rgb(75,166,132)"/>
  <polygon points="1037.6,218.0 990.0,245.5 942.4,218.0 942.4,163.0 990.0,135.5 1037.6,163.0" fill="rgb(217,138,70)"/>
  <polygon points="1037.6,313.3 990.0,340.8 942.4,313.3 942.4,258.3 990.0,230.8 1037.6,258.3" fill="rgb(200,75,25)"/>
  <polygon points="1037.6,408.6 990.0,436.1 942.4,408.6 942.4,353.6 990.0,326.1 1037.6,353.6" fill="rgb(3,56,33)"/>
  <polygon points="1037.6,503.8 990.0,531.3 942.4,503.8 942.4,448.8 990.0,421.3 1037.6,448.8" fill="rgb(26,128,80)"/>
  <polygon points="1037.6,599.1 990.0,626.6 942.4,599.1 942.4,544.1 990.0,516.6 1037.6,544.1" fill="rgb(217,138,70)"/>
  <polygon points="1037.6,694.3 990.0,721.8 942.4,694.3 942.4,639.3 990.0,611.8 1037.6,639.3" fill="rgb(140,180,154)"/>
  <polygon points="1120.1,-20.1 1072.5,7.4 1024.9,-20.1 1024.9,-75.1 1072.5,-102.6 1120.1,-75.1" fill="rgb(200,75,25)"/>
  <polygon points="1120.1,75.1 1072.5,102.6 1024.9,75.1 1024.9,20.1 1072.5,-7.4 1120.1,20.1" fill="rgb(3,69,42)"/>
  <polygon points="1120.1,170.4 1072.5,197.9 1024.9,170.4 1024.9,115.4 1072.5,87.9 1120.1,115.4" fill="rgb(75,166,132)"/>
  <polygon points="1120.1,265.7 1072.5,293.2 1024.9,265.7 1024.9,210.7 1072.5,183.2 1120.1,210.7" fill="rgb(217,138,70)"/>
  <polygon points="1120.1,360.9 1072.5,388.4 1024.9,360.9 1024.9,305.9 1072.5,278.4 1120.1,305.9" fill="rgb(3,69,42)"/>
  <polygon points="1120.1,456.2 1072.5,483.7 1024.9,456.2 1024.9,401.2 1072.5,373.7 1120.1,401.2" fill="rgb(9,97,53)"/>
  <polygon points="1120.1,551.4 1072.5,578.9 1024.9,551.4 1024.9,496.4 1072.5,468.9 1120.1,496.4" fill="rgb(75,166,132)"/>
  <polygon points="1120.1,646.7 1072.5,674.2 1024.9,646.7 1024.9,591.7 1072.5,564.2 1120.1,591.7" fill="rgb(180,105,50)"/>
  <polygon points="1120.1,742.0 1072.5,769.5 1024.9,742.0 1024.9,687.0 1072.5,659.5 1120.1,687.0" fill="rgb(3,69,42)"/>
  <polygon points="1202.6,-67.8 1155.0,-40.3 1107.4,-67.8 1107.4,-122.8 1155.0,-150.3 1202.6,-122.8" fill="rgb(3,56,33)"/>
  <polygon points="1202.6,27.5 1155.0,55.0 1107.4,27.5 1107.4,-27.5 1155.0,-55.0 1202.6,-27.5" fill="rgb(26,128,80)"/>
  <polygon points="1202.6,122.8 1155.0,150.3 1107.4,122.8 1107.4,67.8 1155.0,40.3 1202.6,67.8" fill="rgb(236,99,36)"/>
  <polygon points="1202.6,218.0 1155.0,245.5 1107.4,218.0 1107.4,163.0 1155.0,135.5 1202.6,163.0" fill="rgb(180,105,50)"/>
  <polygon points="1202.6,313.3 1155.0,340.8 1107.4,313.3 1107.4,258.3 1155.0,230.8 1202.6,258.3" fill="rgb(3,69,42)"/>
  <polygon points="1202.6,408.6 1155.0,436.1 1107.4,408.6 1107.4,353.6 1155.0,326.1 1202.6,353.6" fill="rgb(9,97,53)"/>
  <polygon points="1202.6,503.8 1155.0,531.3 1107.4,503.8 1107.4,448.8 1155.0,421.3 1202.6,448.8" fill="rgb(236,99,36)"/>
  <polygon points="1202.6,599.1 1155.0,626.6 1107.4,599.1 1107.4,544.1 1155.0,516.6 1202.6,544.1" fill="rgb(180,105,50)"/>
  <polygon points="1202.6,694.3 1155.0,721.8 1107.4,694.3 1107.4,639.3 1155.0,611.8 1202.6,639.3" fill="rgb(3,69,42)"/>
  <polygon points="1285.1,-20.1 1237.5,7.4 1189.9,-20.1 1189.9,-75.1 1237.5,-102.6 1285.1,-75.1" fill="rgb(3,56,33)"/>
  <polygon points="1285.1,75.1 1237.5,102.6 1189.9,75.1 1189.9,20.1 1237.5,-7.4 1285.1,20.1" fill="rgb(75,166,132)"/>
  <polygon points="1285.1,170.4 1237.5,197.9 1189.9,170.4 1189.9,115.4 1237.5,87.9 1285.1,115.4" fill="rgb(217,138,70)"/>
  <polygon points="1285.1,265.7 1237.5,293.2 1189.9,265.7 1189.9,210.7 1237.5,183.2 1285.1,210.7" fill="rgb(140,180,154)"/>
  <polygon points="1285.1,360.9 1237.5,388.4 1189.9,360.9 1189.9,305.9 1237.5,278.4 1285.1,305.9" fill="rgb(3,56,33)"/>
  <polygon points="1285.1,456.2 1237.5,483.7 1189.9,456.2 1189.9,401.2 1237.5,373.7 1285.1,401.2" fill="rgb(26,128,80)"/>
  <polygon points="1285.1,551.4 1237.5,578.9 1189.9,551.4 1189.9,496.4 1237.5,468.9 1285.1,496.4" fill="rgb(236,99,36)"/>
  <polygon points="1285.1,646.7 1237.5,674.2 1189.9,646.7 1189.9,591.7 1237.5,564.2 1285.1,591.7" fill="rgb(200,75,25)"/>
  <polygon points="1285.1,742.0 1237.5,769.5 1189.9,742.0 1189.9,687.0 1237.5,659.5 1285.1,687.0" fill="rgb(3,56,33)"/>
  <polygon points="1367.6,-67.8 1320.0,-40.3 1272.4,-67.8 1272.4,-122.8 1320.0,-150.3 1367.6,-122.8" fill="rgb(3,69,42)"/>
  <polygon points="1367.6,27.5 1320.0,55.0 1272.4,27.5 1272.4,-27.5 1320.0,-55.0 1367.6,-27.5" fill="rgb(75,166,132)"/>
  <polygon points="1367.6,122.8 1320.0,150.3 1272.4,122.8 1272.4,67.8 1320.0,40.3 1367.6,67.8" fill="rgb(180,105,50)"/>
  <polygon points="1367.6,218.0 1320.0,245.5 1272.4,218.0 1272.4,163.0 1320.0,135.5 1367.6,163.0" fill="rgb(200,75,25)"/>
  <polygon points="1367.6,313.3 1320.0,340.8 1272.4,313.3 1272.4,258.3 1320.0,230.8 1367.6,258.3" fill="rgb(3,69,42)"/>
  <polygon points="1367.6,408.6 1320.0,436.1 1272.4,408.6 1272.4,353.6 1320.0,326.1 1367.6,353.6" fill="rgb(75,166,132)"/>
  <polygon points="1367.6,503.8 1320.0,531.3 1272.4,503.8 1272.4,448.8 1320.0,421.3 1367.6,448.8" fill="rgb(180,105,50)"/>
  <polygon points="1367.6,599.1 1320.0,626.6 1272.4,599.1 1272.4,544.1 1320.0,516.6 1367.6,544.1" fill="rgb(200,75,25)"/>
  <polygon points="1367.6,694.3 1320.0,721.8 1272.4,694.3 1272.4,639.3 1320.0,611.8 1367.6,639.3" fill="rgb(9,97,53)"/>
  <polygon points="1450.1,-20.1 1402.5,7.4 1354.9,-20.1 1354.9,-75.1 1402.5,-102.6 1450.1,-75.1" fill="rgb(26,128,80)"/>
  <polygon points="1450.1,75.1 1402.5,102.6 1354.9,75.1 1354.9,20.1 1402.5,-7.4 1450.1,20.1" fill="rgb(236,99,36)"/>
  <polygon points="1450.1,170.4 1402.5,197.9 1354.9,170.4 1354.9,115.4 1402.5,87.9 1450.1,115.4" fill="rgb(140,180,154)"/>
  <polygon points="1450.1,265.7 1402.5,293.2 1354.9,265.7 1354.9,210.7 1402.5,183.2 1450.1,210.7" fill="rgb(3,56,33)"/>
  <polygon points="1450.1,360.9 1402.5,388.4 1354.9,360.9 1354.9,305.9 1402.5,278.4 1450.1,305.9" fill="rgb(9,97,53)"/>
  <polygon points="1450.1,456.2 1402.5,483.7 1354.9,456.2 1354.9,401.2 1402.5,373.7 1450.1,401.2" fill="rgb(236,99,36)"/>
  <polygon points="1450.1,551.4 1402.5,578.9 1354.9,551.4 1354.9,496.4 1402.5,468.9 1450.1,496.4" fill="rgb(140,180,154)"/>
  <polygon points="1450.1,646.7 1402.5,674.2 1354.9,646.7 1354.9,591.7 1402.5,564.2 1450.1,591.7" fill="rgb(3,56,33)"/>
  <polygon points="1450.1,742.0 1402.5,769.5 1354.9,742.0 1354.9,687.0 1402.5,659.5 1450.1,687.0" fill="rgb(26,128,80)"/>
  <polygon points="1532.6,-67.8 1485.0,-40.3 1437.4,-67.8 1437.4,-122.8 1485.0,-150.3 1532.6,-122.8" fill="rgb(75,166,132)"/>
  <polygon points="1532.6,27.5 1485.0,55.0 1437.4,27.5 1437.4,-27.5 1485.0,-55.0 1532.6,-27.5" fill="rgb(236,99,36)"/>
  <polygon points="1532.6,122.8 1485.0,150.3 1437.4,122.8 1437.4,67.8 1485.0,40.3 1532.6,67.8" fill="rgb(140,180,154)"/>
  <polygon points="1532.6,218.0 1485.0,245.5 1437.4,218.0 1437.4,163.0 1485.0,135.5 1532.6,163.0" fill="rgb(3,69,42)"/>
  <polygon points="1532.6,313.3 1485.0,340.8 1437.4,313.3 1437.4,258.3 1485.0,230.8 1532.6,258.3" fill="rgb(75,166,132)"/>
  <polygon points="1532.6,408.6 1485.0,436.1 1437.4,408.6 1437.4,353.6 1485.0,326.1 1532.6,353.6" fill="rgb(236,99,36)"/>
  <polygon points="1532.6,503.8 1485.0,531.3 1437.4,503.8 1437.4,448.8 1485.0,421.3 1532.6,448.8" fill="rgb(200,75,25)"/>
  <polygon points="1532.6,599.1 1485.0,626.6 1437.4,599.1 1437.4,544.1 1485.0,516.6 1532.6,544.1" fill="rgb(3,56,33)"/>
  <polygon points="1532.6,694.3 1485.0,721.8 1437.4,694.3 1437.4,639.3 1485.0,611.8 1532.6,639.3" fill="rgb(26,128,80)"/>
  <polygon points="1615.1,-20.1 1567.5,7.4 1519.9,-20.1 1519.9,-75.1 1567.5,-102.6 1615.1,-75.1" fill="rgb(42,46,55)"/>
  <polygon points="1615.1,75.1 1567.5,102.6 1519.9,75.1 1519.9,20.1 1567.5,-7.4 1615.1,20.1" fill="rgb(180,105,50)"/>
  <polygon points="1615.1,170.4 1567.5,197.9 1519.9,170.4 1519.9,115.4 1567.5,87.9 1615.1,115.4" fill="rgb(200,75,25)"/>
  <polygon points="1615.1,265.7 1567.5,293.2 1519.9,265.7 1519.9,210.7 1567.5,183.2 1615.1,210.7" fill="rgb(9,97,53)"/>
  <polygon points="1615.1,360.9 1567.5,388.4 1519.9,360.9 1519.9,305.9 1567.5,278.4 1615.1,305.9" fill="rgb(75,166,132)"/>
  <polygon points="1615.1,456.2 1567.5,483.7 1519.9,456.2 1519.9,401.2 1567.5,373.7 1615.1,401.2" fill="rgb(217,138,70)"/>
  <polygon points="1615.1,551.4 1567.5,578.9 1519.9,551.4 1519.9,496.4 1567.5,468.9 1615.1,496.4" fill="rgb(3,69,42)"/>
  <polygon points="1615.1,646.7 1567.5,674.2 1519.9,646.7 1519.9,591.7 1567.5,564.2 1615.1,591.7" fill="rgb(3,69,42)"/>
  <polygon points="1615.1,742.0 1567.5,769.5 1519.9,742.0 1519.9,687.0 1567.5,659.5 1615.1,687.0" fill="rgb(75,166,132)"/>
  <polygon points="1697.6,-67.8 1650.0,-40.3 1602.4,-67.8 1602.4,-122.8 1650.0,-150.3 1697.6,-122.8" fill="rgb(42,46,55)"/>
  <polygon points="1697.6,27.5 1650.0,55.0 1602.4,27.5 1602.4,-27.5 1650.0,-55.0 1697.6,-27.5" fill="rgb(140,180,154)"/>
  <polygon points="1697.6,122.8 1650.0,150.3 1602.4,122.8 1602.4,67.8 1650.0,40.3 1697.6,67.8" fill="rgb(3,69,42)"/>
  <polygon points="1697.6,218.0 1650.0,245.5 1602.4,218.0 1602.4,163.0 1650.0,135.5 1697.6,163.0" fill="rgb(26,128,80)"/>
  <polygon points="1697.6,313.3 1650.0,340.8 1602.4,313.3 1602.4,258.3 1650.0,230.8 1697.6,258.3" fill="rgb(42,46,55)"/>
  <polygon points="1697.6,408.6 1650.0,436.1 1602.4,408.6 1602.4,353.6 1650.0,326.1 1697.6,353.6" fill="rgb(140,180,154)"/>
  <polygon points="1697.6,503.8 1650.0,531.3 1602.4,503.8 1602.4,448.8 1650.0,421.3 1697.6,448.8" fill="rgb(3,56,33)"/>
  <polygon points="1697.6,599.1 1650.0,626.6 1602.4,599.1 1602.4,544.1 1650.0,516.6 1697.6,544.1" fill="rgb(9,97,53)"/>
  <polygon points="1697.6,694.3 1650.0,721.8 1602.4,694.3 1602.4,639.3 1650.0,611.8 1697.6,639.3" fill="rgb(42,46,55)"/>
  <polygon points="1780.1,-20.1 1732.5,7.4 1684.9,-20.1 1684.9,-75.1 1732.5,-102.6 1780.1,-75.1" fill="rgb(236,99,36)"/>
  <polygon points="1780.1,75.1 1732.5,102.6 1684.9,75.1 1684.9,20.1 1732.5,-7.4 1780.1,20.1" fill="rgb(140,180,154)"/>
  <polygon points="1780.1,170.4 1732.5,197.9 1684.9,170.4 1684.9,115.4 1732.5,87.9 1780.1,115.4" fill="rgb(3,69,42)"/>
  <polygon points="1780.1,265.7 1732.5,293.2 1684.9,265.7 1684.9,210.7 1732.5,183.2 1780.1,210.7" fill="rgb(75,166,132)"/>
  <polygon points="1780.1,360.9 1732.5,388.4 1684.9,360.9 1684.9,305.9 1732.5,278.4 1780.1,305.9" fill="rgb(217,138,70)"/>
  <polygon points="1780.1,456.2 1732.5,483.7 1684.9,456.2 1684.9,401.2 1732.5,373.7 1780.1,401.2" fill="rgb(200,75,25)"/>
  <polygon points="1780.1,551.4 1732.5,578.9 1684.9,551.4 1684.9,496.4 1732.5,468.9 1780.1,496.4" fill="rgb(3,56,33)"/>
  <polygon points="1780.1,646.7 1732.5,674.2 1684.9,646.7 1684.9,591.7 1732.5,564.2 1780.1,591.7" fill="rgb(26,128,80)"/>
  <polygon points="1780.1,742.0 1732.5,769.5 1684.9,742.0 1684.9,687.0 1732.5,659.5 1780.1,687.0" fill="rgb(217,138,70)"/>
  <polygon points="1862.6,-67.8 1815.0,-40.3 1767.4,-67.8 1767.4,-122.8 1815.0,-150.3 1862.6,-122.8" fill="rgb(217,138,70)"/>
  <polygon points="1862.6,27.5 1815.0,55.0 1767.4,27.5 1767.4,-27.5 1815.0,-55.0 1862.6,-27.5" fill="rgb(3,69,42)"/>
  <polygon points="1862.6,122.8 1815.0,150.3 1767.4,122.8 1767.4,67.8 1815.0,40.3 1862.6,67.8" fill="rgb(9,97,53)"/>
  <polygon points="1862.6,218.0 1815.0,245.5 1767.4,218.0 1767.4,163.0 1815.0,135.5 1862.6,163.0" fill="rgb(42,46,55)"/>
  <polygon points="1862.6,313.3 1815.0,340.8 1767.4,313.3 1767.4,258.3 1815.0,230.8 1862.6,258.3" fill="rgb(217,138,70)"/>
  <polygon points="1862.6,408.6 1815.0,436.1 1767.4,408.6 1767.4,353.6 1815.0,326.1 1862.6,353.6" fill="rgb(3,69,42)"/>
  <polygon points="1862.6,503.8 1815.0,531.3 1767.4,503.8 1767.4,448.8 1815.0,421.3 1862.6,448.8" fill="rgb(3,69,42)"/>
  <polygon points="1862.6,599.1 1815.0,626.6 1767.4,599.1 1767.4,544.1 1815.0,516.6 1862.6,544.1" fill="rgb(75,166,132)"/>
  <polygon points="1862.6,694.3 1815.0,721.8 1767.4,694.3 1767.4,639.3 1815.0,611.8 1862.6,639.3" fill="rgb(217,138,70)"/>
  <polygon points="1945.1,-20.1 1897.5,7.4 1849.9,-20.1 1849.9,-75.1 1897.5,-102.6 1945.1,-75.1" fill="rgb(180,105,50)"/>
  <polygon points="1945.1,75.1 1897.5,102.6 1849.9,75.1 1849.9,20.1 1897.5,-7.4 1945.1,20.1" fill="rgb(3,69,42)"/>
  <polygon points="1945.1,170.4 1897.5,197.9 1849.9,170.4 1849.9,115.4 1897.5,87.9 1945.1,115.4" fill="rgb(9,97,53)"/>
  <polygon points="1945.1,265.7 1897.5,293.2 1849.9,265.7 1849.9,210.7 1897.5,183.2 1945.1,210.7" fill="rgb(236,99,36)"/>
  <polygon points="1945.1,360.9 1897.5,388.4 1849.9,360.9 1849.9,305.9 1897.5,278.4 1945.1,305.9" fill="rgb(180,105,50)"/>
  <polygon points="1945.1,456.2 1897.5,483.7 1849.9,456.2 1849.9,401.2 1897.5,373.7 1945.1,401.2" fill="rgb(3,56,33)"/>
  <polygon points="1945.1,551.4 1897.5,578.9 1849.9,551.4 1849.9,496.4 1897.5,468.9 1945.1,496.4" fill="rgb(26,128,80)"/>
  <polygon points="1945.1,646.7 1897.5,674.2 1849.9,646.7 1849.9,591.7 1897.5,564.2 1945.1,591.7" fill="rgb(236,99,36)"/>
  <polygon points="1945.1,742.0 1897.5,769.5 1849.9,742.0 1849.9,687.0 1897.5,659.5 1945.1,687.0" fill="rgb(140,180,154)"/>
  <polygon points="2027.6,-67.8 1980.0,-40.3 1932.4,-67.8 1932.4,-122.8 1980.0,-150.3 2027.6,-122.8" fill="rgb(140,180,154)"/>
  <polygon points="2027.6,27.5 1980.0,55.0 1932.4,27.5 1932.4,-27.5 1980.0,-55.0 2027.6,-27.5" fill="rgb(3,69,42)"/>
  <polygon points="2027.6,122.8 1980.0,150.3 1932.4,122.8 1932.4,67.8 1980.0,40.3 2027.6,67.8" fill="rgb(26,128,80)"/>
  <polygon points="2027.6,218.0 1980.0,245.5 1932.4,218.0 1932.4,163.0 1980.0,135.5 2027.6,163.0" fill="rgb(236,99,36)"/>
  <polygon points="2027.6,313.3 1980.0,340.8 1932.4,313.3 1932.4,258.3 1980.0,230.8 2027.6,258.3" fill="rgb(140,180,154)"/>
  <polygon points="2027.6,408.6 1980.0,436.1 1932.4,408.6 1932.4,353.6 1980.0,326.1 2027.6,353.6" fill="rgb(3,56,33)"/>
  <polygon points="2027.6,503.8 1980.0,531.3 1932.4,503.8 1932.4,448.8 1980.0,421.3 2027.6,448.8" fill="rgb(75,166,132)"/>
  <polygon points="2027.6,599.1 1980.0,626.6 1932.4,599.1 1932.4,544.1 1980.0,516.6 2027.6,544.1" fill="rgb(217,138,70)"/>
  <polygon points="2027.6,694.3 1980.0,721.8 1932.4,694.3 1932.4,639.3 1980.0,611.8 2027.6,639.3" fill="rgb(200,75,25)"/>
  <polygon points="0.0,0.0 768.0,0.0 576.0,640.0 0.0,640.0" fill="rgb(250,247,241)"/>
</svg>
