<?xml version="1.0" encoding="UTF-8" standalone="no"?>
<svg xmlns="http://www.w3.org/2000/svg" viewBox="0 0 1920 640" width="1920" height="640">
  <title>v8-mosaic-radial</title>
  <rect width="1920" height="640" fill="rgb(250,247,241)"/>
  <polygon points="1574.4,320.0 1800.1,324.0 1785.6,399.2" fill="rgb(3,56,33)"/>
  <polygon points="1574.4,320.0 1785.6,399.2 1748.5,463.4" fill="rgb(3,69,42)"/>
  <polygon points="1574.4,320.0 1748.5,463.4 1680.6,494.4" fill="rgb(9,97,53)"/>
  <polygon points="1574.4,320.0 1680.6,494.4 1607.1,540.6" fill="rgb(26,128,80)"/>
  <polygon points="1574.4,320.0 1607.1,540.6 1534.1,527.6" fill="rgb(170,65,18)"/>
  <polygon points="1574.4,320.0 1534.1,527.6 1464.8,515.2" fill="rgb(236,99,36)"/>
  <polygon points="1574.4,320.0 1464.8,515.2 1409.4,447.9" fill="rgb(180,105,50)"/>
  <polygon points="1574.4,320.0 1409.4,447.9 1373.7,385.4" fill="rgb(217,138,70)"/>
  <polygon points="1574.4,320.0 1373.7,385.4 1366.2,312.3" fill="rgb(75,166,132)"/>
  <polygon points="1574.4,320.0 1366.2,312.3 1382.7,252.7" fill="rgb(200,75,25)"/>
  <polygon points="1574.4,320.0 1382.7,252.7 1406.6,189.1" fill="rgb(42,46,55)"/>
  <polygon points="1574.4,320.0 1406.6,189.1 1470.3,124.1" fill="rgb(26,128,80)"/>
  <polygon points="1574.4,320.0 1470.3,124.1 1540.8,110.5" fill="rgb(3,56,33)"/>
  <polygon points="1574.4,320.0 1540.8,110.5 1607.4,114.0" fill="rgb(3,69,42)"/>
  <polygon points="1574.4,320.0 1607.4,114.0 1683.8,131.0" fill="rgb(9,97,53)"/>
  <polygon points="1574.4,320.0 1683.8,131.0 1736.3,194.7" fill="rgb(26,128,80)"/>
  <polygon points="1574.4,320.0 1736.3,194.7 1787.5,244.6" fill="rgb(170,65,18)"/>
  <polygon points="1574.4,320.0 1787.5,244.6 1800.1,324.0" fill="rgb(236,99,36)"/>
  <polygon points="1800.1,324.0 1785.6,399.2 2013.1,314.2" fill="rgb(3,69,42)"/>
  <polygon points="1785.6,399.2 1973.9,470.4 2013.1,314.2" fill="rgb(9,97,53)"/>
  <polygon points="1785.6,399.2 1748.5,463.4 1904.5,577.1" fill="rgb(9,97,53)"/>
  <polygon points="1785.6,399.2 1904.5,577.1 1973.9,470.4" fill="rgb(26,128,80)"/>
  <polygon points="1748.5,463.4 1680.6,494.4 1904.5,577.1" fill="rgb(26,128,80)"/>
  <polygon points="1680.6,494.4 1797.8,686.1 1904.5,577.1" fill="rgb(170,65,18)"/>
  <polygon points="1680.6,494.4 1607.1,540.6 1645.3,748.8" fill="rgb(170,65,18)"/>
  <polygon points="1680.6,494.4 1645.3,748.8 1797.8,686.1" fill="rgb(236,99,36)"/>
  <polygon points="1607.1,540.6 1534.1,527.6 1645.3,748.8" fill="rgb(236,99,36)"/>
  <polygon points="1534.1,527.6 1500.8,740.0 1645.3,748.8" fill="rgb(180,105,50)"/>
  <polygon points="1534.1,527.6 1464.8,515.2 1369.1,701.4" fill="rgb(180,105,50)"/>
  <polygon points="1534.1,527.6 1369.1,701.4 1500.8,740.0" fill="rgb(217,138,70)"/>
  <polygon points="1464.8,515.2 1409.4,447.9 1369.1,701.4" fill="rgb(217,138,70)"/>
  <polygon points="1409.4,447.9 1233.7,590.7 1369.1,701.4" fill="rgb(75,166,132)"/>
  <polygon points="1409.4,447.9 1373.7,385.4 1182.8,475.8" fill="rgb(75,166,132)"/>
  <polygon points="1409.4,447.9 1182.8,475.8 1233.7,590.7" fill="rgb(200,75,25)"/>
  <polygon points="1373.7,385.4 1366.2,312.3 1182.8,475.8" fill="rgb(200,75,25)"/>
  <polygon points="1366.2,312.3 1139.8,314.5 1182.8,475.8" fill="rgb(42,46,55)"/>
  <polygon points="1366.2,312.3 1382.7,252.7 1171.3,154.8" fill="rgb(42,46,55)"/>
  <polygon points="1366.2,312.3 1171.3,154.8 1139.8,314.5" fill="rgb(26,128,80)"/>
  <polygon points="1382.7,252.7 1406.6,189.1 1171.3,154.8" fill="rgb(26,128,80)"/>
  <polygon points="1406.6,189.1 1251.8,30.1 1171.3,154.8" fill="rgb(3,56,33)"/>
  <polygon points="1406.6,189.1 1470.3,124.1 1360.8,-43.4" fill="rgb(3,56,33)"/>
  <polygon points="1406.6,189.1 1360.8,-43.4 1251.8,30.1" fill="rgb(3,69,42)"/>
  <polygon points="1470.3,124.1 1540.8,110.5 1360.8,-43.4" fill="rgb(3,69,42)"/>
  <polygon points="1540.8,110.5 1505.7,-112.5 1360.8,-43.4" fill="rgb(9,97,53)"/>
  <polygon points="1540.8,110.5 1607.4,114.0 1645.9,-106.0" fill="rgb(9,97,53)"/>
  <polygon points="1540.8,110.5 1645.9,-106.0 1505.7,-112.5" fill="rgb(26,128,80)"/>
  <polygon points="1607.4,114.0 1683.8,131.0 1645.9,-106.0" fill="rgb(26,128,80)"/>
  <polygon points="1683.8,131.0 1796.1,-39.3 1645.9,-106.0" fill="rgb(170,65,18)"/>
  <polygon points="1683.8,131.0 1736.3,194.7 1902.8,61.8" fill="rgb(170,65,18)"/>
  <polygon points="1683.8,131.0 1902.8,61.8 1796.1,-39.3" fill="rgb(236,99,36)"/>
  <polygon points="1736.3,194.7 1787.5,244.6 1902.8,61.8" fill="rgb(236,99,36)"/>
  <polygon points="1787.5,244.6 1989.8,185.3 1902.8,61.8" fill="rgb(180,105,50)"/>
  <polygon points="1787.5,244.6 1800.1,324.0 2013.1,314.2" fill="rgb(180,105,50)"/>
  <polygon points="1787.5,244.6 2013.1,314.2 1989.8,185.3" fill="rgb(217,138,70)"/>
  <polygon points="2013.1,314.2 1973.9,470.4 2185.2,537.0" fill="rgb(9,97,53)"/>
  <polygon points="2013.1,314.2 2185.2,537.0 2206.1,322.0" fill="rgb(26,128,80)"/>
  <polygon points="1973.9,470.4 1904.5,577.1 2185.2,537.0" fill="rgb(26,128,80)"/>
  <polygon points="1904.5,577.1 2069.4,747.0 2185.2,537.0" fill="rgb(170,65,18)"/>
  <polygon points="1904.5,577.1 1797.8,686.1 1920.3,871.4" fill="rgb(170,65,18)"/>
  <polygon points="1904.5,577.1 1920.3,871.4 2069.4,747.0" fill="rgb(236,99,36)"/>
  <polygon points="1797.8,686.1 1645.3,748.8 1920.3,871.4" fill="rgb(236,99,36)"/>
  <polygon points="1645.3,748.8 1704.5,960.6 1920.3,871.4" fill="rgb(180,105,50)"/>
  <polygon points="1645.3,748.8 1500.8,740.0 1469.5,949.7" fill="rgb(180,105,50)"/>
  <polygon points="1645.3,748.8 1469.5,949.7 1704.5,960.6" fill="rgb(217,138,70)"/>
  <polygon points="1500.8,740.0 1369.1,701.4 1469.5,949.7" fill="rgb(217,138,70)"/>
  <polygon points="1369.1,701.4 1268.3,892.4 1469.5,949.7" fill="rgb(75,166,132)"/>
  <polygon points="1369.1,701.4 1233.7,590.7 1071.5,718.1" fill="rgb(75,166,132)"/>
  <polygon points="1369.1,701.4 1071.5,718.1 1268.3,892.4" fill="rgb(200,75,25)"/>
  <polygon points="1233.7,590.7 1182.8,475.8 1071.5,718.1" fill="rgb(200,75,25)"/>
  <polygon points="1182.8,475.8 971.7,549.2 1071.5,718.1" fill="rgb(42,46,55)"/>
  <polygon points="1182.8,475.8 1139.8,314.5 930.2,337.6" fill="rgb(42,46,55)"/>
  <polygon points="1182.8,475.8 930.2,337.6 971.7,549.2" fill="rgb(26,128,80)"/>
  <polygon points="1139.8,314.5 1171.3,154.8 930.2,337.6" fill="rgb(26,128,80)"/>
  <polygon points="1171.3,154.8 978.8,106.0 930.2,337.6" fill="rgb(3,56,33)"/>
  <polygon points="1171.3,154.8 1251.8,30.1 1088.5,-91.5" fill="rgb(3,56,33)"/>
  <polygon points="1171.3,154.8 1088.5,-91.5 978.8,106.0" fill="rgb(3,69,42)"/>
  <polygon points="1251.8,30.1 1360.8,-43.4 1088.5,-91.5" fill="rgb(3,69,42)"/>
  <polygon points="1360.8,-43.4 1243.3,-220.2 1088.5,-91.5" fill="rgb(9,97,53)"/>
  <polygon points="1360.8,-43.4 1505.7,-112.5 1476.8,-320.2" fill="rgb(9,97,53)"/>
  <polygon points="1360.8,-43.4 1476.8,-320.2 1243.3,-220.2" fill="rgb(26,128,80)"/>
  <polygon points="1505.7,-112.5 1645.9,-106.0 1476.8,-320.2" fill="rgb(26,128,80)"/>
  <polygon points="1645.9,-106.0 1701.0,-301.4 1476.8,-320.2" fill="rgb(170,65,18)"/>
  <polygon points="1645.9,-106.0 1796.1,-39.3 1907.7,-237.0" fill="rgb(170,65,18)"/>
  <polygon points="1645.9,-106.0 1907.7,-237.0 1701.0,-301.4" fill="rgb(236,99,36)"/>
  <polygon points="1796.1,-39.3 1902.8,61.8 1907.7,-237.0" fill="rgb(236,99,36)"/>
  <polygon points="1902.8,61.8 2054.7,-109.2 1907.7,-237.0" fill="rgb(180,105,50)"/>
  <polygon points="1902.8,61.8 1989.8,185.3 2165.1,79.3" fill="rgb(180,105,50)"/>
  <polygon points="1902.8,61.8 2165.1,79.3 2054.7,-109.2" fill="rgb(217,138,70)"/>
  <polygon points="1989.8,185.3 2013.1,314.2 2165.1,79.3" fill="rgb(217,138,70)"/>
  <polygon points="2013.1,314.2 2206.1,322.0 2165.1,79.3" fill="rgb(75,166,132)"/>
  <polygon points="2206.1,322.0 2185.2,537.0 2439.9,344.6" fill="rgb(26,128,80)"/>
  <polygon points="2185.2,537.0 2361.3,632.9 2439.9,344.6" fill="rgb(170,65,18)"/>
  <polygon points="2185.2,537.0 2069.4,747.0 2205.4,890.6" fill="rgb(170,65,18)"/>
  <polygon points="2185.2,537.0 2205.4,890.6 2361.3,632.9" fill="rgb(236,99,36)"/>
  <polygon points="2069.4,747.0 1920.3,871.4 2205.4,890.6" fill="rgb(236,99,36)"/>
  <polygon points="1920.3,871.4 2013.7,1061.4 2205.4,890.6" fill="rgb(180,105,50)"/>
  <polygon points="1920.3,871.4 1704.5,960.6 1714.0,1165.7" fill="rgb(180,105,50)"/>
  <polygon points="1920.3,871.4 1714.0,1165.7 2013.7,1061.4" fill="rgb(217,138,70)"/>
  <polygon points="1704.5,960.6 1469.5,949.7 1714.0,1165.7" fill="rgb(217,138,70)"/>
  <polygon points="1469.5,949.7 1421.5,1163.2 1714.0,1165.7" fill="rgb(75,166,132)"/>
  <polygon points="1469.5,949.7 1268.3,892.4 1168.0,1083.1" fill="rgb(75,166,132)"/>
  <polygon points="1469.5,949.7 1168.0,1083.1 1421.5,1163.2" fill="rgb(200,75,25)"/>
  <polygon points="1268.3,892.4 1071.5,718.1 1168.0,1083.1" fill="rgb(200,75,25)"/>
  <polygon points="1071.5,718.1 901.5,845.4 1168.0,1083.1" fill="rgb(42,46,55)"/>
  <polygon points="1071.5,718.1 971.7,549.2 765.9,617.6" fill="rgb(42,46,55)"/>
  <polygon points="1071.5,718.1 765.9,617.6 901.5,845.4" fill="rgb(26,128,80)"/>
  <polygon points="971.7,549.2 930.2,337.6 765.9,617.6" fill="rgb(26,128,80)"/>
  <polygon points="930.2,337.6 729.5,300.1 765.9,617.6" fill="rgb(3,56,33)"/>
  <polygon points="930.2,337.6 978.8,106.0 772.4,28.2" fill="rgb(3,56,33)"/>
  <polygon points="930.2,337.6 772.4,28.2 729.5,300.1" fill="rgb(3,69,42)"/>
  <polygon points="978.8,106.0 1088.5,-91.5 772.4,28.2" fill="rgb(3,69,42)"/>
  <polygon points="1088.5,-91.5 909.2,-210.3 772.4,28.2" fill="rgb(9,97,53)"/>
  <polygon points="1088.5,-91.5 1243.3,-220.2 1127.2,-424.3" fill="rgb(9,97,53)"/>
  <polygon points="1088.5,-91.5 1127.2,-424.3 909.2,-210.3" fill="rgb(26,128,80)"/>
  <polygon points="1243.3,-220.2 1476.8,-320.2 1127.2,-424.3" fill="rgb(26,128,80)"/>
  <polygon points="1476.8,-320.2 1397.0,-526.4 1127.2,-424.3" fill="rgb(170,65,18)"/>
  <polygon points="1476.8,-320.2 1701.0,-301.4 1740.5,-528.3" fill="rgb(170,65,18)"/>
  <polygon points="1476.8,-320.2 1740.5,-528.3 1397.0,-526.4" fill="rgb(236,99,36)"/>
  <polygon points="1701.0,-301.4 1907.7,-237.0 1740.5,-528.3" fill="rgb(236,99,36)"/>
  <polygon points="1907.7,-237.0 2002.3,-426.5 1740.5,-528.3" fill="rgb(180,105,50)"/>
  <polygon points="1907.7,-237.0 2054.7,-109.2 2208.9,-248.0" fill="rgb(180,105,50)"/>
  <polygon points="1907.7,-237.0 2208.9,-248.0 2002.3,-426.5" fill="rgb(217,138,70)"/>
  <polygon points="2054.7,-109.2 2165.1,79.3 2208.9,-248.0" fill="rgb(217,138,70)"/>
  <polygon points="2165.1,79.3 2391.1,53.3 2208.9,-248.0" fill="rgb(75,166,132)"/>
  <polygon points="2165.1,79.3 2206.1,322.0 2439.9,344.6" fill="rgb(75,166,132)"/>
  <polygon points="2165.1,79.3 2439.9,344.6 2391.1,53.3" fill="rgb(200,75,25)"/>
  <polygon points="2439.9,344.6 2361.3,632.9 2574.9,687.3" fill="rgb(170,65,18)"/>
  <polygon points="2439.9,344.6 2574.9,687.3 2645.4,335.8" fill="rgb(236,99,36)"/>
  <polygon points="2361.3,632.9 2205.4,890.6 2574.9,687.3" fill="rgb(236,99,36)"/>
  <polygon points="2205.4,890.6 2376.9,1041.7 2574.9,687.3" fill="rgb(180,105,50)"/>
  <polygon points="2205.4,890.6 2013.7,1061.4 2094.9,1255.8" fill="rgb(180,105,50)"/>
  <polygon points="2205.4,890.6 2094.9,1255.8 2376.9,1041.7" fill="rgb(217,138,70)"/>
  <polygon points="2013.7,1061.4 1714.0,1165.7 2094.9,1255.8" fill="rgb(217,138,70)"/>
  <polygon points="1714.0,1165.7 1750.7,1383.6 2094.9,1255.8" fill="rgb(75,166,132)"/>
  <polygon points="1714.0,1165.7 1421.5,1163.2 1429.9,1376.0" fill="rgb(75,166,132)"/>
  <polygon points="1714.0,1165.7 1429.9,1376.0 1750.7,1383.6" fill="rgb(200,75,25)"/>
  <polygon points="1421.5,1163.2 1168.0,1083.1 1429.9,1376.0" fill="rgb(200,75,25)"/>
  <polygon points="1168.0,1083.1 1063.8,1269.3 1429.9,1376.0" fill="rgb(42,46,55)"/>
  <polygon points="1168.0,1083.1 901.5,845.4 757.8,1021.2" fill="rgb(42,46,55)"/>
  <polygon points="1168.0,1083.1 757.8,1021.2 1063.8,1269.3" fill="rgb(26,128,80)"/>
  <polygon points="901.5,845.4 765.9,617.6 757.8,1021.2" fill="rgb(26,128,80)"/>
  <polygon points="765.9,617.6 569.1,701.7 757.8,1021.2" fill="rgb(3,56,33)"/>
  <polygon points="765.9,617.6 729.5,300.1 513.1,312.4" fill="rgb(3,56,33)"/>
  <polygon points="765.9,617.6 513.1,312.4 569.1,701.7" fill="rgb(3,69,42)"/>
  <polygon points="729.5,300.1 772.4,28.2 513.1,312.4" fill="rgb(3,69,42)"/>
  <polygon points="772.4,28.2 570.9,-65.6 513.1,312.4" fill="rgb(9,97,53)"/>
  <polygon points="772.4,28.2 909.2,-210.3 777.4,-391.4" fill="rgb(9,97,53)"/>
  <polygon points="772.4,28.2 777.4,-391.4 570.9,-65.6" fill="rgb(26,128,80)"/>
  <polygon points="909.2,-210.3 1127.2,-424.3 777.4,-391.4" fill="rgb(26,128,80)"/>
  <polygon points="1127.2,-424.3 1005.1,-587.3 777.4,-391.4" fill="rgb(170,65,18)"/>
  <polygon points="1127.2,-424.3 1397.0,-526.4 1361.0,-725.7" fill="rgb(170,65,18)"/>
  <polygon points="1127.2,-424.3 1361.0,-725.7 1005.1,-587.3" fill="rgb(236,99,36)"/>
  <polygon points="1397.0,-526.4 1740.5,-528.3 1361.0,-725.7" fill="rgb(236,99,36)"/>
  <polygon points="1740.5,-528.3 1734.4,-730.0 1361.0,-725.7" fill="rgb(180,105,50)"/>
  <polygon points="1740.5,-528.3 2002.3,-426.5 2077.1,-628.4" fill="rgb(180,105,50)"/>
  <polygon points="1740.5,-528.3 2077.1,-628.4 1734.4,-730.0" fill="rgb(217,138,70)"/>
  <polygon points="2002.3,-426.5 2208.9,-248.0 2077.1,-628.4" fill="rgb(217,138,70)"/>
  <polygon points="2208.9,-248.0 2371.4,-385.7 2077.1,-628.4" fill="rgb(75,166,132)"/>
  <polygon points="2208.9,-248.0 2391.1,53.3 2571.1,-59.7" fill="rgb(75,166,132)"/>
  <polygon points="2208.9,-248.0 2571.1,-59.7 2371.4,-385.7" fill="rgb(200,75,25)"/>
  <polygon points="2391.1,53.3 2439.9,344.6 2571.1,-59.7" fill="rgb(200,75,25)"/>
  <polygon points="2439.9,344.6 2645.4,335.8 2571.1,-59.7" fill="rgb(42,46,55)"/>
  <polygon points="2645.4,335.8 2574.9,687.3 2868.8,352.3" fill="rgb(236,99,36)"/>
  <polygon points="2574.9,687.3 2807.6,720.0 2868.8,352.3" fill="rgb(180,105,50)"/>
  <polygon points="2574.9,687.3 2376.9,1041.7 2559.4,1136.8" fill="rgb(180,105,50)"/>
  <polygon points="2574.9,687.3 2559.4,1136.8 2807.6,720.0" fill="rgb(217,138,70)"/>
  <polygon points="2376.9,1041.7 2094.9,1255.8 2559.4,1136.8" fill="rgb(217,138,70)"/>
  <polygon points="2094.9,1255.8 2247.4,1416.6 2559.4,1136.8" fill="rgb(75,166,132)"/>
  <polygon points="2094.9,1255.8 1750.7,1383.6 1755.1,1585.5" fill="rgb(75,166,132)"/>
  <polygon points="2094.9,1255.8 1755.1,1585.5 2247.4,1416.6" fill="rgb(200,75,25)"/>
  <polygon points="1750.7,1383.6 1429.9,1376.0 1755.1,1585.5" fill="rgb(200,75,25)"/>
  <polygon points="1429.9,1376.0 1385.0,1591.6 1755.1,1585.5" fill="rgb(42,46,55)"/>
  <polygon points="1429.9,1376.0 1063.8,1269.3 952.1,1439.4" fill="rgb(42,46,55)"/>
  <polygon points="1429.9,1376.0 952.1,1439.4 1385.0,1591.6" fill="rgb(26,128,80)"/>
  <polygon points="1063.8,1269.3 757.8,1021.2 952.1,1439.4" fill="rgb(26,128,80)"/>
  <polygon points="757.8,1021.2 604.0,1168.8 952.1,1439.4" fill="rgb(3,56,33)"/>
  <polygon points="757.8,1021.2 569.1,701.7 387.4,787.7" fill="rgb(3,56,33)"/>
  <polygon points="757.8,1021.2 387.4,787.7 604.0,1168.8" fill="rgb(3,69,42)"/>
  <polygon points="569.1,701.7 513.1,312.4 387.4,787.7" fill="rgb(3,69,42)"/>
  <polygon points="513.1,312.4 295.4,289.4 387.4,787.7" fill="rgb(9,97,53)"/>
  <polygon points="513.1,312.4 570.9,-65.6 388.2,-161.7" fill="rgb(9,97,53)"/>
  <polygon points="513.1,312.4 388.2,-161.7 295.4,289.4" fill="rgb(26,128,80)"/>
  <polygon points="570.9,-65.6 777.4,-391.4 388.2,-161.7" fill="rgb(26,128,80)"/>
  <polygon points="777.4,-391.4 571.9,-474.1 388.2,-161.7" fill="rgb(170,65,18)"/>
  <polygon points="777.4,-391.4 1005.1,-587.3 899.8,-777.2" fill="rgb(170,65,18)"/>
  <polygon points="777.4,-391.4 899.8,-777.2 571.9,-474.1" fill="rgb(236,99,36)"/>
  <polygon points="1005.1,-587.3 1361.0,-725.7 899.8,-777.2" fill="rgb(236,99,36)"/>
  <polygon points="1361.0,-725.7 1377.0,-958.6 899.8,-777.2" fill="rgb(180,105,50)"/>
  <polygon points="1361.0,-725.7 1734.4,-730.0 1757.3,-954.0" fill="rgb(180,105,50)"/>
  <polygon points="1361.0,-725.7 1757.3,-954.0 1377.0,-958.6" fill="rgb(217,138,70)"/>
  <polygon points="1734.4,-730.0 2077.1,-628.4 1757.3,-954.0" fill="rgb(217,138,70)"/>
  <polygon points="2077.1,-628.4 2241.8,-784.7 1757.3,-954.0" fill="rgb(75,166,132)"/>
  <polygon points="2077.1,-628.4 2371.4,-385.7 2544.8,-515.5" fill="rgb(75,166,132)"/>
  <polygon points="2077.1,-628.4 2544.8,-515.5 2241.8,-784.7" fill="rgb(200,75,25)"/>
  <polygon points="2371.4,-385.7 2571.1,-59.7 2544.8,-515.5" fill="rgb(200,75,25)"/>
  <polygon points="2571.1,-59.7 2793.0,-95.5 2544.8,-515.5" fill="rgb(42,46,55)"/>
  <polygon points="2571.1,-59.7 2645.4,335.8 2868.8,352.3" fill="rgb(42,46,55)"/>
  <polygon points="2571.1,-59.7 2868.8,352.3 2793.0,-95.5" fill="rgb(26,128,80)"/>
  <polygon points="2868.8,352.3 2807.6,720.0 2995.9,786.9" fill="rgb(180,105,50)"/>
  <polygon points="2868.8,352.3 2995.9,786.9 3083.2,275.4" fill="rgb(217,138,70)"/>
  <polygon points="2807.6,720.0 2559.4,1136.8 2995.9,786.9" fill="rgb(217,138,70)"/>
  <polygon points="2559.4,1136.8 2745.1,1238.9 2995.9,786.9" fill="rgb(75,166,132)"/>
  <polygon points="2559.4,1136.8 2247.4,1416.6 2357.0,1592.4" fill="rgb(75,166,132)"/>
  <polygon points="2559.4,1136.8 2357.0,1592.4 2745.1,1238.9" fill="rgb(200,75,25)"/>
  <polygon points="2247.4,1416.6 1755.1,1585.5 2357.0,1592.4" fill="rgb(200,75,25)"/>
  <polygon points="1755.1,1585.5 1797.0,1806.8 2357.0,1592.4" fill="rgb(42,46,55)"/>
  <polygon points="1755.1,1585.5 1385.0,1591.6 1366.9,1810.1" fill="rgb(42,46,55)"/>
  <polygon points="1755.1,1585.5 1366.9,1810.1 1797.0,1806.8" fill="rgb(26,128,80)"/>
  <polygon points="1385.0,1591.6 952.1,1439.4 1366.9,1810.1" fill="rgb(26,128,80)"/>
  <polygon points="952.1,1439.4 848.9,1630.7 1366.9,1810.1" fill="rgb(3,56,33)"/>
  <polygon points="952.1,1439.4 604.0,1168.8 445.3,1322.9" fill="rgb(3,56,33)"/>
  <polygon points="952.1,1439.4 445.3,1322.9 848.9,1630.7" fill="rgb(3,69,42)"/>
  <polygon points="604.0,1168.8 387.4,787.7 445.3,1322.9" fill="rgb(3,69,42)"/>
  <polygon points="387.4,787.7 176.5,841.2 445.3,1322.9" fill="rgb(9,97,53)"/>
  <polygon points="387.4,787.7 295.4,289.4 86.6,264.6" fill="rgb(9,97,53)"/>
  <polygon points="387.4,787.7 86.6,264.6 176.5,841.2" fill="rgb(26,128,80)"/>
  <polygon points="295.4,289.4 388.2,-161.7 86.6,264.6" fill="rgb(26,128,80)"/>
  <polygon points="388.2,-161.7 178.7,-207.4 86.6,264.6" fill="rgb(170,65,18)"/>
  <polygon points="388.2,-161.7 571.9,-474.1 416.4,-644.9" fill="rgb(170,65,18)"/>
  <polygon points="388.2,-161.7 416.4,-644.9 178.7,-207.4" fill="rgb(236,99,36)"/>
  <polygon points="571.9,-474.1 899.8,-777.2 416.4,-644.9" fill="rgb(236,99,36)"/>
  <polygon points="899.8,-777.2 845.7,-994.5 416.4,-644.9" fill="rgb(180,105,50)"/>
  <polygon points="899.8,-777.2 1377.0,-958.6 1307.9,-1165.3" fill="rgb(180,105,50)"/>
  <polygon points="899.8,-777.2 1307.9,-1165.3 845.7,-994.5" fill="rgb(217,138,70)"/>
  <polygon points="1377.0,-958.6 1757.3,-954.0 1307.9,-1165.3" fill="rgb(217,138,70)"/>
  <polygon points="1757.3,-954.0 1818.2,-1151.4 1307.9,-1165.3" fill="rgb(75,166,132)"/>
  <polygon points="1757.3,-954.0 2241.8,-784.7 2300.8,-993.0" fill="rgb(75,166,132)"/>
  <polygon points="1757.3,-954.0 2300.8,-993.0 1818.2,-1151.4" fill="rgb(200,75,25)"/>
  <polygon points="2241.8,-784.7 2544.8,-515.5 2300.8,-993.0" fill="rgb(200,75,25)"/>
  <polygon points="2544.8,-515.5 2725.9,-647.4 2300.8,-993.0" fill="rgb(42,46,55)"/>
  <polygon points="2544.8,-515.5 2793.0,-95.5 2985.2,-218.8" fill="rgb(42,46,55)"/>
  <polygon points="2544.8,-515.5 2985.2,-218.8 2725.9,-647.4" fill="rgb(26,128,80)"/>
  <polygon points="2793.0,-95.5 2868.8,352.3 2985.2,-218.8" fill="rgb(26,128,80)"/>
  <polygon points="2868.8,352.3 3083.2,275.4 2985.2,-218.8" fill="rgb(3,56,33)"/>
  <polygon points="0.0,0.0 768.0,0.0 576.0,640.0 0.0,640.0" fill="rgb(250,247,241)"/>
</svg>
